<?xml version="1.0" encoding="utf-8"?>
<!-- Generator: Adobe Illustrator 17.1.0, SVG Export Plug-In . SVG Version: 6.00 Build 0)  -->
<!DOCTYPE svg PUBLIC "-//W3C//DTD SVG 1.1//EN" "http://www.w3.org/Graphics/SVG/1.1/DTD/svg11.dtd">
<svg version="1.1" id="Layer_1" xmlns="http://www.w3.org/2000/svg" xmlns:xlink="http://www.w3.org/1999/xlink" x="0px" y="0px"
	 viewBox="0 0 864 1040.789" enable-background="new 0 0 864 1040.789" xml:space="preserve">
<path fill="#231F20" d="M541.411,519.589l223.724-387.556l-9.076-15.721L535.321,498.533c0-2.22,0-3.762,0-3.762
	c0-47.553-18.485-95.973-56.214-126.232c-41.707-33.426-106.636-38.405-156.49-26.605c-29.366,6.956-59.138,23.736-75.674,51.695
	V48.276h-148.1v726.997h148.1c0,0,0-271.382,0-272.6c0-6.686,22.41-18.026,27.498-20.57c10.934-5.44,22.789-8.932,34.832-10.799
	c18.377-2.869,38.271-3.762,55.89,3.221c19.541,7.741,24.791,23.899,24.791,43.954v231.759l-0.758,1.299L246.176,999.317h18.339
	l135.969-235.6L541.411,519.589z"/>
</svg>
