<?xml version="1.0" encoding="utf-8"?>
<!-- Generator: Adobe Illustrator 18.1.0, SVG Export Plug-In . SVG Version: 6.00 Build 0)  -->
<svg version="1.1" id="Layer_1" xmlns="http://www.w3.org/2000/svg" xmlns:xlink="http://www.w3.org/1999/xlink" x="0px" y="0px"
	 viewBox="5.6 160.1 601.2 631.2" enable-background="new 5.6 160.1 601.2 631.2" xml:space="preserve">
<g>
	<path fill="#FFFFFF" d="M13.7,742c0.4,25,10.6,42,34.3,42c23.7,0,32.7-14.8,32.7-27.4h7.7v0.8c0,14.6-11.9,33.9-40.5,33.9
		c-29.9,0-42.4-23.1-42.4-51v-3.9c0-27.9,12.3-51,41.4-51s41.4,23.1,41.4,51v5.6H13.7z M13.7,734.6h66.6c-0.6-25-11-42-33.3-42
		C24.5,692.7,14.1,709.6,13.7,734.6z"/>
	<path fill="#FFFFFF" d="M171.2,700v-64.7h7.7v125.2l1,28.9h-5.8l-1.9-14.4c-5,8.7-14.6,16.4-30.8,16.4c-27.9,0-39.5-23.1-39.5-51
		v-3.9c0-27.9,11.6-51,39.5-51C156.6,685.3,165.9,692.1,171.2,700z M171.2,710.4c-4.8-7.7-13.3-17.7-28.9-17.7
		c-21.8,0-32.4,17.1-32.4,43.7v3.9c0,26.6,10.6,43.7,32.4,43.7c15.6,0,24.1-10,28.9-17.7V710.4z"/>
	<path fill="#FFFFFF" d="M211.7,659.3h-11.6v-11.6h11.6V659.3z M202.1,687.3h7.7v102.1h-7.7V687.3z"/>
	<path fill="#FFFFFF" d="M288.7,687.3v7.3h-34.7v67.8c0,17.3,7.1,21.6,21.2,21.6c4.6,0,9.8-1,11.6-1.7v7.1
		c-1.3,0.6-5.8,1.9-13.5,1.9c-15.4,0-27-7.7-27-27.9v-68.8H230v-7.3h16.4v-28.9h7.7v28.9H288.7z"/>
	<path fill="#FFFFFF" d="M314.6,659.3H303v-11.6h11.6V659.3z M304.9,687.3h7.7v102.1h-7.7V687.3z"/>
	<path fill="#FFFFFF" d="M330.2,740.2v-3.9c0-27.9,12.3-51,41.4-51c29.1,0,41.4,23.1,41.4,51v3.9c0,27.9-12.3,51-41.4,51
		C342.5,791.3,330.2,768.2,330.2,740.2z M404.9,740.2v-3.9c0-26-10.4-43.7-33.3-43.7c-22.9,0-33.3,17.7-33.3,43.7v3.9
		c0,26,10.4,43.7,33.3,43.7C394.5,784,404.9,766.2,404.9,740.2z"/>
	<path fill="#FFFFFF" d="M492,789.4v-71.3c0-18.3-10.6-25.4-25-25.4c-18.3,0-27,10-31.8,17.7v79h-7.7v-73.2l-1-28.9h5.8l1.7,15
		c5.6-8.9,16.6-17,34.9-17c19.3,0,30.8,12.5,30.8,31.8v72.2H492z"/>
	<path fill="#FFFFFF" d="M544.5,697.7c6.4-7.5,16.4-12.9,30.8-12.9c22.3,0,31.4,16.2,31.4,34.7v69.9h-24.8v-65.9
		c0-9.8-4.8-17-16.2-17c-11.8,0-18.3,6.9-21.2,11.8v71.1h-25V635.3h25V697.7z"/>
</g>
<g>
	<path fill="#FFFFFF" d="M346.3,402.8c0-7.4-1.9-13.4-9.2-16.2c-6.5-2.6-13.9-2.2-20.6-1.2c-4.5,0.7-8.8,2-12.9,4
		c-1.9,0.9-10.2,5.1-10.2,7.6c0,0.5,0,100.7,0,100.7h-54.7V229.1h54.7v127.6c6.1-10.3,17.1-16.5,28-19.1c18.4-4.4,42.4-2.5,57.8,9.8
		c13.9,11.2,20.8,29.1,20.8,46.6v1.4l81.6-141.2l-44.3-76.7c-6.2-10.8-17.7-17.4-30.2-17.4H204.6c-12.5,0-24,6.6-30.2,17.4
		L73.2,352.9c-6.2,10.8-6.2,24.1,0,34.9l101.2,175.3c6.2,10.8,17.7,17.4,30.2,17.4h88.6l53.1-92V402.8z"/>
	<path fill="#FFFFFF" d="M538.5,352.9l-53.6-92.8l-82.7,143.2l-52.1,90.2l-50.2,87.1H407c12.5,0,24-6.6,30.2-17.4l101.2-175.3
		C544.7,376.9,544.7,363.7,538.5,352.9z"/>
</g>
</svg>
