<?xml version="1.0" encoding="utf-8"?>
<!-- Generator: Adobe Illustrator 18.1.0, SVG Export Plug-In . SVG Version: 6.00 Build 0)  -->
<svg version="1.1" id="Layer_1" xmlns="http://www.w3.org/2000/svg" xmlns:xlink="http://www.w3.org/1999/xlink" x="0px" y="0px"
	 viewBox="74 88.8 472 673.6" enable-background="new 74 88.8 472 673.6" xml:space="preserve">
<path fill="#3A3A3A" d="M387.5,422.6L546,148.1l-6.4-11.1L383.2,407.7c0-1.6,0-2.7,0-2.7c0-33.7-13.1-68-39.8-89.4
	c-29.5-23.7-75.5-27.2-110.8-18.8c-20.8,4.9-41.9,16.8-53.6,36.6V88.8H74v515h104.9c0,0,0-192.2,0-193.1c0-4.7,15.9-12.8,19.5-14.6
	c7.7-3.9,16.1-6.3,24.7-7.6c13-2,27.1-2.7,39.6,2.3c13.8,5.5,17.6,16.9,17.6,31.1v164.2l-0.5,0.9L178.4,762.4h13l96.3-166.9
	L387.5,422.6z"/>
</svg>
