<?xml version="1.0" encoding="utf-8"?>
<!-- Generator: Adobe Illustrator 18.1.0, SVG Export Plug-In . SVG Version: 6.00 Build 0)  -->
<svg version="1.1" id="Layer_1" xmlns="http://www.w3.org/2000/svg" xmlns:xlink="http://www.w3.org/1999/xlink" x="0px" y="0px"
	 viewBox="99 249 411 419" enable-background="new 99 249 411 419" xml:space="preserve">
<g>
	<g>
		<defs>
			<rect id="SVGID_1_" x="27.5" y="189.5" width="557" height="557"/>
		</defs>
		<clipPath id="SVGID_2_">
			<use xlink:href="#SVGID_1_"  overflow="visible"/>
		</clipPath>
		<g clip-path="url(#SVGID_2_)">
			<text transform="matrix(1 0 0 1 106.4072 658.5705)" fill="#3A3A3A" font-family="'CooperHewitt-Light'" font-size="121.6429">e</text>
		</g>
		<g clip-path="url(#SVGID_2_)">
			<text transform="matrix(1 0 0 1 167.2285 658.5705)" fill="#3A3A3A" font-family="'CooperHewitt-Light'" font-size="121.6429">d</text>
		</g>
		<g clip-path="url(#SVGID_2_)">
			<text transform="matrix(1 0 0 1 227.4414 658.5705)" fill="#3A3A3A" font-family="'CooperHewitt-Light'" font-size="121.6429">i</text>
		</g>
		<g clip-path="url(#SVGID_2_)">
			<text transform="matrix(1 0 0 1 250.5537 658.5705)" fill="#3A3A3A" font-family="'CooperHewitt-Light'" font-size="121.6429">t</text>
		</g>
		<g clip-path="url(#SVGID_2_)">
			<text transform="matrix(1 0 0 1 292.3984 658.5705)" fill="#3A3A3A" font-family="'CooperHewitt-Light'" font-size="121.6429">i</text>
		</g>
		<g clip-path="url(#SVGID_2_)">
			<text transform="matrix(1 0 0 1 311.375 658.5705)" fill="#3A3A3A" font-family="'CooperHewitt-Light'" font-size="121.6429">o</text>
		</g>
		<g clip-path="url(#SVGID_2_)">
			<text transform="matrix(1 0 0 1 370.9805 658.5705)" fill="#3A3A3A" font-family="'CooperHewitt-Light'" font-size="121.6429">n</text>
		</g>
		<g clip-path="url(#SVGID_2_)">
			
				<text transform="matrix(1 0 0 1 430.5859 658.5705)" fill="#10838C" font-family="'CooperHewitt-Semibold'" font-size="121.6429">h</text>
		</g>
		<g clip-path="url(#SVGID_2_)">
			<defs>
				<rect id="SVGID_3_" x="27.5" y="189.5" width="557" height="557"/>
			</defs>
			<clipPath id="SVGID_4_">
				<use xlink:href="#SVGID_3_"  overflow="visible"/>
			</clipPath>
			<path clip-path="url(#SVGID_4_)" fill="#10838C" d="M219.7,515.7l-63.9-110.7c-3.9-6.8-3.9-15.2,0-22l63.9-110.7
				c3.9-6.8,11.2-11,19.1-11h127.8c7.9,0,15.1,4.2,19.1,11l63.9,110.7c3.9,6.8,3.9,15.2,0,22l-63.9,110.7c-3.9,6.8-11.2,11-19.1,11
				H238.8C230.9,526.7,223.6,522.5,219.7,515.7"/>
			<path clip-path="url(#SVGID_4_)" fill="#FFFFFF" d="M362.2,408.9c0-11.1-4.3-22.4-13.1-29.5c-9.7-7.8-24.9-9-36.5-6.2
				c-6.9,1.6-13.8,5.5-17.7,12.1v-80.6h-34.6v169.6h34.6c0,0,0-63.3,0-63.6c0-1.6,5.2-4.2,6.4-4.8c2.5-1.3,5.3-2.1,8.1-2.5
				c4.3-0.7,8.9-0.9,13,0.8c4.6,1.8,5.8,5.6,5.8,10.3v58l33.9-58.8V408.9z"/>
			<polygon clip-path="url(#SVGID_4_)" fill="#FFFFFF" points="428.3,300.7 362.8,414.3 329.9,471.2 271.2,572.9 269.6,572 
				328.9,469.3 362.8,410.6 426.2,300.7 			"/>
			<polygon clip-path="url(#SVGID_4_)" fill="none" stroke="#FFFFFF" stroke-width="2.919" stroke-miterlimit="10" points="
				428.3,300.7 362.8,414.3 329.9,471.2 271.2,572.9 269.6,572 328.9,469.3 362.8,410.6 426.2,300.7 			"/>
		</g>
	</g>
</g>
</svg>
