<?xml version="1.0" encoding="utf-8"?>
<!-- Generator: Adobe Illustrator 18.1.0, SVG Export Plug-In . SVG Version: 6.00 Build 0)  -->
<svg version="1.1" id="Layer_1" xmlns="http://www.w3.org/2000/svg" xmlns:xlink="http://www.w3.org/1999/xlink" x="0px" y="0px"
	 viewBox="0 0 1000 700" enable-background="new 0 0 1000 700" xml:space="preserve">
<g>
	<path fill="#282965" d="M260.7,563.6c0,0.8-0.6,1.4-1.4,1.4h-8.8c-0.8,0-1.4-0.6-1.4-1.4V521c0-0.8,0.6-1.4,1.4-1.4h8.9
		c0.8,0,1.6,0.5,2,1.2l11.9,23.8c0.2,0.5,0.8,0.5,1,0l12-23.8c0.4-0.7,1.2-1.2,2-1.2h8.9c0.8,0,1.4,0.6,1.4,1.4v42.7
		c0,0.8-0.6,1.4-1.4,1.4h-8.8c-0.8,0-1.4-0.6-1.4-1.4v-20.7c0-0.3-0.4-0.4-0.5-0.1l-8.3,16.6c-0.4,0.7-1.2,1.2-2,1.2h-4.8
		c-0.8,0-1.6-0.5-2-1.2l-8.3-16.6c-0.1-0.3-0.5-0.2-0.5,0.1V563.6z"/>
	<path fill="#282965" d="M303.6,542.3c0-13,11-23.6,24.1-23.6c13.3,0,24.1,10.6,24.1,23.6c0,13-10.8,23.6-24.1,23.6
		C314.6,565.9,303.6,555.3,303.6,542.3z M315.4,542.3c0,6.9,5.5,12.4,12.4,12.4c7,0,12.4-5.5,12.4-12.4c0-6.9-5.4-12.4-12.4-12.4
		C320.9,529.9,315.4,535.4,315.4,542.3z"/>
	<path fill="#282965" d="M368.3,563.6c0,0.8-0.6,1.4-1.4,1.4h-8.8c-0.8,0-1.4-0.6-1.4-1.4V521c0-0.8,0.6-1.4,1.4-1.4h8.9
		c0.8,0,1.6,0.5,2,1.2l11.9,23.8c0.2,0.5,0.8,0.5,1,0l12-23.8c0.4-0.7,1.2-1.2,2-1.2h8.9c0.8,0,1.4,0.6,1.4,1.4v42.7
		c0,0.8-0.6,1.4-1.4,1.4h-8.8c-0.8,0-1.4-0.6-1.4-1.4v-20.7c0-0.3-0.4-0.4-0.5-0.1l-8.3,16.6c-0.4,0.7-1.2,1.2-2,1.2h-4.8
		c-0.8,0-1.6-0.5-2-1.2l-8.3-16.6c-0.1-0.3-0.5-0.2-0.5,0.1V563.6z"/>
	<path fill="#282965" d="M423.5,563.6c0,0.8-0.6,1.4-1.4,1.4h-8.8c-0.8,0-1.4-0.6-1.4-1.4V521c0-0.8,0.6-1.4,1.4-1.4h8.9
		c0.8,0,1.6,0.5,2,1.2l11.9,23.8c0.2,0.5,0.8,0.5,1,0l12-23.8c0.4-0.7,1.2-1.2,2-1.2h8.9c0.8,0,1.4,0.6,1.4,1.4v42.7
		c0,0.8-0.6,1.4-1.4,1.4h-8.8c-0.8,0-1.4-0.6-1.4-1.4v-20.7c0-0.3-0.4-0.4-0.5-0.1l-8.3,16.6c-0.4,0.7-1.2,1.2-2,1.2h-4.8
		c-0.8,0-1.6-0.5-2-1.2l-8.3-16.6c-0.1-0.3-0.5-0.2-0.5,0.1V563.6z"/>
	<path fill="#282965" d="M477.4,519.6c0.9,0,1.7,0.5,2.1,1.2l8.7,14.3c0.2,0.5,0.9,0.5,1.2,0l8.7-14.3c0.5-0.7,1.3-1.2,2.2-1.2h11
		c0.6,0,1,0.6,0.6,1.2l-16.6,26.6c-0.4,0.6-0.6,1.5-0.6,2.2v14.1c0,0.8-0.6,1.4-1.4,1.4h-8.8c-0.8,0-1.4-0.6-1.4-1.4v-14.1
		c0-0.7-0.2-1.6-0.6-2.2l-16.5-26.6c-0.3-0.5,0-1.2,0.6-1.2H477.4z"/>
	<path fill="#282965" d="M520.3,541.8c-0.5,0.5-1.5,0.5-2-0.1l-2.5-2.4c-0.6-0.5-0.6-1.5-0.1-2c1-1.2,2-2.4,2.7-3.5
		c0.3-0.5,0.2-1.4-0.2-1.8c-1.1-1-2.9-2.9-2.9-5.9c0-4,3.3-7.3,7.3-7.3c3.8,0,7.3,3,7.3,7.9C530,531.1,526.3,536.1,520.3,541.8z"/>
	<path fill="#282965" d="M532.9,553c-0.1-0.8,0.7-1.6,1.5-1.6h7.9c1.3,0,1.6,0.3,2.3,1.5c0.8,1.5,3.2,2.9,7.3,2.9
		c4.4,0,5.8-1.5,5.8-2.8c0-1.9-2.3-3.1-7.8-5c-7.2-2.4-16.7-5.9-16.7-15.3c0-8.7,7.4-14.1,17.8-14.1c10.6,0,18,5.5,18.6,13.7
		c0.1,0.8-0.7,1.6-1.5,1.6H560c-1.1,0-1.6-0.5-2-1.6c-0.7-1.9-2.9-3.7-6.8-3.7c-4,0-5.5,1.6-5.5,3.1c0,1.8,2.1,2.7,7.5,4.6
		c6.3,2.2,17,5.9,17,15.9c0,8.9-7.7,13.5-18.1,13.5C541.9,565.9,533.8,561.3,532.9,553z"/>
	<path fill="#282460" stroke="#282460" stroke-width="1.7255" stroke-miterlimit="10" d="M253.1,629.6c-0.6,0-1-0.5-1-1v-43.4
		c0-0.6,0.5-1,1-1h1.3c0.6,0,1,0.5,1,1v40.2c0,0.5,0.3,0.8,0.8,0.8h24.4c0.6,0,1,0.5,1,1v1.3c0,0.6-0.5,1-1,1H253.1z"/>
	<path fill="#282460" stroke="#282460" stroke-width="1.7255" stroke-miterlimit="10" d="M310.1,585.2c0-0.6,0.5-1,1-1h1.3
		c0.6,0,1,0.5,1,1v43.4c0,0.6-0.5,1-1,1h-1.3c-0.6,0-1-0.5-1-1V585.2z"/>
	<path fill="#282460" stroke="#282460" stroke-width="1.7255" stroke-miterlimit="10" d="M345.6,587.6c-0.6,0-1-0.5-1-1v-1.3
		c0-0.6,0.5-1,1-1h34.1c0.6,0,1,0.5,1,1v1.3c0,0.6-0.5,1-1,1h-14.6c-0.5,0-0.8,0.3-0.8,0.8v40.2c0,0.6-0.5,1-1,1H362
		c-0.6,0-1-0.5-1-1v-40.2c0-0.5-0.3-0.8-0.8-0.8H345.6z"/>
	<path fill="#282460" stroke="#282460" stroke-width="1.7255" stroke-miterlimit="10" d="M410,587.6c-0.6,0-1-0.5-1-1v-1.3
		c0-0.6,0.5-1,1-1h34.1c0.6,0,1,0.5,1,1v1.3c0,0.6-0.5,1-1,1h-14.6c-0.5,0-0.8,0.3-0.8,0.8v40.2c0,0.6-0.5,1-1,1h-1.3
		c-0.6,0-1-0.5-1-1v-40.2c0-0.5-0.3-0.8-0.8-0.8H410z"/>
	<path fill="#282460" stroke="#282460" stroke-width="1.7255" stroke-miterlimit="10" d="M477.3,629.6c-0.6,0-1-0.5-1-1v-43.4
		c0-0.6,0.5-1,1-1h1.3c0.6,0,1,0.5,1,1v40.2c0,0.5,0.3,0.8,0.8,0.8H505c0.6,0,1,0.5,1,1v1.3c0,0.6-0.5,1-1,1H477.3z"/>
	<path fill="#282460" stroke="#282460" stroke-width="1.7255" stroke-miterlimit="10" d="M538.2,629.6c-0.6,0-1-0.5-1-1v-43.4
		c0-0.6,0.5-1,1-1h29.1c0.6,0,1,0.5,1,1v1.3c0,0.6-0.5,1-1,1h-25.9c-0.5,0-0.8,0.3-0.8,0.8v16.5c0,0.5,0.3,0.8,0.8,0.8h21.8
		c0.6,0,1,0.5,1,1v1.2c0,0.6-0.5,1-1,1h-21.8c-0.5,0-0.8,0.3-0.8,0.8v15.7c0,0.5,0.3,0.8,0.8,0.8h25.9c0.6,0,1,0.5,1,1v1.3
		c0,0.6-0.5,1-1,1H538.2z"/>
	<path fill="#282965" d="M260.7,692.9c0,0.8-0.6,1.4-1.4,1.4h-8.8c-0.8,0-1.4-0.6-1.4-1.4v-42.7c0-0.8,0.6-1.4,1.4-1.4h8.9
		c0.8,0,1.6,0.5,2,1.2l11.9,23.8c0.2,0.5,0.8,0.5,1,0l12-23.8c0.4-0.7,1.2-1.2,2-1.2h8.9c0.8,0,1.4,0.6,1.4,1.4v42.7
		c0,0.8-0.6,1.4-1.4,1.4h-8.8c-0.8,0-1.4-0.6-1.4-1.4v-20.7c0-0.3-0.4-0.4-0.5-0.1l-8.3,16.6c-0.4,0.7-1.2,1.2-2,1.2h-4.8
		c-0.8,0-1.6-0.5-2-1.2l-8.3-16.6c-0.1-0.3-0.5-0.2-0.5,0.1V692.9z"/>
	<path fill="#282965" d="M303.6,671.6c0-13,11-23.6,24.1-23.6c13.3,0,24.1,10.6,24.1,23.6s-10.8,23.6-24.1,23.6
		C314.6,695.2,303.6,684.5,303.6,671.6z M315.4,671.6c0,6.9,5.5,12.4,12.4,12.4c7,0,12.4-5.5,12.4-12.4s-5.4-12.4-12.4-12.4
		C320.9,659.2,315.4,664.7,315.4,671.6z"/>
	<path fill="#282965" d="M368.7,692.9c0,0.8-0.6,1.4-1.4,1.4h-8.8c-0.8,0-1.4-0.6-1.4-1.4v-42.7c0-0.8,0.6-1.4,1.4-1.4h7.1
		c0.9,0,1.7,0.4,2.3,1.1l18.7,23.4c0.2,0.3,0.7,0.2,0.7-0.2v-22.8c0-0.8,0.6-1.4,1.4-1.4h8.8c0.8,0,1.4,0.6,1.4,1.4v42.7
		c0,0.8-0.6,1.4-1.4,1.4h-7.1c-0.9,0-1.7-0.4-2.3-1.1l-18.7-23.3c-0.2-0.3-0.7-0.2-0.7,0.2V692.9z"/>
	<path fill="#282965" d="M404.4,682.3c-0.1-0.8,0.7-1.6,1.5-1.6h7.9c1.3,0,1.6,0.3,2.3,1.5c0.8,1.5,3.2,2.9,7.3,2.9
		c4.4,0,5.8-1.5,5.8-2.8c0-1.9-2.3-3.1-7.8-5c-7.2-2.4-16.7-5.9-16.7-15.3c0-8.7,7.4-14.1,17.8-14.1c10.6,0,18,5.5,18.6,13.7
		c0.1,0.8-0.7,1.6-1.5,1.6h-8.1c-1.1,0-1.6-0.5-2-1.6c-0.7-1.9-2.9-3.7-6.8-3.7c-4,0-5.5,1.6-5.5,3.1c0,1.8,2.1,2.7,7.5,4.6
		c6.3,2.2,17,5.9,17,15.9c0,8.9-7.7,13.5-18.1,13.5C413.3,695.2,405.2,690.6,404.4,682.3z"/>
	<path fill="#282965" d="M446.6,660.1c-0.8,0-1.4-0.6-1.4-1.4v-8.5c0-0.8,0.6-1.4,1.4-1.4h37.2c0.8,0,1.4,0.6,1.4,1.4v8.5
		c0,0.8-0.6,1.4-1.4,1.4h-11.6c-0.6,0-1.2,0.5-1.2,1.2v31.6c0,0.8-0.6,1.4-1.4,1.4h-8.9c-0.8,0-1.4-0.6-1.4-1.4v-31.6
		c0-0.6-0.5-1.2-1.2-1.2H446.6z"/>
	<path fill="#282965" d="M492,694.3c-0.8,0-1.4-0.6-1.4-1.4v-42.7c0-0.8,0.6-1.4,1.4-1.4h32.1c0.8,0,1.4,0.6,1.4,1.4v8.5
		c0,0.8-0.6,1.4-1.4,1.4h-20.7c-0.6,0-1.2,0.5-1.2,1.2v4.2c0,0.6,0.5,1.2,1.2,1.2h16.5c0.8,0,1.4,0.6,1.4,1.4v7.7
		c0,0.8-0.6,1.4-1.4,1.4h-16.5c-0.6,0-1.2,0.5-1.2,1.2v3.5c0,0.6,0.5,1.2,1.2,1.2h20.7c0.8,0,1.4,0.6,1.4,1.4v8.4
		c0,0.8-0.6,1.4-1.4,1.4H492z"/>
	<path fill="#282965" d="M532.3,650.2c0-0.8,0.6-1.4,1.4-1.4h20.8c11.7,0,17,7.6,17,16.6c0,6-2.5,11.6-7.9,14.6
		c-0.6,0.3-0.7,1-0.3,1.5l8.3,11.6c0.3,0.5,0,1.2-0.6,1.2h-11.1c-0.9,0-1.7-0.5-2.2-1.2l-7.1-10.1c-0.4-0.6-1.2-0.9-1.9-0.9h-3.6
		c-0.6,0-1.2,0.5-1.2,1.2v9.6c0,0.8-0.6,1.4-1.4,1.4h-8.8c-0.8,0-1.4-0.6-1.4-1.4V650.2z M553.9,659.4h-8.8c-0.6,0-1.2,0.5-1.2,1.2
		v9.8c0,0.6,0.5,1.2,1.2,1.2h8.8c4.7,0,6.4-2.9,6.4-6C560.3,662.1,558.5,659.4,553.9,659.4z"/>
</g>
<polygon fill="#C1D9E8" points="550.4,409.5 542,433.6 287,433.6 268.4,407.5 243.1,395.4 243.1,103.4 578.4,103.4 578.4,378.7 "/>
<polygon fill="none" stroke="#FFFFFF" stroke-width="1.7005" stroke-miterlimit="10" stroke-dasharray="17.0054,17.0054" points="
	532.9,394 525.6,415.3 300.1,415.3 283.7,392.3 261.3,381.5 261.3,123.4 557.7,123.4 557.7,366.8 "/>
<path fill="#9569AC" d="M531.4,451.8c5.6,3.5,4.3,20.1,4.3,20.1c10.7-9.8,8.8-22.7,8.8-22.7c10.1,2.4,4,24.5,4,24.5
	c20.1-17.9,6.2-37.6,6.2-37.6c21.6,4.3,27.6-6.8,27.6-6.8c-17.9,2.1-16.4-12.8-16.4-12.8c7.1,3.8,12.3,0,12.3,0
	c-8.8-6.8-1-39.2-1-39.2c10.3,4.4,7.2,22.5,7.2,22.5c9.4-20.1-6.3-35.9-6.3-35.9c9.5-0.9,15.2,18.4,15.2,18.4
	c2.1-27.8-16.6-38.5-16.6-38.5c19.7,10.6,28.1-9.7,28.1-9.7c-23.9,10.3-36.6-17.4-36.6-17.4c11.7-2,16.9,3.7,16.9,3.7
	c-6.8-14.5-23.8-14.5-23.8-14.5c8.2-7.7,21.3,0,21.3,0c-10.3-17.1-30.2-9.6-30.2-9.6c16.4-5.7,15.9-28.2,15.9-28.2
	c-5.8,20.5-38.4,13.9-38.4,13.9c0.4-8.3,15.3-12.9,15.3-12.9c-13.8-2.2-28.1,8.4-28.1,8.4c8.1-5.4,3.2-12.5,3.2-12.5
	c0,9.8-16.9,8.7-16.9,8.7l-8.7-2.4c14.4,4.8,17.7-2.1,17.7-2.1c-10-5.1-7.5-14.2-7.5-14.2c3.4,5.6,6.5,5.5,6.5,5.5
	c-3.4-5.7-0.7-22.6-0.7-22.6c7.4,2.6,4.4,12.8,4.4,12.8c7.6-10-0.6-35.8-0.6-35.8c8.7,6,8.8,23,8.8,23c9-24.3-8.2-36.2-8.2-36.2
	c13.6,10.9,17.2-6.6,17.2-6.6c-13.2,7.3-18.8-15.7-18.8-15.7c6.4-3.7,11.1,6,11.1,6c-2.6-23.7-14.7-23-14.7-23
	c13.5-5.3,22.4,11.7,22.4,11.7C526.7,140.4,503,143,503,143c4.1-7.7,15.4-4.3,15.4-4.3c-8.7-11.1-22.7-10-22.7-10
	c8.8-0.1,8.8-8,8.8-8c-9.8,3.4-17.7-5.2-17.7-5.2c10.8-9.9,23.1,0,23.1,0c-9.3-20.8-33.5-11.7-33.5-11.7
	c8.2-17.1,23.5-13.6,23.5-13.6c-20.8-16.3-42.5-2.1-42.5-2.1c0.5-1.7,1.4-3.3,2.5-4.8c6-8.1,18.9-13,18.9-13
	c-23.1-2.6-30.2,12.9-30.2,12.9c-2-9.3,8.8-17.2,8.8-17.2c-11.5,0.4-17.3,13.5-17.3,13.5C435.6,66.8,452,51.9,452,51.9
	c-14.1,3.6-20.9,22-21.6,24.3c18.8-59.2-22.2-64.1-22.2-64.1c30.8,14.7,8.4,61.5,8.4,61.5c5.9-26.9-17.8-32.7-17.8-32.7
	c14.4,19.9,0,33.1,0,33.1s-11.5-11.2-2.9-21c0,0-13.4,6.6-8,22.7c0,0-21.9-16.3-8.7-39.8c0,0-24.2,16.3-10.6,46.4
	c0,0-16.7,3.6-27.6-11.4c0,0-2.3,5.3,1,12.2c1.5,3.1,4.1,6.4,8.6,9.8c0,0-22.2-14.7-40.6,8.4c0,0,22.9-7.9,27.9,3.6
	c0,0-19.1,14.4-37.4,9.3c0,0,9.2,10.8,23.2,8.2c0,0-13.7,1.4-15.4,12.8c0,0,6.2-5,9.1-2.3c0,0-7.9,13.8-22.4,11.7
	c0,0,5.5,10.2,13.2,9.4c0,0-22.2,3.9-24.7,33.3c0,0,10.9-15.7,20-15.7c0,0-15.7,10.9-12.3,30c0,0,5.3-15.6,10.1-16.2
	c0,0-1.2,28-11,30.6c0,0,4,7.3,10.1,4.7c0,0-20,13.7-17,32.5c0,0,8.3-17,20.8-17.7c0,0,0,15.1-9.3,21.5c0,0,5,1.7,14.5-4.5
	c0,0,3.3,14.7-9,14.7c0,0,6.4,5.8,19.7,4c0,0-14.9,7.8-33.7-4.4c0,0-1.4,8.6,8.5,11.6c0,0-19.2,2.1-28.1-14.5
	c0,0-3.6,16.3,12.1,21.2c0,0-30-11.4-46.2,14.7c0,0,20.6-11.9,27.2-0.6c0,0-25,4.5-27.2,20.3c0,0,8.4-6.9,15.7-5.2
	c0,0-12.3,26.7-31.1,41.8c0,0,15.7-0.7,20-7.1c0,0-25.6,12.8-20,47c0,0,8-22.6,20-22.2c0,0,2.2,12.4-6.8,22.2c0,0,6.5,0.4,9.9-6.8
	c0,0,2.1,14.6-6.4,24.5c0,0,10.4,2.4,13.6-2c0,0-15.3,23.7-10.2,46.8c0,0,3.7-24,20.6-26.5c0,0-9.5,28.6,6.3,40.2
	c0,0-4.8-18.1,5.1-24.6c0,0,2.8,14.5,19.2,14.6c0,0-3.4-19.1,6.4-25.3h219.9L531.4,451.8z"/>
<path fill="none" stroke="#221F1F" stroke-width="0.8503" stroke-miterlimit="10" d="M344.9,101.5"/>
<path fill="#282965" d="M401.8,361.3c0,0-3.9,13.2,6.6,14c0,0-5.2,4.7-13.2,1.3c0,0,8.1,12.8-1.8,33.1c0,0,0.8-17.3-2.2-24.4
	c0,0,2.8,11.5-3.2,17.7c0,0,2.1-5.1-1.4-8c0,0-8.3,13-2.9,27.2c0,0-5.2,0-7.5-6.3c0,0,2,34.3-7.9,43.5c0,0,3.6-18.8-0.4-23
	c0,0-4.7,8.5-2.3,19.6c0,0-7.7-3.2-5.6-11.3c0,0-10.3,15.2-3,32.2c0,0-10.5-1-9.4-13.6c0,0-4.2,8.5-1.7,13.6c0,0-3.1-1-3.6-6.4
	c-15.4,22.2-42.6,2.5-42.6,2.5c-32.4-16.6,6.5-62,6.5-62c-5.8,2.5-9.6-1.8-9.6-1.8c8.2,0,15-14.5,15-14.5c-8.2-3.3-18.4,6-18.4,6
	c8-21.4,24.3-18.5,24.3-18.5c-9,1.9-11.8-4.9-11.8-4.9c9.9,1.3,23.9-14.4,23.9-14.4c-4.6-1.2-10.8,1.2-10.8,1.2
	c3.8-10.3,18.4-10.8,18.4-10.8c-6.2-5.3-16.2,1.2-16.2,1.2c5.8-13.8,24.2-10,24.2-10c-3.6-0.2-5.1-5.5-5.1-5.5
	c6.6,2.1,16.4-4.9,16.4-4.9c-6.1-5-18.3-2.1-18.3-2.1c10.3-14.4,25.1-3.8,25.1-3.8c-62.1-45.6-53.7-77.7-53.7-77.7
	s9.8,23.7,30.6,36.5c0,0-22.1-18.6-14.1-56.1c0,0,1,37.5,27.2,50c0,0-11.5-12.8-5.4-38.4c0,0,3.4,20.9,12.2,29.2
	c9.9,9.3,17.7,15.4,24.7,20.2c0,0,6.7,4.6,6.7,4.6c5,3.4,10.6,8.2,13.5,13.7c3.4,6.4,4.2,14,4.1,21.2
	C409.3,341.7,404.6,351.5,401.8,361.3z"/>
<path fill="none" stroke="#434244" stroke-width="0.8503" stroke-miterlimit="10" d="M385.9,400.7"/>
<path fill="#282965" d="M478.3,470c-5,2.7-1.4,16-1.4,16C459,475.8,465,451.1,465,451.1c-8.4,4.9-6,16.5-6,16.5
	c-9.9-6.7-1.1-28.1-1.1-28.1c-3.7,8.4-9.8,7.6-9.8,7.6c3.8-12.2-2.5-26.3-1.1-27c-3-0.1-4,9.1-4,9.1c-6.1-7.3-2.2-21.2-2.2-21.2
	c-10.5,6.1-6.8,25-6.8,25c-14.7-20.8-1-41-1-41c-4.2,6.1-11.2,2.9-11.2,2.9c6.4-0.2,5.9-14.3,5.9-14.3
	c-10.4,1.7-13.1,17.8-13.1,17.8c-7.5-17.6,6.6-32.7,6.6-32.7c-8.7,6-13.4,1.6-13.4,1.6c9.2-9.2,5.6-25.6,5.6-25.6
	c-5.6-42.7,14.2-36.9,47.5-70c9.2-9.2,12.2-29.2,12.2-29.2c6.2,23.7-5.4,38.4-5.4,38.4c27.1-15.1,27.2-50,27.2-50
	c8.2,37.5-14.1,56.1-14.1,56.1c23.5-14.7,30.3-37.8,30.3-37.8s11.8,29.6-53.4,79c0,0,14.2,9.3,27.7-2.1c0,0-0.4,11.6-12.5,15.5
	c0,0,5.5-3.2,14.4,0c0,0-7.2-0.6-8.9,5.6c0,0,14.3,10.7,22.7-2.8c0,0,0,10.7-12.8,14.2c0,0,14.4-5.2,30.8,8.6c0,0-16.7-4.5-23.5,1.4
	c0,0,11.4-0.4,17.8,9.2c0,0-7.9-5-11.3,1.3c0,0,18.7,0.6,19,22.4c0,0-4-8.6-10.7-4.8c0,0,4.3,9.9,10.7,12.1c0,0-1.4,2.6-6.6,0
	c0,0,7.3,15.1,22,8.7c0,0,0,9.6-11.9,8.3c0.4,0,1.6,2.4,1.8,2.7c1.4,2.3,2.8,4.7,4,7.1c3,6.1,5.7,13.1,5.3,20.1
	c-0.5,8.5-7.9,13.5-14.5,17.6c-5.8,3.6-12.4,6.6-19.3,7.4C492,482.1,483.7,477.9,478.3,470z"/>
<polygon fill="#FFFFFF" points="377.5,235.8 392,213.6 396.2,245.7 "/>
<path fill="none" stroke="#FFFFFF" stroke-width="3.4011" stroke-linecap="round" stroke-miterlimit="10" d="M372.7,231.7
	c0,0,35.6,36.7,75.6,0"/>
<g>
	<circle fill="#FFFFFF" cx="372.7" cy="164.2" r="28.9"/>
</g>
<circle fill="#FFFFFF" cx="448.3" cy="164.2" r="28.9"/>
<circle fill="#282460" cx="448.3" cy="164.2" r="13.2"/>
<circle fill="#282460" cx="372.7" cy="164.2" r="13.2"/>
<polygon fill="#FFFFFF" points="444.4,235.8 429.9,213.6 425.7,245.7 "/>
<g>
	<path fill="#282965" d="M680.3,655.6c0,0.2-0.2,0.4-0.4,0.4h-2.6c-0.2,0-0.4-0.2-0.4-0.4v-12.8c0-0.2,0.2-0.4,0.4-0.4h2.7
		c0.2,0,0.5,0.2,0.6,0.4l3.6,7.2c0.1,0.1,0.2,0.1,0.3,0l3.6-7.2c0.1-0.2,0.4-0.4,0.6-0.4h2.7c0.2,0,0.4,0.2,0.4,0.4v12.8
		c0,0.2-0.2,0.4-0.4,0.4h-2.6c-0.2,0-0.4-0.2-0.4-0.4v-6.2c0-0.1-0.1-0.1-0.2,0l-2.5,5c-0.1,0.2-0.4,0.4-0.6,0.4h-1.5
		c-0.2,0-0.5-0.2-0.6-0.4l-2.5-5c0-0.1-0.2-0.1-0.2,0V655.6z"/>
	<path fill="#282965" d="M693.3,649.2c0-3.9,3.3-7.1,7.3-7.1c4,0,7.3,3.2,7.3,7.1s-3.3,7.1-7.3,7.1
		C696.6,656.3,693.3,653.1,693.3,649.2z M696.8,649.2c0,2.1,1.7,3.7,3.7,3.7c2.1,0,3.7-1.6,3.7-3.7c0-2.1-1.6-3.7-3.7-3.7
		C698.5,645.4,696.8,647.1,696.8,649.2z"/>
	<path fill="#282965" d="M712.7,655.6c0,0.2-0.2,0.4-0.4,0.4h-2.6c-0.2,0-0.4-0.2-0.4-0.4v-12.8c0-0.2,0.2-0.4,0.4-0.4h2.7
		c0.2,0,0.5,0.2,0.6,0.4l3.6,7.2c0.1,0.1,0.2,0.1,0.3,0l3.6-7.2c0.1-0.2,0.4-0.4,0.6-0.4h2.7c0.2,0,0.4,0.2,0.4,0.4v12.8
		c0,0.2-0.2,0.4-0.4,0.4h-2.6c-0.2,0-0.4-0.2-0.4-0.4v-6.2c0-0.1-0.1-0.1-0.2,0l-2.5,5c-0.1,0.2-0.4,0.4-0.6,0.4H716
		c-0.2,0-0.5-0.2-0.6-0.4l-2.5-5c0-0.1-0.2-0.1-0.2,0V655.6z"/>
	<path fill="#282965" d="M729.3,655.6c0,0.2-0.2,0.4-0.4,0.4h-2.6c-0.2,0-0.4-0.2-0.4-0.4v-12.8c0-0.2,0.2-0.4,0.4-0.4h2.7
		c0.2,0,0.5,0.2,0.6,0.4l3.6,7.2c0.1,0.1,0.2,0.1,0.3,0l3.6-7.2c0.1-0.2,0.4-0.4,0.6-0.4h2.7c0.2,0,0.4,0.2,0.4,0.4v12.8
		c0,0.2-0.2,0.4-0.4,0.4h-2.6c-0.2,0-0.4-0.2-0.4-0.4v-6.2c0-0.1-0.1-0.1-0.2,0l-2.5,5c-0.1,0.2-0.4,0.4-0.6,0.4h-1.5
		c-0.2,0-0.5-0.2-0.6-0.4l-2.5-5c0-0.1-0.2-0.1-0.2,0V655.6z"/>
	<path fill="#282965" d="M745.5,642.3c0.3,0,0.5,0.1,0.6,0.4l2.6,4.3c0.1,0.1,0.3,0.1,0.4,0l2.6-4.3c0.1-0.2,0.4-0.4,0.6-0.4h3.3
		c0.2,0,0.3,0.2,0.2,0.4l-5,8c-0.1,0.2-0.2,0.4-0.2,0.6v4.2c0,0.2-0.2,0.4-0.4,0.4h-2.6c-0.2,0-0.4-0.2-0.4-0.4v-4.2
		c0-0.2-0.1-0.5-0.2-0.6l-5-8c-0.1-0.2,0-0.4,0.2-0.4H745.5z"/>
	<path fill="#282965" d="M758.5,649c-0.2,0.2-0.4,0.2-0.6,0l-0.8-0.7c-0.2-0.2-0.2-0.4,0-0.6c0.3-0.4,0.6-0.7,0.8-1.1
		c0.1-0.2,0.1-0.4-0.1-0.5c-0.3-0.3-0.9-0.9-0.9-1.8c0-1.2,1-2.2,2.2-2.2c1.2,0,2.2,0.9,2.2,2.4C761.4,645.8,760.3,647.3,758.5,649z
		"/>
	<path fill="#282965" d="M762.3,652.4c0-0.2,0.2-0.5,0.5-0.5h2.4c0.4,0,0.5,0.1,0.7,0.5c0.2,0.5,1,0.9,2.2,0.9
		c1.3,0,1.7-0.4,1.7-0.8c0-0.6-0.7-0.9-2.3-1.5c-2.2-0.7-5-1.8-5-4.6c0-2.6,2.2-4.2,5.3-4.2c3.2,0,5.4,1.7,5.6,4.1
		c0,0.2-0.2,0.5-0.5,0.5h-2.4c-0.3,0-0.5-0.2-0.6-0.5c-0.2-0.6-0.9-1.1-2-1.1c-1.2,0-1.7,0.5-1.7,0.9c0,0.5,0.6,0.8,2.3,1.4
		c1.9,0.7,5.1,1.8,5.1,4.8c0,2.7-2.3,4.1-5.4,4.1C764.9,656.3,762.5,654.9,762.3,652.4z"/>
	<path fill="#282460" stroke="#282460" stroke-width="1.7255" stroke-miterlimit="10" d="M678.1,675.4c-0.2,0-0.3-0.1-0.3-0.3v-13
		c0-0.2,0.1-0.3,0.3-0.3h0.4c0.2,0,0.3,0.1,0.3,0.3v12.1c0,0.1,0.1,0.2,0.2,0.2h7.3c0.2,0,0.3,0.1,0.3,0.3v0.4
		c0,0.2-0.1,0.3-0.3,0.3H678.1z"/>
	<path fill="#282460" stroke="#282460" stroke-width="1.7255" stroke-miterlimit="10" d="M695.2,662.1c0-0.2,0.1-0.3,0.3-0.3h0.4
		c0.2,0,0.3,0.1,0.3,0.3v13c0,0.2-0.1,0.3-0.3,0.3h-0.4c-0.2,0-0.3-0.1-0.3-0.3V662.1z"/>
	<path fill="#282460" stroke="#282460" stroke-width="1.7255" stroke-miterlimit="10" d="M705.9,662.8c-0.2,0-0.3-0.1-0.3-0.3v-0.4
		c0-0.2,0.1-0.3,0.3-0.3h10.3c0.2,0,0.3,0.1,0.3,0.3v0.4c0,0.2-0.1,0.3-0.3,0.3h-4.4c-0.1,0-0.2,0.1-0.2,0.2v12.1
		c0,0.2-0.1,0.3-0.3,0.3h-0.4c-0.2,0-0.3-0.1-0.3-0.3V663c0-0.1-0.1-0.2-0.2-0.2H705.9z"/>
	<path fill="#282460" stroke="#282460" stroke-width="1.7255" stroke-miterlimit="10" d="M725.3,662.8c-0.2,0-0.3-0.1-0.3-0.3v-0.4
		c0-0.2,0.1-0.3,0.3-0.3h10.3c0.2,0,0.3,0.1,0.3,0.3v0.4c0,0.2-0.1,0.3-0.3,0.3h-4.4c-0.1,0-0.2,0.1-0.2,0.2v12.1
		c0,0.2-0.1,0.3-0.3,0.3h-0.4c-0.2,0-0.3-0.1-0.3-0.3V663c0-0.1-0.1-0.2-0.2-0.2H725.3z"/>
	<path fill="#282460" stroke="#282460" stroke-width="1.7255" stroke-miterlimit="10" d="M745.5,675.4c-0.2,0-0.3-0.1-0.3-0.3v-13
		c0-0.2,0.1-0.3,0.3-0.3h0.4c0.2,0,0.3,0.1,0.3,0.3v12.1c0,0.1,0.1,0.2,0.2,0.2h7.3c0.2,0,0.3,0.1,0.3,0.3v0.4
		c0,0.2-0.1,0.3-0.3,0.3H745.5z"/>
	<path fill="#282460" stroke="#282460" stroke-width="1.7255" stroke-miterlimit="10" d="M763.9,675.4c-0.2,0-0.3-0.1-0.3-0.3v-13
		c0-0.2,0.1-0.3,0.3-0.3h8.8c0.2,0,0.3,0.1,0.3,0.3v0.4c0,0.2-0.1,0.3-0.3,0.3h-7.8c-0.1,0-0.2,0.1-0.2,0.2v5c0,0.1,0.1,0.2,0.2,0.2
		h6.6c0.2,0,0.3,0.1,0.3,0.3v0.4c0,0.2-0.1,0.3-0.3,0.3h-6.6c-0.1,0-0.2,0.1-0.2,0.2v4.7c0,0.1,0.1,0.2,0.2,0.2h7.8
		c0.2,0,0.3,0.1,0.3,0.3v0.4c0,0.2-0.1,0.3-0.3,0.3H763.9z"/>
	<path fill="#282965" d="M680.3,694.5c0,0.2-0.2,0.4-0.4,0.4h-2.6c-0.2,0-0.4-0.2-0.4-0.4v-12.8c0-0.2,0.2-0.4,0.4-0.4h2.7
		c0.2,0,0.5,0.2,0.6,0.4l3.6,7.2c0.1,0.1,0.2,0.1,0.3,0l3.6-7.2c0.1-0.2,0.4-0.4,0.6-0.4h2.7c0.2,0,0.4,0.2,0.4,0.4v12.8
		c0,0.2-0.2,0.4-0.4,0.4h-2.6c-0.2,0-0.4-0.2-0.4-0.4v-6.2c0-0.1-0.1-0.1-0.2,0l-2.5,5c-0.1,0.2-0.4,0.4-0.6,0.4h-1.5
		c-0.2,0-0.5-0.2-0.6-0.4l-2.5-5c0-0.1-0.2-0.1-0.2,0V694.5z"/>
	<path fill="#282965" d="M693.3,688c0-3.9,3.3-7.1,7.3-7.1c4,0,7.3,3.2,7.3,7.1c0,3.9-3.3,7.1-7.3,7.1
		C696.6,695.2,693.3,692,693.3,688z M696.8,688c0,2.1,1.7,3.7,3.7,3.7c2.1,0,3.7-1.6,3.7-3.7c0-2.1-1.6-3.7-3.7-3.7
		C698.5,684.3,696.8,686,696.8,688z"/>
	<path fill="#282965" d="M712.8,694.5c0,0.2-0.2,0.4-0.4,0.4h-2.6c-0.2,0-0.4-0.2-0.4-0.4v-12.8c0-0.2,0.2-0.4,0.4-0.4h2.1
		c0.3,0,0.5,0.1,0.7,0.3l5.6,7c0.1,0.1,0.2,0.1,0.2-0.1v-6.9c0-0.2,0.2-0.4,0.4-0.4h2.6c0.2,0,0.4,0.2,0.4,0.4v12.8
		c0,0.2-0.2,0.4-0.4,0.4h-2.1c-0.3,0-0.5-0.1-0.7-0.3l-5.6-7c-0.1-0.1-0.2-0.1-0.2,0.1V694.5z"/>
	<path fill="#282965" d="M723.6,691.3c0-0.2,0.2-0.5,0.5-0.5h2.4c0.4,0,0.5,0.1,0.7,0.5c0.2,0.5,1,0.9,2.2,0.9
		c1.3,0,1.7-0.4,1.7-0.8c0-0.6-0.7-0.9-2.3-1.5c-2.2-0.7-5-1.8-5-4.6c0-2.6,2.2-4.2,5.3-4.2c3.2,0,5.4,1.7,5.6,4.1
		c0,0.2-0.2,0.5-0.5,0.5h-2.4c-0.3,0-0.5-0.2-0.6-0.5c-0.2-0.6-0.9-1.1-2-1.1c-1.2,0-1.7,0.5-1.7,0.9c0,0.5,0.6,0.8,2.3,1.4
		c1.9,0.7,5.1,1.8,5.1,4.8c0,2.7-2.3,4.1-5.4,4.1C726.3,695.2,723.8,693.8,723.6,691.3z"/>
	<path fill="#282965" d="M736.3,684.6c-0.2,0-0.4-0.2-0.4-0.4v-2.6c0-0.2,0.2-0.4,0.4-0.4h11.2c0.2,0,0.4,0.2,0.4,0.4v2.6
		c0,0.2-0.2,0.4-0.4,0.4H744c-0.2,0-0.4,0.2-0.4,0.4v9.5c0,0.2-0.2,0.4-0.4,0.4h-2.7c-0.2,0-0.4-0.2-0.4-0.4V685
		c0-0.2-0.2-0.4-0.4-0.4H736.3z"/>
	<path fill="#282965" d="M749.9,694.9c-0.2,0-0.4-0.2-0.4-0.4v-12.8c0-0.2,0.2-0.4,0.4-0.4h9.7c0.2,0,0.4,0.2,0.4,0.4v2.6
		c0,0.2-0.2,0.4-0.4,0.4h-6.2c-0.2,0-0.4,0.2-0.4,0.4v1.3c0,0.2,0.2,0.4,0.4,0.4h5c0.2,0,0.4,0.2,0.4,0.4v2.3c0,0.2-0.2,0.4-0.4,0.4
		h-5c-0.2,0-0.4,0.2-0.4,0.4v1.1c0,0.2,0.2,0.4,0.4,0.4h6.2c0.2,0,0.4,0.2,0.4,0.4v2.5c0,0.2-0.2,0.4-0.4,0.4H749.9z"/>
	<path fill="#282965" d="M762.1,681.6c0-0.2,0.2-0.4,0.4-0.4h6.3c3.5,0,5.1,2.3,5.1,5c0,1.8-0.8,3.5-2.4,4.4
		c-0.2,0.1-0.2,0.3-0.1,0.5l2.5,3.5c0.1,0.2,0,0.4-0.2,0.4h-3.3c-0.3,0-0.5-0.1-0.7-0.4l-2.1-3c-0.1-0.2-0.4-0.3-0.6-0.3h-1.1
		c-0.2,0-0.4,0.2-0.4,0.4v2.9c0,0.2-0.2,0.4-0.4,0.4h-2.6c-0.2,0-0.4-0.2-0.4-0.4V681.6z M768.6,684.4h-2.6c-0.2,0-0.4,0.2-0.4,0.4
		v2.9c0,0.2,0.2,0.4,0.4,0.4h2.6c1.4,0,1.9-0.9,1.9-1.8C770.5,685.2,770,684.4,768.6,684.4z"/>
</g>
<polygon fill="#C1D9E8" points="767.5,609.2 765,616.5 688.3,616.5 682.7,608.6 675,604.9 675,517.1 776,517.1 776,599.9 "/>
<polygon fill="none" stroke="#FFFFFF" stroke-width="1.7005" stroke-miterlimit="10" stroke-dasharray="17.0054,17.0054" points="
	762.3,604.5 760,610.9 692.2,610.9 687.3,604 680.5,600.8 680.5,523.1 769.7,523.1 769.7,596.3 "/>
<path fill="#9569AC" d="M761.8,621.9c1.7,1,1.3,6,1.3,6c3.2-3,2.7-6.8,2.7-6.8c3,0.7,1.2,7.4,1.2,7.4c6-5.4,1.9-11.3,1.9-11.3
	c6.5,1.3,8.3-2.1,8.3-2.1c-5.4,0.6-4.9-3.9-4.9-3.9c2.1,1.2,3.7,0,3.7,0c-2.6-2.1-0.3-11.8-0.3-11.8c3.1,1.3,2.2,6.8,2.2,6.8
	c2.8-6-1.9-10.8-1.9-10.8c2.9-0.3,4.6,5.5,4.6,5.5c0.6-8.4-5-11.6-5-11.6c5.9,3.2,8.5-2.9,8.5-2.9c-7.2,3.1-11-5.2-11-5.2
	c3.5-0.6,5.1,1.1,5.1,1.1c-2.1-4.4-7.2-4.4-7.2-4.4c2.5-2.3,6.4,0,6.4,0c-3.1-5.1-9.1-2.9-9.1-2.9c4.9-1.7,4.8-8.5,4.8-8.5
	c-1.7,6.2-11.6,4.2-11.6,4.2c0.1-2.5,4.6-3.9,4.6-3.9c-4.1-0.7-8.4,2.5-8.4,2.5c2.4-1.6,1-3.8,1-3.8c0,3-5.1,2.6-5.1,2.6l-2.6-0.7
	c4.3,1.4,5.3-0.6,5.3-0.6c-3-1.5-2.3-4.3-2.3-4.3c1,1.7,1.9,1.7,1.9,1.7c-1-1.7-0.2-6.8-0.2-6.8c2.2,0.8,1.3,3.8,1.3,3.8
	c2.3-3-0.2-10.8-0.2-10.8c2.6,1.8,2.6,6.9,2.6,6.9c2.7-7.3-2.5-10.9-2.5-10.9c4.1,3.3,5.2-2,5.2-2c-4,2.2-5.7-4.7-5.7-4.7
	c1.9-1.1,3.4,1.8,3.4,1.8c-0.8-7.1-4.4-6.9-4.4-6.9c4.1-1.6,6.7,3.5,6.7,3.5c-1.7-10.2-8.8-9.4-8.8-9.4c1.2-2.3,4.6-1.3,4.6-1.3
	c-2.6-3.3-6.8-3-6.8-3c2.6,0,2.6-2.4,2.6-2.4c-3,1-5.3-1.6-5.3-1.6c3.3-3,7,0,7,0c-2.8-6.3-10.1-3.5-10.1-3.5
	c2.5-5.2,7.1-4.1,7.1-4.1c-6.3-4.9-12.8-0.6-12.8-0.6c0.2-0.5,0.4-1,0.8-1.4c1.8-2.4,5.7-3.9,5.7-3.9c-6.9-0.8-9.1,3.9-9.1,3.9
	c-0.6-2.8,2.6-5.2,2.6-5.2c-3.5,0.1-5.2,4.1-5.2,4.1c-1.4-3.8,3.6-8.3,3.6-8.3c-4.3,1.1-6.3,6.6-6.5,7.3c5.6-17.8-6.7-19.3-6.7-19.3
	c9.3,4.4,2.5,18.5,2.5,18.5c1.8-8.1-5.4-9.8-5.4-9.8c4.3,6,0,10,0,10s-3.5-3.4-0.9-6.3c0,0-4,2-2.4,6.8c0,0-6.6-4.9-2.6-12
	c0,0-7.3,4.9-3.2,14c0,0-5,1.1-8.3-3.4c0,0-0.7,1.6,0.3,3.7c0.5,0.9,1.2,1.9,2.6,2.9c0,0-6.7-4.4-12.2,2.5c0,0,6.9-2.4,8.4,1.1
	c0,0-5.8,4.3-11.2,2.8c0,0,2.8,3.2,7,2.5c0,0-4.1,0.4-4.6,3.9c0,0,1.9-1.5,2.7-0.7c0,0-2.4,4.2-6.7,3.5c0,0,1.7,3.1,4,2.8
	c0,0-6.7,1.2-7.4,10c0,0,3.3-4.7,6-4.7c0,0-4.7,3.3-3.7,9c0,0,1.6-4.7,3.1-4.9c0,0-0.4,8.4-3.3,9.2c0,0,1.2,2.2,3.1,1.4
	c0,0-6,4.1-5.1,9.8c0,0,2.5-5.1,6.3-5.3c0,0,0,4.5-2.8,6.5c0,0,1.5,0.5,4.4-1.3c0,0,1,4.4-2.7,4.4c0,0,1.9,1.8,5.9,1.2
	c0,0-4.5,2.4-10.1-1.3c0,0-0.4,2.6,2.6,3.5c0,0-5.8,0.6-8.5-4.4c0,0-1.1,4.9,3.6,6.4c0,0-9-3.4-13.9,4.4c0,0,6.2-3.6,8.2-0.2
	c0,0-7.5,1.3-8.2,6.1c0,0,2.5-2.1,4.7-1.6c0,0-3.7,8-9.4,12.6c0,0,4.7-0.2,6-2.1c0,0-7.7,3.9-6,14.1c0,0,2.4-6.8,6-6.7
	c0,0,0.7,3.7-2,6.7c0,0,1.9,0.1,3-2.1c0,0,0.6,4.4-1.9,7.4c0,0,3.1,0.7,4.1-0.6c0,0-4.6,7.1-3.1,14.1c0,0,1.1-7.2,6.2-8
	c0,0-2.9,8.6,1.9,12.1c0,0-1.5-5.5,1.5-7.4c0,0,0.8,4.4,5.8,4.4c0,0-1-5.7,1.9-7.6h66.2L761.8,621.9z"/>
<path fill="none" stroke="#221F1F" stroke-width="0.8503" stroke-miterlimit="10" d="M705.7,516.5"/>
<path fill="#282965" d="M722.8,594.7c0,0-1.2,4,2,4.2c0,0-1.6,1.4-4,0.4c0,0,2.4,3.8-0.5,10c0,0,0.2-5.2-0.7-7.3c0,0,0.8,3.5-1,5.3
	c0,0,0.6-1.5-0.4-2.4c0,0-2.5,3.9-0.9,8.2c0,0-1.5,0-2.2-1.9c0,0,0.6,10.3-2.4,13.1c0,0,1.1-5.6-0.1-6.9c0,0-1.4,2.6-0.7,5.9
	c0,0-2.3-1-1.7-3.4c0,0-3.1,4.6-0.9,9.7c0,0-3.2-0.3-2.8-4.1c0,0-1.3,2.6-0.5,4.1c0,0-0.9-0.3-1.1-1.9c-4.6,6.7-12.8,0.7-12.8,0.7
	c-9.7-5,2-18.6,2-18.6c-1.7,0.7-2.9-0.5-2.9-0.5c2.5,0,4.5-4.4,4.5-4.4c-2.5-1-5.5,1.8-5.5,1.8c2.4-6.4,7.3-5.6,7.3-5.6
	c-2.7,0.6-3.5-1.5-3.5-1.5c3,0.4,7.2-4.3,7.2-4.3c-1.4-0.4-3.2,0.4-3.2,0.4c1.2-3.1,5.5-3.3,5.5-3.3c-1.9-1.6-4.9,0.4-4.9,0.4
	c1.7-4.1,7.3-3,7.3-3c-1.1-0.1-1.5-1.7-1.5-1.7c2,0.6,4.9-1.5,4.9-1.5c-1.8-1.5-5.5-0.6-5.5-0.6c3.1-4.3,7.6-1.1,7.6-1.1
	c-18.7-13.7-16.2-23.4-16.2-23.4s2.9,7.1,9.2,11c0,0-6.7-5.6-4.2-16.9c0,0,0.3,11.3,8.2,15c0,0-3.5-3.9-1.6-11.6c0,0,1,6.3,3.7,8.8
	c3,2.8,5.3,4.6,7.4,6.1c0,0,2,1.4,2,1.4c1.5,1,3.2,2.5,4.1,4.1c1,1.9,1.3,4.2,1.2,6.4C725.1,588.8,723.6,591.7,722.8,594.7z"/>
<path fill="none" stroke="#434244" stroke-width="0.8503" stroke-miterlimit="10" d="M718,606.6"/>
<path fill="#282965" d="M745.8,627.4c-1.5,0.8-0.4,4.8-0.4,4.8c-5.4-3.1-3.6-10.5-3.6-10.5c-2.5,1.5-1.8,5-1.8,5
	c-3-2-0.3-8.5-0.3-8.5c-1.1,2.5-2.9,2.3-2.9,2.3c1.2-3.7-0.8-7.9-0.3-8.1c-0.9,0-1.2,2.7-1.2,2.7c-1.8-2.2-0.7-6.4-0.7-6.4
	c-3.2,1.8-2,7.5-2,7.5c-4.4-6.3-0.3-12.3-0.3-12.3c-1.3,1.8-3.4,0.9-3.4,0.9c1.9-0.1,1.8-4.3,1.8-4.3c-3.1,0.5-4,5.4-4,5.4
	c-2.3-5.3,2-9.8,2-9.8c-2.6,1.8-4,0.5-4,0.5c2.8-2.8,1.7-7.7,1.7-7.7c-1.7-12.8,4.3-11.1,14.3-21.1c2.8-2.8,3.7-8.8,3.7-8.8
	c1.9,7.1-1.6,11.6-1.6,11.6c8.1-4.5,8.2-15,8.2-15c2.5,11.3-4.2,16.9-4.2,16.9c7.1-4.4,9.1-11.4,9.1-11.4s3.5,8.9-16.1,23.8
	c0,0,4.3,2.8,8.3-0.6c0,0-0.1,3.5-3.8,4.7c0,0,1.6-0.9,4.3,0c0,0-2.2-0.2-2.7,1.7c0,0,4.3,3.2,6.8-0.8c0,0,0,3.2-3.9,4.3
	c0,0,4.3-1.6,9.3,2.6c0,0-5-1.4-7.1,0.4c0,0,3.4-0.1,5.3,2.8c0,0-2.4-1.5-3.4,0.4c0,0,5.6,0.2,5.7,6.7c0,0-1.2-2.6-3.2-1.4
	c0,0,1.3,3,3.2,3.6c0,0-0.4,0.8-2,0c0,0,2.2,4.5,6.6,2.6c0,0,0,2.9-3.6,2.5c0.1,0,0.5,0.7,0.5,0.8c0.4,0.7,0.8,1.4,1.2,2.2
	c0.9,1.8,1.7,4,1.6,6c-0.1,2.6-2.4,4.1-4.4,5.3c-1.8,1.1-3.7,2-5.8,2.2C749.9,631,747.4,629.8,745.8,627.4z"/>
<polygon fill="#FFFFFF" points="715.5,556.9 719.9,550.3 721.1,559.9 "/>
<path fill="none" stroke="#FFFFFF" stroke-width="3.4011" stroke-linecap="round" stroke-miterlimit="10" d="M714.1,555.7
	c0,0,10.7,11.1,22.7,0"/>
<g>
	<circle fill="#FFFFFF" cx="714.1" cy="535.4" r="8.7"/>
</g>
<circle fill="#FFFFFF" cx="736.8" cy="535.4" r="8.7"/>
<circle fill="#282460" cx="736.8" cy="535.4" r="4"/>
<circle fill="#282460" cx="714.1" cy="535.4" r="4"/>
<polygon fill="#FFFFFF" points="735.6,556.9 731.3,550.3 730,559.9 "/>
</svg>
