<?xml version="1.0" encoding="utf-8"?>
<!-- Generator: Adobe Illustrator 18.1.0, SVG Export Plug-In . SVG Version: 6.00 Build 0)  -->
<svg version="1.1" id="Layer_1" xmlns="http://www.w3.org/2000/svg" xmlns:xlink="http://www.w3.org/1999/xlink" x="0px" y="0px"
	 viewBox="0 0 1000 700" enable-background="new 0 0 1000 700" xml:space="preserve">
<g>
	<g>
		<defs>
			<rect id="SVGID_1_" x="535.7" y="2" width="417.3" height="695.5"/>
		</defs>
		<clipPath id="SVGID_2_">
			<use xlink:href="#SVGID_1_"  overflow="visible"/>
		</clipPath>
		<rect x="535.7" y="2" clip-path="url(#SVGID_2_)" fill="#D6E5EC" width="417.3" height="695.5"/>
		<g clip-path="url(#SVGID_2_)">
			<text transform="matrix(1 0 0 1 619.7809 142.5684)"><tspan x="0" y="0" fill="#3A3B6C" font-family="'EvelethCleanRegular'" font-size="28.3352">P</tspan><tspan x="20.2" y="0" fill="#3A3B6C" font-family="'EvelethCleanRegular'" font-size="28.3352" letter-spacing="1">E</tspan><tspan x="41.2" y="0" fill="#3A3B6C" font-family="'EvelethCleanRegular'" font-size="28.3352" letter-spacing="1">Y</tspan><tspan x="65.4" y="0" fill="#3A3B6C" font-family="'EvelethCleanRegular'" font-size="28.3352">T</tspan><tspan x="85" y="0" fill="#3A3B6C" font-family="'EvelethCleanRegular'" font-size="28.3352">O</tspan><tspan x="109.5" y="0" fill="#3A3B6C" font-family="'EvelethCleanRegular'" font-size="28.3352">N </tspan><tspan x="141.2" y="0" fill="#3A3B6C" font-family="'EvelethCleanRegular'" font-size="28.3352">B</tspan><tspan x="162.4" y="0" fill="#3A3B6C" font-family="'EvelethCleanRegular'" font-size="28.3352">A</tspan><tspan x="185.7" y="0" fill="#3A3B6C" font-family="'EvelethCleanRegular'" font-size="28.3352">N</tspan><tspan x="208.6" y="0" fill="#3A3B6C" font-family="'EvelethCleanRegular'" font-size="28.3352">K</tspan><tspan x="229.4" y="0" fill="#3A3B6C" font-family="'EvelethCleanRegular'" font-size="28.3352">S</tspan></text>
		</g>
		<g clip-path="url(#SVGID_2_)">
			<text transform="matrix(1 0 0 1 649.0915 171.5098)"><tspan x="0" y="0" fill="#3A3B6C" font-family="'ProximaNova-Regular'" font-size="20.6074">F</tspan><tspan x="11.1" y="0" fill="#3A3B6C" font-family="'ProximaNova-Regular'" font-size="20.6074">A</tspan><tspan x="25.2" y="0" fill="#3A3B6C" font-family="'ProximaNova-Regular'" font-size="20.6074">S</tspan><tspan x="37.8" y="0" fill="#3A3B6C" font-family="'ProximaNova-Regular'" font-size="20.6074">H</tspan><tspan x="53" y="0" fill="#3A3B6C" font-family="'ProximaNova-Regular'" font-size="20.6074">I</tspan><tspan x="57.9" y="0" fill="#3A3B6C" font-family="'ProximaNova-Regular'" font-size="20.6074">O</tspan><tspan x="74.1" y="0" fill="#3A3B6C" font-family="'ProximaNova-Regular'" font-size="20.6074">N </tspan><tspan x="94.1" y="0" fill="#3A3B6C" font-family="'ProximaNova-Regular'" font-size="20.6074">D</tspan><tspan x="108.1" y="0" fill="#3A3B6C" font-family="'ProximaNova-Regular'" font-size="20.6074">E</tspan><tspan x="120.2" y="0" fill="#3A3B6C" font-family="'ProximaNova-Regular'" font-size="20.6074">S</tspan><tspan x="132.8" y="0" fill="#3A3B6C" font-family="'ProximaNova-Regular'" font-size="20.6074">I</tspan><tspan x="138.1" y="0" fill="#3A3B6C" font-family="'ProximaNova-Regular'" font-size="20.6074">G</tspan><tspan x="153" y="0" fill="#3A3B6C" font-family="'ProximaNova-Regular'" font-size="20.6074">N</tspan><tspan x="167.7" y="0" fill="#3A3B6C" font-family="'ProximaNova-Regular'" font-size="20.6074">E</tspan><tspan x="179.8" y="0" fill="#3A3B6C" font-family="'ProximaNova-Regular'" font-size="20.6074">R</tspan></text>
		</g>
		<g clip-path="url(#SVGID_2_)">
			<text transform="matrix(1 0 0 1 675.8395 467.4981)"><tspan x="0" y="0" fill="#3A3B6C" font-family="'ProximaNova-Regular'" font-size="18.0315">in</tspan><tspan x="14.7" y="0" fill="#3A3B6C" font-family="'ProximaNova-Regular'" font-size="18.0315">f</tspan><tspan x="20" y="0" fill="#3A3B6C" font-family="'ProximaNova-Regular'" font-size="18.0315">o</tspan><tspan x="30.9" y="0" fill="#3A3B6C" font-family="'ProximaNova-Regular'" font-size="18.0315">@</tspan><tspan x="45.5" y="0" fill="#3A3B6C" font-family="'ProximaNova-Regular'" font-size="18.0315">l</tspan><tspan x="49.9" y="0" fill="#3A3B6C" font-family="'ProximaNova-Regular'" font-size="18.0315">i</tspan><tspan x="54.5" y="0" fill="#3A3B6C" font-family="'ProximaNova-Regular'" font-size="18.0315">t</tspan><tspan x="60.6" y="0" fill="#3A3B6C" font-family="'ProximaNova-Regular'" font-size="18.0315">t</tspan><tspan x="66.3" y="0" fill="#3A3B6C" font-family="'ProximaNova-Regular'" font-size="18.0315">l</tspan><tspan x="70.8" y="0" fill="#3A3B6C" font-family="'ProximaNova-Regular'" font-size="18.0315">em</tspan><tspan x="96.2" y="0" fill="#3A3B6C" font-family="'ProximaNova-Regular'" font-size="18.0315">on</tspan><tspan x="117.2" y="0" fill="#3A3B6C" font-family="'ProximaNova-Regular'" font-size="18.0315">s</tspan><tspan x="126.2" y="0" fill="#3A3B6C" font-family="'ProximaNova-Regular'" font-size="18.0315">t</tspan><tspan x="131.7" y="0" fill="#3A3B6C" font-family="'ProximaNova-Regular'" font-size="18.0315">e</tspan><tspan x="142.2" y="0" fill="#3A3B6C" font-family="'ProximaNova-Regular'" font-size="18.0315">r</tspan><tspan x="147.7" y="0" fill="#3A3B6C" font-family="'ProximaNova-Regular'" font-size="18.0315">.</tspan><tspan x="151.9" y="0" fill="#3A3B6C" font-family="'ProximaNova-Regular'" font-size="18.0315">c</tspan><tspan x="161" y="0" fill="#3A3B6C" font-family="'ProximaNova-Regular'" font-size="18.0315">o</tspan><tspan x="171.7" y="0" fill="#3A3B6C" font-family="'ProximaNova-Regular'" font-size="18.0315">m</tspan></text>
		</g>
		<g clip-path="url(#SVGID_2_)">
			<defs>
				<rect id="SVGID_3_" x="535.7" y="2" width="417.3" height="695.5"/>
			</defs>
			<clipPath id="SVGID_4_">
				<use xlink:href="#SVGID_3_"  overflow="visible"/>
			</clipPath>
			<path clip-path="url(#SVGID_4_)" fill="#996FAF" d="M637.8,479.4c10.5,0,19-8.5,19-19s-8.5-19-19-19c-10.5,0-19,8.5-19,19
				S627.3,479.4,637.8,479.4"/>
			<path clip-path="url(#SVGID_4_)" fill="#996FAF" d="M637.8,581.6c10.5,0,19-8.5,19-19c0-10.5-8.5-19-19-19c-10.5,0-19,8.5-19,19
				C618.8,573.1,627.3,581.6,637.8,581.6"/>
			<path clip-path="url(#SVGID_4_)" fill="#996FAF" d="M637.8,530.5c10.5,0,19-8.5,19-19c0-10.5-8.5-19-19-19c-10.5,0-19,8.5-19,19
				C618.8,522,627.3,530.5,637.8,530.5"/>
		</g>
		<g clip-path="url(#SVGID_2_)">
			<text transform="matrix(1 0 0 1 626.6911 469.17)" fill="#FFFFFF" font-family="'EvelethCleanRegular'" font-size="23.1833">@</text>
		</g>
		<g clip-path="url(#SVGID_2_)">
			<defs>
				<rect id="SVGID_5_" x="628.9" y="551.8" width="18.3" height="21.5"/>
			</defs>
			<clipPath id="SVGID_6_">
				<use xlink:href="#SVGID_5_"  overflow="visible"/>
			</clipPath>
			<path clip-path="url(#SVGID_6_)" fill="#FFFFFF" d="M637.9,573.3h-0.2c-0.1-0.1-0.3-0.2-0.5-0.3c-1.7-1.4-3.3-3-4.8-4.7
				c-1.1-1.3-2-2.6-2.7-4.1c-0.4-0.9-0.7-1.8-0.8-2.7c-0.1-1,0-2,0.3-2.9c0.7-2.7,2.3-4.6,4.9-5.6c2.1-0.8,4.2-0.9,6.4-0.3
				c2.1,0.5,3.8,1.7,4.9,3.6c0.7,1.2,1.1,2.5,1.2,3.9c0.1,1.2,0,2.3-0.4,3.4c-0.5,1.3-1.3,2.6-2.2,3.7c-1.3,1.7-2.7,3.1-4.3,4.5
				C639.1,572.3,638.5,572.8,637.9,573.3"/>
			<path clip-path="url(#SVGID_6_)" fill="#FFFFFF" d="M687.6,573.1c-2.4,0-4.2-0.7-5.9-1.7c-2.2-1.3-4-3.1-5.7-5.1
				c-1.3-1.6-2.5-3.2-3.5-5.1c-0.8-1.6-1.3-3.2-1.3-5c0-2.5,0.9-4.6,2.8-6.2c0.4-0.3,0.7-0.6,1.1-0.9c0.8-0.6,1.6-0.6,2.4,0.1
				c0.8,0.8,1.3,1.7,1.9,2.6c0.4,0.6,0.7,1.3,0.8,2c0.1,0.8-0.1,1.5-0.7,2.1c-0.5,0.4-0.9,0.8-1.4,1.2c-1,0.7-1.2,1.6-0.8,2.7
				c0.4,1,1,1.9,1.6,2.7c0.9,1.1,1.8,2.2,2.9,3.1c0.6,0.5,1.2,0.9,2,1.1c0.7,0.2,1.3,0,1.8-0.5c0.5-0.5,1-0.9,1.5-1.4
				c0.8-0.7,1.8-0.8,2.7-0.3c0.5,0.3,1,0.6,1.5,1c0.7,0.5,1.3,1.1,1.9,1.7c0.2,0.2,0.4,0.5,0.6,0.8c0.4,0.7,0.3,1.3-0.2,1.9
				c-0.8,0.8-1.6,1.5-2.5,2.1C689.9,572.7,688.6,573.1,687.6,573.1"/>
		</g>
		<g clip-path="url(#SVGID_2_)">
			<defs>
				<rect id="SVGID_7_" x="628.5" y="501.6" width="18.6" height="19.9"/>
			</defs>
			<clipPath id="SVGID_8_">
				<use xlink:href="#SVGID_7_"  overflow="visible"/>
			</clipPath>
			<path clip-path="url(#SVGID_8_)" fill="#FFFFFF" d="M602,521.6h-0.1c-0.1-0.1-0.2-0.2-0.4-0.3c-1.4-1.1-2.7-2.4-3.8-3.7
				c-0.9-1-1.6-2.1-2.2-3.3c-0.3-0.7-0.6-1.4-0.6-2.2c0-0.8,0-1.6,0.2-2.3c0.6-2.2,1.8-3.7,3.9-4.5c1.7-0.7,3.4-0.7,5.1-0.3
				c1.7,0.4,3,1.4,3.9,2.9c0.6,1,0.9,2,1,3.1c0.1,0.9,0,1.8-0.3,2.7c-0.4,1.1-1,2-1.7,3c-1,1.3-2.2,2.5-3.4,3.6
				C603,520.7,602.5,521.1,602,521.6"/>
			<path clip-path="url(#SVGID_8_)" fill="#FFFFFF" d="M641.9,521.4c-2,0-3.4-0.5-4.7-1.3c-1.8-1.1-3.2-2.5-4.6-4.1
				c-1.1-1.3-2-2.6-2.8-4.1c-0.6-1.3-1.1-2.6-1.1-4c0-2,0.7-3.7,2.3-5c0.3-0.2,0.6-0.5,0.8-0.7c0.7-0.5,1.3-0.5,1.9,0.1
				c0.6,0.6,1.1,1.4,1.5,2.1c0.3,0.5,0.6,1,0.7,1.6c0.1,0.7-0.1,1.2-0.5,1.7c-0.4,0.3-0.7,0.7-1.1,1c-0.8,0.6-0.9,1.3-0.6,2.2
				c0.3,0.8,0.8,1.5,1.3,2.2c0.7,0.9,1.5,1.7,2.3,2.5c0.5,0.4,1,0.7,1.6,0.9c0.5,0.1,1,0,1.4-0.4c0.4-0.4,0.8-0.8,1.2-1.1
				c0.7-0.6,1.4-0.6,2.2-0.2c0.4,0.2,0.8,0.5,1.2,0.8c0.5,0.4,1,0.9,1.5,1.4c0.2,0.2,0.3,0.4,0.5,0.6c0.3,0.5,0.2,1.1-0.2,1.5
				c-0.6,0.6-1.2,1.2-2,1.7C643.7,521.1,642.6,521.4,641.9,521.4"/>
		</g>
		<g clip-path="url(#SVGID_2_)">
			<text transform="matrix(1 0 0 1 675.8395 559.836)"><tspan x="0" y="0" fill="#3A3B6C" font-family="'ProximaNova-Regular'" font-size="18.0315">1</tspan><tspan x="6.4" y="0" fill="#3A3B6C" font-family="'ProximaNova-Regular'" font-size="18.0315">4</tspan><tspan x="17" y="0" fill="#3A3B6C" font-family="'ProximaNova-Regular'" font-size="18.0315">0 </tspan><tspan x="32.7" y="0" fill="#3A3B6C" font-family="'ProximaNova-Regular'" font-size="18.0315">E</tspan><tspan x="43.5" y="0" fill="#3A3B6C" font-family="'ProximaNova-Regular'" font-size="18.0315">. </tspan><tspan x="52.3" y="0" fill="#3A3B6C" font-family="'ProximaNova-Regular'" font-size="18.0315">B</tspan><tspan x="64" y="0" fill="#3A3B6C" font-family="'ProximaNova-Regular'" font-size="18.0315">r</tspan><tspan x="70.2" y="0" fill="#3A3B6C" font-family="'ProximaNova-Regular'" font-size="18.0315">o</tspan><tspan x="80.9" y="0" fill="#3A3B6C" font-family="'ProximaNova-Regular'" font-size="18.0315">a</tspan><tspan x="90.8" y="0" fill="#3A3B6C" font-family="'ProximaNova-Regular'" font-size="18.0315">d</tspan><tspan x="101.6" y="0" fill="#3A3B6C" font-family="'ProximaNova-Regular'" font-size="18.0315">w</tspan><tspan x="115.2" y="0" fill="#3A3B6C" font-family="'ProximaNova-Regular'" font-size="18.0315">a</tspan><tspan x="124.9" y="0" fill="#3A3B6C" font-family="'ProximaNova-Regular'" font-size="18.0315">y</tspan></text>
		</g>
		<g clip-path="url(#SVGID_2_)">
			<text transform="matrix(1 0 0 1 675.8395 581.4747)"><tspan x="0" y="0" fill="#3A3B6C" font-family="'ProximaNova-Regular'" font-size="18.0315">Ja</tspan><tspan x="18.8" y="0" fill="#3A3B6C" font-family="'ProximaNova-Regular'" font-size="18.0315">c</tspan><tspan x="28" y="0" fill="#3A3B6C" font-family="'ProximaNova-Regular'" font-size="18.0315">k</tspan><tspan x="37.7" y="0" fill="#3A3B6C" font-family="'ProximaNova-Regular'" font-size="18.0315">s</tspan><tspan x="46.4" y="0" fill="#3A3B6C" font-family="'ProximaNova-Regular'" font-size="18.0315">o</tspan><tspan x="57.1" y="0" fill="#3A3B6C" font-family="'ProximaNova-Regular'" font-size="18.0315">n</tspan><tspan x="67.5" y="0" fill="#3A3B6C" font-family="'ProximaNova-Regular'" font-size="18.0315">, </tspan><tspan x="76.3" y="0" fill="#3A3B6C" font-family="'ProximaNova-Regular'" font-size="18.0315" letter-spacing="1">W</tspan><tspan x="93.2" y="0" fill="#3A3B6C" font-family="'ProximaNova-Regular'" font-size="18.0315">Y </tspan><tspan x="109.2" y="0" fill="#3A3B6C" font-family="'ProximaNova-Regular'" font-size="18.0315">8</tspan><tspan x="120.1" y="0" fill="#3A3B6C" font-family="'ProximaNova-Regular'" font-size="18.0315">3</tspan><tspan x="130.6" y="0" fill="#3A3B6C" font-family="'ProximaNova-Regular'" font-size="18.0315">0</tspan><tspan x="142.2" y="0" fill="#3A3B6C" font-family="'ProximaNova-Regular'" font-size="18.0315">0</tspan><tspan x="153.7" y="0" fill="#3A3B6C" font-family="'ProximaNova-Regular'" font-size="18.0315">1</tspan></text>
		</g>
		<g clip-path="url(#SVGID_2_)">
			<text transform="matrix(1 0 0 1 675.8395 518.5958)"><tspan x="0" y="0" fill="#3A3B6C" font-family="'ProximaNova-Regular'" font-size="18.0315">3</tspan><tspan x="10.5" y="0" fill="#3A3B6C" font-family="'ProximaNova-Regular'" font-size="18.0315">0</tspan><tspan x="21.5" y="0" fill="#3A3B6C" font-family="'ProximaNova-Regular'" font-size="18.0315">7</tspan><tspan x="30.7" y="0" fill="#3A3B6C" font-family="'ProximaNova-Regular'" font-size="18.0315">-</tspan><tspan x="35.7" y="0" fill="#3A3B6C" font-family="'ProximaNova-Regular'" font-size="18.0315">7</tspan><tspan x="45.6" y="0" fill="#3A3B6C" font-family="'ProximaNova-Regular'" font-size="18.0315">3</tspan><tspan x="56" y="0" fill="#3A3B6C" font-family="'ProximaNova-Regular'" font-size="18.0315">9</tspan><tspan x="67.6" y="0" fill="#3A3B6C" font-family="'ProximaNova-Regular'" font-size="18.0315">-</tspan><tspan x="72.8" y="0" fill="#3A3B6C" font-family="'ProximaNova-Regular'" font-size="18.0315">2</tspan><tspan x="83.6" y="0" fill="#3A3B6C" font-family="'ProximaNova-Regular'" font-size="18.0315">2</tspan><tspan x="94.2" y="0" fill="#3A3B6C" font-family="'ProximaNova-Regular'" font-size="18.0315">5</tspan><tspan x="105.2" y="0" fill="#3A3B6C" font-family="'ProximaNova-Regular'" font-size="18.0315">8</tspan></text>
		</g>
	</g>
</g>
<g>
	<g>
		<defs>
			<rect id="SVGID_9_" x="65.6" y="2.5" width="417" height="695"/>
		</defs>
		<clipPath id="SVGID_10_">
			<use xlink:href="#SVGID_9_"  overflow="visible"/>
		</clipPath>
		<g clip-path="url(#SVGID_10_)">
			<text transform="matrix(1 0 0 1 174.5186 458.1206)" fill="#3A3B6C" font-family="'EvelethCleanRegular'" font-size="36.0826">mo</text>
		</g>
		<g clip-path="url(#SVGID_10_)">
			<text transform="matrix(1 0 0 1 241.1631 458.1206)" fill="#3A3B6C" font-family="'EvelethCleanRegular'" font-size="36.0826">m</text>
		</g>
		<g clip-path="url(#SVGID_10_)">
			<text transform="matrix(1 0 0 1 275.333 458.1206)" fill="#3A3B6C" font-family="'EvelethCleanRegular'" font-size="36.0826">my’s</text>
		</g>
		<g clip-path="url(#SVGID_10_)">
			<text transform="matrix(1 0 0 1 376.5791 458.1206)" fill="#3A3B6C" font-family="'EvelethCleanThin'" font-size="34.4424"> </text>
		</g>
		<g clip-path="url(#SVGID_10_)">
			<text transform="matrix(1 0 0 1 174.5186 498.1382)" fill="#3A3867" font-family="'EvelethCleanThin'" font-size="36.0823">l</text>
		</g>
		<g clip-path="url(#SVGID_10_)">
			<defs>
				<rect id="SVGID_11_" x="153.7" y="115.8" width="246.1" height="427.1"/>
			</defs>
			<clipPath id="SVGID_12_">
				<use xlink:href="#SVGID_11_"  overflow="visible"/>
			</clipPath>
			<path clip-path="url(#SVGID_12_)" fill="none" stroke="#3A3867" stroke-width="0.625" stroke-miterlimit="10" d="M196.3,498.1
				c0.4,0,0.6-0.3,0.6-0.6v-0.8c0-0.4-0.3-0.6-0.6-0.6h-15.1c-0.3,0-0.5-0.2-0.5-0.5v-24.9c0-0.4-0.3-0.6-0.6-0.6h-0.8
				c-0.4,0-0.7,0.3-0.7,0.6v26.8c0,0.4,0.3,0.6,0.7,0.6H196.3z"/>
		</g>
		<g clip-path="url(#SVGID_10_)">
			<text transform="matrix(1 0 0 1 210.4189 498.1382)" fill="#3A3867" font-family="'EvelethCleanThin'" font-size="36.0823">i</text>
		</g>
		<g clip-path="url(#SVGID_10_)">
			<defs>
				<rect id="SVGID_13_" x="153.7" y="115.8" width="246.1" height="427.1"/>
			</defs>
			<clipPath id="SVGID_14_">
				<use xlink:href="#SVGID_13_"  overflow="visible"/>
			</clipPath>
			<path clip-path="url(#SVGID_14_)" fill="none" stroke="#3A3867" stroke-width="0.625" stroke-miterlimit="10" d="M214.5,497.5
				c0,0.4,0.3,0.6,0.6,0.6h0.8c0.4,0,0.6-0.3,0.6-0.6v-26.8c0-0.4-0.3-0.7-0.6-0.7h-0.8c-0.4,0-0.6,0.3-0.6,0.7V497.5z"/>
		</g>
		<g clip-path="url(#SVGID_10_)">
			<text transform="matrix(1 0 0 1 234.8115 498.1382)" fill="#3A3867" font-family="'EvelethCleanThin'" font-size="36.0823">t</text>
		</g>
		<g clip-path="url(#SVGID_10_)">
			<defs>
				<rect id="SVGID_15_" x="153.7" y="115.8" width="246.1" height="427.1"/>
			</defs>
			<clipPath id="SVGID_16_">
				<use xlink:href="#SVGID_15_"  overflow="visible"/>
			</clipPath>
			<path clip-path="url(#SVGID_16_)" fill="none" stroke="#3A3867" stroke-width="0.625" stroke-miterlimit="10" d="M245.4,472.1
				c0.3,0,0.5,0.2,0.5,0.5v24.9c0,0.4,0.3,0.7,0.6,0.7h0.8c0.4,0,0.6-0.3,0.6-0.7v-24.9c0-0.3,0.2-0.5,0.5-0.5h9
				c0.4,0,0.6-0.3,0.6-0.6v-0.8c0-0.4-0.3-0.6-0.6-0.6h-21.1c-0.4,0-0.7,0.3-0.7,0.6v0.8c0,0.4,0.3,0.6,0.7,0.6H245.4z"/>
		</g>
		<g clip-path="url(#SVGID_10_)">
			<text transform="matrix(1 0 0 1 274.7197 498.1382)" fill="#3A3867" font-family="'EvelethCleanThin'" font-size="36.0823">t</text>
		</g>
		<g clip-path="url(#SVGID_10_)">
			<defs>
				<rect id="SVGID_17_" x="153.7" y="115.8" width="246.1" height="427.1"/>
			</defs>
			<clipPath id="SVGID_18_">
				<use xlink:href="#SVGID_17_"  overflow="visible"/>
			</clipPath>
			<path clip-path="url(#SVGID_18_)" fill="none" stroke="#3A3867" stroke-width="0.625" stroke-miterlimit="10" d="M285.3,472.1
				c0.3,0,0.5,0.2,0.5,0.5v24.9c0,0.4,0.3,0.7,0.6,0.7h0.8c0.4,0,0.6-0.3,0.6-0.7v-24.9c0-0.3,0.2-0.5,0.5-0.5h9
				c0.4,0,0.6-0.3,0.6-0.6v-0.8c0-0.4-0.3-0.6-0.6-0.6h-21.1c-0.4,0-0.7,0.3-0.7,0.6v0.8c0,0.4,0.3,0.6,0.7,0.6H285.3z"/>
		</g>
		<g clip-path="url(#SVGID_10_)">
			<text transform="matrix(1 0 0 1 313.3271 498.1382)"><tspan x="0" y="0" fill="#3A3867" font-family="'EvelethCleanThin'" font-size="36.0823" letter-spacing="14">l</tspan><tspan x="37.7" y="0" fill="#3A3867" font-family="'EvelethCleanThin'" font-size="36.0823">e</tspan></text>
		</g>
		<g clip-path="url(#SVGID_10_)">
			<defs>
				<rect id="SVGID_19_" x="153.7" y="115.8" width="246.1" height="427.1"/>
			</defs>
			<clipPath id="SVGID_20_">
				<use xlink:href="#SVGID_19_"  overflow="visible"/>
			</clipPath>
			<path clip-path="url(#SVGID_20_)" fill="none" stroke="#3A3867" stroke-width="0.625" stroke-miterlimit="10" d="M335.1,498.1
				c0.4,0,0.6-0.3,0.6-0.6v-0.8c0-0.4-0.3-0.6-0.6-0.6H320c-0.3,0-0.5-0.2-0.5-0.5v-24.9c0-0.4-0.3-0.6-0.7-0.6H318
				c-0.4,0-0.6,0.3-0.6,0.6v26.8c0,0.4,0.3,0.6,0.6,0.6H335.1z"/>
			<path clip-path="url(#SVGID_20_)" fill="none" stroke="#3A3867" stroke-width="0.625" stroke-miterlimit="10" d="M373.8,498.1
				c0.4,0,0.6-0.3,0.6-0.6v-0.8c0-0.4-0.3-0.6-0.6-0.6h-16.1c-0.3,0-0.5-0.2-0.5-0.5v-9.7c0-0.3,0.2-0.5,0.5-0.5h13.5
				c0.4,0,0.6-0.3,0.6-0.7V484c0-0.4-0.3-0.6-0.6-0.6h-13.5c-0.3,0-0.5-0.2-0.5-0.5v-10.2c0-0.3,0.2-0.5,0.5-0.5h16.1
				c0.4,0,0.6-0.3,0.6-0.6v-0.8c0-0.4-0.3-0.6-0.6-0.6h-18c-0.4,0-0.6,0.3-0.6,0.6v26.8c0,0.4,0.3,0.6,0.6,0.6H373.8z"/>
		</g>
		<g clip-path="url(#SVGID_10_)">
			<defs>
				<rect id="SVGID_21_" x="153.7" y="115.8" width="246.1" height="427.1"/>
			</defs>
			<clipPath id="SVGID_22_">
				<use xlink:href="#SVGID_21_"  overflow="visible"/>
			</clipPath>
			<g clip-path="url(#SVGID_22_)">
				<text transform="matrix(1 0 0 1 174.5186 538.1577)" fill="#3A3B6C" font-family="'EvelethCleanRegular'" font-size="36.0826">m</text>
			</g>
			<g clip-path="url(#SVGID_22_)">
				<text transform="matrix(1 0 0 1 209.626 538.1577)" fill="#3A3B6C" font-family="'EvelethCleanRegular'" font-size="36.0826">o</text>
			</g>
			<g clip-path="url(#SVGID_22_)">
				<text transform="matrix(1 0 0 1 241.3779 538.1577)" fill="#3A3B6C" font-family="'EvelethCleanRegular'" font-size="36.0826">n</text>
			</g>
			<g clip-path="url(#SVGID_22_)">
				<text transform="matrix(1 0 0 1 271.7607 538.1577)"><tspan x="0" y="0" fill="#3A3B6C" font-family="'EvelethCleanRegular'" font-size="36.0826">st</tspan><tspan x="52.3" y="0" fill="#3A3B6C" font-family="'EvelethCleanRegular'" font-size="36.0826">e</tspan><tspan x="78.1" y="0" fill="#3A3B6C" font-family="'EvelethCleanRegular'" font-size="36.0826">r</tspan></text>
			</g>
		</g>
		<polygon clip-path="url(#SVGID_10_)" fill="#C2DAE9" points="363.2,361.8 358.1,376.8 200.2,376.8 188.7,360.6 173,353.1 
			173,172.3 380.6,172.3 380.6,342.8 		"/>
		
			<polygon clip-path="url(#SVGID_10_)" fill="none" stroke="#FFFFFF" stroke-width="0.617" stroke-miterlimit="10" stroke-dasharray="6.165,6.165" points="
			352.4,352.2 347.9,365.4 208.3,365.4 198.1,351.2 184.2,344.5 184.2,184.7 367.8,184.7 367.8,335.4 		"/>
		<g clip-path="url(#SVGID_10_)">
			<defs>
				<rect id="SVGID_23_" x="153.7" y="115.8" width="246.1" height="427.1"/>
			</defs>
			<clipPath id="SVGID_24_">
				<use xlink:href="#SVGID_23_"  overflow="visible"/>
			</clipPath>
			<path clip-path="url(#SVGID_24_)" fill="#996FAE" d="M351.5,388c3.5,2.1,2.6,12.4,2.6,12.4c6.6-6.1,5.5-14.1,5.5-14.1
				c6.3,1.5,2.5,15.2,2.5,15.2c12.4-11.1,3.8-23.3,3.8-23.3c13.4,2.6,17.1-4.2,17.1-4.2c-11.1,1.3-10.2-7.9-10.2-7.9
				c4.4,2.4,7.6,0,7.6,0c-5.4-4.2-0.6-24.3-0.6-24.3c6.4,2.7,4.5,13.9,4.5,13.9c5.8-12.4-3.9-22.2-3.9-22.2
				c5.9-0.5,9.4,11.4,9.4,11.4c1.3-17.2-10.3-23.9-10.3-23.9c12.2,6.6,17.4-6,17.4-6c-14.8,6.3-22.6-10.8-22.6-10.8
				c7.3-1.2,10.5,2.3,10.5,2.3c-4.2-9-14.8-9-14.8-9c5.1-4.8,13.2,0,13.2,0c-6.3-10.6-18.7-5.9-18.7-5.9c10.1-3.6,9.8-17.5,9.8-17.5
				c-3.6,12.7-23.8,8.6-23.8,8.6c0.3-5.1,9.5-8,9.5-8c-8.5-1.4-17.4,5.2-17.4,5.2c5-3.4,2-7.7,2-7.7c0,6.1-10.4,5.4-10.4,5.4
				l-5.4-1.5c8.9,3,11-1.3,11-1.3c-6.2-3.2-4.7-8.8-4.7-8.8c2.1,3.5,4,3.4,4,3.4c-2.1-3.5-0.4-14-0.4-14c4.6,1.6,2.7,7.9,2.7,7.9
				c4.7-6.2-0.4-22.2-0.4-22.2c5.4,3.7,5.4,14.2,5.4,14.2c5.6-15.1-5.1-22.4-5.1-22.4c8.4,6.8,10.6-4.1,10.6-4.1
				c-8.2,4.5-11.7-9.7-11.7-9.7c3.9-2.3,6.9,3.7,6.9,3.7c-1.6-14.7-9.1-14.3-9.1-14.3c8.4-3.3,13.9,7.3,13.9,7.3
				c-3.4-20.9-18.1-19.3-18.1-19.3c2.5-4.8,9.5-2.6,9.5-2.6c-5.4-6.9-14.1-6.2-14.1-6.2c5.4-0.1,5.4-4.9,5.4-4.9
				c-6.1,2.1-11-3.2-11-3.2c6.7-6.1,14.3,0,14.3,0c-5.8-12.9-20.7-7.2-20.7-7.2c5.1-10.6,14.6-8.4,14.6-8.4
				c-12.9-10.1-26.3-1.3-26.3-1.3c0.3-1,0.9-2,1.6-2.9c3.7-5,11.7-8.1,11.7-8.1c-14.3-1.6-18.7,8-18.7,8c-1.2-5.7,5.5-10.7,5.5-10.7
				c-7.1,0.3-10.7,8.4-10.7,8.4c-2.8-7.9,7.3-17.1,7.3-17.1c-8.8,2.2-12.9,13.6-13.4,15.1c11.6-36.6-13.7-39.7-13.7-39.7
				c19.1,9.1,5.2,38.1,5.2,38.1c3.7-16.7-11-20.2-11-20.2c8.9,12.3,0,20.5,0,20.5s-7.1-7-1.8-13c0,0-8.3,4.1-5,14.1
				c0,0-13.6-10.1-5.4-24.6c0,0-15,10.1-6.6,28.7c0,0-10.3,2.2-17.1-7c0,0-1.5,3.3,0.6,7.5c0.9,1.9,2.6,4,5.3,6
				c0,0-13.8-9.1-25.1,5.2c0,0,14.1-4.9,17.3,2.2c0,0-11.8,8.9-23.1,5.8c0,0,5.7,6.7,14.4,5c0,0-8.5,0.9-9.6,8c0,0,3.9-3.1,5.6-1.4
				c0,0-4.9,8.5-13.9,7.2c0,0,3.4,6.3,8.2,5.8c0,0-13.7,2.4-15.3,20.6c0,0,6.7-9.7,12.4-9.7c0,0-9.7,6.8-7.6,18.6
				c0,0,3.3-9.6,6.3-10c0,0-0.7,17.3-6.8,18.9c0,0,2.5,4.5,6.3,2.9c0,0-12.4,8.5-10.5,20.1c0,0,5.1-10.5,12.9-10.9
				c0,0,0,9.4-5.8,13.3c0,0,3.1,1.1,9-2.8c0,0,2,9.1-5.6,9.1c0,0,4,3.6,12.2,2.5c0,0-9.2,4.8-20.9-2.7c0,0-0.9,5.3,5.3,7.2
				c0,0-11.9,1.3-17.4-9c0,0-2.2,10.1,7.5,13.1c0,0-18.6-7-28.6,9.1c0,0,12.8-7.4,16.8-0.4c0,0-15.5,2.8-16.8,12.5
				c0,0,5.2-4.3,9.7-3.2c0,0-7.6,16.5-19.3,25.9c0,0,9.7-0.5,12.4-4.4c0,0-15.8,7.9-12.4,29.1c0,0,5-14,12.4-13.8
				c0,0,1.3,7.7-4.2,13.8c0,0,4,0.3,6.1-4.2c0,0,1.3,9.1-4,15.1c0,0,6.4,1.5,8.4-1.2c0,0-9.5,14.7-6.3,29c0,0,2.3-14.9,12.8-16.4
				c0,0-5.9,17.7,3.9,24.9c0,0-3-11.2,3.1-15.3c0,0,1.7,9,11.9,9.1c0,0-2.1-11.8,4-15.7h136.2L351.5,388z"/>
			<path clip-path="url(#SVGID_24_)" fill="#3A3B6C" d="M271.2,332c0,0-2.4,8.1,4.1,8.7c0,0-3.2,2.9-8.2,0.8c0,0,5,7.9-1.1,20.5
				c0,0,0.5-10.7-1.3-15.1c0,0,1.7,7.2-2,11c0,0,1.3-3.1-0.9-4.9c0,0-5.1,8.1-1.8,16.8c0,0-3.2,0-4.6-3.9c0,0,1.2,21.2-4.9,26.9
				c0,0,2.2-11.6-0.3-14.2c0,0-2.9,5.2-1.5,12.1c0,0-4.8-2-3.4-7c0,0-6.3,9.4-1.9,20c0,0-6.5-0.6-5.8-8.4c0,0-2.6,5.3-1,8.4
				c0,0-1.9-0.6-2.2-4c-9.5,13.8-26.4,1.5-26.4,1.5c-20-10.3,4-38.4,4-38.4c-3.6,1.5-5.9-1.1-5.9-1.1c5.1,0,9.3-9,9.3-9
				c-5.1-2.1-11.4,3.7-11.4,3.7c5-13.2,15-11.5,15-11.5c-5.5,1.2-7.3-3.1-7.3-3.1c6.1,0.8,14.8-8.9,14.8-8.9
				c-2.9-0.8-6.7,0.8-6.7,0.8c2.4-6.3,11.4-6.7,11.4-6.7c-3.8-3.3-10,0.8-10,0.8c3.6-8.5,15-6.2,15-6.2c-2.3-0.1-3.2-3.4-3.2-3.4
				c4.1,1.3,10.2-3,10.2-3c-3.8-3.1-11.3-1.3-11.3-1.3c6.3-8.9,15.5-2.3,15.5-2.3c-38.5-28.2-33.2-48.1-33.2-48.1s6,14.7,18.9,22.6
				c0,0-13.7-11.5-8.7-34.7c0,0,0.6,23.2,16.9,30.9c0,0-7.1-7.9-3.4-23.8c0,0,2.1,12.9,7.5,18.1c6.1,5.8,10.9,9.5,15.3,12.5
				c0,0,4.1,2.8,4.2,2.8c3.1,2.1,6.6,5,8.3,8.5c2.1,4,2.6,8.7,2.5,13.1C275.9,319.8,273,325.9,271.2,332"/>
			<path clip-path="url(#SVGID_24_)" fill="#3A3B6C" d="M318.6,399.3c-3.1,1.7-0.8,9.9-0.8,9.9c-11.1-6.3-7.4-21.6-7.4-21.6
				c-5.2,3.1-3.7,10.2-3.7,10.2c-6.1-4.2-0.7-17.4-0.7-17.4c-2.3,5.2-6.1,4.7-6.1,4.7c2.4-7.5-1.6-16.3-0.7-16.7
				c-1.9-0.1-2.5,5.6-2.5,5.6c-3.8-4.5-1.4-13.1-1.4-13.1c-6.5,3.8-4.2,15.5-4.2,15.5c-9.1-12.9-0.6-25.4-0.6-25.4
				c-2.6,3.8-6.9,1.8-6.9,1.8c4-0.1,3.7-8.9,3.7-8.9c-6.5,1.1-8.1,11-8.1,11c-4.7-10.9,4.1-20.3,4.1-20.3c-5.4,3.7-8.3,1-8.3,1
				c5.7-5.7,3.5-15.8,3.5-15.8c-3.5-26.4,8.8-22.8,29.4-43.4c5.7-5.7,7.5-18.1,7.5-18.1c3.9,14.7-3.4,23.8-3.4,23.8
				c16.8-9.3,16.9-30.9,16.9-30.9c5.1,23.2-8.7,34.7-8.7,34.7c14.6-9.1,18.7-23.4,18.7-23.4s7.3,18.3-33,48.9c0,0,8.8,5.8,17.1-1.3
				c0,0-0.3,7.2-7.8,9.6c0,0,3.4-2,8.9,0c0,0-4.5-0.4-5.5,3.5c0,0,8.9,6.6,14-1.7c0,0,0,6.6-7.9,8.8c0,0,8.9-3.2,19,5.3
				c0,0-10.3-2.8-14.6,0.9c0,0,7-0.3,11,5.7c0,0-4.9-3.1-7,0.8c0,0,11.6,0.4,11.8,13.9c0,0-2.4-5.3-6.6-2.9c0,0,2.7,6.1,6.6,7.5
				c0,0-0.9,1.6-4.1,0c0,0,4.5,9.3,13.6,5.4c0,0,0,6-7.3,5.2c0.3,0,1,1.5,1.1,1.7c0.9,1.4,1.7,2.9,2.5,4.4c1.9,3.8,3.5,8.1,3.3,12.4
				c-0.3,5.3-4.9,8.3-9,10.9c-3.6,2.3-7.7,4.1-11.9,4.6C327.1,406.8,321.9,404.2,318.6,399.3"/>
			<polygon clip-path="url(#SVGID_24_)" fill="#FFFFFF" points="256.2,254.3 265.2,240.6 267.8,260.4 			"/>
			
				<path clip-path="url(#SVGID_24_)" fill="none" stroke="#FFFFFF" stroke-width="1.233" stroke-linecap="round" stroke-miterlimit="10" d="
				M253.3,251.8c0,0,22.1,22.7,46.8,0"/>
			<path clip-path="url(#SVGID_24_)" fill="#FFFFFF" d="M271.1,210c0,9.9-8,17.9-17.9,17.9s-17.9-8-17.9-17.9
				c0-9.9,8-17.9,17.9-17.9S271.1,200.1,271.1,210"/>
			<path clip-path="url(#SVGID_24_)" fill="#FFFFFF" d="M317.9,210c0,9.9-8,17.9-17.9,17.9s-17.9-8-17.9-17.9
				c0-9.9,8-17.9,17.9-17.9S317.9,200.1,317.9,210"/>
			<path clip-path="url(#SVGID_24_)" fill="#3A3867" d="M308.2,210c0,4.5-3.7,8.2-8.2,8.2c-4.5,0-8.2-3.7-8.2-8.2
				c0-4.5,3.7-8.2,8.2-8.2C304.6,201.8,308.2,205.4,308.2,210"/>
			<path clip-path="url(#SVGID_24_)" fill="#3A3867" d="M261.5,210c0,4.5-3.7,8.2-8.2,8.2c-4.5,0-8.2-3.7-8.2-8.2
				c0-4.5,3.7-8.2,8.2-8.2C257.8,201.8,261.5,205.4,261.5,210"/>
		</g>
		<g clip-path="url(#SVGID_10_)">
			<defs>
				<rect id="SVGID_25_" x="153.7" y="115.8" width="246.1" height="427.1"/>
			</defs>
			<clipPath id="SVGID_26_">
				<use xlink:href="#SVGID_25_"  overflow="visible"/>
			</clipPath>
			<g clip-path="url(#SVGID_26_)">
				<text transform="matrix(1 0 0 1 453.7959 690.808)" fill="#3A3B6C" font-family="'EvelethCleanRegular'" font-size="10.6003">mo</text>
			</g>
			<g clip-path="url(#SVGID_26_)">
				<text transform="matrix(1 0 0 1 473.374 690.808)" fill="#3A3B6C" font-family="'EvelethCleanRegular'" font-size="10.6003">m</text>
			</g>
			<g clip-path="url(#SVGID_26_)">
				<text transform="matrix(1 0 0 1 483.4131 690.808)" fill="#3A3B6C" font-family="'EvelethCleanRegular'" font-size="10.6003">my’s</text>
			</g>
			<g clip-path="url(#SVGID_26_)">
				<text transform="matrix(1 0 0 1 513.1592 690.8064)" fill="#3A3B6C" font-family="'EvelethCleanThin'" font-size="10.1184"> </text>
			</g>
			<g clip-path="url(#SVGID_26_)">
				<text transform="matrix(1 0 0 1 453.7959 702.5639)" fill="#3A3867" font-family="'EvelethCleanThin'" font-size="10.6003">l</text>
			</g>
			<path clip-path="url(#SVGID_26_)" fill="none" stroke="#3A3867" stroke-width="0.185" stroke-miterlimit="10" d="M460.2,702.6
				c0.1,0,0.2-0.1,0.2-0.2v-0.2c0-0.1-0.1-0.2-0.2-0.2h-4.4c-0.1,0-0.1-0.1-0.1-0.1v-7.3c0-0.1-0.1-0.2-0.2-0.2h-0.2
				c-0.1,0-0.2,0.1-0.2,0.2v7.9c0,0.1,0.1,0.2,0.2,0.2H460.2z"/>
			<g clip-path="url(#SVGID_26_)">
				<text transform="matrix(1 0 0 1 464.3428 702.5639)" fill="#3A3867" font-family="'EvelethCleanThin'" font-size="10.6003">i</text>
			</g>
			<path clip-path="url(#SVGID_26_)" fill="none" stroke="#3A3867" stroke-width="0.185" stroke-miterlimit="10" d="M465.5,702.4
				c0,0.1,0.1,0.2,0.2,0.2h0.2c0.1,0,0.2-0.1,0.2-0.2v-7.9c0-0.1-0.1-0.2-0.2-0.2h-0.2c-0.1,0-0.2,0.1-0.2,0.2V702.4z"/>
			<g clip-path="url(#SVGID_26_)">
				<text transform="matrix(1 0 0 1 471.5088 702.5639)" fill="#3A3867" font-family="'EvelethCleanThin'" font-size="10.6003">t</text>
			</g>
			<path clip-path="url(#SVGID_26_)" fill="none" stroke="#3A3867" stroke-width="0.185" stroke-miterlimit="10" d="M474.6,694.9
				c0.1,0,0.1,0.1,0.1,0.1v7.3c0,0.1,0.1,0.2,0.2,0.2h0.2c0.1,0,0.2-0.1,0.2-0.2v-7.3c0-0.1,0.1-0.1,0.1-0.1h2.7
				c0.1,0,0.2-0.1,0.2-0.2v-0.2c0-0.1-0.1-0.2-0.2-0.2H472c-0.1,0-0.2,0.1-0.2,0.2v0.2c0,0.1,0.1,0.2,0.2,0.2H474.6z"/>
			<g clip-path="url(#SVGID_26_)">
				<text transform="matrix(1 0 0 1 483.2334 702.5639)" fill="#3A3867" font-family="'EvelethCleanThin'" font-size="10.6003">t</text>
			</g>
			<path clip-path="url(#SVGID_26_)" fill="none" stroke="#3A3867" stroke-width="0.185" stroke-miterlimit="10" d="M486.3,694.9
				c0.1,0,0.1,0.1,0.1,0.1v7.3c0,0.1,0.1,0.2,0.2,0.2h0.2c0.1,0,0.2-0.1,0.2-0.2v-7.3c0-0.1,0.1-0.1,0.1-0.1h2.7
				c0.1,0,0.2-0.1,0.2-0.2v-0.2c0-0.1-0.1-0.2-0.2-0.2h-6.2c-0.1,0-0.2,0.1-0.2,0.2v0.2c0,0.1,0.1,0.2,0.2,0.2H486.3z"/>
			<g clip-path="url(#SVGID_26_)">
				<text transform="matrix(1 0 0 1 494.5752 702.5639)"><tspan x="0" y="0" fill="#3A3867" font-family="'EvelethCleanThin'" font-size="10.6003" letter-spacing="4">l</tspan><tspan x="11.1" y="0" fill="#3A3867" font-family="'EvelethCleanThin'" font-size="10.6003">e</tspan></text>
			</g>
			<path clip-path="url(#SVGID_26_)" fill="none" stroke="#3A3867" stroke-width="0.185" stroke-miterlimit="10" d="M501,702.6
				c0.1,0,0.2-0.1,0.2-0.2v-0.2c0-0.1-0.1-0.2-0.2-0.2h-4.4c-0.1,0-0.1-0.1-0.1-0.1v-7.3c0-0.1-0.1-0.2-0.2-0.2H496
				c-0.1,0-0.2,0.1-0.2,0.2v7.9c0,0.1,0.1,0.2,0.2,0.2H501z"/>
			<path clip-path="url(#SVGID_26_)" fill="none" stroke="#3A3867" stroke-width="0.185" stroke-miterlimit="10" d="M512.3,702.6
				c0.1,0,0.2-0.1,0.2-0.2v-0.2c0-0.1-0.1-0.2-0.2-0.2h-4.7c-0.1,0-0.1-0.1-0.1-0.1v-2.9c0-0.1,0.1-0.1,0.1-0.1h4
				c0.1,0,0.2-0.1,0.2-0.2v-0.2c0-0.1-0.1-0.2-0.2-0.2h-4c-0.1,0-0.1-0.1-0.1-0.1v-3c0-0.1,0.1-0.1,0.1-0.1h4.7
				c0.1,0,0.2-0.1,0.2-0.2v-0.2c0-0.1-0.1-0.2-0.2-0.2H507c-0.1,0-0.2,0.1-0.2,0.2v7.9c0,0.1,0.1,0.2,0.2,0.2H512.3z"/>
			<g clip-path="url(#SVGID_26_)">
				<text transform="matrix(1 0 0 1 453.7959 714.3217)" fill="#3A3B6C" font-family="'EvelethCleanRegular'" font-size="10.6003">m</text>
			</g>
			<g clip-path="url(#SVGID_26_)">
				<text transform="matrix(1 0 0 1 464.1104 714.3217)" fill="#3A3B6C" font-family="'EvelethCleanRegular'" font-size="10.6003">o</text>
			</g>
			<g clip-path="url(#SVGID_26_)">
				<text transform="matrix(1 0 0 1 473.4385 714.3217)" fill="#3A3B6C" font-family="'EvelethCleanRegular'" font-size="10.6003">n</text>
			</g>
			<g clip-path="url(#SVGID_26_)">
				<text transform="matrix(1 0 0 1 482.3643 714.3217)"><tspan x="0" y="0" fill="#3A3B6C" font-family="'EvelethCleanRegular'" font-size="10.6003">st</tspan><tspan x="15.4" y="0" fill="#3A3B6C" font-family="'EvelethCleanRegular'" font-size="10.6003">e</tspan><tspan x="22.9" y="0" fill="#3A3B6C" font-family="'EvelethCleanRegular'" font-size="10.6003">r</tspan></text>
			</g>
			<path clip-path="url(#SVGID_26_)" fill="#996FAE" d="M505.8,670.2c1,0.6,0.8,3.6,0.8,3.6c1.9-1.8,1.6-4.1,1.6-4.1
				c1.8,0.4,0.7,4.5,0.7,4.5c3.7-3.3,1.1-6.8,1.1-6.8c3.9,0.8,5-1.2,5-1.2c-3.3,0.4-3-2.3-3-2.3c1.3,0.7,2.2,0,2.2,0
				c-1.6-1.2-0.2-7.1-0.2-7.1c1.9,0.8,1.3,4.1,1.3,4.1c1.7-3.7-1.1-6.5-1.1-6.5c1.7-0.2,2.8,3.3,2.8,3.3c0.4-5.1-3-7-3-7
				c3.6,1.9,5.1-1.8,5.1-1.8c-4.4,1.9-6.6-3.2-6.6-3.2c2.1-0.4,3.1,0.7,3.1,0.7c-1.2-2.6-4.3-2.6-4.3-2.6c1.5-1.4,3.9,0,3.9,0
				c-1.9-3.1-5.5-1.7-5.5-1.7c3-1,2.9-5.1,2.9-5.1c-1,3.7-7,2.5-7,2.5c0.1-1.5,2.8-2.3,2.8-2.3c-2.5-0.4-5.1,1.5-5.1,1.5
				c1.5-1,0.6-2.3,0.6-2.3c0,1.8-3.1,1.6-3.1,1.6l-1.6-0.4c2.6,0.9,3.2-0.4,3.2-0.4c-1.8-0.9-1.4-2.6-1.4-2.6c0.6,1,1.2,1,1.2,1
				c-0.6-1-0.1-4.1-0.1-4.1c1.4,0.5,0.8,2.3,0.8,2.3c1.4-1.8-0.1-6.5-0.1-6.5c1.6,1.1,1.6,4.2,1.6,4.2c1.6-4.4-1.5-6.6-1.5-6.6
				c2.5,2,3.1-1.2,3.1-1.2c-2.4,1.3-3.4-2.8-3.4-2.8c1.2-0.7,2,1.1,2,1.1c-0.5-4.3-2.7-4.2-2.7-4.2c2.5-1,4.1,2.1,4.1,2.1
				c-1-6.1-5.3-5.7-5.3-5.7c0.7-1.4,2.8-0.8,2.8-0.8c-1.6-2-4.1-1.8-4.1-1.8c1.6,0,1.6-1.5,1.6-1.5c-1.8,0.6-3.2-0.9-3.2-0.9
				c2-1.8,4.2,0,4.2,0c-1.7-3.8-6.1-2.1-6.1-2.1c1.5-3.1,4.3-2.5,4.3-2.5c-3.8-3-7.7-0.4-7.7-0.4c0.1-0.3,0.3-0.6,0.5-0.9
				c1.1-1.5,3.4-2.4,3.4-2.4c-4.2-0.5-5.5,2.4-5.5,2.4c-0.4-1.7,1.6-3.1,1.6-3.1c-2.1,0.1-3.2,2.5-3.2,2.5c-0.8-2.3,2.2-5,2.2-5
				c-2.6,0.7-3.8,4-3.9,4.4c3.4-10.8-4-11.7-4-11.7c5.6,2.7,1.5,11.2,1.5,11.2c1.1-4.9-3.2-5.9-3.2-5.9c2.6,3.6,0,6,0,6
				s-2.1-2-0.5-3.8c0,0-2.4,1.2-1.5,4.1c0,0-4-3-1.6-7.2c0,0-4.4,3-1.9,8.4c0,0-3,0.7-5-2.1c0,0-0.4,1,0.2,2.2
				c0.3,0.6,0.8,1.2,1.6,1.8c0,0-4-2.7-7.4,1.5c0,0,4.2-1.4,5.1,0.7c0,0-3.5,2.6-6.8,1.7c0,0,1.7,2,4.2,1.5c0,0-2.5,0.2-2.8,2.3
				c0,0,1.1-0.9,1.7-0.4c0,0-1.4,2.5-4.1,2.1c0,0,1,1.9,2.4,1.7c0,0-4,0.7-4.5,6.1c0,0,2-2.8,3.6-2.9c0,0-2.9,2-2.2,5.5
				c0,0,1-2.8,1.8-2.9c0,0-0.2,5.1-2,5.6c0,0,0.7,1.3,1.8,0.9c0,0-3.6,2.5-3.1,5.9c0,0,1.5-3.1,3.8-3.2c0,0,0,2.8-1.7,3.9
				c0,0,0.9,0.3,2.6-0.8c0,0,0.6,2.7-1.6,2.7c0,0,1.2,1.1,3.6,0.7c0,0-2.7,1.4-6.1-0.8c0,0-0.3,1.6,1.5,2.1c0,0-3.5,0.4-5.1-2.6
				c0,0-0.7,3,2.2,3.9c0,0-5.5-2.1-8.4,2.7c0,0,3.7-2.2,4.9-0.1c0,0-4.6,0.8-4.9,3.7c0,0,1.5-1.3,2.9-0.9c0,0-2.2,4.9-5.7,7.6
				c0,0,2.9-0.1,3.6-1.3c0,0-4.7,2.3-3.6,8.5c0,0,1.5-4.1,3.6-4c0,0,0.4,2.3-1.2,4c0,0,1.2,0.1,1.8-1.2c0,0,0.4,2.7-1.2,4.5
				c0,0,1.9,0.4,2.5-0.4c0,0-2.8,4.3-1.9,8.5c0,0,0.7-4.4,3.8-4.8c0,0-1.7,5.2,1.1,7.3c0,0-0.9-3.3,0.9-4.5c0,0,0.5,2.6,3.5,2.7
				c0,0-0.6-3.5,1.2-4.6h40L505.8,670.2z"/>
			<path clip-path="url(#SVGID_26_)" fill="#3A3B6C" d="M482.2,653.8c0,0-0.7,2.4,1.2,2.5c0,0-1,0.9-2.4,0.2c0,0,1.5,2.3-0.3,6
				c0,0,0.1-3.2-0.4-4.4c0,0,0.5,2.1-0.6,3.2c0,0,0.4-0.9-0.3-1.4c0,0-1.5,2.4-0.5,4.9c0,0-0.9,0-1.4-1.2c0,0,0.4,6.2-1.4,7.9
				c0,0,0.7-3.4-0.1-4.2c0,0-0.9,1.5-0.4,3.6c0,0-1.4-0.6-1-2.1c0,0-1.9,2.8-0.5,5.9c0,0-1.9-0.2-1.7-2.5c0,0-0.8,1.5-0.3,2.5
				c0,0-0.6-0.2-0.7-1.2c-2.8,4-7.7,0.4-7.7,0.4c-5.9-3,1.2-11.3,1.2-11.3c-1.1,0.4-1.7-0.3-1.7-0.3c1.5,0,2.7-2.6,2.7-2.6
				c-1.5-0.6-3.3,1.1-3.3,1.1c1.5-3.9,4.4-3.4,4.4-3.4c-1.6,0.3-2.1-0.9-2.1-0.9c1.8,0.2,4.3-2.6,4.3-2.6c-0.8-0.2-2,0.2-2,0.2
				c0.7-1.9,3.4-2,3.4-2c-1.1-1-2.9,0.2-2.9,0.2c1.1-2.5,4.4-1.8,4.4-1.8c-0.7,0-0.9-1-0.9-1c1.2,0.4,3-0.9,3-0.9
				c-1.1-0.9-3.3-0.4-3.3-0.4c1.9-2.6,4.6-0.7,4.6-0.7c-11.3-8.3-9.8-14.1-9.8-14.1s1.8,4.3,5.6,6.6c0,0-4-3.4-2.6-10.2
				c0,0,0.2,6.8,5,9.1c0,0-2.1-2.3-1-7c0,0,0.6,3.8,2.2,5.3c1.8,1.7,3.2,2.8,4.5,3.7c0,0,1.2,0.8,1.2,0.8c0.9,0.6,1.9,1.5,2.5,2.5
				c0.6,1.2,0.8,2.6,0.7,3.9C483.6,650.2,482.7,652,482.2,653.8"/>
			<path clip-path="url(#SVGID_26_)" fill="#3A3B6C" d="M496.1,673.5c-0.9,0.5-0.2,2.9-0.2,2.9c-3.3-1.8-2.2-6.3-2.2-6.3
				c-1.5,0.9-1.1,3-1.1,3c-1.8-1.2-0.2-5.1-0.2-5.1c-0.7,1.5-1.8,1.4-1.8,1.4c0.7-2.2-0.5-4.8-0.2-4.9c-0.5,0-0.7,1.7-0.7,1.7
				c-1.1-1.3-0.4-3.9-0.4-3.9c-1.9,1.1-1.2,4.5-1.2,4.5c-2.7-3.8-0.2-7.5-0.2-7.5c-0.8,1.1-2,0.5-2,0.5c1.2,0,1.1-2.6,1.1-2.6
				c-1.9,0.3-2.4,3.2-2.4,3.2c-1.4-3.2,1.2-6,1.2-6c-1.6,1.1-2.4,0.3-2.4,0.3c1.7-1.7,1-4.7,1-4.7c-1-7.8,2.6-6.7,8.6-12.7
				c1.7-1.7,2.2-5.3,2.2-5.3c1.1,4.3-1,7-1,7c4.9-2.7,5-9.1,5-9.1c1.5,6.8-2.6,10.2-2.6,10.2c4.3-2.7,5.5-6.9,5.5-6.9
				s2.1,5.4-9.7,14.4c0,0,2.6,1.7,5-0.4c0,0-0.1,2.1-2.3,2.8c0,0,1-0.6,2.6,0c0,0-1.3-0.1-1.6,1c0,0,2.6,1.9,4.1-0.5
				c0,0,0,2-2.3,2.6c0,0,2.6-0.9,5.6,1.6c0,0-3-0.8-4.3,0.2c0,0,2.1-0.1,3.2,1.7c0,0-1.4-0.9-2.1,0.2c0,0,3.4,0.1,3.5,4.1
				c0,0-0.7-1.6-1.9-0.9c0,0,0.8,1.8,1.9,2.2c0,0-0.3,0.5-1.2,0c0,0,1.3,2.7,4,1.6c0,0,0,1.8-2.2,1.5c0.1,0,0.3,0.4,0.3,0.5
				c0.3,0.4,0.5,0.9,0.7,1.3c0.5,1.1,1,2.4,1,3.7c-0.1,1.5-1.4,2.5-2.6,3.2c-1.1,0.7-2.3,1.2-3.5,1.4
				C498.6,675.7,497.1,675,496.1,673.5"/>
			<polygon clip-path="url(#SVGID_26_)" fill="#FFFFFF" points="478.3,631.7 479.6,626.3 481.2,632.9 			"/>
			
				<path clip-path="url(#SVGID_26_)" fill="none" stroke="#FFFFFF" stroke-width="0.362" stroke-linecap="round" stroke-miterlimit="10" d="
				M476.9,630.2c0,0,6.5,6.7,13.7,0"/>
			<path clip-path="url(#SVGID_26_)" fill="#FFFFFF" d="M482.2,617.9c0,2.9-2.4,5.3-5.3,5.3s-5.3-2.4-5.3-5.3s2.4-5.3,5.3-5.3
				S482.2,615,482.2,617.9"/>
			<path clip-path="url(#SVGID_26_)" fill="#FFFFFF" d="M495.9,617.9c0,2.9-2.4,5.3-5.3,5.3c-2.9,0-5.3-2.4-5.3-5.3s2.4-5.3,5.3-5.3
				C493.6,612.7,495.9,615,495.9,617.9"/>
			<path clip-path="url(#SVGID_26_)" fill="#3A3867" d="M493.1,617.9c0,1.3-1.1,2.4-2.4,2.4c-1.3,0-2.4-1.1-2.4-2.4s1.1-2.4,2.4-2.4
				C492,615.5,493.1,616.6,493.1,617.9"/>
			<path clip-path="url(#SVGID_26_)" fill="#3A3867" d="M479.3,617.9c0,1.3-1.1,2.4-2.4,2.4c-1.3,0-2.4-1.1-2.4-2.4s1.1-2.4,2.4-2.4
				C478.3,615.5,479.3,616.6,479.3,617.9"/>
			<polygon clip-path="url(#SVGID_26_)" fill="#FFFFFF" points="489.2,631.7 487.9,626.3 486.3,632.9 			"/>
			<polygon clip-path="url(#SVGID_26_)" fill="#FFFFFF" points="297.6,254.3 288.6,240.6 286.1,260.4 			"/>
		</g>
	</g>
</g>
<rect x="65.6" y="2.2" fill="none" stroke="#000000" stroke-width="0.25" stroke-miterlimit="10" width="417" height="695"/>
</svg>
