<?xml version="1.0" encoding="utf-8"?>
<!-- Generator: Adobe Illustrator 18.1.0, SVG Export Plug-In . SVG Version: 6.00 Build 0)  -->
<svg version="1.0" id="Layer_1" xmlns="http://www.w3.org/2000/svg" xmlns:xlink="http://www.w3.org/1999/xlink" x="0px" y="0px"
	 viewBox="0 0 1000 700" enable-background="new 0 0 1000 700" xml:space="preserve">
<g>
	<g>
		<defs>
			<rect id="SVGID_1_" x="45.5" y="-140.5" width="915.1" height="1176.6"/>
		</defs>
		<clipPath id="SVGID_2_">
			<use xlink:href="#SVGID_1_"  overflow="visible"/>
		</clipPath>
		<path clip-path="url(#SVGID_2_)" fill="#221F1F" d="M888.7,966H731.8V756.8h156.9V966z M890.1,755.4h-1.5H731.8h-1.5v1.5V966v1.5
			h1.5h156.9h1.5V966V756.8V755.4z"/>
		<g clip-path="url(#SVGID_2_)">
			<text transform="matrix(1 0 0 1 329.3882 557.2891)" fill="#231F20" font-family="'EvelethCleanRegular'" font-size="56.1646">mo</text>
		</g>
		<g clip-path="url(#SVGID_2_)">
			<text transform="matrix(1 0 0 1 433.1246 557.2891)" fill="#231F20" font-family="'EvelethCleanRegular'" font-size="56.1646">m</text>
		</g>
		<g clip-path="url(#SVGID_2_)">
			<text transform="matrix(1 0 0 1 486.3121 557.2891)" fill="#231F20" font-family="'EvelethCleanRegular'" font-size="56.1646">my’s</text>
		</g>
		<g clip-path="url(#SVGID_2_)">
			<text transform="matrix(1 0 0 1 643.9083 557.2891)" fill="#231F20" font-family="'EvelethCleanThin'" font-size="53.6116"> </text>
		</g>
		<g clip-path="url(#SVGID_2_)">
			<text transform="matrix(1 0 0 1 329.3882 619.5792)" fill="#231F20" font-family="'EvelethCleanThin'" font-size="56.164">l</text>
		</g>
		<g clip-path="url(#SVGID_2_)">
			<defs>
				<rect id="SVGID_3_" x="45.5" y="-140.5" width="915.1" height="1176.6"/>
			</defs>
			<clipPath id="SVGID_4_">
				<use xlink:href="#SVGID_3_"  overflow="visible"/>
			</clipPath>
			<path clip-path="url(#SVGID_4_)" fill="none" stroke="#231F20" stroke-width="1.725" stroke-miterlimit="10" d="M363.3,619.6
				c0.6,0,1-0.5,1-1v-1.2c0-0.6-0.5-1-1-1h-23.5c-0.5,0-0.8-0.3-0.8-0.8v-38.8c0-0.6-0.4-1-1-1h-1.3c-0.6,0-1,0.4-1,1v41.8
				c0,0.6,0.5,1,1,1H363.3z"/>
		</g>
		<g clip-path="url(#SVGID_2_)">
			<text transform="matrix(1 0 0 1 385.272 619.5792)" fill="#231F20" font-family="'EvelethCleanThin'" font-size="56.164">i</text>
		</g>
		<g clip-path="url(#SVGID_2_)">
			<defs>
				<rect id="SVGID_5_" x="45.5" y="-140.5" width="915.1" height="1176.6"/>
			</defs>
			<clipPath id="SVGID_6_">
				<use xlink:href="#SVGID_5_"  overflow="visible"/>
			</clipPath>
			<path clip-path="url(#SVGID_6_)" fill="none" stroke="#231F20" stroke-width="1.725" stroke-miterlimit="10" d="M391.6,618.6
				c0,0.6,0.5,1,1,1h1.3c0.6,0,1-0.4,1-1v-41.8c0-0.6-0.4-1-1-1h-1.3c-0.6,0-1,0.5-1,1V618.6z"/>
		</g>
		<g clip-path="url(#SVGID_2_)">
			<text transform="matrix(1 0 0 1 423.2388 619.5792)" fill="#231F20" font-family="'EvelethCleanThin'" font-size="56.164">t</text>
		</g>
		<g clip-path="url(#SVGID_2_)">
			<defs>
				<rect id="SVGID_7_" x="45.5" y="-140.5" width="915.1" height="1176.6"/>
			</defs>
			<clipPath id="SVGID_8_">
				<use xlink:href="#SVGID_7_"  overflow="visible"/>
			</clipPath>
			<path clip-path="url(#SVGID_8_)" fill="none" stroke="#231F20" stroke-width="1.725" stroke-miterlimit="10" d="M439.8,579
				c0.5,0,0.8,0.3,0.8,0.8v38.8c0,0.6,0.4,1,1,1h1.3c0.6,0,1-0.5,1-1v-38.8c0-0.5,0.3-0.8,0.8-0.8h14c0.6,0,1-0.5,1-1v-1.2
				c0-0.6-0.5-1-1-1h-32.9c-0.6,0-1,0.4-1,1v1.2c0,0.6,0.5,1,1,1H439.8z"/>
		</g>
		<g clip-path="url(#SVGID_2_)">
			<text transform="matrix(1 0 0 1 485.355 619.5792)" fill="#231F20" font-family="'EvelethCleanThin'" font-size="56.164">t</text>
		</g>
		<g clip-path="url(#SVGID_2_)">
			<defs>
				<rect id="SVGID_9_" x="45.5" y="-140.5" width="915.1" height="1176.6"/>
			</defs>
			<clipPath id="SVGID_10_">
				<use xlink:href="#SVGID_9_"  overflow="visible"/>
			</clipPath>
			<path clip-path="url(#SVGID_10_)" fill="none" stroke="#231F20" stroke-width="1.725" stroke-miterlimit="10" d="M501.9,579
				c0.4,0,0.8,0.3,0.8,0.8v38.8c0,0.6,0.5,1,1,1h1.3c0.6,0,1-0.5,1-1v-38.8c0-0.5,0.3-0.8,0.8-0.8h14c0.6,0,1-0.5,1-1v-1.2
				c0-0.6-0.4-1-1-1h-32.9c-0.6,0-1,0.4-1,1v1.2c0,0.6,0.4,1,1,1H501.9z"/>
		</g>
		<g clip-path="url(#SVGID_2_)">
			<text transform="matrix(1 0 0 1 545.4512 619.5792)"><tspan x="0" y="0" fill="#231F20" font-family="'EvelethCleanThin'" font-size="56.164" letter-spacing="21">l</tspan><tspan x="58.6" y="0" fill="#231F20" font-family="'EvelethCleanThin'" font-size="56.164">e</tspan></text>
		</g>
		<g clip-path="url(#SVGID_2_)">
			<defs>
				<rect id="SVGID_11_" x="45.5" y="-140.5" width="915.1" height="1176.6"/>
			</defs>
			<clipPath id="SVGID_12_">
				<use xlink:href="#SVGID_11_"  overflow="visible"/>
			</clipPath>
			<path clip-path="url(#SVGID_12_)" fill="none" stroke="#231F20" stroke-width="1.725" stroke-miterlimit="10" d="M579.4,619.6
				c0.6,0,1-0.5,1-1v-1.2c0-0.6-0.4-1-1-1h-23.5c-0.5,0-0.8-0.3-0.8-0.8v-38.8c0-0.6-0.5-1-1-1h-1.3c-0.6,0-1,0.4-1,1v41.8
				c0,0.6,0.4,1,1,1H579.4z"/>
			<path clip-path="url(#SVGID_12_)" fill="none" stroke="#231F20" stroke-width="1.725" stroke-miterlimit="10" d="M639.5,619.6
				c0.6,0,1-0.5,1-1v-1.2c0-0.6-0.4-1-1-1h-25c-0.5,0-0.8-0.3-0.8-0.8v-15.1c0-0.4,0.3-0.8,0.8-0.8h21c0.6,0,1-0.4,1-1v-1.1
				c0-0.6-0.4-1-1-1h-21c-0.5,0-0.8-0.3-0.8-0.8v-15.9c0-0.5,0.3-0.8,0.8-0.8h25c0.6,0,1-0.5,1-1v-1.2c0-0.6-0.4-1-1-1h-28.1
				c-0.6,0-1,0.4-1,1v41.8c0,0.6,0.4,1,1,1H639.5z"/>
		</g>
		<g clip-path="url(#SVGID_2_)">
			<text transform="matrix(1 0 0 1 329.3882 681.8712)" fill="#231F20" font-family="'EvelethCleanRegular'" font-size="56.1646">m</text>
		</g>
		<g clip-path="url(#SVGID_2_)">
			<text transform="matrix(1 0 0 1 384.0367 681.8712)" fill="#231F20" font-family="'EvelethCleanRegular'" font-size="56.1646">o</text>
		</g>
		<g clip-path="url(#SVGID_2_)">
			<text transform="matrix(1 0 0 1 433.4615 681.8712)" fill="#231F20" font-family="'EvelethCleanRegular'" font-size="56.1646">n</text>
		</g>
		<g clip-path="url(#SVGID_2_)">
			<text transform="matrix(1 0 0 1 480.7525 681.8712)"><tspan x="0" y="0" fill="#231F20" font-family="'EvelethCleanRegular'" font-size="56.1646" letter-spacing="1">ste</tspan><tspan x="121.6" y="0" fill="#231F20" font-family="'EvelethCleanRegular'" font-size="56.1646">r</tspan></text>
		</g>
		<polygon clip-path="url(#SVGID_2_)" fill="#231F20" points="623.1,407.4 615.1,430.7 369.3,430.7 351.4,405.5 327,393.8 
			327,112.4 650.2,112.4 650.2,377.7 		"/>
		
			<polygon clip-path="url(#SVGID_2_)" fill="none" stroke="#FFFFFF" stroke-width="1.701" stroke-miterlimit="10" stroke-dasharray="17.005,17.005" points="
			606.3,392.5 599.2,413 381.9,413 366.1,390.8 344.5,380.4 344.5,131.7 630.2,131.7 630.2,366.3 		"/>
		<g clip-path="url(#SVGID_2_)">
			<defs>
				<rect id="SVGID_13_" x="45.5" y="-140.5" width="915.1" height="1176.6"/>
			</defs>
			<clipPath id="SVGID_14_">
				<use xlink:href="#SVGID_13_"  overflow="visible"/>
			</clipPath>
			<path clip-path="url(#SVGID_14_)" fill="#6E6F72" d="M604.9,448.2c5.4,3.3,4.1,19.3,4.1,19.3c10.3-9.5,8.5-21.9,8.5-21.9
				c9.7,2.3,3.8,23.6,3.8,23.6c19.3-17.3,6-36.2,6-36.2c20.8,4.1,26.6-6.6,26.6-6.6C636.6,428.4,638,414,638,414
				c6.8,3.7,11.9,0,11.9,0c-8.5-6.6-1-37.8-1-37.8c9.9,4.2,7,21.7,7,21.7c9.1-19.3-6-34.6-6-34.6c9.2-0.8,14.7,17.7,14.7,17.7
				c2.1-26.8-16-37.1-16-37.1c19,10.2,27.1-9.4,27.1-9.4c-23.1,9.9-35.2-16.8-35.2-16.8c11.3-1.9,16.3,3.6,16.3,3.6
				c-6.6-14-23-14-23-14c7.9-7.4,20.5,0,20.5,0c-9.9-16.5-29.1-9.2-29.1-9.2c15.8-5.5,15.3-27.2,15.3-27.2
				c-5.6,19.8-37,13.4-37,13.4c0.4-8,14.7-12.4,14.7-12.4c-13.3-2.2-27,8.1-27,8.1c7.8-5.3,3.1-12,3.1-12c0,9.5-16.3,8.4-16.3,8.4
				l-8.4-2.3c13.9,4.6,17.1-2,17.1-2c-9.7-4.9-7.2-13.7-7.2-13.7c3.3,5.4,6.2,5.3,6.2,5.3c-3.3-5.5-0.7-21.8-0.7-21.8
				c7.2,2.5,4.2,12.3,4.2,12.3c7.3-9.6-0.5-34.5-0.5-34.5c8.4,5.8,8.5,22.2,8.5,22.2c8.6-23.5-7.9-34.8-7.9-34.8
				c13.1,10.5,16.6-6.3,16.6-6.3c-12.8,7-18.1-15.1-18.1-15.1c6.1-3.6,10.7,5.8,10.7,5.8c-2.5-22.9-14.2-22.2-14.2-22.2
				c13-5.1,21.6,11.3,21.6,11.3c-5.4-32.5-28.2-30-28.2-30c3.9-7.4,14.9-4.1,14.9-4.1c-8.4-10.7-21.9-9.6-21.9-9.6
				c8.4-0.1,8.4-7.7,8.4-7.7c-9.5,3.3-17.1-5-17.1-5c10.4-9.6,22.3,0,22.3,0c-9-20.1-32.3-11.3-32.3-11.3
				c7.9-16.5,22.7-13.1,22.7-13.1c-20.1-15.7-41-2-41-2c0.5-1.6,1.4-3.1,2.4-4.6c5.8-7.8,18.2-12.6,18.2-12.6
				C532,78,525.1,93,525.1,93c-1.9-8.9,8.5-16.6,8.5-16.6c-11.1,0.4-16.7,13.1-16.7,13.1c-4.3-12.3,11.4-26.6,11.4-26.6
				c-13.6,3.5-20.1,21.2-20.9,23.5c18.1-57-21.4-61.7-21.4-61.7c29.7,14.2,8.1,59.3,8.1,59.3c5.7-25.9-17.2-31.5-17.2-31.5
				c13.9,19.1,0,31.9,0,31.9S466,73.4,474.3,64c0,0-13,6.3-7.7,21.9c0,0-21.1-15.7-8.3-38.4c0,0-23.3,15.7-10.2,44.7
				c0,0-16.1,3.5-26.6-10.9c0,0-2.3,5.1,1,11.7c1.4,2.9,4,6.2,8.3,9.4c0,0-21.4-14.2-39.1,8.1c0,0,22-7.6,26.9,3.5
				c0,0-18.4,13.9-36,9c0,0,8.9,10.4,22.4,7.9c0,0-13.2,1.3-14.9,12.4c0,0,6-4.8,8.8-2.2c0,0-7.6,13.3-21.6,11.2c0,0,5.3,9.8,12.8,9
				c0,0-21.4,3.7-23.8,32.1c0,0,10.5-15.1,19.2-15.2c0,0-15.1,10.5-11.8,28.9c0,0,5.1-15,9.8-15.6c0,0-1.1,27-10.6,29.5
				c0,0,3.9,7,9.8,4.5c0,0-19.2,13.2-16.4,31.3c0,0,8-16.4,20.1-17c0,0,0,14.6-9,20.7c0,0,4.8,1.6,14-4.3c0,0,3.2,14.2-8.7,14.2
				c0,0,6.2,5.6,19,3.8c0,0-14.4,7.5-32.5-4.3c0,0-1.4,8.3,8.2,11.1c0,0-18.5,2-27.1-14c0,0-3.5,15.7,11.6,20.4
				c0,0-28.9-11-44.6,14.2c0,0,19.9-11.5,26.2-0.6c0,0-24.1,4.3-26.2,19.5c0,0,8.1-6.7,15.2-5c0,0-11.9,25.7-30,40.3
				c0,0,15.2-0.7,19.3-6.9c0,0-24.7,12.3-19.3,45.3c0,0,7.8-21.8,19.3-21.4c0,0,2.1,11.9-6.6,21.4c0,0,6.2,0.4,9.5-6.6
				c0,0,2,14.1-6.2,23.6c0,0,10,2.3,13.1-1.9c0,0-14.8,22.8-9.8,45.1c0,0,3.5-23.2,19.9-25.6c0,0-9.2,27.6,6.1,38.7
				c0,0-4.6-17.5,4.9-23.7c0,0,2.7,14,18.5,14.1c0,0-3.3-18.4,6.2-24.4h212L604.9,448.2z"/>
			<path clip-path="url(#SVGID_14_)" fill="#231F20" d="M479.9,361c0,0-3.7,12.7,6.3,13.5c0,0-5,4.6-12.7,1.3c0,0,7.8,12.3-1.7,31.9
				c0,0,0.8-16.7-2.1-23.5c0,0,2.7,11.1-3.1,17.1c0,0,2-4.9-1.3-7.7c0,0-8,12.6-2.8,26.2c0,0-5,0-7.2-6.1c0,0,1.9,33.1-7.6,41.9
				c0,0,3.5-18.1-0.4-22.2c0,0-4.5,8.2-2.3,18.9c0,0-7.4-3.1-5.4-10.9c0,0-9.9,14.6-2.9,31.1c0,0-10.1-1-9.1-13.1
				c0,0-4.1,8.2-1.6,13.1c0,0-3-1-3.4-6.2c-14.9,21.4-41,2.4-41,2.4c-31.2-16,6.3-59.7,6.3-59.7c-5.6,2.4-9.2-1.7-9.2-1.7
				c7.9,0,14.5-14,14.5-14c-7.9-3.2-17.7,5.8-17.7,5.8c7.7-20.6,23.4-17.9,23.4-17.9c-8.6,1.8-11.3-4.8-11.3-4.8
				c9.6,1.2,23-13.8,23-13.8c-4.4-1.2-10.4,1.2-10.4,1.2c3.7-9.9,17.8-10.4,17.8-10.4c-5.9-5.1-15.6,1.2-15.6,1.2
				c5.6-13.3,23.3-9.6,23.3-9.6c-3.5-0.2-4.9-5.3-4.9-5.3c6.4,2.1,15.9-4.7,15.9-4.7c-5.9-4.8-17.6-2-17.6-2
				c9.9-13.9,24.2-3.7,24.2-3.7c-59.9-43.9-51.8-74.9-51.8-74.9s9.4,22.8,29.5,35.2c0,0-21.3-17.9-13.6-54c0,0,0.9,36.1,26.2,48.2
				c0,0-11.1-12.3-5.2-37.1c0,0,3.2,20.1,11.7,28.1c9.5,9,17,14.8,23.8,19.4c0,0,6.5,4.4,6.5,4.4c4.8,3.3,10.2,7.9,13,13.2
				c3.2,6.2,4.1,13.5,3.9,20.4C487.2,342,482.6,351.5,479.9,361"/>
			<path clip-path="url(#SVGID_14_)" fill="#231F20" d="M553.7,465.7c-4.9,2.6-1.3,15.4-1.3,15.4c-17.3-9.8-11.5-33.6-11.5-33.6
				c-8.1,4.8-5.8,15.9-5.8,15.9c-9.6-6.5-1.1-27.1-1.1-27.1c-3.5,8.1-9.4,7.3-9.4,7.3c3.7-11.7-2.5-25.3-1-26
				c-2.9-0.1-3.9,8.7-3.9,8.7c-5.9-7.1-2.1-20.4-2.1-20.4c-10.2,5.8-6.5,24.1-6.5,24.1c-14.2-20.1-1-39.5-1-39.5
				c-4.1,5.9-10.8,2.8-10.8,2.8c6.2-0.2,5.7-13.8,5.7-13.8c-10.1,1.7-12.7,17.2-12.7,17.2c-7.3-17,6.3-31.5,6.3-31.5
				c-8.3,5.8-13,1.6-13,1.6c8.9-8.9,5.4-24.7,5.4-24.7c-5.4-41.1,13.7-35.6,45.8-67.5c8.9-8.9,11.7-28.1,11.7-28.1
				c6,22.8-5.2,37.1-5.2,37.1c26.1-14.5,26.2-48.2,26.2-48.2c7.9,36.1-13.6,54-13.6,54c22.7-14.2,29.2-36.4,29.2-36.4
				s11.4,28.5-51.4,76.2c0,0,13.7,9,26.7-2c0,0-0.4,11.2-12.1,15c0,0,5.3-3,13.9,0c0,0-7-0.6-8.6,5.4c0,0,13.8,10.3,21.8-2.7
				c0,0,0,10.3-12.4,13.7c0,0,13.9-5,29.6,8.3c0,0-16.1-4.4-22.7,1.3c0,0,10.9-0.4,17.1,8.9c0,0-7.6-4.8-10.9,1.3
				c0,0,18,0.6,18.3,21.6c0,0-3.8-8.3-10.3-4.6c0,0,4.1,9.5,10.3,11.7c0,0-1.4,2.5-6.4,0c0,0,7,14.5,21.2,8.3c0,0,0,9.3-11.4,8
				c0.4,0,1.5,2.3,1.7,2.6c1.4,2.2,2.7,4.5,3.8,6.9c2.9,5.9,5.5,12.7,5.1,19.4c-0.5,8.2-7.6,13-14,16.9c-5.6,3.5-11.9,6.4-18.6,7.2
				C566.9,477.3,558.9,473.3,553.7,465.7"/>
			<polygon clip-path="url(#SVGID_14_)" fill="#FFFFFF" points="456.6,240 470.5,218.6 474.5,249.5 			"/>
			
				<path clip-path="url(#SVGID_14_)" fill="none" stroke="#FFFFFF" stroke-width="3.401" stroke-linecap="round" stroke-miterlimit="10" d="
				M451.9,236.1c0,0,34.3,35.4,72.8,0"/>
			<path clip-path="url(#SVGID_14_)" fill="#FFFFFF" d="M479.8,171c0,15.4-12.5,27.8-27.8,27.8c-15.4,0-27.8-12.5-27.8-27.8
				c0-15.4,12.5-27.8,27.8-27.8C467.3,143.2,479.8,155.6,479.8,171"/>
			<path clip-path="url(#SVGID_14_)" fill="#FFFFFF" d="M552.6,171c0,15.4-12.5,27.8-27.8,27.8c-15.4,0-27.8-12.5-27.8-27.8
				c0-15.4,12.5-27.8,27.8-27.8C540.1,143.2,552.6,155.6,552.6,171"/>
			<path clip-path="url(#SVGID_14_)" fill="#231F20" d="M537.5,171c0,7-5.7,12.8-12.8,12.8c-7,0-12.8-5.7-12.8-12.8
				c0-7,5.7-12.8,12.8-12.8C531.8,158.3,537.5,164,537.5,171"/>
			<path clip-path="url(#SVGID_14_)" fill="#231F20" d="M464.7,171c0,7-5.7,12.8-12.8,12.8c-7,0-12.8-5.7-12.8-12.8
				c0-7,5.7-12.8,12.8-12.8C459,158.3,464.7,164,464.7,171"/>
		</g>
		<g clip-path="url(#SVGID_2_)">
			<text transform="matrix(1 0 0 1 764.0997 919.4766)" fill="#231F20" font-family="'EvelethCleanRegular'" font-size="16.4997">mo</text>
		</g>
		<g clip-path="url(#SVGID_2_)">
			<text transform="matrix(1 0 0 1 794.5743 919.4766)" fill="#231F20" font-family="'EvelethCleanRegular'" font-size="16.4997">m</text>
		</g>
		<g clip-path="url(#SVGID_2_)">
			<text transform="matrix(1 0 0 1 810.1993 919.4766)" fill="#231F20" font-family="'EvelethCleanRegular'" font-size="16.4997">my’s</text>
		</g>
		<g clip-path="url(#SVGID_2_)">
			<text transform="matrix(1 0 0 1 856.4981 919.4766)" fill="#231F20" font-family="'EvelethCleanThin'" font-size="15.7498"> </text>
		</g>
		<g clip-path="url(#SVGID_2_)">
			<text transform="matrix(1 0 0 1 764.0997 937.7764)" fill="#231F20" font-family="'EvelethCleanThin'" font-size="16.4997">l</text>
		</g>
		<g clip-path="url(#SVGID_2_)">
			<defs>
				<rect id="SVGID_15_" x="45.5" y="-140.5" width="915.1" height="1176.6"/>
			</defs>
			<clipPath id="SVGID_16_">
				<use xlink:href="#SVGID_15_"  overflow="visible"/>
			</clipPath>
			<path clip-path="url(#SVGID_16_)" fill="none" stroke="#231F20" stroke-width="0.511" stroke-miterlimit="10" d="M774.1,937.8
				c0.2,0,0.3-0.1,0.3-0.3v-0.4c0-0.2-0.1-0.3-0.3-0.3h-6.9c-0.1,0-0.2-0.1-0.2-0.2v-11.4c0-0.2-0.1-0.3-0.3-0.3h-0.4
				c-0.2,0-0.3,0.1-0.3,0.3v12.3c0,0.2,0.1,0.3,0.3,0.3H774.1z"/>
		</g>
		<g clip-path="url(#SVGID_2_)">
			<text transform="matrix(1 0 0 1 780.5157 937.7764)" fill="#231F20" font-family="'EvelethCleanThin'" font-size="16.4997">i</text>
		</g>
		<g clip-path="url(#SVGID_2_)">
			<defs>
				<rect id="SVGID_17_" x="45.5" y="-140.5" width="915.1" height="1176.6"/>
			</defs>
			<clipPath id="SVGID_18_">
				<use xlink:href="#SVGID_17_"  overflow="visible"/>
			</clipPath>
			<path clip-path="url(#SVGID_18_)" fill="none" stroke="#231F20" stroke-width="0.511" stroke-miterlimit="10" d="M782.4,937.5
				c0,0.2,0.1,0.3,0.3,0.3h0.4c0.2,0,0.3-0.1,0.3-0.3v-12.3c0-0.2-0.1-0.3-0.3-0.3h-0.4c-0.2,0-0.3,0.1-0.3,0.3V937.5z"/>
		</g>
		<g clip-path="url(#SVGID_2_)">
			<text transform="matrix(1 0 0 1 791.67 937.7764)" fill="#231F20" font-family="'EvelethCleanThin'" font-size="16.4997">t</text>
		</g>
		<g clip-path="url(#SVGID_2_)">
			<defs>
				<rect id="SVGID_19_" x="45.5" y="-140.5" width="915.1" height="1176.6"/>
			</defs>
			<clipPath id="SVGID_20_">
				<use xlink:href="#SVGID_19_"  overflow="visible"/>
			</clipPath>
			<path clip-path="url(#SVGID_20_)" fill="none" stroke="#231F20" stroke-width="0.511" stroke-miterlimit="10" d="M796.5,925.9
				c0.1,0,0.2,0.1,0.2,0.2v11.4c0,0.2,0.1,0.3,0.3,0.3h0.4c0.2,0,0.3-0.1,0.3-0.3v-11.4c0-0.1,0.1-0.2,0.2-0.2h4.1
				c0.2,0,0.3-0.1,0.3-0.3v-0.4c0-0.2-0.1-0.3-0.3-0.3h-9.7c-0.2,0-0.3,0.1-0.3,0.3v0.4c0,0.2,0.1,0.3,0.3,0.3H796.5z"/>
		</g>
		<g clip-path="url(#SVGID_2_)">
			<text transform="matrix(1 0 0 1 809.918 937.7764)" fill="#231F20" font-family="'EvelethCleanThin'" font-size="16.4997">t</text>
		</g>
		<g clip-path="url(#SVGID_2_)">
			<defs>
				<rect id="SVGID_21_" x="45.5" y="-140.5" width="915.1" height="1176.6"/>
			</defs>
			<clipPath id="SVGID_22_">
				<use xlink:href="#SVGID_21_"  overflow="visible"/>
			</clipPath>
			<path clip-path="url(#SVGID_22_)" fill="none" stroke="#231F20" stroke-width="0.511" stroke-miterlimit="10" d="M814.8,925.9
				c0.1,0,0.2,0.1,0.2,0.2v11.4c0,0.2,0.1,0.3,0.3,0.3h0.4c0.2,0,0.3-0.1,0.3-0.3v-11.4c0-0.1,0.1-0.2,0.2-0.2h4.1
				c0.2,0,0.3-0.1,0.3-0.3v-0.4c0-0.2-0.1-0.3-0.3-0.3h-9.7c-0.2,0-0.3,0.1-0.3,0.3v0.4c0,0.2,0.1,0.3,0.3,0.3H814.8z"/>
		</g>
		<g clip-path="url(#SVGID_2_)">
			<text transform="matrix(1 0 0 1 827.5723 937.7764)"><tspan x="0" y="0" fill="#231F20" font-family="'EvelethCleanThin'" font-size="16.4997" letter-spacing="6">l</tspan><tspan x="17.2" y="0" fill="#231F20" font-family="'EvelethCleanThin'" font-size="16.4997">e</tspan></text>
		</g>
		<g clip-path="url(#SVGID_2_)">
			<defs>
				<rect id="SVGID_23_" x="45.5" y="-140.5" width="915.1" height="1176.6"/>
			</defs>
			<clipPath id="SVGID_24_">
				<use xlink:href="#SVGID_23_"  overflow="visible"/>
			</clipPath>
			<path clip-path="url(#SVGID_24_)" fill="none" stroke="#231F20" stroke-width="0.511" stroke-miterlimit="10" d="M837.5,937.8
				c0.2,0,0.3-0.1,0.3-0.3v-0.4c0-0.2-0.1-0.3-0.3-0.3h-6.9c-0.1,0-0.2-0.1-0.2-0.2v-11.4c0-0.2-0.1-0.3-0.3-0.3h-0.4
				c-0.2,0-0.3,0.1-0.3,0.3v12.3c0,0.2,0.1,0.3,0.3,0.3H837.5z"/>
			<path clip-path="url(#SVGID_24_)" fill="none" stroke="#231F20" stroke-width="0.511" stroke-miterlimit="10" d="M855.2,937.8
				c0.2,0,0.3-0.1,0.3-0.3v-0.4c0-0.2-0.1-0.3-0.3-0.3h-7.3c-0.1,0-0.2-0.1-0.2-0.2v-4.4c0-0.1,0.1-0.2,0.2-0.2h6.2
				c0.2,0,0.3-0.1,0.3-0.3v-0.3c0-0.2-0.1-0.3-0.3-0.3h-6.2c-0.1,0-0.2-0.1-0.2-0.2v-4.7c0-0.1,0.1-0.2,0.2-0.2h7.3
				c0.2,0,0.3-0.1,0.3-0.3v-0.4c0-0.2-0.1-0.3-0.3-0.3H847c-0.2,0-0.3,0.1-0.3,0.3v12.3c0,0.2,0.1,0.3,0.3,0.3H855.2z"/>
		</g>
		<g clip-path="url(#SVGID_2_)">
			<text transform="matrix(1 0 0 1 764.0997 956.0772)" fill="#231F20" font-family="'EvelethCleanRegular'" font-size="16.4997">m</text>
		</g>
		<g clip-path="url(#SVGID_2_)">
			<text transform="matrix(1 0 0 1 780.1544 956.0772)" fill="#231F20" font-family="'EvelethCleanRegular'" font-size="16.4997">o</text>
		</g>
		<g clip-path="url(#SVGID_2_)">
			<text transform="matrix(1 0 0 1 794.6739 956.0772)" fill="#231F20" font-family="'EvelethCleanRegular'" font-size="16.4997">n</text>
		</g>
		<g clip-path="url(#SVGID_2_)">
			<text transform="matrix(1 0 0 1 808.5665 956.0772)"><tspan x="0" y="0" fill="#231F20" font-family="'EvelethCleanRegular'" font-size="16.4997">ste</tspan><tspan x="35.7" y="0" fill="#231F20" font-family="'EvelethCleanRegular'" font-size="16.4997">r</tspan></text>
		</g>
		<g clip-path="url(#SVGID_2_)">
			<defs>
				<rect id="SVGID_25_" x="45.5" y="-140.5" width="915.1" height="1176.6"/>
			</defs>
			<clipPath id="SVGID_26_">
				<use xlink:href="#SVGID_25_"  overflow="visible"/>
			</clipPath>
			<polygon clip-path="url(#SVGID_26_)" fill="#231F20" points="850.4,875.4 848,882.3 775.8,882.3 770.6,874.9 763.4,871.4 
				763.4,788.8 858.3,788.8 858.3,866.7 			"/>
			
				<polygon clip-path="url(#SVGID_26_)" fill="none" stroke="#FFFFFF" stroke-width="0.5" stroke-miterlimit="10" stroke-dasharray="4.996,4.996" points="
				845.5,871.1 843.4,877.1 779.5,877.1 774.9,870.6 768.5,867.5 768.5,794.4 852.5,794.4 852.5,863.4 			"/>
			<path clip-path="url(#SVGID_26_)" fill="#6E6F72" d="M845,887.4c1.6,1,1.2,5.7,1.2,5.7c3-2.8,2.5-6.4,2.5-6.4
				c2.9,0.7,1.1,6.9,1.1,6.9c5.7-5.1,1.8-10.6,1.8-10.6c6.1,1.2,7.8-1.9,7.8-1.9c-5.1,0.6-4.6-3.6-4.6-3.6c2,1.1,3.5,0,3.5,0
				c-2.5-1.9-0.3-11.1-0.3-11.1c2.9,1.2,2,6.4,2,6.4c2.7-5.7-1.8-10.2-1.8-10.2c2.7-0.2,4.3,5.2,4.3,5.2c0.6-7.9-4.7-10.9-4.7-10.9
				c5.6,3,8-2.8,8-2.8c-6.8,2.9-10.3-4.9-10.3-4.9c3.3-0.6,4.8,1.1,4.8,1.1c-1.9-4.1-6.7-4.1-6.7-4.1c2.3-2.2,6,0,6,0
				c-2.9-4.8-8.5-2.7-8.5-2.7c4.6-1.6,4.5-8,4.5-8c-1.6,5.8-10.9,3.9-10.9,3.9c0.1-2.3,4.3-3.6,4.3-3.6c-3.9-0.6-7.9,2.4-7.9,2.4
				c2.3-1.5,0.9-3.5,0.9-3.5c0,2.8-4.8,2.5-4.8,2.5l-2.5-0.7c4.1,1.4,5-0.6,5-0.6c-2.8-1.5-2.1-4-2.1-4c1,1.6,1.8,1.6,1.8,1.6
				c-1-1.6-0.2-6.4-0.2-6.4c2.1,0.7,1.2,3.6,1.2,3.6c2.1-2.8-0.2-10.1-0.2-10.1c2.5,1.7,2.5,6.5,2.5,6.5c2.5-6.9-2.3-10.2-2.3-10.2
				c3.8,3.1,4.9-1.9,4.9-1.9c-3.7,2.1-5.3-4.4-5.3-4.4c1.8-1,3.2,1.7,3.2,1.7c-0.7-6.7-4.2-6.5-4.2-6.5c3.8-1.5,6.3,3.3,6.3,3.3
				c-1.6-9.6-8.3-8.8-8.3-8.8c1.2-2.2,4.4-1.2,4.4-1.2c-2.5-3.1-6.4-2.8-6.4-2.8c2.5,0,2.5-2.3,2.5-2.3c-2.8,1-5-1.5-5-1.5
				c3.1-2.8,6.6,0,6.6,0c-2.6-5.9-9.5-3.3-9.5-3.3c2.3-4.9,6.7-3.9,6.7-3.9c-5.9-4.6-12-0.6-12-0.6c0.1-0.5,0.4-0.9,0.7-1.3
				c1.7-2.3,5.3-3.7,5.3-3.7c-6.5-0.7-8.5,3.7-8.5,3.7c-0.6-2.6,2.5-4.9,2.5-4.9c-3.3,0.1-4.9,3.8-4.9,3.8c-1.3-3.6,3.4-7.8,3.4-7.8
				c-4,1-5.9,6.2-6.1,6.9c5.3-16.8-6.3-18.1-6.3-18.1c8.7,4.2,2.4,17.4,2.4,17.4c1.7-7.6-5-9.3-5-9.3c4.1,5.6,0,9.4,0,9.4
				s-3.3-3.2-0.8-5.9c0,0-3.8,1.9-2.3,6.4c0,0-6.2-4.6-2.5-11.3c0,0-6.9,4.6-3,13.1c0,0-4.7,1-7.8-3.2c0,0-0.7,1.5,0.3,3.4
				c0.4,0.9,1.2,1.8,2.4,2.8c0,0-6.3-4.2-11.5,2.4c0,0,6.5-2.2,7.9,1c0,0-5.4,4.1-10.6,2.6c0,0,2.6,3,6.6,2.3c0,0-3.9,0.4-4.4,3.6
				c0,0,1.8-1.4,2.6-0.7c0,0-2.2,3.9-6.3,3.3c0,0,1.6,2.9,3.8,2.7c0,0-6.3,1.1-7,9.4c0,0,3.1-4.4,5.7-4.5c0,0-4.4,3.1-3.5,8.5
				c0,0,1.5-4.4,2.9-4.6c0,0-0.3,7.9-3.1,8.7c0,0,1.1,2.1,2.9,1.3c0,0-5.7,3.9-4.8,9.2c0,0,2.4-4.8,5.9-5c0,0,0,4.3-2.6,6.1
				c0,0,1.4,0.5,4.1-1.3c0,0,0.9,4.2-2.5,4.2c0,0,1.8,1.7,5.6,1.1c0,0-4.2,2.2-9.5-1.2c0,0-0.4,2.4,2.4,3.3c0,0-5.4,0.6-8-4.1
				c0,0-1,4.6,3.4,6c0,0-8.5-3.2-13.1,4.2c0,0,5.8-3.4,7.7-0.2c0,0-7.1,1.3-7.7,5.7c0,0,2.4-2,4.5-1.5c0,0-3.5,7.6-8.8,11.8
				c0,0,4.5-0.2,5.7-2c0,0-7.2,3.6-5.7,13.3c0,0,2.3-6.4,5.7-6.3c0,0,0.6,3.5-1.9,6.3c0,0,1.8,0.1,2.8-1.9c0,0,0.6,4.1-1.8,6.9
				c0,0,2.9,0.7,3.8-0.6c0,0-4.3,6.7-2.9,13.2c0,0,1-6.8,5.8-7.5c0,0-2.7,8.1,1.8,11.4c0,0-1.4-5.1,1.4-7c0,0,0.8,4.1,5.4,4.1
				c0,0-1-5.4,1.8-7.2h62.3L845,887.4z"/>
			<path clip-path="url(#SVGID_26_)" fill="#231F20" d="M808.3,861.8c0,0-1.1,3.7,1.9,4c0,0-1.5,1.3-3.7,0.4c0,0,2.3,3.6-0.5,9.4
				c0,0,0.2-4.9-0.6-6.9c0,0,0.8,3.3-0.9,5c0,0,0.6-1.4-0.4-2.3c0,0-2.4,3.7-0.8,7.7c0,0-1.5,0-2.1-1.8c0,0,0.6,9.7-2.2,12.3
				c0,0,1-5.3-0.1-6.5c0,0-1.3,2.4-0.7,5.5c0,0-2.2-0.9-1.6-3.2c0,0-2.9,4.3-0.8,9.1c0,0-3-0.3-2.7-3.9c0,0-1.2,2.4-0.5,3.9
				c0,0-0.9-0.3-1-1.8c-4.4,6.3-12.1,0.7-12.1,0.7c-9.2-4.7,1.8-17.5,1.8-17.5c-1.6,0.7-2.7-0.5-2.7-0.5c2.3,0,4.3-4.1,4.3-4.1
				c-2.3-0.9-5.2,1.7-5.2,1.7c2.3-6,6.9-5.2,6.9-5.2c-2.5,0.5-3.3-1.4-3.3-1.4c2.8,0.4,6.8-4.1,6.8-4.1c-1.3-0.3-3,0.3-3,0.3
				c1.1-2.9,5.2-3.1,5.2-3.1c-1.7-1.5-4.6,0.3-4.6,0.3c1.6-3.9,6.9-2.8,6.9-2.8c-1-0.1-1.4-1.6-1.4-1.6c1.9,0.6,4.7-1.4,4.7-1.4
				c-1.7-1.4-5.2-0.6-5.2-0.6c2.9-4.1,7.1-1.1,7.1-1.1c-17.6-12.9-15.2-22-15.2-22s2.8,6.7,8.7,10.3c0,0-6.3-5.3-4-15.9
				c0,0,0.3,10.6,7.7,14.2c0,0-3.3-3.6-1.5-10.9c0,0,1,5.9,3.4,8.3c2.8,2.6,5,4.4,7,5.7c0,0,1.9,1.3,1.9,1.3c1.4,1,3,2.3,3.8,3.9
				c1,1.8,1.2,4,1.2,6C810.5,856.2,809.1,859,808.3,861.8"/>
			<path clip-path="url(#SVGID_26_)" fill="#231F20" d="M830,892.6c-1.4,0.8-0.4,4.5-0.4,4.5c-5.1-2.9-3.4-9.9-3.4-9.9
				c-2.4,1.4-1.7,4.7-1.7,4.7c-2.8-1.9-0.3-8-0.3-8c-1,2.4-2.8,2.2-2.8,2.2c1.1-3.4-0.7-7.4-0.3-7.6c-0.9,0-1.1,2.6-1.1,2.6
				c-1.7-2.1-0.6-6-0.6-6c-3,1.7-1.9,7.1-1.9,7.1c-4.2-5.9-0.3-11.6-0.3-11.6c-1.2,1.7-3.2,0.8-3.2,0.8c1.8-0.1,1.7-4,1.7-4
				c-3,0.5-3.7,5-3.7,5c-2.1-5,1.9-9.3,1.9-9.3c-2.5,1.7-3.8,0.5-3.8,0.5c2.6-2.6,1.6-7.2,1.6-7.2c-1.6-12.1,4-10.4,13.4-19.8
				c2.6-2.6,3.4-8.3,3.4-8.3c1.8,6.7-1.5,10.9-1.5,10.9c7.7-4.3,7.7-14.2,7.7-14.2c2.3,10.6-4,15.9-4,15.9
				c6.7-4.2,8.6-10.7,8.6-10.7s3.3,8.4-15.1,22.4c0,0,4,2.6,7.8-0.6c0,0-0.1,3.3-3.5,4.4c0,0,1.5-0.9,4.1,0c0,0-2-0.2-2.5,1.6
				c0,0,4.1,3,6.4-0.8c0,0,0,3-3.6,4c0,0,4.1-1.5,8.7,2.4c0,0-4.7-1.3-6.7,0.4c0,0,3.2-0.1,5,2.6c0,0-2.2-1.4-3.2,0.4
				c0,0,5.3,0.2,5.4,6.3c0,0-1.1-2.4-3-1.3c0,0,1.2,2.8,3,3.4c0,0-0.4,0.7-1.9,0c0,0,2.1,4.3,6.2,2.4c0,0,0,2.7-3.4,2.4
				c0.1,0,0.4,0.7,0.5,0.8c0.4,0.7,0.8,1.3,1.1,2c0.9,1.7,1.6,3.7,1.5,5.7c-0.1,2.4-2.2,3.8-4.1,5c-1.7,1-3.5,1.9-5.5,2.1
				C833.9,896,831.5,894.8,830,892.6"/>
			<polygon clip-path="url(#SVGID_26_)" fill="#FFFFFF" points="802.3,827.4 804.3,819 806.8,829.3 			"/>
			
				<path clip-path="url(#SVGID_26_)" fill="none" stroke="#FFFFFF" stroke-width="0.999" stroke-linecap="round" stroke-miterlimit="10" d="
				M800.1,825.1c0,0,10.1,10.4,21.4,0"/>
			<path clip-path="url(#SVGID_26_)" fill="#FFFFFF" d="M808.3,806c0,4.5-3.7,8.2-8.2,8.2c-4.5,0-8.2-3.7-8.2-8.2
				c0-4.5,3.7-8.2,8.2-8.2C804.6,797.8,808.3,801.5,808.3,806"/>
			<path clip-path="url(#SVGID_26_)" fill="#FFFFFF" d="M829.7,806c0,4.5-3.7,8.2-8.2,8.2c-4.5,0-8.2-3.7-8.2-8.2
				c0-4.5,3.7-8.2,8.2-8.2C826,797.8,829.7,801.5,829.7,806"/>
			<path clip-path="url(#SVGID_26_)" fill="#231F20" d="M825.2,806c0,2.1-1.7,3.7-3.7,3.7c-2.1,0-3.7-1.7-3.7-3.7
				c0-2.1,1.7-3.7,3.7-3.7C823.6,802.2,825.2,803.9,825.2,806"/>
			<path clip-path="url(#SVGID_26_)" fill="#231F20" d="M803.9,806c0,2.1-1.7,3.7-3.7,3.7c-2.1,0-3.7-1.7-3.7-3.7
				c0-2.1,1.7-3.7,3.7-3.7C802.2,802.2,803.9,803.9,803.9,806"/>
			<polygon clip-path="url(#SVGID_26_)" fill="#FFFFFF" points="819.2,827.4 817.2,819 814.7,829.3 			"/>
			<polygon clip-path="url(#SVGID_26_)" fill="#FFFFFF" points="521,240 507,218.6 503,249.5 			"/>
		</g>
	</g>
</g>
<g>
</g>
<g>
</g>
<g>
</g>
<g>
</g>
<g>
</g>
<g>
</g>
</svg>
