<?xml version="1.0" encoding="utf-8"?>
<!-- Generator: Adobe Illustrator 18.1.0, SVG Export Plug-In . SVG Version: 6.00 Build 0)  -->
<svg version="1.1" id="Layer_1" xmlns="http://www.w3.org/2000/svg" xmlns:xlink="http://www.w3.org/1999/xlink" x="0px" y="0px"
	 viewBox="0 0 1000 817" enable-background="new 0 0 1000 817" xml:space="preserve">
<g>
	<g>
		<defs>
			<rect id="SVGID_1_" x="185" y="2.6" width="630" height="810"/>
		</defs>
		<clipPath id="SVGID_2_">
			<use xlink:href="#SVGID_1_"  overflow="visible"/>
		</clipPath>
		<g clip-path="url(#SVGID_2_)">
			<defs>
				<rect id="SVGID_3_" x="266.5" y="68.6" width="97.3" height="173.1"/>
			</defs>
			<clipPath id="SVGID_4_">
				<use xlink:href="#SVGID_3_"  overflow="visible"/>
			</clipPath>
			<path clip-path="url(#SVGID_4_)" fill="#221F1F" d="M383.6,243.6H245V58.7h138.7V243.6z M384.9,57.4h-1.3H245h-1.3v1.3v184.9v1.3
				h1.3h138.7h1.3v-1.3V58.7V57.4z"/>
			<g clip-path="url(#SVGID_4_)">
				<text transform="matrix(1 0 0 1 -110.7241 -117.6823)" fill="#282965" font-family="'EvelethCleanRegular'" font-size="49.644">mo</text>
			</g>
			<g clip-path="url(#SVGID_4_)">
				<text transform="matrix(1 0 0 1 -19.0317 -117.6823)" fill="#282965" font-family="'EvelethCleanRegular'" font-size="49.644">m</text>
			</g>
			<g clip-path="url(#SVGID_4_)">
				<text transform="matrix(1 0 0 1 27.9814 -117.6823)" fill="#282965" font-family="'EvelethCleanRegular'" font-size="49.644">my’s</text>
			</g>
			<g clip-path="url(#SVGID_4_)">
				<text transform="matrix(1 0 0 1 167.2803 -117.6823)" fill="#282965" font-family="'EvelethCleanThin'" font-size="47.3874"> </text>
			</g>
			<g clip-path="url(#SVGID_4_)">
				<text transform="matrix(1 0 0 1 -110.7241 -62.6237)" fill="#282460" font-family="'EvelethCleanThin'" font-size="49.6435">l</text>
			</g>
			<path clip-path="url(#SVGID_4_)" fill="none" stroke="#282460" stroke-width="2.215" stroke-miterlimit="10" d="M-80.7-62.6
				c0.5,0,0.9-0.4,0.9-0.9v-1.1c0-0.5-0.4-0.9-0.9-0.9h-20.8c-0.4,0-0.7-0.3-0.7-0.7v-34.3c0-0.5-0.4-0.9-0.9-0.9h-1.1
				c-0.5,0-0.9,0.4-0.9,0.9v36.9c0,0.5,0.4,0.9,0.9,0.9H-80.7z"/>
			<g clip-path="url(#SVGID_4_)">
				<text transform="matrix(1 0 0 1 -61.3286 -62.6237)" fill="#282460" font-family="'EvelethCleanThin'" font-size="49.6435">i</text>
			</g>
			<path clip-path="url(#SVGID_4_)" fill="none" stroke="#282460" stroke-width="2.215" stroke-miterlimit="10" d="M-55.8-63.5
				c0,0.5,0.4,0.9,0.9,0.9h1.1c0.5,0,0.9-0.4,0.9-0.9v-36.9c0-0.5-0.4-0.9-0.9-0.9h-1.1c-0.5,0-0.9,0.4-0.9,0.9V-63.5z"/>
			<g clip-path="url(#SVGID_4_)">
				<text transform="matrix(1 0 0 1 -27.769 -62.6237)" fill="#282460" font-family="'EvelethCleanThin'" font-size="49.6435">t</text>
			</g>
			<path clip-path="url(#SVGID_4_)" fill="none" stroke="#282460" stroke-width="2.215" stroke-miterlimit="10" d="M-13.2-98.5
				c0.4,0,0.7,0.3,0.7,0.7v34.3c0,0.5,0.4,0.9,0.9,0.9h1.1c0.5,0,0.9-0.4,0.9-0.9v-34.3c0-0.4,0.3-0.7,0.7-0.7H3.6
				c0.5,0,0.9-0.4,0.9-0.9v-1.1c0-0.5-0.4-0.9-0.9-0.9h-29.1c-0.5,0-0.9,0.4-0.9,0.9v1.1c0,0.5,0.4,0.9,0.9,0.9H-13.2z"/>
			<g clip-path="url(#SVGID_4_)">
				<text transform="matrix(1 0 0 1 27.1367 -62.6237)" fill="#282460" font-family="'EvelethCleanThin'" font-size="49.6435">t</text>
			</g>
			<path clip-path="url(#SVGID_4_)" fill="none" stroke="#282460" stroke-width="2.215" stroke-miterlimit="10" d="M41.7-98.5
				c0.4,0,0.7,0.3,0.7,0.7v34.3c0,0.5,0.4,0.9,0.9,0.9h1.1c0.5,0,0.9-0.4,0.9-0.9v-34.3c0-0.4,0.3-0.7,0.7-0.7h12.4
				c0.5,0,0.9-0.4,0.9-0.9v-1.1c0-0.5-0.4-0.9-0.9-0.9H29.4c-0.5,0-0.9,0.4-0.9,0.9v1.1c0,0.5,0.4,0.9,0.9,0.9H41.7z"/>
			<g clip-path="url(#SVGID_4_)">
				<text transform="matrix(1 0 0 1 80.2559 -62.6237)"><tspan x="0" y="0" fill="#282460" font-family="'EvelethCleanThin'" font-size="49.6435" letter-spacing="19">l</tspan><tspan x="51.8" y="0" fill="#282460" font-family="'EvelethCleanThin'" font-size="49.6435">e</tspan></text>
			</g>
			<path clip-path="url(#SVGID_4_)" fill="none" stroke="#282460" stroke-width="2.215" stroke-miterlimit="10" d="M110.2-62.6
				c0.5,0,0.9-0.4,0.9-0.9v-1.1c0-0.5-0.4-0.9-0.9-0.9H89.4c-0.4,0-0.7-0.3-0.7-0.7v-34.3c0-0.5-0.4-0.9-0.9-0.9h-1.1
				c-0.5,0-0.9,0.4-0.9,0.9v36.9c0,0.5,0.4,0.9,0.9,0.9H110.2z"/>
			<path clip-path="url(#SVGID_4_)" fill="none" stroke="#282460" stroke-width="2.215" stroke-miterlimit="10" d="M163.4-62.6
				c0.5,0,0.9-0.4,0.9-0.9v-1.1c0-0.5-0.4-0.9-0.9-0.9h-22.1c-0.4,0-0.7-0.3-0.7-0.7v-13.4c0-0.4,0.3-0.7,0.7-0.7h18.6
				c0.5,0,0.9-0.4,0.9-0.9v-1c0-0.5-0.4-0.9-0.9-0.9h-18.6c-0.4,0-0.7-0.3-0.7-0.7v-14c0-0.4,0.3-0.7,0.7-0.7h22.1
				c0.5,0,0.9-0.4,0.9-0.9v-1.1c0-0.5-0.4-0.9-0.9-0.9h-24.8c-0.5,0-0.9,0.4-0.9,0.9v36.9c0,0.5,0.4,0.9,0.9,0.9H163.4z"/>
			<g clip-path="url(#SVGID_4_)">
				<text transform="matrix(1 0 0 1 -110.7241 -7.5636)" fill="#282965" font-family="'EvelethCleanRegular'" font-size="49.644">m</text>
			</g>
			<g clip-path="url(#SVGID_4_)">
				<text transform="matrix(1 0 0 1 -62.4199 -7.5636)" fill="#282965" font-family="'EvelethCleanRegular'" font-size="49.644">o</text>
			</g>
			<g clip-path="url(#SVGID_4_)">
				<text transform="matrix(1 0 0 1 -18.7339 -7.5636)" fill="#282965" font-family="'EvelethCleanRegular'" font-size="49.644">n</text>
			</g>
			<g clip-path="url(#SVGID_4_)">
				<text transform="matrix(1 0 0 1 23.0664 -7.5636)"><tspan x="0" y="0" fill="#282965" font-family="'EvelethCleanRegular'" font-size="49.644">st</tspan><tspan x="71.9" y="0" fill="#282965" font-family="'EvelethCleanRegular'" font-size="49.644">e</tspan><tspan x="107.4" y="0" fill="#282965" font-family="'EvelethCleanRegular'" font-size="49.644">r</tspan></text>
			</g>
			<path clip-path="url(#SVGID_4_)" fill="#9569AC" d="M132.8-214.1c4.8,3,3.6,17.1,3.6,17.1c9.1-8.4,7.5-19.4,7.5-19.4
				c8.6,2.1,3.4,20.9,3.4,20.9c17.1-15.3,5.3-32,5.3-32c18.4,3.6,23.5-5.8,23.5-5.8c-15.3,1.8-14-10.9-14-10.9c6,3.3,10.5,0,10.5,0
				c-7.5-5.8-0.8-33.4-0.8-33.4c8.8,3.7,6.2,19.2,6.2,19.2c8-17.1-5.3-30.6-5.3-30.6c8.1-0.7,13,15.6,13,15.6
				c1.8-23.7-14.1-32.8-14.1-32.8c16.8,9,23.9-8.3,23.9-8.3c-20.4,8.7-31.1-14.8-31.1-14.8c10-1.7,14.4,3.2,14.4,3.2
				c-5.8-12.4-20.3-12.4-20.3-12.4c7-6.6,18.1,0,18.1,0c-8.7-14.6-25.7-8.2-25.7-8.2c13.9-4.9,13.5-24,13.5-24
				c-4.9,17.5-32.7,11.9-32.7,11.9c0.4-7,13-11,13-11c-11.7-1.9-23.9,7.2-23.9,7.2c6.9-4.6,2.7-10.6,2.7-10.6
				c0,8.4-14.4,7.4-14.4,7.4l-7.4-2c12.3,4.1,15.1-1.8,15.1-1.8c-8.6-4.4-6.4-12.1-6.4-12.1c2.9,4.8,5.5,4.7,5.5,4.7
				c-2.9-4.9-0.6-19.3-0.6-19.3c6.3,2.2,3.8,10.9,3.8,10.9c6.4-8.5-0.5-30.5-0.5-30.5c7.4,5.1,7.5,19.6,7.5,19.6
				c7.6-20.7-7-30.8-7-30.8c11.5,9.3,14.7-5.6,14.7-5.6c-11.3,6.2-16-13.3-16-13.3c5.4-3.1,9.5,5.1,9.5,5.1
				c-2.2-20.2-12.5-19.6-12.5-19.6c11.5-4.5,19.1,10,19.1,10c-4.7-28.7-24.9-26.6-24.9-26.6c3.5-6.5,13.1-3.6,13.1-3.6
				c-7.4-9.5-19.3-8.5-19.3-8.5c7.5-0.1,7.5-6.8,7.5-6.8c-8.4,2.9-15.1-4.5-15.1-4.5c9.2-8.5,19.7,0,19.7,0
				c-7.9-17.7-28.5-10-28.5-10c7-14.6,20.1-11.6,20.1-11.6c-17.7-13.9-36.2-1.8-36.2-1.8c0.4-1.4,1.2-2.8,2.1-4
				c5.1-6.9,16.1-11.1,16.1-11.1c-19.7-2.2-25.7,11-25.7,11c-1.7-7.9,7.5-14.7,7.5-14.7C60-542.4,55-531.2,55-531.2
				c-3.8-10.9,10.1-23.5,10.1-23.5c-12,3.1-17.8,18.8-18.4,20.7c16-50.4-18.9-54.6-18.9-54.6c26.3,12.6,7.2,52.4,7.2,52.4
				C40-559.1,19.8-564,19.8-564c12.3,16.9,0,28.2,0,28.2s-9.8-9.6-2.4-17.9c0,0-11.5,5.6-6.8,19.4c0,0-18.7-13.9-7.4-33.9
				c0,0-20.6,13.9-9,39.5c0,0-14.2,3.1-23.5-9.7c0,0-2,4.5,0.9,10.4c1.3,2.6,3.5,5.5,7.4,8.3c0,0-18.9-12.6-34.6,7.1
				c0,0,19.5-6.7,23.7,3.1c0,0-16.3,12.3-31.8,7.9c0,0,7.8,9.2,19.8,6.9c0,0-11.7,1.2-13.1,10.9c0,0,5.3-4.3,7.7-2
				c0,0-6.8,11.7-19.1,9.9c0,0,4.7,8.7,11.3,8c0,0-18.9,3.3-21.1,28.4c0,0,9.3-13.3,17-13.4c0,0-13.4,9.3-10.5,25.5
				c0,0,4.5-13.3,8.6-13.8c0,0-1,23.8-9.4,26c0,0,3.4,6.2,8.6,4c0,0-17,11.6-14.5,27.7c0,0,7.1-14.5,17.7-15.1c0,0,0,12.9-8,18.3
				c0,0,4.3,1.5,12.3-3.8c0,0,2.8,12.6-7.7,12.6c0,0,5.4,5,16.8,3.4c0,0-12.7,6.7-28.7-3.8c0,0-1.2,7.3,7.2,9.8
				c0,0-16.3,1.8-24-12.4c0,0-3.1,13.9,10.3,18.1c0,0-25.6-9.7-39.4,12.5c0,0,17.6-10.1,23.2-0.5c0,0-21.3,3.8-23.2,17.3
				c0,0,7.2-5.9,13.4-4.4c0,0-10.5,22.7-26.5,35.6c0,0,13.4-0.6,17.1-6.1c0,0-21.8,10.9-17.1,40c0,0,6.9-19.3,17.1-18.9
				c0,0,1.8,10.6-5.8,18.9c0,0,5.5,0.4,8.4-5.8c0,0,1.8,12.5-5.5,20.8c0,0,8.8,2.1,11.5-1.7c0,0-13.1,20.2-8.7,39.8
				c0,0,3.1-20.5,17.6-22.6c0,0-8.1,24.4,5.4,34.2c0,0-4.1-15.4,4.3-21c0,0,2.4,12.4,16.4,12.4c0,0-2.9-16.2,5.5-21.6h187.4
				L132.8-214.1z"/>
			<path clip-path="url(#SVGID_4_)" fill="#282965" d="M22.3-291.2c0,0-3.3,11.2,5.6,11.9c0,0-4.5,4-11.2,1.1c0,0,6.9,10.9-1.5,28.2
				c0,0,0.7-14.8-1.8-20.8c0,0,2.4,9.8-2.7,15.1c0,0,1.8-4.3-1.2-6.8c0,0-7.1,11.1-2.5,23.2c0,0-4.4,0-6.4-5.4c0,0,1.7,29.2-6.7,37
				c0,0,3.1-16-0.4-19.6c0,0-4,7.2-2,16.7c0,0-6.5-2.7-4.7-9.6c0,0-8.7,12.9-2.5,27.5c0,0-9-0.8-8-11.6c0,0-3.6,7.2-1.4,11.6
				c0,0-2.6-0.9-3-5.4c-13.1,18.9-36.3,2.1-36.3,2.1c-27.6-14.2,5.6-52.8,5.6-52.8c-4.9,2.1-8.2-1.5-8.2-1.5
				c7,0,12.8-12.4,12.8-12.4c-7-2.8-15.7,5.1-15.7,5.1c6.8-18.2,20.7-15.8,20.7-15.8c-7.6,1.6-10-4.2-10-4.2
				c8.5,1.1,20.4-12.2,20.4-12.2c-3.9-1-9.2,1-9.2,1c3.3-8.7,15.7-9.2,15.7-9.2c-5.2-4.5-13.8,1-13.8,1c4.9-11.7,20.6-8.5,20.6-8.5
				c-3.1-0.2-4.4-4.7-4.4-4.7c5.6,1.8,14-4.2,14-4.2c-5.2-4.3-15.6-1.8-15.6-1.8c8.7-12.3,21.4-3.2,21.4-3.2
				c-52.9-38.8-45.7-66.2-45.7-66.2s8.3,20.2,26.1,31.1c0,0-18.8-15.8-12-47.8c0,0,0.8,31.9,23.2,42.6c0,0-9.8-10.9-4.6-32.8
				c0,0,2.9,17.8,10.4,24.9c8.4,8,15,13.1,21.1,17.2c0,0,5.7,3.9,5.7,3.9c4.3,2.9,9,6.9,11.5,11.6c2.9,5.5,3.6,12,3.5,18
				C28.8-307.9,24.7-299.6,22.3-291.2"/>
			<path clip-path="url(#SVGID_4_)" fill="#282965" d="M87.5-198.6c-4.3,2.3-1.2,13.6-1.2,13.6c-15.3-8.6-10.1-29.7-10.1-29.7
				c-7.1,4.2-5.1,14.1-5.1,14.1c-8.5-5.7-0.9-23.9-0.9-23.9c-3.1,7.2-8.3,6.5-8.3,6.5c3.3-10.4-2.2-22.4-0.9-23
				c-2.6-0.1-3.4,7.7-3.4,7.7c-5.2-6.2-1.9-18-1.9-18c-9,5.2-5.8,21.3-5.8,21.3c-12.6-17.7-0.9-34.9-0.9-34.9
				c-3.6,5.2-9.5,2.4-9.5,2.4c5.5-0.2,5-12.2,5-12.2c-8.9,1.5-11.2,15.2-11.2,15.2c-6.4-15,5.6-27.9,5.6-27.9
				c-7.4,5.1-11.5,1.4-11.5,1.4c7.9-7.9,4.8-21.8,4.8-21.8c-4.8-36.3,12.1-31.4,40.5-59.6c7.9-7.8,10.4-24.9,10.4-24.9
				c5.3,20.2-4.6,32.8-4.6,32.8c23.1-12.8,23.2-42.6,23.2-42.6c7,31.9-12,47.8-12,47.8c20.1-12.6,25.8-32.2,25.8-32.2
				s10,25.2-45.5,67.3c0,0,12.1,7.9,23.6-1.8c0,0-0.4,9.9-10.7,13.2c0,0,4.7-2.7,12.3,0c0,0-6.1-0.5-7.6,4.8c0,0,12.2,9.1,19.3-2.4
				c0,0,0,9.1-10.9,12.1c0,0,12.3-4.4,26.2,7.3c0,0-14.2-3.9-20,1.2c0,0,9.7-0.4,15.1,7.8c0,0-6.7-4.3-9.6,1.1
				c0,0,15.9,0.5,16.2,19.1c0,0-3.4-7.3-9.1-4.1c0,0,3.7,8.4,9.1,10.3c0,0-1.2,2.2-5.7,0c0,0,6.2,12.8,18.8,7.4c0,0,0,8.2-10.1,7.1
				c0.4,0,1.3,2,1.5,2.3c1.2,2,2.4,4,3.4,6.1c2.6,5.2,4.8,11.2,4.5,17.1c-0.4,7.2-6.7,11.5-12.4,15c-5,3.1-10.5,5.6-16.4,6.3
				C99.2-188.3,92.1-191.9,87.5-198.6"/>
			<polygon clip-path="url(#SVGID_4_)" fill="#FFFFFF" points="1.7,-398.1 14,-417 17.6,-389.7 			"/>
			
				<path clip-path="url(#SVGID_4_)" fill="none" stroke="#FFFFFF" stroke-width="4.367" stroke-linecap="round" stroke-miterlimit="10" d="
				M-2.4-401.6c0,0,30.4,31.3,64.4,0"/>
			<path clip-path="url(#SVGID_4_)" fill="#FFFFFF" d="M22.2-459.1c0,13.6-11,24.6-24.6,24.6c-13.6,0-24.6-11-24.6-24.6
				c0-13.6,11-24.6,24.6-24.6C11.2-483.7,22.2-472.7,22.2-459.1"/>
			<path clip-path="url(#SVGID_4_)" fill="#FFFFFF" d="M86.6-459.1c0,13.6-11,24.6-24.6,24.6c-13.6,0-24.6-11-24.6-24.6
				c0-13.6,11-24.6,24.6-24.6C75.5-483.7,86.6-472.7,86.6-459.1"/>
			<path clip-path="url(#SVGID_4_)" fill="#282460" d="M73.2-459.1c0,6.2-5.1,11.3-11.3,11.3c-6.2,0-11.3-5.1-11.3-11.3
				c0-6.2,5.1-11.3,11.3-11.3C68.2-470.4,73.2-465.3,73.2-459.1"/>
			<path clip-path="url(#SVGID_4_)" fill="#282460" d="M8.9-459.1c0,6.2-5.1,11.3-11.3,11.3c-6.2,0-11.3-5.1-11.3-11.3
				c0-6.2,5.1-11.3,11.3-11.3C3.8-470.4,8.9-465.3,8.9-459.1"/>
		</g>
		<g clip-path="url(#SVGID_2_)">
			<text transform="matrix(1 0 0 1 273.5171 202.4564)" fill="#282965" font-family="'EvelethCleanRegular'" font-size="14.5843">mo</text>
		</g>
		<g clip-path="url(#SVGID_2_)">
			<text transform="matrix(1 0 0 1 300.4546 202.4564)" fill="#282965" font-family="'EvelethCleanRegular'" font-size="14.5843">m</text>
		</g>
		<g clip-path="url(#SVGID_2_)">
			<text transform="matrix(1 0 0 1 314.2656 202.4564)" fill="#282965" font-family="'EvelethCleanRegular'" font-size="14.5843">my’s</text>
		</g>
		<g clip-path="url(#SVGID_2_)">
			<text transform="matrix(1 0 0 1 355.1909 202.4564)" fill="#282965" font-family="'EvelethCleanThin'" font-size="13.9213"> </text>
		</g>
		<g clip-path="url(#SVGID_2_)">
			<text transform="matrix(1 0 0 1 273.5171 218.6317)" fill="#282460" font-family="'EvelethCleanThin'" font-size="14.5841">l</text>
		</g>
		<g clip-path="url(#SVGID_2_)">
			<defs>
				<rect id="SVGID_5_" x="266.5" y="68.6" width="97.3" height="173.1"/>
			</defs>
			<clipPath id="SVGID_6_">
				<use xlink:href="#SVGID_5_"  overflow="visible"/>
			</clipPath>
			<path clip-path="url(#SVGID_6_)" fill="none" stroke="#282460" stroke-width="0.656" stroke-miterlimit="10" d="M282.3,218.6
				c0.1,0,0.3-0.1,0.3-0.3V218c0-0.1-0.1-0.3-0.3-0.3h-6.1c-0.1,0-0.2-0.1-0.2-0.2v-10.1c0-0.1-0.1-0.3-0.3-0.3h-0.3
				c-0.1,0-0.3,0.1-0.3,0.3v10.9c0,0.1,0.1,0.3,0.3,0.3H282.3z"/>
		</g>
		<g clip-path="url(#SVGID_2_)">
			<text transform="matrix(1 0 0 1 288.0288 218.6317)" fill="#282460" font-family="'EvelethCleanThin'" font-size="14.5841">i</text>
		</g>
		<g clip-path="url(#SVGID_2_)">
			<defs>
				<rect id="SVGID_7_" x="266.5" y="68.6" width="97.3" height="173.1"/>
			</defs>
			<clipPath id="SVGID_8_">
				<use xlink:href="#SVGID_7_"  overflow="visible"/>
			</clipPath>
			<path clip-path="url(#SVGID_8_)" fill="none" stroke="#282460" stroke-width="0.656" stroke-miterlimit="10" d="M289.7,218.4
				c0,0.1,0.1,0.3,0.3,0.3h0.3c0.1,0,0.3-0.1,0.3-0.3v-10.9c0-0.1-0.1-0.3-0.3-0.3h-0.3c-0.1,0-0.3,0.1-0.3,0.3V218.4z"/>
		</g>
		<g clip-path="url(#SVGID_2_)">
			<text transform="matrix(1 0 0 1 297.8877 218.6317)" fill="#282460" font-family="'EvelethCleanThin'" font-size="14.5841">t</text>
		</g>
		<g clip-path="url(#SVGID_2_)">
			<defs>
				<rect id="SVGID_9_" x="266.5" y="68.6" width="97.3" height="173.1"/>
			</defs>
			<clipPath id="SVGID_10_">
				<use xlink:href="#SVGID_9_"  overflow="visible"/>
			</clipPath>
			<path clip-path="url(#SVGID_10_)" fill="none" stroke="#282460" stroke-width="0.656" stroke-miterlimit="10" d="M302.2,208.1
				c0.1,0,0.2,0.1,0.2,0.2v10.1c0,0.1,0.1,0.3,0.3,0.3h0.3c0.1,0,0.3-0.1,0.3-0.3v-10.1c0-0.1,0.1-0.2,0.2-0.2h3.6
				c0.1,0,0.3-0.1,0.3-0.3v-0.3c0-0.1-0.1-0.3-0.3-0.3h-8.5c-0.1,0-0.3,0.1-0.3,0.3v0.3c0,0.1,0.1,0.3,0.3,0.3H302.2z"/>
		</g>
		<g clip-path="url(#SVGID_2_)">
			<text transform="matrix(1 0 0 1 314.0166 218.6317)" fill="#282460" font-family="'EvelethCleanThin'" font-size="14.5841">t</text>
		</g>
		<g clip-path="url(#SVGID_2_)">
			<defs>
				<rect id="SVGID_11_" x="266.5" y="68.6" width="97.3" height="173.1"/>
			</defs>
			<clipPath id="SVGID_12_">
				<use xlink:href="#SVGID_11_"  overflow="visible"/>
			</clipPath>
			<path clip-path="url(#SVGID_12_)" fill="none" stroke="#282460" stroke-width="0.656" stroke-miterlimit="10" d="M318.3,208.1
				c0.1,0,0.2,0.1,0.2,0.2v10.1c0,0.1,0.1,0.3,0.3,0.3h0.3c0.1,0,0.3-0.1,0.3-0.3v-10.1c0-0.1,0.1-0.2,0.2-0.2h3.6
				c0.1,0,0.3-0.1,0.3-0.3v-0.3c0-0.1-0.1-0.3-0.3-0.3h-8.5c-0.1,0-0.3,0.1-0.3,0.3v0.3c0,0.1,0.1,0.3,0.3,0.3H318.3z"/>
		</g>
		<g clip-path="url(#SVGID_2_)">
			<text transform="matrix(1 0 0 1 329.6216 218.6317)"><tspan x="0" y="0" fill="#282460" font-family="'EvelethCleanThin'" font-size="14.5841" letter-spacing="5">l</tspan><tspan x="15.2" y="0" fill="#282460" font-family="'EvelethCleanThin'" font-size="14.5841">e</tspan></text>
		</g>
		<g clip-path="url(#SVGID_2_)">
			<defs>
				<rect id="SVGID_13_" x="266.5" y="68.6" width="97.3" height="173.1"/>
			</defs>
			<clipPath id="SVGID_14_">
				<use xlink:href="#SVGID_13_"  overflow="visible"/>
			</clipPath>
			<path clip-path="url(#SVGID_14_)" fill="none" stroke="#282460" stroke-width="0.656" stroke-miterlimit="10" d="M338.4,218.6
				c0.1,0,0.3-0.1,0.3-0.3V218c0-0.1-0.1-0.3-0.3-0.3h-6.1c-0.1,0-0.2-0.1-0.2-0.2v-10.1c0-0.1-0.1-0.3-0.3-0.3h-0.3
				c-0.1,0-0.3,0.1-0.3,0.3v10.9c0,0.1,0.1,0.3,0.3,0.3H338.4z"/>
			<path clip-path="url(#SVGID_14_)" fill="none" stroke="#282460" stroke-width="0.656" stroke-miterlimit="10" d="M354.1,218.6
				c0.1,0,0.3-0.1,0.3-0.3V218c0-0.1-0.1-0.3-0.3-0.3h-6.5c-0.1,0-0.2-0.1-0.2-0.2v-3.9c0-0.1,0.1-0.2,0.2-0.2h5.5
				c0.1,0,0.3-0.1,0.3-0.3v-0.3c0-0.1-0.1-0.3-0.3-0.3h-5.5c-0.1,0-0.2-0.1-0.2-0.2v-4.1c0-0.1,0.1-0.2,0.2-0.2h6.5
				c0.1,0,0.3-0.1,0.3-0.3v-0.3c0-0.1-0.1-0.3-0.3-0.3h-7.3c-0.1,0-0.3,0.1-0.3,0.3v10.9c0,0.1,0.1,0.3,0.3,0.3H354.1z"/>
		</g>
		<g clip-path="url(#SVGID_2_)">
			<text transform="matrix(1 0 0 1 273.5171 234.8075)" fill="#282965" font-family="'EvelethCleanRegular'" font-size="14.5843">m</text>
		</g>
		<g clip-path="url(#SVGID_2_)">
			<text transform="matrix(1 0 0 1 287.708 234.8075)" fill="#282965" font-family="'EvelethCleanRegular'" font-size="14.5843">o</text>
		</g>
		<g clip-path="url(#SVGID_2_)">
			<text transform="matrix(1 0 0 1 300.542 234.8075)" fill="#282965" font-family="'EvelethCleanRegular'" font-size="14.5843">n</text>
		</g>
		<g clip-path="url(#SVGID_2_)">
			<text transform="matrix(1 0 0 1 312.8218 234.8075)"><tspan x="0" y="0" fill="#282965" font-family="'EvelethCleanRegular'" font-size="14.5843">st</tspan><tspan x="21.1" y="0" fill="#282965" font-family="'EvelethCleanRegular'" font-size="14.5843">e</tspan><tspan x="31.6" y="0" fill="#282965" font-family="'EvelethCleanRegular'" font-size="14.5843">r</tspan></text>
		</g>
		<polygon clip-path="url(#SVGID_2_)" fill="#C1D9E8" points="349.8,163.5 347.7,169.6 283.9,169.6 279.2,163 272.9,160 272.9,86.9 
			356.8,86.9 356.8,155.8 		"/>
		
			<polygon clip-path="url(#SVGID_2_)" fill="none" stroke="#FFFFFF" stroke-width="0.642" stroke-miterlimit="10" stroke-dasharray="6.414,6.414" points="
			345.4,159.7 343.6,165 287.2,165 283.1,159.2 277.4,156.5 277.4,91.9 351.6,91.9 351.6,152.9 		"/>
		<g clip-path="url(#SVGID_2_)">
			<defs>
				<rect id="SVGID_15_" x="266.5" y="68.6" width="97.3" height="173.1"/>
			</defs>
			<clipPath id="SVGID_16_">
				<use xlink:href="#SVGID_15_"  overflow="visible"/>
			</clipPath>
			<path clip-path="url(#SVGID_16_)" fill="#9569AC" d="M345,174.1c1.4,0.9,1.1,5,1.1,5c2.7-2.5,2.2-5.7,2.2-5.7
				c2.5,0.6,1,6.1,1,6.1c5-4.5,1.5-9.4,1.5-9.4c5.4,1.1,6.9-1.7,6.9-1.7c-4.5,0.5-4.1-3.2-4.1-3.2c1.8,1,3.1,0,3.1,0
				c-2.2-1.7-0.2-9.8-0.2-9.8c2.6,1.1,1.8,5.6,1.8,5.6c2.4-5-1.6-9-1.6-9c2.4-0.2,3.8,4.6,3.8,4.6c0.5-6.9-4.1-9.6-4.1-9.6
				c4.9,2.7,7-2.4,7-2.4c-6,2.6-9.1-4.4-9.1-4.4c2.9-0.5,4.2,0.9,4.2,0.9c-1.7-3.6-6-3.6-6-3.6c2.1-1.9,5.3,0,5.3,0
				c-2.6-4.3-7.6-2.4-7.6-2.4c4.1-1.4,4-7.1,4-7.1c-1.4,5.1-9.6,3.5-9.6,3.5c0.1-2.1,3.8-3.2,3.8-3.2c-3.4-0.6-7,2.1-7,2.1
				c2-1.4,0.8-3.1,0.8-3.1c0,2.5-4.2,2.2-4.2,2.2l-2.2-0.6c3.6,1.2,4.4-0.5,4.4-0.5c-2.5-1.3-1.9-3.6-1.9-3.6
				c0.8,1.4,1.6,1.4,1.6,1.4c-0.9-1.4-0.2-5.7-0.2-5.7c1.9,0.7,1.1,3.2,1.1,3.2c1.9-2.5-0.1-9-0.1-9c2.2,1.5,2.2,5.8,2.2,5.8
				c2.2-6.1-2.1-9-2.1-9c3.4,2.7,4.3-1.6,4.3-1.6c-3.3,1.8-4.7-3.9-4.7-3.9c1.6-0.9,2.8,1.5,2.8,1.5c-0.6-5.9-3.7-5.8-3.7-5.8
				c3.4-1.3,5.6,2.9,5.6,2.9c-1.4-8.4-7.3-7.8-7.3-7.8c1-1.9,3.9-1.1,3.9-1.1c-2.2-2.8-5.7-2.5-5.7-2.5c2.2,0,2.2-2,2.2-2
				c-2.5,0.9-4.4-1.3-4.4-1.3c2.7-2.5,5.8,0,5.8,0c-2.3-5.2-8.4-2.9-8.4-2.9c2-4.3,5.9-3.4,5.9-3.4c-5.2-4.1-10.6-0.5-10.6-0.5
				c0.1-0.4,0.4-0.8,0.6-1.2c1.5-2,4.7-3.3,4.7-3.3c-5.8-0.6-7.5,3.2-7.5,3.2c-0.5-2.3,2.2-4.3,2.2-4.3c-2.9,0.1-4.3,3.4-4.3,3.4
				c-1.1-3.2,3-6.9,3-6.9c-3.5,0.9-5.2,5.5-5.4,6.1c4.7-14.8-5.5-16-5.5-16c7.7,3.7,2.1,15.4,2.1,15.4c1.5-6.7-4.5-8.2-4.5-8.2
				c3.6,5,0,8.3,0,8.3s-2.9-2.8-0.7-5.2c0,0-3.4,1.6-2,5.7c0,0-5.5-4.1-2.2-10c0,0-6.1,4.1-2.7,11.6c0,0-4.2,0.9-6.9-2.8
				c0,0-0.6,1.3,0.3,3c0.4,0.8,1,1.6,2.2,2.4c0,0-5.6-3.7-10.2,2.1c0,0,5.7-2,7,0.9c0,0-4.8,3.6-9.4,2.3c0,0,2.3,2.7,5.8,2
				c0,0-3.4,0.3-3.9,3.2c0,0,1.6-1.3,2.3-0.6c0,0-2,3.5-5.6,2.9c0,0,1.4,2.6,3.3,2.3c0,0-5.5,1-6.2,8.3c0,0,2.7-3.9,5-3.9
				c0,0-3.9,2.7-3.1,7.5c0,0,1.3-3.9,2.5-4.1c0,0-0.3,7-2.8,7.6c0,0,1,1.8,2.5,1.2c0,0-5,3.4-4.2,8.1c0,0,2.1-4.3,5.2-4.4
				c0,0,0,3.8-2.3,5.4c0,0,1.3,0.4,3.6-1.1c0,0,0.8,3.7-2.2,3.7c0,0,1.6,1.5,4.9,1c0,0-3.7,2-8.4-1.1c0,0-0.4,2.2,2.1,2.9
				c0,0-4.8,0.5-7-3.6c0,0-0.9,4.1,3,5.3c0,0-7.5-2.8-11.6,3.7c0,0,5.2-3,6.8-0.2c0,0-6.3,1.1-6.8,5.1c0,0,2.1-1.7,3.9-1.3
				c0,0-3.1,6.7-7.8,10.5c0,0,3.9-0.2,5-1.8c0,0-6.4,3.2-5,11.8c0,0,2-5.7,5-5.6c0,0,0.5,3.1-1.7,5.6c0,0,1.6,0.1,2.5-1.7
				c0,0,0.5,3.7-1.6,6.1c0,0,2.6,0.6,3.4-0.5c0,0-3.8,5.9-2.5,11.7c0,0,0.9-6,5.2-6.6c0,0-2.4,7.2,1.6,10.1c0,0-1.2-4.5,1.3-6.2
				c0,0,0.7,3.6,4.8,3.7c0,0-0.9-4.8,1.6-6.3h55L345,174.1z"/>
			<path clip-path="url(#SVGID_16_)" fill="#282965" d="M312.6,151.5c0,0-1,3.3,1.6,3.5c0,0-1.3,1.2-3.3,0.3c0,0,2,3.2-0.4,8.3
				c0,0,0.2-4.3-0.5-6.1c0,0,0.7,2.9-0.8,4.4c0,0,0.5-1.3-0.3-2c0,0-2.1,3.3-0.7,6.8c0,0-1.3,0-1.9-1.6c0,0,0.5,8.6-2,10.9
				c0,0,0.9-4.7-0.1-5.8c0,0-1.2,2.1-0.6,4.9c0,0-1.9-0.8-1.4-2.8c0,0-2.6,3.8-0.7,8.1c0,0-2.6-0.2-2.4-3.4c0,0-1.1,2.1-0.4,3.4
				c0,0-0.8-0.3-0.9-1.6c-3.9,5.6-10.7,0.6-10.7,0.6c-8.1-4.2,1.6-15.5,1.6-15.5c-1.4,0.6-2.4-0.5-2.4-0.5c2,0,3.8-3.6,3.8-3.6
				c-2-0.8-4.6,1.5-4.6,1.5c2-5.3,6.1-4.6,6.1-4.6c-2.2,0.5-2.9-1.2-2.9-1.2c2.5,0.3,6-3.6,6-3.6c-1.2-0.3-2.7,0.3-2.7,0.3
				c1-2.6,4.6-2.7,4.6-2.7c-1.5-1.3-4,0.3-4,0.3c1.4-3.4,6.1-2.5,6.1-2.5c-0.9-0.1-1.3-1.4-1.3-1.4c1.7,0.5,4.1-1.2,4.1-1.2
				c-1.5-1.2-4.6-0.5-4.6-0.5c2.6-3.6,6.3-0.9,6.3-0.9c-15.5-11.4-13.4-19.4-13.4-19.4s2.4,5.9,7.7,9.1c0,0-5.5-4.7-3.5-14
				c0,0,0.2,9.4,6.8,12.5c0,0-2.9-3.2-1.4-9.6c0,0,0.8,5.2,3,7.3c2.5,2.3,4.4,3.8,6.2,5.1c0,0,1.7,1.1,1.7,1.1
				c1.3,0.9,2.6,2,3.4,3.4c0.8,1.6,1.1,3.5,1,5.3C314.5,146.6,313.3,149,312.6,151.5"/>
			<path clip-path="url(#SVGID_16_)" fill="#282965" d="M331.8,178.7c-1.3,0.7-0.3,4-0.3,4c-4.5-2.5-3-8.7-3-8.7
				c-2.1,1.2-1.5,4.1-1.5,4.1c-2.5-1.7-0.3-7-0.3-7c-0.9,2.1-2.4,1.9-2.4,1.9c1-3-0.6-6.6-0.3-6.8c-0.8,0-1,2.3-1,2.3
				c-1.5-1.8-0.6-5.3-0.6-5.3c-2.6,1.5-1.7,6.3-1.7,6.3c-3.7-5.2-0.2-10.3-0.2-10.3c-1.1,1.5-2.8,0.7-2.8,0.7
				c1.6-0.1,1.5-3.6,1.5-3.6c-2.6,0.4-3.3,4.5-3.3,4.5c-1.9-4.4,1.6-8.2,1.6-8.2c-2.2,1.5-3.4,0.4-3.4,0.4c2.3-2.3,1.4-6.4,1.4-6.4
				c-1.4-10.7,3.6-9.2,11.9-17.5c2.3-2.3,3-7.3,3-7.3c1.6,5.9-1.4,9.6-1.4,9.6c6.8-3.8,6.8-12.5,6.8-12.5c2,9.4-3.5,14-3.5,14
				c5.9-3.7,7.6-9.5,7.6-9.5s3,7.4-13.4,19.8c0,0,3.6,2.3,6.9-0.5c0,0-0.1,2.9-3.1,3.9c0,0,1.4-0.8,3.6,0c0,0-1.8-0.1-2.2,1.4
				c0,0,3.6,2.7,5.7-0.7c0,0,0,2.7-3.2,3.5c0,0,3.6-1.3,7.7,2.1c0,0-4.2-1.1-5.9,0.3c0,0,2.8-0.1,4.4,2.3c0,0-2-1.3-2.8,0.3
				c0,0,4.7,0.1,4.8,5.6c0,0-1-2.1-2.7-1.2c0,0,1.1,2.5,2.7,3c0,0-0.4,0.6-1.7,0c0,0,1.8,3.8,5.5,2.2c0,0,0,2.4-3,2.1
				c0.1,0,0.4,0.6,0.4,0.7c0.4,0.6,0.7,1.2,1,1.8c0.8,1.5,1.4,3.3,1.3,5c-0.1,2.1-2,3.4-3.6,4.4c-1.5,0.9-3.1,1.7-4.8,1.9
				C335.2,181.7,333.1,180.7,331.8,178.7"/>
			<polygon clip-path="url(#SVGID_16_)" fill="#FFFFFF" points="307.3,121.1 309.1,113.6 311.2,122.8 			"/>
			
				<path clip-path="url(#SVGID_16_)" fill="none" stroke="#FFFFFF" stroke-width="1.283" stroke-linecap="round" stroke-miterlimit="10" d="
				M305.3,119c0,0,8.9,9.2,18.9,0"/>
			<path clip-path="url(#SVGID_16_)" fill="#FFFFFF" d="M312.6,102.2c0,4-3.2,7.2-7.2,7.2c-4,0-7.2-3.2-7.2-7.2c0-4,3.2-7.2,7.2-7.2
				C309.3,94.9,312.6,98.2,312.6,102.2"/>
			<path clip-path="url(#SVGID_16_)" fill="#FFFFFF" d="M331.5,102.2c0,4-3.2,7.2-7.2,7.2c-4,0-7.2-3.2-7.2-7.2c0-4,3.2-7.2,7.2-7.2
				C328.2,94.9,331.5,98.2,331.5,102.2"/>
			<path clip-path="url(#SVGID_16_)" fill="#282460" d="M327.6,102.2c0,1.8-1.5,3.3-3.3,3.3c-1.8,0-3.3-1.5-3.3-3.3
				c0-1.8,1.5-3.3,3.3-3.3C326.1,98.8,327.6,100.3,327.6,102.2"/>
			<path clip-path="url(#SVGID_16_)" fill="#282460" d="M308.7,102.2c0,1.8-1.5,3.3-3.3,3.3c-1.8,0-3.3-1.5-3.3-3.3
				c0-1.8,1.5-3.3,3.3-3.3C307.2,98.8,308.7,100.3,308.7,102.2"/>
			<polygon clip-path="url(#SVGID_16_)" fill="#FFFFFF" points="322.2,121.1 320.4,113.6 318.3,122.8 			"/>
			<polygon clip-path="url(#SVGID_16_)" fill="#FFFFFF" points="58.6,-398.1 46.3,-417 42.7,-389.7 			"/>
		</g>
		<g clip-path="url(#SVGID_2_)">
			<text transform="matrix(1 0 0 1 266.6812 654.1547)"><tspan x="0" y="0" fill="#282965" font-family="'EvelethCleanRegular'" font-size="11">P</tspan><tspan x="7.8" y="0" fill="#282965" font-family="'EvelethCleanRegular'" font-size="11">E</tspan><tspan x="16" y="0" fill="#282965" font-family="'EvelethCleanRegular'" font-size="11">Y</tspan><tspan x="25.4" y="0" fill="#282965" font-family="'EvelethCleanRegular'" font-size="11">T</tspan><tspan x="33" y="0" fill="#282965" font-family="'EvelethCleanRegular'" font-size="11">O</tspan><tspan x="42.5" y="0" fill="#282965" font-family="'EvelethCleanRegular'" font-size="11">N </tspan><tspan x="54.8" y="0" fill="#282965" font-family="'EvelethCleanRegular'" font-size="11">B</tspan><tspan x="63" y="0" fill="#282965" font-family="'EvelethCleanRegular'" font-size="11">A</tspan><tspan x="72.1" y="0" fill="#282965" font-family="'EvelethCleanRegular'" font-size="11">N</tspan><tspan x="81" y="0" fill="#282965" font-family="'EvelethCleanRegular'" font-size="11">K</tspan><tspan x="89.1" y="0" fill="#282965" font-family="'EvelethCleanRegular'" font-size="11">S</tspan></text>
		</g>
		<g clip-path="url(#SVGID_2_)">
			<text transform="matrix(1 0 0 1 267.0742 665.3051)"><tspan x="0" y="0" fill="#282965" font-family="'ProximaNova-Regular'" font-size="8">F</tspan><tspan x="4.3" y="0" fill="#282965" font-family="'ProximaNova-Regular'" font-size="8">A</tspan><tspan x="9.8" y="0" fill="#282965" font-family="'ProximaNova-Regular'" font-size="8">S</tspan><tspan x="14.7" y="0" fill="#282965" font-family="'ProximaNova-Regular'" font-size="8">H</tspan><tspan x="20.6" y="0" fill="#282965" font-family="'ProximaNova-Regular'" font-size="8">I</tspan><tspan x="22.5" y="0" fill="#282965" font-family="'ProximaNova-Regular'" font-size="8">O</tspan><tspan x="28.8" y="0" fill="#282965" font-family="'ProximaNova-Regular'" font-size="8">N </tspan><tspan x="36.5" y="0" fill="#282965" font-family="'ProximaNova-Regular'" font-size="8">D</tspan><tspan x="42" y="0" fill="#282965" font-family="'ProximaNova-Regular'" font-size="8">E</tspan><tspan x="46.7" y="0" fill="#282965" font-family="'ProximaNova-Regular'" font-size="8">S</tspan><tspan x="51.5" y="0" fill="#282965" font-family="'ProximaNova-Regular'" font-size="8">I</tspan><tspan x="53.6" y="0" fill="#282965" font-family="'ProximaNova-Regular'" font-size="8">G</tspan><tspan x="59.4" y="0" fill="#282965" font-family="'ProximaNova-Regular'" font-size="8">N</tspan><tspan x="65.1" y="0" fill="#282965" font-family="'ProximaNova-Regular'" font-size="8">E</tspan><tspan x="69.8" y="0" fill="#282965" font-family="'ProximaNova-Regular'" font-size="8">R</tspan></text>
		</g>
		<g clip-path="url(#SVGID_2_)">
			<text transform="matrix(1 0 0 1 266.4609 691.1547)"><tspan x="0" y="0" fill="#282965" font-family="'ProximaNova-Regular'" font-size="7">i</tspan><tspan x="1.7" y="0" fill="#282965" font-family="'ProximaNova-Regular'" font-size="7">n</tspan><tspan x="5.7" y="0" fill="#282965" font-family="'ProximaNova-Regular'" font-size="7">f</tspan><tspan x="7.8" y="0" fill="#282965" font-family="'ProximaNova-Regular'" font-size="7">o</tspan><tspan x="12" y="0" fill="#282965" font-family="'ProximaNova-Regular'" font-size="7">@</tspan><tspan x="17.7" y="0" fill="#282965" font-family="'ProximaNova-Regular'" font-size="7">l</tspan><tspan x="19.4" y="0" fill="#282965" font-family="'ProximaNova-Regular'" font-size="7">i</tspan><tspan x="21.1" y="0" fill="#282965" font-family="'ProximaNova-Regular'" font-size="7">t</tspan><tspan x="23.5" y="0" fill="#282965" font-family="'ProximaNova-Regular'" font-size="7">t</tspan><tspan x="25.8" y="0" fill="#282965" font-family="'ProximaNova-Regular'" font-size="7">l</tspan><tspan x="27.5" y="0" fill="#282965" font-family="'ProximaNova-Regular'" font-size="7">e</tspan><tspan x="31.6" y="0" fill="#282965" font-family="'ProximaNova-Regular'" font-size="7">mo</tspan><tspan x="41.5" y="0" fill="#282965" font-family="'ProximaNova-Regular'" font-size="7">n</tspan><tspan x="45.5" y="0" fill="#282965" font-family="'ProximaNova-Regular'" font-size="7">s</tspan><tspan x="49" y="0" fill="#282965" font-family="'ProximaNova-Regular'" font-size="7">t</tspan><tspan x="51.1" y="0" fill="#282965" font-family="'ProximaNova-Regular'" font-size="7">e</tspan><tspan x="55.2" y="0" fill="#282965" font-family="'ProximaNova-Regular'" font-size="7">r</tspan><tspan x="57.3" y="0" fill="#282965" font-family="'ProximaNova-Regular'" font-size="7">.</tspan><tspan x="59" y="0" fill="#282965" font-family="'ProximaNova-Regular'" font-size="7">c</tspan><tspan x="62.5" y="0" fill="#282965" font-family="'ProximaNova-Regular'" font-size="7">o</tspan><tspan x="66.7" y="0" fill="#282965" font-family="'ProximaNova-Regular'" font-size="7">m</tspan></text>
		</g>
		<g clip-path="url(#SVGID_2_)">
			<text transform="matrix(1 0 0 1 266.4609 723.1752)"><tspan x="0" y="0" fill="#282965" font-family="'ProximaNova-Regular'" font-size="7">1</tspan><tspan x="2.5" y="0" fill="#282965" font-family="'ProximaNova-Regular'" font-size="7">4</tspan><tspan x="6.6" y="0" fill="#282965" font-family="'ProximaNova-Regular'" font-size="7">0 </tspan><tspan x="12.7" y="0" fill="#282965" font-family="'ProximaNova-Regular'" font-size="7">E</tspan><tspan x="16.9" y="0" fill="#282965" font-family="'ProximaNova-Regular'" font-size="7">. </tspan><tspan x="20.3" y="0" fill="#282965" font-family="'ProximaNova-Regular'" font-size="7">B</tspan><tspan x="24.9" y="0" fill="#282965" font-family="'ProximaNova-Regular'" font-size="7">r</tspan><tspan x="27.3" y="0" fill="#282965" font-family="'ProximaNova-Regular'" font-size="7">o</tspan><tspan x="31.4" y="0" fill="#282965" font-family="'ProximaNova-Regular'" font-size="7">a</tspan><tspan x="35.2" y="0" fill="#282965" font-family="'ProximaNova-Regular'" font-size="7">d</tspan><tspan x="39.4" y="0" fill="#282965" font-family="'ProximaNova-Regular'" font-size="7">w</tspan><tspan x="44.7" y="0" fill="#282965" font-family="'ProximaNova-Regular'" font-size="7">a</tspan><tspan x="48.5" y="0" fill="#282965" font-family="'ProximaNova-Regular'" font-size="7">y</tspan></text>
		</g>
		<g clip-path="url(#SVGID_2_)">
			<text transform="matrix(1 0 0 1 266.4609 731.5751)"><tspan x="0" y="0" fill="#282965" font-family="'ProximaNova-Regular'" font-size="7">Ja</tspan><tspan x="7.3" y="0" fill="#282965" font-family="'ProximaNova-Regular'" font-size="7">c</tspan><tspan x="10.9" y="0" fill="#282965" font-family="'ProximaNova-Regular'" font-size="7">k</tspan><tspan x="14.7" y="0" fill="#282965" font-family="'ProximaNova-Regular'" font-size="7">s</tspan><tspan x="18" y="0" fill="#282965" font-family="'ProximaNova-Regular'" font-size="7">o</tspan><tspan x="22.2" y="0" fill="#282965" font-family="'ProximaNova-Regular'" font-size="7">n</tspan><tspan x="26.2" y="0" fill="#282965" font-family="'ProximaNova-Regular'" font-size="7">, </tspan><tspan x="29.6" y="0" fill="#282965" font-family="'ProximaNova-Regular'" font-size="7">W</tspan><tspan x="36.2" y="0" fill="#282965" font-family="'ProximaNova-Regular'" font-size="7">Y </tspan><tspan x="42.4" y="0" fill="#282965" font-family="'ProximaNova-Regular'" font-size="7">8</tspan><tspan x="46.6" y="0" fill="#282965" font-family="'ProximaNova-Regular'" font-size="7">3</tspan><tspan x="50.7" y="0" fill="#282965" font-family="'ProximaNova-Regular'" font-size="7">0</tspan><tspan x="55.2" y="0" fill="#282965" font-family="'ProximaNova-Regular'" font-size="7">0</tspan><tspan x="59.7" y="0" fill="#282965" font-family="'ProximaNova-Regular'" font-size="7">1</tspan></text>
		</g>
		<g clip-path="url(#SVGID_2_)">
			<text transform="matrix(1 0 0 1 266.4609 707.1649)"><tspan x="0" y="0" fill="#282965" font-family="'ProximaNova-Regular'" font-size="7">3</tspan><tspan x="4.1" y="0" fill="#282965" font-family="'ProximaNova-Regular'" font-size="7">0</tspan><tspan x="8.4" y="0" fill="#282965" font-family="'ProximaNova-Regular'" font-size="7">7</tspan><tspan x="11.9" y="0" fill="#282965" font-family="'ProximaNova-Regular'" font-size="7">-</tspan><tspan x="13.9" y="0" fill="#282965" font-family="'ProximaNova-Regular'" font-size="7">7</tspan><tspan x="17.7" y="0" fill="#282965" font-family="'ProximaNova-Regular'" font-size="7">3</tspan><tspan x="21.7" y="0" fill="#282965" font-family="'ProximaNova-Regular'" font-size="7">9</tspan><tspan x="26.2" y="0" fill="#282965" font-family="'ProximaNova-Regular'" font-size="7">-</tspan><tspan x="28.3" y="0" fill="#282965" font-family="'ProximaNova-Regular'" font-size="7">2</tspan><tspan x="32.5" y="0" fill="#282965" font-family="'ProximaNova-Regular'" font-size="7">2</tspan><tspan x="36.6" y="0" fill="#282965" font-family="'ProximaNova-Regular'" font-size="7">5</tspan><tspan x="40.9" y="0" fill="#282965" font-family="'ProximaNova-Regular'" font-size="7">8</tspan></text>
		</g>
		<g clip-path="url(#SVGID_2_)">
			<text transform="matrix(1 0 0 1 434 178.2772)"><tspan x="0" y="0" fill="#282965" font-family="'ProximaNova-Bold'" font-size="10">OC</tspan><tspan x="14.5" y="0" fill="#282965" font-family="'ProximaNova-Bold'" font-size="10">T</tspan><tspan x="20.1" y="0" fill="#282965" font-family="'ProximaNova-Bold'" font-size="10">OBER 3</tspan><tspan x="55.1" y="0" fill="#282965" font-family="'ProximaNova-Bold'" font-size="10">0</tspan><tspan x="61.1" y="0" fill="#282965" font-family="'ProximaNova-Bold'" font-size="10">, 2014</tspan></text>
		</g>
		<g clip-path="url(#SVGID_2_)">
			<text transform="matrix(1 0 0 1 434 205.7772)"><tspan x="0" y="0" font-family="'ProximaNova-Regular'" font-size="10">Dear </tspan><tspan x="23.8" y="0" font-family="'ProximaNova-Regular'" font-size="10">V</tspan><tspan x="29.7" y="0" font-family="'ProximaNova-Regular'" font-size="10">alued Custome</tspan><tspan x="96" y="0" font-family="'ProximaNova-Regular'" font-size="10">r</tspan><tspan x="98.5" y="0" font-family="'ProximaNova-Regular'" font-size="10">,</tspan></text>
		</g>
		<g clip-path="url(#SVGID_2_)">
			<text transform="matrix(1 0 0 1 434 233.7772)" font-family="'ProximaNova-Regular'" font-size="10">Qui ommost eumquo et earitenisque dus volupicia sequatur autatet </text>
		</g>
		<g clip-path="url(#SVGID_2_)">
			<text transform="matrix(1 0 0 1 434 249.7772)" font-family="'ProximaNova-Regular'" font-size="10">quis doluptum ipsam incimin veliquam re et, quam lauditati cullatus </text>
		</g>
		<g clip-path="url(#SVGID_2_)">
			<text transform="matrix(1 0 0 1 434 265.7772)" font-family="'ProximaNova-Regular'" font-size="10">corempore comnis eatusci rem. Ita aditati uscipsuntem volor </text>
		</g>
		<path clip-path="url(#SVGID_2_)" d="M434.3,281.1l0.4-0.5c0.3,0.4,0.9,0.7,1.6,0.7c0.7,0,1.1-0.3,1.1-0.8c0-1.2-3-0.4-3-2.2
			c0-0.7,0.6-1.4,1.8-1.4c0.8,0,1.4,0.3,1.8,0.7l-0.3,0.5c-0.3-0.3-0.8-0.6-1.4-0.6c-0.7,0-1.1,0.3-1.1,0.8c0,1.1,3,0.4,3,2.2
			c0,0.8-0.6,1.5-1.9,1.5C435.5,281.9,434.8,281.7,434.3,281.1z M439.3,275.8c0-0.3,0.2-0.5,0.5-0.5c0.3,0,0.5,0.2,0.5,0.5
			c0,0.3-0.2,0.5-0.5,0.5C439.5,276.3,439.3,276,439.3,275.8z M439.4,281.8v-4.8h0.7v4.8H439.4z M441.8,280.8v-3.2H441v-0.7h0.8
			v-1.3h0.7v1.3h1v0.7h-1v3c0,0.4,0.2,0.6,0.5,0.6c0.2,0,0.4-0.1,0.5-0.2l0.2,0.6c-0.2,0.2-0.5,0.3-0.9,0.3
			C442.2,281.9,441.8,281.5,441.8,280.8z M444.5,275.8c0-0.3,0.2-0.5,0.5-0.5c0.3,0,0.5,0.2,0.5,0.5c0,0.3-0.2,0.5-0.5,0.5
			C444.7,276.3,444.5,276,444.5,275.8z M444.6,281.8v-4.8h0.7v4.8H444.6z M449.9,281.8v-0.5c-0.4,0.4-0.9,0.7-1.6,0.7
			c-0.8,0-1.7-0.5-1.7-1.6c0-1.1,0.9-1.6,1.7-1.6c0.7,0,1.2,0.2,1.6,0.7v-0.9c0-0.6-0.5-1-1.2-1c-0.6,0-1,0.2-1.5,0.7l-0.3-0.5
			c0.5-0.5,1.1-0.8,1.9-0.8c1,0,1.9,0.5,1.9,1.6v3.3H449.9z M449.9,280.8v-0.9c-0.3-0.4-0.8-0.6-1.3-0.6c-0.7,0-1.2,0.4-1.2,1.1
			c0,0.6,0.5,1,1.2,1C449.1,281.4,449.6,281.2,449.9,280.8z M455.4,281.8v-3.2c0-0.8-0.4-1.1-1.1-1.1c-0.6,0-1.1,0.4-1.4,0.7v3.5
			h-0.7v-4.8h0.7v0.7c0.3-0.4,1-0.8,1.7-0.8c1,0,1.5,0.5,1.5,1.6v3.4H455.4z M457.5,275.8c0-0.3,0.2-0.5,0.5-0.5
			c0.3,0,0.5,0.2,0.5,0.5c0,0.3-0.2,0.5-0.5,0.5C457.7,276.3,457.5,276,457.5,275.8z M457.6,281.8v-4.8h0.7v4.8H457.6z M465.7,281.8
			v-3.3c0-0.6-0.3-1-0.9-1c-0.5,0-1,0.4-1.3,0.7v3.5h-0.7v-3.3c0-0.6-0.3-1-0.9-1c-0.5,0-1,0.4-1.3,0.7v3.5h-0.7v-4.8h0.7v0.7
			c0.2-0.3,0.8-0.8,1.6-0.8c0.7,0,1.2,0.4,1.3,0.9c0.3-0.4,0.9-0.9,1.6-0.9c0.9,0,1.3,0.5,1.3,1.5v3.5H465.7z M467.8,275.8
			c0-0.3,0.2-0.5,0.5-0.5c0.3,0,0.5,0.2,0.5,0.5c0,0.3-0.2,0.5-0.5,0.5C468,276.3,467.8,276,467.8,275.8z M467.9,281.8v-4.8h0.7v4.8
			H467.9z M473.5,281.8v-3.2c0-0.8-0.4-1.1-1.1-1.1c-0.6,0-1.1,0.4-1.4,0.7v3.5h-0.7v-4.8h0.7v0.7c0.3-0.4,1-0.8,1.7-0.8
			c1,0,1.5,0.5,1.5,1.6v3.4H473.5z M475.9,280.8v-3.2h-0.8v-0.7h0.8v-1.3h0.7v1.3h1v0.7h-1v3c0,0.4,0.2,0.6,0.5,0.6
			c0.2,0,0.4-0.1,0.5-0.2l0.2,0.6c-0.2,0.2-0.5,0.3-0.9,0.3C476.2,281.9,475.9,281.5,475.9,280.8z M480.9,279.4
			c0-1.4,0.9-2.5,2.4-2.5s2.4,1.1,2.4,2.5c0,1.4-0.9,2.5-2.4,2.5S480.9,280.8,480.9,279.4z M484.9,279.4c0-1-0.6-1.9-1.6-1.9
			s-1.6,0.9-1.6,1.9c0,1,0.6,1.9,1.6,1.9S484.9,280.3,484.9,279.4z M487.2,281.8v-4.2h-0.8v-0.7h0.8v-0.4c0-1,0.5-1.6,1.4-1.6
			c0.4,0,0.7,0.1,1,0.4l-0.3,0.5c-0.2-0.1-0.3-0.2-0.6-0.2c-0.5,0-0.8,0.3-0.8,0.9v0.4h1v0.7h-1v4.2H487.2z M490,281.8v-4.2h-0.8
			v-0.7h0.8v-0.4c0-1,0.6-1.6,1.4-1.6c0.3,0,0.5,0,0.7,0.2l-0.2,0.6c-0.1-0.1-0.2-0.1-0.4-0.1c-0.5,0-0.8,0.3-0.8,0.9v0.4h1v0.7h-1
			v4.2H490z M492.5,275.8c0-0.3,0.2-0.5,0.5-0.5c0.3,0,0.5,0.2,0.5,0.5c0,0.3-0.2,0.5-0.5,0.5C492.7,276.3,492.5,276,492.5,275.8z
			 M492.6,281.8v-4.8h0.7v4.8H492.6z M494.6,279.4c0-1.4,1-2.5,2.4-2.5c0.9,0,1.4,0.4,1.8,0.8l-0.5,0.5c-0.3-0.4-0.7-0.6-1.2-0.6
			c-1,0-1.7,0.8-1.7,1.9c0,1.1,0.6,1.9,1.7,1.9c0.5,0,0.9-0.2,1.2-0.6l0.5,0.5c-0.4,0.5-0.9,0.8-1.8,0.8
			C495.6,281.9,494.6,280.8,494.6,279.4z M502.5,280.8v-3.2h-0.8v-0.7h0.8v-1.3h0.7v1.3h1v0.7h-1v3c0,0.4,0.2,0.6,0.5,0.6
			c0.2,0,0.4-0.1,0.5-0.2l0.2,0.6c-0.2,0.2-0.5,0.3-0.9,0.3C502.9,281.9,502.5,281.5,502.5,280.8z M505.1,279.4
			c0-1.4,0.9-2.5,2.4-2.5s2.4,1.1,2.4,2.5c0,1.4-0.9,2.5-2.4,2.5S505.1,280.8,505.1,279.4z M509,279.4c0-1-0.6-1.9-1.6-1.9
			s-1.6,0.9-1.6,1.9c0,1,0.6,1.9,1.6,1.9S509,280.3,509,279.4z M513.3,279.4c0-1.6,0.9-2.5,2.1-2.5c0.7,0,1.3,0.3,1.6,0.8v-0.7h0.7
			v6.7h-0.7V281c-0.4,0.5-1,0.8-1.6,0.8C514.2,281.9,513.3,280.9,513.3,279.4z M517.1,280.4v-2.2c-0.2-0.4-0.8-0.8-1.4-0.8
			c-1,0-1.5,0.8-1.5,1.9c0,1.1,0.6,1.9,1.5,1.9C516.3,281.2,516.8,280.9,517.1,280.4z M522.6,281.8v-0.7c-0.4,0.4-1,0.8-1.7,0.8
			c-1,0-1.5-0.5-1.5-1.5v-3.4h0.7v3.2c0,0.8,0.4,1.1,1.1,1.1c0.6,0,1.1-0.3,1.4-0.7v-3.5h0.7v4.8H522.6z M524.7,275.8
			c0-0.3,0.2-0.5,0.5-0.5c0.3,0,0.5,0.2,0.5,0.5c0,0.3-0.2,0.5-0.5,0.5C525,276.3,524.7,276,524.7,275.8z M524.9,281.8v-4.8h0.7v4.8
			H524.9z M529.7,281.8v-4.8h0.7v0.8c0.4-0.5,0.9-0.9,1.6-0.9v0.8c-0.1,0-0.2,0-0.3,0c-0.5,0-1.1,0.4-1.3,0.8v3.4H529.7z
			 M532.7,279.4c0-1.4,1-2.5,2.4-2.5c1.5,0,2.3,1.1,2.3,2.6v0.2h-3.9c0.1,0.9,0.7,1.7,1.7,1.7c0.5,0,1.1-0.2,1.5-0.6l0.4,0.5
			c-0.5,0.5-1.1,0.7-1.9,0.7C533.7,281.9,532.7,280.9,532.7,279.4z M535.1,277.4c-1,0-1.5,0.9-1.6,1.6h3.2
			C536.7,278.3,536.2,277.4,535.1,277.4z M538.6,281.8v-4.8h0.7v0.8c0.4-0.5,0.9-0.9,1.6-0.9v0.8c-0.1,0-0.2,0-0.3,0
			c-0.5,0-1.1,0.4-1.3,0.8v3.4H538.6z M545.2,281.8v-0.7c-0.4,0.4-1,0.8-1.7,0.8c-1,0-1.5-0.5-1.5-1.5v-3.4h0.7v3.2
			c0,0.8,0.4,1.1,1.1,1.1c0.6,0,1.1-0.3,1.4-0.7v-3.5h0.7v4.8H545.2z M553.3,281.8v-3.3c0-0.6-0.3-1-0.9-1c-0.5,0-1,0.4-1.3,0.7v3.5
			h-0.7v-3.3c0-0.6-0.3-1-0.9-1c-0.5,0-1,0.4-1.3,0.7v3.5h-0.7v-4.8h0.7v0.7c0.2-0.3,0.8-0.8,1.6-0.8c0.7,0,1.2,0.4,1.3,0.9
			c0.3-0.4,0.9-0.9,1.6-0.9c0.9,0,1.3,0.5,1.3,1.5v3.5H553.3z M558.3,281.8v-4.2h-0.8v-0.7h0.8v-0.4c0-1,0.5-1.6,1.4-1.6
			c0.4,0,0.7,0.1,1,0.4l-0.3,0.5c-0.2-0.1-0.3-0.2-0.6-0.2c-0.5,0-0.8,0.3-0.8,0.9v0.4h1v0.7h-1v4.2H558.3z M563.9,281.8v-0.5
			c-0.4,0.4-0.9,0.7-1.6,0.7c-0.8,0-1.7-0.5-1.7-1.6c0-1.1,0.9-1.6,1.7-1.6c0.7,0,1.2,0.2,1.6,0.7v-0.9c0-0.6-0.5-1-1.2-1
			c-0.6,0-1,0.2-1.5,0.7l-0.3-0.5c0.5-0.5,1.1-0.8,1.9-0.8c1,0,1.9,0.5,1.9,1.6v3.3H563.9z M563.9,280.8v-0.9
			c-0.3-0.4-0.8-0.6-1.3-0.6c-0.7,0-1.2,0.4-1.2,1.1c0,0.6,0.5,1,1.2,1C563.1,281.4,563.7,281.2,563.9,280.8z M565.9,279.4
			c0-1.4,1-2.5,2.4-2.5c0.9,0,1.4,0.4,1.8,0.8l-0.5,0.5c-0.3-0.4-0.7-0.6-1.2-0.6c-1,0-1.7,0.8-1.7,1.9c0,1.1,0.6,1.9,1.7,1.9
			c0.5,0,0.9-0.2,1.2-0.6l0.5,0.5c-0.4,0.5-0.9,0.8-1.8,0.8C566.9,281.9,565.9,280.8,565.9,279.4z M571,275.8c0-0.3,0.2-0.5,0.5-0.5
			c0.3,0,0.5,0.2,0.5,0.5c0,0.3-0.2,0.5-0.5,0.5C571.2,276.3,571,276,571,275.8z M571.1,281.8v-4.8h0.7v4.8H571.1z M574.1,281v2.6
			h-0.7v-6.7h0.7v0.7c0.3-0.5,0.9-0.8,1.6-0.8c1.3,0,2.1,1,2.1,2.5c0,1.6-0.9,2.5-2.1,2.5C575.1,281.9,574.5,281.6,574.1,281z
			 M577.1,279.4c0-1.1-0.6-1.9-1.5-1.9c-0.6,0-1.2,0.3-1.4,0.8v2.2c0.3,0.4,0.8,0.8,1.4,0.8C576.6,281.2,577.1,280.4,577.1,279.4z
			 M578.7,281.1l0.4-0.5c0.3,0.4,0.9,0.7,1.6,0.7c0.7,0,1.1-0.3,1.1-0.8c0-1.2-3-0.4-3-2.2c0-0.7,0.6-1.4,1.8-1.4
			c0.8,0,1.4,0.3,1.8,0.7l-0.3,0.5c-0.3-0.3-0.8-0.6-1.4-0.6c-0.7,0-1.1,0.3-1.1,0.8c0,1.1,3,0.4,3,2.2c0,0.8-0.6,1.5-1.9,1.5
			C579.9,281.9,579.2,281.7,578.7,281.1z M586.8,281.8v-0.5c-0.4,0.4-0.9,0.7-1.6,0.7c-0.8,0-1.7-0.5-1.7-1.6c0-1.1,0.9-1.6,1.7-1.6
			c0.7,0,1.2,0.2,1.6,0.7v-0.9c0-0.6-0.5-1-1.2-1c-0.6,0-1,0.2-1.5,0.7l-0.3-0.5c0.5-0.5,1.1-0.8,1.9-0.8c1,0,1.9,0.5,1.9,1.6v3.3
			H586.8z M586.8,280.8v-0.9c-0.3-0.4-0.8-0.6-1.3-0.6c-0.7,0-1.2,0.4-1.2,1.1c0,0.6,0.5,1,1.2,1C586,281.4,586.5,281.2,586.8,280.8
			z M594.9,281.8v-3.3c0-0.6-0.3-1-0.9-1c-0.5,0-1,0.4-1.3,0.7v3.5h-0.7v-3.3c0-0.6-0.3-1-0.9-1c-0.5,0-1,0.4-1.3,0.7v3.5H589v-4.8
			h0.7v0.7c0.2-0.3,0.8-0.8,1.6-0.8c0.7,0,1.2,0.4,1.3,0.9c0.3-0.4,0.9-0.9,1.6-0.9c0.9,0,1.3,0.5,1.3,1.5v3.5H594.9z M597.3,283
			l-0.4-0.3c0.3-0.2,0.6-0.6,0.6-0.9c0,0-0.1,0-0.1,0c-0.3,0-0.5-0.2-0.5-0.5c0-0.3,0.2-0.5,0.5-0.5c0.3,0,0.6,0.3,0.6,0.8
			C598.1,282.1,597.8,282.7,597.3,283z M601.7,279.4c0-1.6,0.9-2.5,2.1-2.5c0.7,0,1.3,0.3,1.6,0.8v-0.7h0.7v6.7h-0.7V281
			c-0.4,0.5-1,0.8-1.6,0.8C602.6,281.9,601.7,280.9,601.7,279.4z M605.5,280.4v-2.2c-0.2-0.4-0.8-0.8-1.4-0.8c-1,0-1.5,0.8-1.5,1.9
			c0,1.1,0.6,1.9,1.5,1.9C604.6,281.2,605.2,280.9,605.5,280.4z M611,281.8v-0.7c-0.4,0.4-1,0.8-1.7,0.8c-1,0-1.5-0.5-1.5-1.5v-3.4
			h0.7v3.2c0,0.8,0.4,1.1,1.1,1.1c0.6,0,1.1-0.3,1.4-0.7v-3.5h0.7v4.8H611z M616.2,281.8v-0.5c-0.4,0.4-0.9,0.7-1.6,0.7
			c-0.8,0-1.7-0.5-1.7-1.6c0-1.1,0.9-1.6,1.7-1.6c0.7,0,1.2,0.2,1.6,0.7v-0.9c0-0.6-0.5-1-1.2-1c-0.6,0-1,0.2-1.5,0.7l-0.3-0.5
			c0.5-0.5,1.1-0.8,1.9-0.8c1,0,1.9,0.5,1.9,1.6v3.3H616.2z M616.2,280.8v-0.9c-0.3-0.4-0.8-0.6-1.3-0.6c-0.7,0-1.2,0.4-1.2,1.1
			c0,0.6,0.5,1,1.2,1C615.4,281.4,616,281.2,616.2,280.8z M624.3,281.8v-3.3c0-0.6-0.3-1-0.9-1c-0.5,0-1,0.4-1.3,0.7v3.5h-0.7v-3.3
			c0-0.6-0.3-1-0.9-1c-0.5,0-1,0.4-1.3,0.7v3.5h-0.7v-4.8h0.7v0.7c0.2-0.3,0.8-0.8,1.6-0.8c0.7,0,1.2,0.4,1.3,0.9
			c0.3-0.4,0.9-0.9,1.6-0.9c0.9,0,1.3,0.5,1.3,1.5v3.5H624.3z M628.8,279.4c0-1.6,0.9-2.5,2.1-2.5c0.7,0,1.3,0.3,1.6,0.8v-0.7h0.7
			v6.7h-0.7V281c-0.4,0.5-1,0.8-1.6,0.8C629.7,281.9,628.8,280.9,628.8,279.4z M632.6,280.4v-2.2c-0.2-0.4-0.8-0.8-1.4-0.8
			c-1,0-1.5,0.8-1.5,1.9c0,1.1,0.6,1.9,1.5,1.9C631.8,281.2,632.4,280.9,632.6,280.4z M638.1,281.8v-0.7c-0.4,0.4-1,0.8-1.7,0.8
			c-1,0-1.5-0.5-1.5-1.5v-3.4h0.7v3.2c0,0.8,0.4,1.1,1.1,1.1c0.6,0,1.1-0.3,1.4-0.7v-3.5h0.7v4.8H638.1z M640.1,279.4
			c0-1.4,0.9-2.5,2.4-2.5c1.5,0,2.4,1.1,2.4,2.5c0,1.4-0.9,2.5-2.4,2.5C641,281.9,640.1,280.8,640.1,279.4z M644.1,279.4
			c0-1-0.6-1.9-1.6-1.9c-1,0-1.6,0.9-1.6,1.9c0,1,0.6,1.9,1.6,1.9C643.5,281.2,644.1,280.3,644.1,279.4z M645.7,281.1l0.4-0.5
			c0.3,0.4,0.9,0.7,1.6,0.7c0.7,0,1.1-0.3,1.1-0.8c0-1.2-3-0.4-3-2.2c0-0.7,0.6-1.4,1.8-1.4c0.8,0,1.4,0.3,1.8,0.7l-0.3,0.5
			c-0.3-0.3-0.8-0.6-1.4-0.6c-0.7,0-1.1,0.3-1.1,0.8c0,1.1,3,0.4,3,2.2c0,0.8-0.6,1.5-1.9,1.5C646.8,281.9,646.2,281.7,645.7,281.1z
			 M650.3,281.1l0.4-0.5c0.3,0.4,0.9,0.7,1.6,0.7c0.7,0,1.1-0.3,1.1-0.8c0-1.2-3-0.4-3-2.2c0-0.7,0.6-1.4,1.8-1.4
			c0.8,0,1.4,0.3,1.8,0.7l-0.3,0.5c-0.3-0.3-0.8-0.6-1.4-0.6c-0.7,0-1.1,0.3-1.1,0.8c0,1.1,3,0.4,3,2.2c0,0.8-0.6,1.5-1.9,1.5
			C651.5,281.9,650.8,281.7,650.3,281.1z M658.7,281.8v-0.7c-0.4,0.4-1,0.8-1.7,0.8c-1,0-1.5-0.5-1.5-1.5v-3.4h0.7v3.2
			c0,0.8,0.4,1.1,1.1,1.1c0.6,0,1.1-0.3,1.4-0.7v-3.5h0.7v4.8H658.7z M664.2,281.8v-3.2c0-0.8-0.4-1.1-1.1-1.1
			c-0.6,0-1.1,0.4-1.4,0.7v3.5h-0.7v-4.8h0.7v0.7c0.3-0.4,1-0.8,1.7-0.8c1,0,1.5,0.5,1.5,1.6v3.4H664.2z M666.6,280.8v-3.2h-0.8
			v-0.7h0.8v-1.3h0.7v1.3h1v0.7h-1v3c0,0.4,0.2,0.6,0.5,0.6c0.2,0,0.4-0.1,0.5-0.2l0.2,0.6c-0.2,0.2-0.5,0.3-0.9,0.3
			C666.9,281.9,666.6,281.5,666.6,280.8z M672.6,281.8v-0.7c-0.4,0.4-1,0.8-1.7,0.8c-1,0-1.5-0.5-1.5-1.5v-3.4h0.7v3.2
			c0,0.8,0.4,1.1,1.1,1.1c0.6,0,1.1-0.3,1.4-0.7v-3.5h0.7v4.8H672.6z M674.9,281.8v-4.8h0.7v0.8c0.4-0.5,0.9-0.9,1.6-0.9v0.8
			c-0.1,0-0.2,0-0.3,0c-0.5,0-1.1,0.4-1.3,0.8v3.4H674.9z M683.8,281.8v-0.5c-0.4,0.4-0.9,0.7-1.6,0.7c-0.8,0-1.7-0.5-1.7-1.6
			c0-1.1,0.9-1.6,1.7-1.6c0.7,0,1.2,0.2,1.6,0.7v-0.9c0-0.6-0.5-1-1.2-1c-0.6,0-1,0.2-1.5,0.7l-0.3-0.5c0.5-0.5,1.1-0.8,1.9-0.8
			c1,0,1.9,0.5,1.9,1.6v3.3H683.8z M683.8,280.8v-0.9c-0.3-0.4-0.8-0.6-1.3-0.6c-0.7,0-1.2,0.4-1.2,1.1c0,0.6,0.5,1,1.2,1
			C683,281.4,683.5,281.2,683.8,280.8z M686,281.8v-6.7h0.7v6.7H686z M688.1,275.8c0-0.3,0.2-0.5,0.5-0.5c0.3,0,0.5,0.2,0.5,0.5
			c0,0.3-0.2,0.5-0.5,0.5C688.4,276.3,688.1,276,688.1,275.8z M688.3,281.8v-4.8h0.7v4.8H688.3z M690.7,280.8v-3.2h-0.8v-0.7h0.8
			v-1.3h0.7v1.3h1v0.7h-1v3c0,0.4,0.2,0.6,0.5,0.6c0.2,0,0.4-0.1,0.5-0.2l0.2,0.6c-0.2,0.2-0.5,0.3-0.9,0.3
			C691,281.9,690.7,281.5,690.7,280.8z M693.3,275.8c0-0.3,0.2-0.5,0.5-0.5c0.3,0,0.5,0.2,0.5,0.5c0,0.3-0.2,0.5-0.5,0.5
			C693.6,276.3,693.3,276,693.3,275.8z M693.5,281.8v-4.8h0.7v4.8H693.5z M695.7,281.8v-6.7h0.7v2.6c0.4-0.5,1-0.8,1.6-0.8
			c1.3,0,2.1,1,2.1,2.5c0,1.6-0.9,2.5-2.1,2.5c-0.7,0-1.3-0.3-1.6-0.8v0.7H695.7z M697.9,281.2c1,0,1.6-0.8,1.6-1.9
			c0-1.1-0.6-1.9-1.6-1.9c-0.6,0-1.2,0.4-1.4,0.8v2.2C696.7,280.9,697.3,281.2,697.9,281.2z M704.7,281.8v-0.7
			c-0.4,0.4-1,0.8-1.7,0.8c-1,0-1.5-0.5-1.5-1.5v-3.4h0.7v3.2c0,0.8,0.4,1.1,1.1,1.1c0.6,0,1.1-0.3,1.4-0.7v-3.5h0.7v4.8H704.7z
			 M706.6,281.1l0.4-0.5c0.3,0.4,0.9,0.7,1.6,0.7c0.7,0,1.1-0.3,1.1-0.8c0-1.2-3-0.4-3-2.2c0-0.7,0.6-1.4,1.8-1.4
			c0.8,0,1.4,0.3,1.8,0.7l-0.3,0.5c-0.3-0.3-0.8-0.6-1.4-0.6c-0.7,0-1.1,0.3-1.1,0.8c0,1.1,3,0.4,3,2.2c0,0.8-0.6,1.5-1.9,1.5
			C707.7,281.9,707,281.7,706.6,281.1z M717.2,281.8v-0.5c-0.4,0.4-0.9,0.7-1.6,0.7c-0.8,0-1.7-0.5-1.7-1.6c0-1.1,0.9-1.6,1.7-1.6
			c0.7,0,1.2,0.2,1.6,0.7v-0.9c0-0.6-0.5-1-1.2-1c-0.6,0-1,0.2-1.5,0.7l-0.3-0.5c0.5-0.5,1.1-0.8,1.9-0.8c1,0,1.9,0.5,1.9,1.6v3.3
			H717.2z M717.2,280.8v-0.9c-0.3-0.4-0.8-0.6-1.3-0.6c-0.7,0-1.2,0.4-1.2,1.1c0,0.6,0.5,1,1.2,1
			C716.4,281.4,716.9,281.2,717.2,280.8z M719.1,281.1l0.4-0.5c0.3,0.4,0.9,0.7,1.6,0.7c0.7,0,1.1-0.3,1.1-0.8c0-1.2-3-0.4-3-2.2
			c0-0.7,0.6-1.4,1.8-1.4c0.8,0,1.4,0.3,1.8,0.7l-0.3,0.5c-0.3-0.3-0.8-0.6-1.4-0.6c-0.7,0-1.1,0.3-1.1,0.8c0,1.1,3,0.4,3,2.2
			c0,0.8-0.6,1.5-1.9,1.5C720.2,281.9,719.5,281.7,719.1,281.1z"/>
		<g clip-path="url(#SVGID_2_)">
			<text transform="matrix(1 0 0 1 434 297.7772)" font-family="'ProximaNova-Regular'" font-size="10">niscimpos assi omni aborro volupicae ima doloresequi dendebit quo </text>
		</g>
		<g clip-path="url(#SVGID_2_)">
			<text transform="matrix(1 0 0 1 434 313.7772)" font-family="'ProximaNova-Regular'" font-size="10">dus aliquam conest, conserior a conseditatem re dolorem qui sum </text>
		</g>
		<g clip-path="url(#SVGID_2_)">
			<text transform="matrix(1 0 0 1 434 329.7772)"><tspan x="0" y="0" font-family="'ProximaNova-Regular'" font-size="10">fuga. </tspan><tspan x="24.2" y="0" font-family="'ProximaNova-Regular'" font-size="10">L</tspan><tspan x="29.1" y="0" font-family="'ProximaNova-Regular'" font-size="10">essequi doluptatqui re velit andellorrum nis nimusaperum id </tspan></text>
		</g>
		<g clip-path="url(#SVGID_2_)">
			<text transform="matrix(1 0 0 1 434 345.7772)" font-family="'ProximaNova-Regular'" font-size="10">eatque sim quod quam, none est, sima ipsumquosa quisquat dolore </text>
		</g>
		<g clip-path="url(#SVGID_2_)">
			<text transform="matrix(1 0 0 1 434 361.7772)"><tspan x="0" y="0" font-family="'ProximaNova-Regular'" font-size="10">rempore aut doluptur? </tspan><tspan x="100.2" y="0" font-family="'ProximaNova-Regular'" font-size="10" letter-spacing="-1">T</tspan><tspan x="104.7" y="0" font-family="'ProximaNova-Regular'" font-size="10">empori</tspan><tspan x="135.4" y="0" font-family="'ProximaNova-Regular'" font-size="10">o</tspan><tspan x="141.1" y="0" font-family="'ProximaNova-Regular'" font-size="10">. Harum utem quis consedit eaquo </tspan></text>
		</g>
		<g clip-path="url(#SVGID_2_)">
			<text transform="matrix(1 0 0 1 434 377.7772)" font-family="'ProximaNova-Regular'" font-size="10">et verorem porporatia dolor ad estrumquist, sit omnisqui aut lantint </text>
		</g>
		<path clip-path="url(#SVGID_2_)" d="M434.5,391.4c0-1.4,1-2.5,2.4-2.5c1.5,0,2.3,1.1,2.3,2.6v0.2h-3.9c0.1,0.9,0.7,1.7,1.7,1.7
			c0.5,0,1.1-0.2,1.5-0.6l0.4,0.5c-0.5,0.5-1.1,0.7-1.9,0.7C435.5,393.9,434.5,392.9,434.5,391.4z M436.8,389.4
			c-1,0-1.5,0.9-1.6,1.6h3.2C438.4,390.3,437.9,389.4,436.8,389.4z M440,393.1l0.4-0.5c0.3,0.4,0.9,0.7,1.6,0.7
			c0.7,0,1.1-0.3,1.1-0.8c0-1.2-3-0.4-3-2.2c0-0.7,0.6-1.4,1.8-1.4c0.8,0,1.4,0.3,1.8,0.7l-0.3,0.5c-0.3-0.3-0.8-0.6-1.4-0.6
			c-0.7,0-1.1,0.3-1.1,0.8c0,1.1,3,0.4,3,2.2c0,0.8-0.6,1.5-1.9,1.5C441.1,393.9,440.4,393.7,440,393.1z M445.2,392.8v-3.2h-0.8
			v-0.7h0.8v-1.3h0.7v1.3h1v0.7h-1v3c0,0.4,0.2,0.6,0.5,0.6c0.2,0,0.4-0.1,0.5-0.2l0.2,0.6c-0.2,0.2-0.5,0.3-0.9,0.3
			C445.5,393.9,445.2,393.5,445.2,392.8z M453.6,393.8v-0.5c-0.4,0.4-0.9,0.7-1.6,0.7c-0.8,0-1.7-0.5-1.7-1.6c0-1.1,0.9-1.6,1.7-1.6
			c0.7,0,1.2,0.2,1.6,0.7v-0.9c0-0.6-0.5-1-1.2-1c-0.6,0-1,0.2-1.5,0.7l-0.3-0.5c0.5-0.5,1.1-0.8,1.9-0.8c1,0,1.9,0.5,1.9,1.6v3.3
			H453.6z M453.6,392.8v-0.9c-0.3-0.4-0.8-0.6-1.3-0.6c-0.7,0-1.2,0.4-1.2,1.1c0,0.6,0.5,1,1.2,1
			C452.8,393.4,453.3,393.2,453.6,392.8z M459.1,393.8v-0.7c-0.4,0.4-1,0.8-1.7,0.8c-1,0-1.5-0.5-1.5-1.5v-3.4h0.7v3.2
			c0,0.8,0.4,1.1,1.1,1.1c0.6,0,1.1-0.3,1.4-0.7v-3.5h0.7v4.8H459.1z M464.8,393.8v-0.7c-0.4,0.5-0.9,0.8-1.6,0.8
			c-1.3,0-2.1-1-2.1-2.5c0-1.5,0.9-2.5,2.1-2.5c0.6,0,1.2,0.3,1.6,0.8v-2.6h0.7v6.7H464.8z M464.8,392.5v-2.2
			c-0.3-0.4-0.8-0.8-1.4-0.8c-1,0-1.5,0.8-1.5,1.9c0,1.1,0.6,1.9,1.5,1.9C464,393.2,464.6,392.9,464.8,392.5z M470.1,393.8v-0.5
			c-0.4,0.4-0.9,0.7-1.6,0.7c-0.8,0-1.7-0.5-1.7-1.6c0-1.1,0.9-1.6,1.7-1.6c0.7,0,1.2,0.2,1.6,0.7v-0.9c0-0.6-0.5-1-1.2-1
			c-0.6,0-1,0.2-1.5,0.7l-0.3-0.5c0.5-0.5,1.1-0.8,1.9-0.8c1,0,1.9,0.5,1.9,1.6v3.3H470.1z M470.1,392.8v-0.9
			c-0.3-0.4-0.8-0.6-1.3-0.6c-0.7,0-1.2,0.4-1.2,1.1c0,0.6,0.5,1,1.2,1C469.3,393.4,469.8,393.2,470.1,392.8z M472.1,391.4
			c0-1.4,1-2.5,2.4-2.5c1.5,0,2.3,1.1,2.3,2.6v0.2h-3.9c0.1,0.9,0.7,1.7,1.7,1.7c0.5,0,1.1-0.2,1.5-0.6l0.4,0.5
			c-0.5,0.5-1.1,0.7-1.9,0.7C473.1,393.9,472.1,392.9,472.1,391.4z M474.4,389.4c-1,0-1.5,0.9-1.6,1.6h3.2
			C476,390.3,475.5,389.4,474.4,389.4z M480.3,391.4c0-1.4,0.9-2.5,2.4-2.5s2.4,1.1,2.4,2.5s-0.9,2.5-2.4,2.5
			S480.3,392.8,480.3,391.4z M484.3,391.4c0-1-0.6-1.9-1.6-1.9s-1.6,0.9-1.6,1.9c0,1,0.6,1.9,1.6,1.9S484.3,392.3,484.3,391.4z
			 M486.5,393.8v-4.2h-0.8v-0.7h0.8v-0.4c0-1,0.5-1.6,1.4-1.6c0.4,0,0.7,0.1,1,0.4l-0.3,0.5c-0.2-0.1-0.3-0.2-0.6-0.2
			c-0.5,0-0.8,0.3-0.8,0.9v0.4h1v0.7h-1v4.2H486.5z M489.3,393.8v-4.2h-0.8v-0.7h0.8v-0.4c0-1,0.6-1.6,1.4-1.6c0.3,0,0.5,0,0.7,0.2
			l-0.2,0.6c-0.1-0.1-0.2-0.1-0.4-0.1c-0.5,0-0.8,0.3-0.8,0.9v0.4h1v0.7h-1v4.2H489.3z M491.8,387.8c0-0.3,0.2-0.5,0.5-0.5
			c0.3,0,0.5,0.2,0.5,0.5s-0.2,0.5-0.5,0.5C492,388.3,491.8,388,491.8,387.8z M491.9,393.8v-4.8h0.7v4.8H491.9z M493.9,391.4
			c0-1.4,1-2.5,2.4-2.5c0.9,0,1.4,0.4,1.8,0.8l-0.5,0.5c-0.3-0.4-0.7-0.6-1.2-0.6c-1,0-1.7,0.8-1.7,1.9s0.6,1.9,1.7,1.9
			c0.5,0,0.9-0.2,1.2-0.6l0.5,0.5c-0.4,0.5-0.9,0.8-1.8,0.8C494.9,393.9,493.9,392.8,493.9,391.4z M499,387.8c0-0.3,0.2-0.5,0.5-0.5
			c0.3,0,0.5,0.2,0.5,0.5s-0.2,0.5-0.5,0.5C499.2,388.3,499,388,499,387.8z M499.1,393.8v-4.8h0.7v4.8H499.1z M504.7,393.8v-0.7
			c-0.4,0.4-1,0.8-1.7,0.8c-1,0-1.5-0.5-1.5-1.5v-3.4h0.7v3.2c0,0.8,0.4,1.1,1.1,1.1c0.6,0,1.1-0.3,1.4-0.7v-3.5h0.7v4.8H504.7z
			 M509.1,393.1l0.4-0.5c0.3,0.4,0.9,0.7,1.6,0.7c0.7,0,1.1-0.3,1.1-0.8c0-1.2-3-0.4-3-2.2c0-0.7,0.6-1.4,1.8-1.4
			c0.8,0,1.4,0.3,1.8,0.7l-0.3,0.5c-0.3-0.3-0.8-0.6-1.4-0.6c-0.7,0-1.1,0.3-1.1,0.8c0,1.1,3,0.4,3,2.2c0,0.8-0.6,1.5-1.9,1.5
			C510.2,393.9,509.6,393.7,509.1,393.1z M517.2,393.8v-0.5c-0.4,0.4-0.9,0.7-1.6,0.7c-0.8,0-1.7-0.5-1.7-1.6c0-1.1,0.9-1.6,1.7-1.6
			c0.7,0,1.2,0.2,1.6,0.7v-0.9c0-0.6-0.5-1-1.2-1c-0.6,0-1,0.2-1.5,0.7l-0.3-0.5c0.5-0.5,1.1-0.8,1.9-0.8c1,0,1.9,0.5,1.9,1.6v3.3
			H517.2z M517.2,392.8v-0.9c-0.3-0.4-0.8-0.6-1.3-0.6c-0.7,0-1.2,0.4-1.2,1.1c0,0.6,0.5,1,1.2,1
			C516.4,393.4,516.9,393.2,517.2,392.8z M522.7,393.8v-3.2c0-0.8-0.4-1.1-1.1-1.1c-0.6,0-1.1,0.4-1.4,0.7v3.5h-0.7v-4.8h0.7v0.7
			c0.3-0.4,1-0.8,1.7-0.8c1,0,1.5,0.5,1.5,1.6v3.4H522.7z M528.4,393.8v-0.7c-0.4,0.5-0.9,0.8-1.6,0.8c-1.3,0-2.1-1-2.1-2.5
			c0-1.5,0.9-2.5,2.1-2.5c0.6,0,1.2,0.3,1.6,0.8v-2.6h0.7v6.7H528.4z M528.4,392.5v-2.2c-0.3-0.4-0.8-0.8-1.4-0.8
			c-1,0-1.5,0.8-1.5,1.9c0,1.1,0.6,1.9,1.5,1.9C527.6,393.2,528.1,392.9,528.4,392.5z M530.4,391.4c0-1.4,1-2.5,2.4-2.5
			c1.5,0,2.3,1.1,2.3,2.6v0.2h-3.9c0.1,0.9,0.7,1.7,1.7,1.7c0.5,0,1.1-0.2,1.5-0.6l0.4,0.5c-0.5,0.5-1.1,0.7-1.9,0.7
			C531.4,393.9,530.4,392.9,530.4,391.4z M532.8,389.4c-1,0-1.5,0.9-1.6,1.6h3.2C534.3,390.3,533.9,389.4,532.8,389.4z M535.9,393.1
			l0.4-0.5c0.3,0.4,0.9,0.7,1.6,0.7c0.7,0,1.1-0.3,1.1-0.8c0-1.2-3-0.4-3-2.2c0-0.7,0.6-1.4,1.8-1.4c0.8,0,1.4,0.3,1.8,0.7l-0.3,0.5
			c-0.3-0.3-0.8-0.6-1.4-0.6c-0.7,0-1.1,0.3-1.1,0.8c0,1.1,3,0.4,3,2.2c0,0.8-0.6,1.5-1.9,1.5C537,393.9,536.4,393.7,535.9,393.1z
			 M546.5,393.8v-0.5c-0.4,0.4-0.9,0.7-1.6,0.7c-0.8,0-1.7-0.5-1.7-1.6c0-1.1,0.9-1.6,1.7-1.6c0.7,0,1.2,0.2,1.6,0.7v-0.9
			c0-0.6-0.5-1-1.2-1c-0.6,0-1,0.2-1.5,0.7l-0.3-0.5c0.5-0.5,1.1-0.8,1.9-0.8c1,0,1.9,0.5,1.9,1.6v3.3H546.5z M546.5,392.8v-0.9
			c-0.3-0.4-0.8-0.6-1.3-0.6c-0.7,0-1.2,0.4-1.2,1.1c0,0.6,0.5,1,1.2,1C545.7,393.4,546.3,393.2,546.5,392.8z M548.8,393.8v-6.7h0.7
			v6.7H548.8z M550.9,387.8c0-0.3,0.2-0.5,0.5-0.5c0.3,0,0.5,0.2,0.5,0.5s-0.2,0.5-0.5,0.5C551.1,388.3,550.9,388,550.9,387.8z
			 M551,393.8v-4.8h0.7v4.8H551z M556.3,393.8v-0.5c-0.4,0.4-0.9,0.7-1.6,0.7c-0.8,0-1.7-0.5-1.7-1.6c0-1.1,0.9-1.6,1.7-1.6
			c0.7,0,1.2,0.2,1.6,0.7v-0.9c0-0.6-0.5-1-1.2-1c-0.6,0-1,0.2-1.5,0.7l-0.3-0.5c0.5-0.5,1.1-0.8,1.9-0.8c1,0,1.9,0.5,1.9,1.6v3.3
			H556.3z M556.3,392.8v-0.9c-0.3-0.4-0.8-0.6-1.3-0.6c-0.7,0-1.2,0.4-1.2,1.1c0,0.6,0.5,1,1.2,1C555.5,393.4,556,393.2,556.3,392.8
			z M558.1,393.1l0.4-0.5c0.3,0.4,0.9,0.7,1.6,0.7c0.7,0,1.1-0.3,1.1-0.8c0-1.2-3-0.4-3-2.2c0-0.7,0.6-1.4,1.8-1.4
			c0.8,0,1.4,0.3,1.8,0.7l-0.3,0.5c-0.3-0.3-0.8-0.6-1.4-0.6c-0.7,0-1.1,0.3-1.1,0.8c0,1.1,3,0.4,3,2.2c0,0.8-0.6,1.5-1.9,1.5
			C559.3,393.9,558.6,393.7,558.1,393.1z M564,393v2.6h-0.7v-6.7h0.7v0.7c0.3-0.5,0.9-0.8,1.6-0.8c1.3,0,2.1,1,2.1,2.5
			c0,1.6-0.9,2.5-2.1,2.5C564.9,393.9,564.4,393.6,564,393z M567,391.4c0-1.1-0.6-1.9-1.5-1.9c-0.6,0-1.2,0.3-1.4,0.8v2.2
			c0.3,0.4,0.8,0.8,1.4,0.8C566.4,393.2,567,392.4,567,391.4z M568.7,391.4c0-1.4,1-2.5,2.4-2.5c1.5,0,2.3,1.1,2.3,2.6v0.2h-3.9
			c0.1,0.9,0.7,1.7,1.7,1.7c0.5,0,1.1-0.2,1.5-0.6l0.4,0.5c-0.5,0.5-1.1,0.7-1.9,0.7C569.7,393.9,568.7,392.9,568.7,391.4z
			 M571,389.4c-1,0-1.5,0.9-1.6,1.6h3.2C572.6,390.3,572.1,389.4,571,389.4z M577.1,393.8v-4.8h0.7v0.8c0.4-0.5,0.9-0.9,1.6-0.9v0.8
			c-0.1,0-0.2,0-0.3,0c-0.5,0-1.1,0.4-1.3,0.8v3.4H577.1z M583.7,393.8v-3.2c0-0.8-0.4-1.1-1.1-1.1c-0.6,0-1.1,0.4-1.4,0.7v3.5h-0.7
			v-4.8h0.7v0.7c0.3-0.4,1-0.8,1.7-0.8c1,0,1.5,0.5,1.5,1.6v3.4H583.7z M589,393.8v-0.5c-0.4,0.4-0.9,0.7-1.6,0.7
			c-0.8,0-1.7-0.5-1.7-1.6c0-1.1,0.9-1.6,1.7-1.6c0.7,0,1.2,0.2,1.6,0.7v-0.9c0-0.6-0.5-1-1.2-1c-0.6,0-1,0.2-1.5,0.7l-0.3-0.5
			c0.5-0.5,1.1-0.8,1.9-0.8c1,0,1.9,0.5,1.9,1.6v3.3H589z M589,392.8v-0.9c-0.3-0.4-0.8-0.6-1.3-0.6c-0.7,0-1.2,0.4-1.2,1.1
			c0,0.6,0.5,1,1.2,1C588.2,393.4,588.7,393.2,589,392.8z M591.4,392.8v-3.2h-0.8v-0.7h0.8v-1.3h0.7v1.3h1v0.7h-1v3
			c0,0.4,0.2,0.6,0.5,0.6c0.2,0,0.4-0.1,0.5-0.2l0.2,0.6c-0.2,0.2-0.5,0.3-0.9,0.3C591.7,393.9,591.4,393.5,591.4,392.8z
			 M597.4,393.8v-0.7c-0.4,0.4-1,0.8-1.7,0.8c-1,0-1.5-0.5-1.5-1.5v-3.4h0.7v3.2c0,0.8,0.4,1.1,1.1,1.1c0.6,0,1.1-0.3,1.4-0.7v-3.5
			h0.7v4.8H597.4z M599.7,393.8v-4.8h0.7v0.8c0.4-0.5,0.9-0.9,1.6-0.9v0.8c-0.1,0-0.2,0-0.3,0c-0.5,0-1.1,0.4-1.3,0.8v3.4H599.7z
			 M602.8,387.8c0-0.3,0.2-0.5,0.5-0.5c0.3,0,0.5,0.2,0.5,0.5s-0.2,0.5-0.5,0.5C603.1,388.3,602.8,388,602.8,387.8z M603,393.8v-4.8
			h0.7v4.8H603z M607.5,391.4c0-1.4,0.9-2.5,2.4-2.5s2.4,1.1,2.4,2.5s-0.9,2.5-2.4,2.5S607.5,392.8,607.5,391.4z M611.5,391.4
			c0-1-0.6-1.9-1.6-1.9s-1.6,0.9-1.6,1.9c0,1,0.6,1.9,1.6,1.9S611.5,392.3,611.5,391.4z M613.1,393.1l0.4-0.5
			c0.3,0.4,0.9,0.7,1.6,0.7c0.7,0,1.1-0.3,1.1-0.8c0-1.2-3-0.4-3-2.2c0-0.7,0.6-1.4,1.8-1.4c0.8,0,1.4,0.3,1.8,0.7l-0.3,0.5
			c-0.3-0.3-0.8-0.6-1.4-0.6c-0.7,0-1.1,0.3-1.1,0.8c0,1.1,3,0.4,3,2.2c0,0.8-0.6,1.5-1.9,1.5C614.3,393.9,613.6,393.7,613.1,393.1z
			 M617.8,393.1l0.4-0.5c0.3,0.4,0.9,0.7,1.6,0.7c0.7,0,1.1-0.3,1.1-0.8c0-1.2-3-0.4-3-2.2c0-0.7,0.6-1.4,1.8-1.4
			c0.8,0,1.4,0.3,1.8,0.7l-0.3,0.5c-0.3-0.3-0.8-0.6-1.4-0.6c-0.7,0-1.1,0.3-1.1,0.8c0,1.1,3,0.4,3,2.2c0,0.8-0.6,1.5-1.9,1.5
			C618.9,393.9,618.2,393.7,617.8,393.1z M622.5,391.4c0-1.4,1-2.5,2.4-2.5c1.5,0,2.3,1.1,2.3,2.6v0.2h-3.9c0.1,0.9,0.7,1.7,1.7,1.7
			c0.5,0,1.1-0.2,1.5-0.6l0.4,0.5c-0.5,0.5-1.1,0.7-1.9,0.7C623.6,393.9,622.5,392.9,622.5,391.4z M624.9,389.4
			c-1,0-1.5,0.9-1.6,1.6h3.2C626.5,390.3,626,389.4,624.9,389.4z M631.7,393.8v-3.2c0-0.8-0.4-1.1-1.1-1.1c-0.6,0-1.1,0.4-1.4,0.7
			v3.5h-0.7v-4.8h0.7v0.7c0.3-0.4,1-0.8,1.7-0.8c1,0,1.5,0.5,1.5,1.6v3.4H631.7z M634.1,392.8v-3.2h-0.8v-0.7h0.8v-1.3h0.7v1.3h1
			v0.7h-1v3c0,0.4,0.2,0.6,0.5,0.6c0.2,0,0.4-0.1,0.5-0.2l0.2,0.6c-0.2,0.2-0.5,0.3-0.9,0.3C634.5,393.9,634.1,393.5,634.1,392.8z
			 M639.4,387.8c0-0.3,0.2-0.5,0.5-0.5c0.3,0,0.5,0.2,0.5,0.5s-0.2,0.5-0.5,0.5C639.6,388.3,639.4,388,639.4,387.8z M639.5,393.8
			v-4.8h0.7v4.8H639.5z M645,393.8v-3.2c0-0.8-0.4-1.1-1.1-1.1c-0.6,0-1.1,0.4-1.4,0.7v3.5h-0.7v-4.8h0.7v0.7c0.3-0.4,1-0.8,1.7-0.8
			c1,0,1.5,0.5,1.5,1.6v3.4H645z M647.4,392.8v-3.2h-0.8v-0.7h0.8v-1.3h0.7v1.3h1v0.7h-1v3c0,0.4,0.2,0.6,0.5,0.6
			c0.2,0,0.4-0.1,0.5-0.2l0.2,0.6c-0.2,0.2-0.5,0.3-0.9,0.3C647.8,393.9,647.4,393.5,647.4,392.8z M654.1,393.8l-2-4.8h0.8l1.6,4
			l1.6-4h0.8l-2,4.8H654.1z M657.4,391.4c0-1.4,1-2.5,2.4-2.5c1.5,0,2.3,1.1,2.3,2.6v0.2h-3.9c0.1,0.9,0.7,1.7,1.7,1.7
			c0.5,0,1.1-0.2,1.5-0.6l0.4,0.5c-0.5,0.5-1.1,0.7-1.9,0.7C658.4,393.9,657.4,392.9,657.4,391.4z M659.8,389.4
			c-1,0-1.5,0.9-1.6,1.6h3.2C661.3,390.3,660.9,389.4,659.8,389.4z M666.6,393.8v-3.2c0-0.8-0.4-1.1-1.1-1.1c-0.6,0-1.1,0.4-1.4,0.7
			v3.5h-0.7v-4.8h0.7v0.7c0.3-0.4,1-0.8,1.7-0.8c1,0,1.5,0.5,1.5,1.6v3.4H666.6z M672.3,393.8v-0.7c-0.4,0.5-0.9,0.8-1.6,0.8
			c-1.3,0-2.1-1-2.1-2.5c0-1.5,0.9-2.5,2.1-2.5c0.6,0,1.2,0.3,1.6,0.8v-2.6h0.7v6.7H672.3z M672.3,392.5v-2.2
			c-0.3-0.4-0.8-0.8-1.4-0.8c-1,0-1.5,0.8-1.5,1.9c0,1.1,0.6,1.9,1.5,1.9C671.5,393.2,672,392.9,672.3,392.5z M674.4,387.8
			c0-0.3,0.2-0.5,0.5-0.5c0.3,0,0.5,0.2,0.5,0.5s-0.2,0.5-0.5,0.5C674.7,388.3,674.4,388,674.4,387.8z M674.6,393.8v-4.8h0.7v4.8
			H674.6z M676.4,393.1l0.4-0.5c0.3,0.4,0.9,0.7,1.6,0.7c0.7,0,1.1-0.3,1.1-0.8c0-1.2-3-0.4-3-2.2c0-0.7,0.6-1.4,1.8-1.4
			c0.8,0,1.4,0.3,1.8,0.7l-0.3,0.5c-0.3-0.3-0.8-0.6-1.4-0.6c-0.7,0-1.1,0.3-1.1,0.8c0,1.1,3,0.4,3,2.2c0,0.8-0.6,1.5-1.9,1.5
			C677.5,393.9,676.9,393.7,676.4,393.1z M683.8,391.4c0-1.4,1-2.5,2.4-2.5c1.5,0,2.3,1.1,2.3,2.6v0.2h-3.9c0.1,0.9,0.7,1.7,1.7,1.7
			c0.5,0,1.1-0.2,1.5-0.6l0.4,0.5c-0.5,0.5-1.1,0.7-1.9,0.7C684.8,393.9,683.8,392.9,683.8,391.4z M686.1,389.4
			c-1,0-1.5,0.9-1.6,1.6h3.2C687.7,390.3,687.2,389.4,686.1,389.4z M689.2,393.1l0.4-0.5c0.3,0.4,0.9,0.7,1.6,0.7
			c0.7,0,1.1-0.3,1.1-0.8c0-1.2-3-0.4-3-2.2c0-0.7,0.6-1.4,1.8-1.4c0.8,0,1.4,0.3,1.8,0.7l-0.3,0.5c-0.3-0.3-0.8-0.6-1.4-0.6
			c-0.7,0-1.1,0.3-1.1,0.8c0,1.1,3,0.4,3,2.2c0,0.8-0.6,1.5-1.9,1.5C690.4,393.9,689.7,393.7,689.2,393.1z M699.9,393.8v-0.5
			c-0.4,0.4-0.9,0.7-1.6,0.7c-0.8,0-1.7-0.5-1.7-1.6c0-1.1,0.9-1.6,1.7-1.6c0.7,0,1.2,0.2,1.6,0.7v-0.9c0-0.6-0.5-1-1.2-1
			c-0.6,0-1,0.2-1.5,0.7l-0.3-0.5c0.5-0.5,1.1-0.8,1.9-0.8c1,0,1.9,0.5,1.9,1.6v3.3H699.9z M699.9,392.8v-0.9
			c-0.3-0.4-0.8-0.6-1.3-0.6c-0.7,0-1.2,0.4-1.2,1.1c0,0.6,0.5,1,1.2,1C699.1,393.4,699.6,393.2,699.9,392.8z M705.4,393.8v-0.7
			c-0.4,0.4-1,0.8-1.7,0.8c-1,0-1.5-0.5-1.5-1.5v-3.4h0.7v3.2c0,0.8,0.4,1.1,1.1,1.1c0.6,0,1.1-0.3,1.4-0.7v-3.5h0.7v4.8H705.4z
			 M707.8,392.8v-3.2H707v-0.7h0.8v-1.3h0.7v1.3h1v0.7h-1v3c0,0.4,0.2,0.6,0.5,0.6c0.2,0,0.4-0.1,0.5-0.2l0.2,0.6
			c-0.2,0.2-0.5,0.3-0.9,0.3C708.2,393.9,707.8,393.5,707.8,392.8z M716.7,393.8v-0.7c-0.4,0.5-0.9,0.8-1.6,0.8
			c-1.3,0-2.1-1-2.1-2.5c0-1.5,0.9-2.5,2.1-2.5c0.6,0,1.2,0.3,1.6,0.8v-2.6h0.7v6.7H716.7z M716.7,392.5v-2.2
			c-0.3-0.4-0.8-0.8-1.4-0.8c-1,0-1.5,0.8-1.5,1.9c0,1.1,0.6,1.9,1.5,1.9C715.8,393.2,716.4,392.9,716.7,392.5z M718.8,387.8
			c0-0.3,0.2-0.5,0.5-0.5c0.3,0,0.5,0.2,0.5,0.5s-0.2,0.5-0.5,0.5C719,388.3,718.8,388,718.8,387.8z M718.9,393.8v-4.8h0.7v4.8
			H718.9z M721.3,392.8v-3.2h-0.8v-0.7h0.8v-1.3h0.7v1.3h1v0.7h-1v3c0,0.4,0.2,0.6,0.5,0.6c0.2,0,0.4-0.1,0.5-0.2l0.2,0.6
			c-0.2,0.2-0.5,0.3-0.9,0.3C721.7,393.9,721.3,393.5,721.3,392.8z M724.3,395l-0.4-0.3c0.3-0.2,0.6-0.6,0.6-0.9c0,0-0.1,0-0.1,0
			c-0.3,0-0.5-0.2-0.5-0.5c0-0.3,0.2-0.5,0.5-0.5c0.3,0,0.6,0.3,0.6,0.8C725.1,394.1,724.8,394.7,724.3,395z"/>
		<g clip-path="url(#SVGID_2_)">
			<text transform="matrix(1 0 0 1 434 409.7772)"><tspan x="0" y="0" font-family="'ProximaNova-Regular'" font-size="10">none cuptur sequam e</tspan><tspan x="98.5" y="0" font-family="'ProximaNova-Regular'" font-size="10">x</tspan><tspan x="103" y="0" font-family="'ProximaNova-Regular'" font-size="10">ceaquibeat estibus, occaecusam, sitibus.</tspan></text>
		</g>
		<g clip-path="url(#SVGID_2_)">
			<text transform="matrix(1 0 0 1 434 439.2772)" font-family="'ProximaNova-Regular'" font-size="10">Quam, sum dolorest explit ape quat. Ut dolorum desequi necus </text>
		</g>
		<g clip-path="url(#SVGID_2_)">
			<text transform="matrix(1 0 0 1 434 455.2772)" font-family="'ProximaNova-Regular'" font-size="10">doluptae oditio vellentem rent omnimusci nulpa venet quat.</text>
		</g>
		<g clip-path="url(#SVGID_2_)">
			<text transform="matrix(1 0 0 1 434 484.7772)" font-family="'ProximaNova-Regular'" font-size="10">Itaero cus, conetur sit minis consequi doluptatque volorrovid elicium </text>
		</g>
		<g clip-path="url(#SVGID_2_)">
			<text transform="matrix(1 0 0 1 434 500.7772)"><tspan x="0" y="0" font-family="'ProximaNova-Regular'" font-size="10">hiti totatus, sed qui doluptiam cum andae veresequae simagni tiatu</tspan><tspan x="291.9" y="0" font-family="'ProximaNova-Regular'" font-size="10">r</tspan><tspan x="294.4" y="0" font-family="'ProximaNova-Regular'" font-size="10">, </tspan></text>
		</g>
		<g clip-path="url(#SVGID_2_)">
			<text transform="matrix(1 0 0 1 434 516.7772)" font-family="'ProximaNova-Regular'" font-size="10">volore quam, qui ommos illa netur?</text>
		</g>
		<g clip-path="url(#SVGID_2_)">
			<text transform="matrix(1 0 0 1 434 546.2772)" font-family="'ProximaNova-Regular'" font-size="10">Thank you,</text>
		</g>
		<g clip-path="url(#SVGID_2_)">
			<text transform="matrix(1 0 0 1 434 577.2767)" font-family="'DiscoverBeauty'" font-size="18">Peyton Banks</text>
		</g>
		
			<line clip-path="url(#SVGID_2_)" fill="none" stroke="#C1DAE8" stroke-dasharray="12.185,12.185" x1="392.6" y1="11.6" x2="392.6" y2="803.6"/>
	</g>
</g>
<rect x="185" y="2.6" fill="none" stroke="#000000" stroke-width="0.25" stroke-miterlimit="10" width="630" height="810"/>
</svg>
