<?xml version="1.0" encoding="utf-8"?>
<!-- Generator: Adobe Illustrator 18.1.0, SVG Export Plug-In . SVG Version: 6.00 Build 0)  -->
<svg version="1.1" id="Layer_1" xmlns="http://www.w3.org/2000/svg" xmlns:xlink="http://www.w3.org/1999/xlink" x="0px" y="0px"
	 viewBox="0 0 1000 700" enable-background="new 0 0 1000 700" xml:space="preserve">
<g>
	<g>
		<defs>
			<rect id="SVGID_1_" x="44.9" y="2" width="417.3" height="695.6"/>
		</defs>
		<clipPath id="SVGID_2_">
			<use xlink:href="#SVGID_1_"  overflow="visible"/>
		</clipPath>
		<g clip-path="url(#SVGID_2_)">
			<text transform="matrix(1 0 0 1 153.9012 458.0437)" fill="#282965" font-family="'EvelethCleanRegular'" font-size="36.1126">mo</text>
		</g>
		<g clip-path="url(#SVGID_2_)">
			<text transform="matrix(1 0 0 1 220.6 458.0437)" fill="#282965" font-family="'EvelethCleanRegular'" font-size="36.1126">m</text>
		</g>
		<g clip-path="url(#SVGID_2_)">
			<text transform="matrix(1 0 0 1 254.7987 458.0437)" fill="#282965" font-family="'EvelethCleanRegular'" font-size="36.1126">my’s</text>
		</g>
		<g clip-path="url(#SVGID_2_)">
			<text transform="matrix(1 0 0 1 356.1307 458.0437)" fill="#282965" font-family="'EvelethCleanThin'" font-size="34.471"> </text>
		</g>
		<g clip-path="url(#SVGID_2_)">
			<text transform="matrix(1 0 0 1 153.9012 498.0955)" fill="#282460" font-family="'EvelethCleanThin'" font-size="36.1123">l</text>
		</g>
		<g clip-path="url(#SVGID_2_)">
			<defs>
				<rect id="SVGID_3_" x="133" y="115.5" width="246.3" height="427.5"/>
			</defs>
			<clipPath id="SVGID_4_">
				<use xlink:href="#SVGID_3_"  overflow="visible"/>
			</clipPath>
			<path clip-path="url(#SVGID_4_)" fill="none" stroke="#282460" stroke-miterlimit="10" d="M175.7,498.1c0.4,0,0.6-0.3,0.6-0.6
				v-0.8c0-0.4-0.3-0.6-0.6-0.6h-15.1c-0.3,0-0.5-0.2-0.5-0.5v-24.9c0-0.4-0.3-0.6-0.6-0.6h-0.8c-0.4,0-0.7,0.3-0.7,0.6v26.9
				c0,0.4,0.3,0.6,0.7,0.6H175.7z"/>
		</g>
		<g clip-path="url(#SVGID_2_)">
			<text transform="matrix(1 0 0 1 189.8329 498.0955)" fill="#282460" font-family="'EvelethCleanThin'" font-size="36.1123">i</text>
		</g>
		<g clip-path="url(#SVGID_2_)">
			<defs>
				<rect id="SVGID_5_" x="133" y="115.5" width="246.3" height="427.5"/>
			</defs>
			<clipPath id="SVGID_6_">
				<use xlink:href="#SVGID_5_"  overflow="visible"/>
			</clipPath>
			<path clip-path="url(#SVGID_6_)" fill="none" stroke="#282460" stroke-miterlimit="10" d="M193.9,497.4c0,0.4,0.3,0.6,0.6,0.6
				h0.8c0.4,0,0.6-0.3,0.6-0.6v-26.9c0-0.4-0.3-0.7-0.6-0.7h-0.8c-0.4,0-0.6,0.3-0.6,0.7V497.4z"/>
		</g>
		<g clip-path="url(#SVGID_2_)">
			<text transform="matrix(1 0 0 1 214.2445 498.0955)" fill="#282460" font-family="'EvelethCleanThin'" font-size="36.1123">t</text>
		</g>
		<g clip-path="url(#SVGID_2_)">
			<defs>
				<rect id="SVGID_7_" x="133" y="115.5" width="246.3" height="427.5"/>
			</defs>
			<clipPath id="SVGID_8_">
				<use xlink:href="#SVGID_7_"  overflow="visible"/>
			</clipPath>
			<path clip-path="url(#SVGID_8_)" fill="none" stroke="#282460" stroke-miterlimit="10" d="M224.9,472c0.3,0,0.5,0.2,0.5,0.5v24.9
				c0,0.4,0.3,0.7,0.6,0.7h0.8c0.4,0,0.6-0.3,0.6-0.7v-24.9c0-0.3,0.2-0.5,0.5-0.5h9c0.4,0,0.6-0.3,0.6-0.6v-0.8
				c0-0.4-0.3-0.6-0.6-0.6h-21.2c-0.4,0-0.7,0.3-0.7,0.6v0.8c0,0.4,0.3,0.6,0.7,0.6H224.9z"/>
		</g>
		<g clip-path="url(#SVGID_2_)">
			<text transform="matrix(1 0 0 1 254.1864 498.0955)" fill="#282460" font-family="'EvelethCleanThin'" font-size="36.1123">t</text>
		</g>
		<g clip-path="url(#SVGID_2_)">
			<defs>
				<rect id="SVGID_9_" x="133" y="115.5" width="246.3" height="427.5"/>
			</defs>
			<clipPath id="SVGID_10_">
				<use xlink:href="#SVGID_9_"  overflow="visible"/>
			</clipPath>
			<path clip-path="url(#SVGID_10_)" fill="none" stroke="#282460" stroke-miterlimit="10" d="M264.8,472c0.3,0,0.5,0.2,0.5,0.5
				v24.9c0,0.4,0.3,0.7,0.6,0.7h0.8c0.4,0,0.6-0.3,0.6-0.7v-24.9c0-0.3,0.2-0.5,0.5-0.5h9c0.4,0,0.6-0.3,0.6-0.6v-0.8
				c0-0.4-0.3-0.6-0.6-0.6h-21.2c-0.4,0-0.7,0.3-0.7,0.6v0.8c0,0.4,0.3,0.6,0.7,0.6H264.8z"/>
		</g>
		<g clip-path="url(#SVGID_2_)">
			<text transform="matrix(1 0 0 1 292.8256 498.0955)"><tspan x="0" y="0" fill="#282460" font-family="'EvelethCleanThin'" font-size="36.1123" letter-spacing="14">l</tspan><tspan x="37.7" y="0" fill="#282460" font-family="'EvelethCleanThin'" font-size="36.1123">e</tspan></text>
		</g>
		<g clip-path="url(#SVGID_2_)">
			<defs>
				<rect id="SVGID_11_" x="133" y="115.5" width="246.3" height="427.5"/>
			</defs>
			<clipPath id="SVGID_12_">
				<use xlink:href="#SVGID_11_"  overflow="visible"/>
			</clipPath>
			<path clip-path="url(#SVGID_12_)" fill="none" stroke="#282460" stroke-miterlimit="10" d="M314.6,498.1c0.4,0,0.6-0.3,0.6-0.6
				v-0.8c0-0.4-0.3-0.6-0.6-0.6h-15.1c-0.3,0-0.5-0.2-0.5-0.5v-24.9c0-0.4-0.3-0.6-0.7-0.6h-0.8c-0.4,0-0.6,0.3-0.6,0.6v26.9
				c0,0.4,0.3,0.6,0.6,0.6H314.6z"/>
			<path clip-path="url(#SVGID_12_)" fill="none" stroke="#282460" stroke-miterlimit="10" d="M353.3,498.1c0.4,0,0.6-0.3,0.6-0.6
				v-0.8c0-0.4-0.3-0.6-0.6-0.6h-16.1c-0.3,0-0.5-0.2-0.5-0.5v-9.7c0-0.3,0.2-0.5,0.5-0.5h13.5c0.4,0,0.6-0.3,0.6-0.7v-0.7
				c0-0.4-0.3-0.6-0.6-0.6h-13.5c-0.3,0-0.5-0.2-0.5-0.5v-10.2c0-0.3,0.2-0.5,0.5-0.5h16.1c0.4,0,0.6-0.3,0.6-0.6v-0.8
				c0-0.4-0.3-0.6-0.6-0.6h-18.1c-0.4,0-0.6,0.3-0.6,0.6v26.9c0,0.4,0.3,0.6,0.6,0.6H353.3z"/>
		</g>
		<g clip-path="url(#SVGID_2_)">
			<defs>
				<rect id="SVGID_13_" x="133" y="115.5" width="246.3" height="427.5"/>
			</defs>
			<clipPath id="SVGID_14_">
				<use xlink:href="#SVGID_13_"  overflow="visible"/>
			</clipPath>
			<g clip-path="url(#SVGID_14_)">
				<text transform="matrix(1 0 0 1 153.9012 538.1463)" fill="#282965" font-family="'EvelethCleanRegular'" font-size="36.1126">m</text>
			</g>
			<g clip-path="url(#SVGID_14_)">
				<text transform="matrix(1 0 0 1 189.0389 538.1463)" fill="#282965" font-family="'EvelethCleanRegular'" font-size="36.1126">o</text>
			</g>
			<g clip-path="url(#SVGID_14_)">
				<text transform="matrix(1 0 0 1 220.8168 538.1463)" fill="#282965" font-family="'EvelethCleanRegular'" font-size="36.1126">n</text>
			</g>
			<g clip-path="url(#SVGID_14_)">
				<text transform="matrix(1 0 0 1 251.224 538.1463)"><tspan x="0" y="0" fill="#282965" font-family="'EvelethCleanRegular'" font-size="36.1126">st</tspan><tspan x="52.3" y="0" fill="#282965" font-family="'EvelethCleanRegular'" font-size="36.1126">e</tspan><tspan x="78.1" y="0" fill="#282965" font-family="'EvelethCleanRegular'" font-size="36.1126">r</tspan></text>
			</g>
		</g>
		<polygon clip-path="url(#SVGID_2_)" fill="#C1D9E8" points="342.8,361.7 337.6,376.6 179.6,376.6 168.1,360.5 152.4,352.9 
			152.4,172 360.2,172 360.2,342.6 		"/>
		
			<polygon clip-path="url(#SVGID_2_)" fill="none" stroke="#FFFFFF" stroke-miterlimit="10" stroke-dasharray="6.165,6.165" points="
			332,352.1 327.4,365.3 187.7,365.3 177.5,351 163.6,344.3 163.6,184.4 347.3,184.4 347.3,335.2 		"/>
		<g clip-path="url(#SVGID_2_)">
			<defs>
				<rect id="SVGID_15_" x="133" y="115.5" width="246.3" height="427.5"/>
			</defs>
			<clipPath id="SVGID_16_">
				<use xlink:href="#SVGID_15_"  overflow="visible"/>
			</clipPath>
			<path clip-path="url(#SVGID_16_)" fill="#9569AC" d="M331,387.9c3.5,2.1,2.6,12.4,2.6,12.4c6.6-6.1,5.5-14.1,5.5-14.1
				c6.3,1.5,2.5,15.2,2.5,15.2c12.4-11.1,3.8-23.3,3.8-23.3c13.4,2.6,17.1-4.2,17.1-4.2c-11.1,1.3-10.2-7.9-10.2-7.9
				c4.4,2.4,7.6,0,7.6,0c-5.4-4.2-0.6-24.3-0.6-24.3c6.4,2.7,4.5,14,4.5,14c5.8-12.4-3.9-22.2-3.9-22.2c5.9-0.5,9.4,11.4,9.4,11.4
				c1.3-17.2-10.3-23.9-10.3-23.9c12.2,6.6,17.4-6,17.4-6c-14.8,6.4-22.7-10.8-22.7-10.8c7.3-1.2,10.5,2.3,10.5,2.3
				c-4.2-9-14.8-9-14.8-9c5.1-4.8,13.2,0,13.2,0c-6.4-10.6-18.7-5.9-18.7-5.9c10.1-3.6,9.8-17.5,9.8-17.5
				c-3.6,12.7-23.8,8.6-23.8,8.6c0.3-5.1,9.5-8,9.5-8c-8.5-1.4-17.4,5.2-17.4,5.2c5-3.4,2-7.7,2-7.7c0,6.1-10.5,5.4-10.5,5.4
				l-5.4-1.5c8.9,3,11-1.3,11-1.3c-6.2-3.2-4.7-8.8-4.7-8.8c2.1,3.5,4,3.4,4,3.4c-2.1-3.6-0.4-14-0.4-14c4.6,1.6,2.7,7.9,2.7,7.9
				c4.7-6.2-0.4-22.2-0.4-22.2c5.4,3.7,5.4,14.3,5.4,14.3c5.6-15.1-5.1-22.4-5.1-22.4c8.4,6.8,10.7-4.1,10.7-4.1
				c-8.2,4.5-11.7-9.7-11.7-9.7c3.9-2.3,6.9,3.7,6.9,3.7c-1.6-14.7-9.1-14.3-9.1-14.3c8.4-3.3,13.9,7.3,13.9,7.3
				c-3.4-20.9-18.1-19.3-18.1-19.3c2.5-4.8,9.6-2.7,9.6-2.7c-5.4-6.9-14.1-6.2-14.1-6.2c5.4-0.1,5.4-5,5.4-5c-6.1,2.1-11-3.2-11-3.2
				c6.7-6.2,14.3,0,14.3,0c-5.8-12.9-20.7-7.2-20.7-7.2c5.1-10.6,14.6-8.4,14.6-8.4c-12.9-10.1-26.4-1.3-26.4-1.3
				c0.3-1,0.9-2,1.6-2.9c3.7-5,11.7-8.1,11.7-8.1c-14.3-1.6-18.7,8-18.7,8c-1.2-5.8,5.5-10.7,5.5-10.7c-7.1,0.3-10.7,8.4-10.7,8.4
				c-2.8-7.9,7.4-17.1,7.4-17.1c-8.8,2.2-12.9,13.7-13.4,15.1c11.6-36.7-13.7-39.7-13.7-39.7c19.1,9.1,5.2,38.1,5.2,38.1
				c3.7-16.7-11-20.3-11-20.3c8.9,12.3,0,20.5,0,20.5s-7.2-7-1.8-13c0,0-8.3,4.1-5,14.1c0,0-13.6-10.1-5.4-24.7
				c0,0-15,10.1-6.6,28.7c0,0-10.4,2.2-17.1-7c0,0-1.5,3.3,0.6,7.6c0.9,1.9,2.6,4,5.4,6c0,0-13.8-9.1-25.2,5.2
				c0,0,14.2-4.9,17.3,2.2c0,0-11.9,8.9-23.2,5.8c0,0,5.7,6.7,14.4,5.1c0,0-8.5,0.9-9.6,8c0,0,3.9-3.1,5.6-1.4c0,0-4.9,8.5-13.9,7.2
				c0,0,3.4,6.3,8.2,5.8c0,0-13.7,2.4-15.3,20.7c0,0,6.8-9.7,12.4-9.8c0,0-9.7,6.8-7.6,18.6c0,0,3.3-9.6,6.3-10
				c0,0-0.7,17.3-6.8,18.9c0,0,2.5,4.5,6.3,2.9c0,0-12.4,8.5-10.5,20.1c0,0,5.1-10.5,12.9-11c0,0,0,9.4-5.8,13.3c0,0,3.1,1.1,9-2.8
				c0,0,2,9.1-5.6,9.1c0,0,4,3.6,12.2,2.5c0,0-9.3,4.8-20.9-2.7c0,0-0.9,5.3,5.3,7.2c0,0-11.9,1.3-17.4-9c0,0-2.2,10.1,7.5,13.1
				c0,0-18.6-7-28.7,9.1c0,0,12.8-7.4,16.8-0.4c0,0-15.5,2.8-16.8,12.6c0,0,5.2-4.3,9.8-3.2c0,0-7.6,16.5-19.3,25.9
				c0,0,9.8-0.5,12.4-4.4c0,0-15.9,7.9-12.4,29.1c0,0,5-14,12.4-13.8c0,0,1.3,7.7-4.2,13.8c0,0,4,0.3,6.1-4.2c0,0,1.3,9.1-4,15.2
				c0,0,6.4,1.5,8.4-1.2c0,0-9.5,14.7-6.3,29c0,0,2.3-14.9,12.8-16.5c0,0-5.9,17.7,3.9,24.9c0,0-3-11.2,3.1-15.3c0,0,1.7,9,11.9,9.1
				c0,0-2.1-11.8,4-15.7h136.3L331,387.9z"/>
			<path clip-path="url(#SVGID_16_)" fill="#282965" d="M250.7,331.8c0,0-2.4,8.2,4.1,8.7c0,0-3.2,2.9-8.2,0.8c0,0,5,7.9-1.1,20.5
				c0,0,0.5-10.7-1.3-15.1c0,0,1.7,7.2-2,11c0,0,1.3-3.1-0.9-4.9c0,0-5.2,8.1-1.8,16.9c0,0-3.2,0-4.6-3.9c0,0,1.2,21.3-4.9,26.9
				c0,0,2.2-11.6-0.3-14.3c0,0-2.9,5.3-1.5,12.1c0,0-4.8-2-3.4-7c0,0-6.4,9.4-1.9,20c0,0-6.5-0.6-5.8-8.4c0,0-2.6,5.3-1,8.4
				c0,0-1.9-0.6-2.2-4c-9.6,13.8-26.4,1.5-26.4,1.5c-20.1-10.3,4-38.4,4-38.4c-3.6,1.5-5.9-1.1-5.9-1.1c5.1,0,9.3-9,9.3-9
				c-5.1-2.1-11.4,3.7-11.4,3.7c5-13.2,15-11.5,15-11.5c-5.6,1.2-7.3-3.1-7.3-3.1c6.2,0.8,14.8-8.9,14.8-8.9
				c-2.9-0.8-6.7,0.8-6.7,0.8c2.4-6.4,11.4-6.7,11.4-6.7c-3.8-3.3-10,0.8-10,0.8c3.6-8.5,15-6.2,15-6.2c-2.3-0.1-3.2-3.4-3.2-3.4
				c4.1,1.3,10.2-3,10.2-3c-3.8-3.1-11.3-1.3-11.3-1.3c6.4-8.9,15.6-2.3,15.6-2.3c-38.5-28.3-33.3-48.2-33.3-48.2s6.1,14.7,19,22.6
				c0,0-13.7-11.5-8.7-34.7c0,0,0.6,23.2,16.9,31c0,0-7.1-7.9-3.4-23.8c0,0,2.1,12.9,7.5,18.1c6.1,5.8,10.9,9.5,15.3,12.5
				c0,0,4.2,2.8,4.2,2.8c3.1,2.1,6.6,5.1,8.4,8.5c2.1,4,2.6,8.7,2.5,13.1C255.4,319.7,252.4,325.7,250.7,331.8"/>
			<path clip-path="url(#SVGID_16_)" fill="#282965" d="M298.1,399.2c-3.1,1.7-0.8,9.9-0.8,9.9c-11.1-6.3-7.4-21.6-7.4-21.6
				c-5.2,3.1-3.7,10.2-3.7,10.2c-6.2-4.2-0.7-17.4-0.7-17.4c-2.3,5.2-6.1,4.7-6.1,4.7c2.4-7.5-1.6-16.3-0.7-16.7
				c-1.9-0.1-2.5,5.6-2.5,5.6c-3.8-4.5-1.4-13.1-1.4-13.1c-6.5,3.8-4.2,15.5-4.2,15.5c-9.1-12.9-0.6-25.4-0.6-25.4
				c-2.6,3.8-6.9,1.8-6.9,1.8c4-0.1,3.7-8.9,3.7-8.9c-6.5,1.1-8.1,11-8.1,11c-4.7-10.9,4.1-20.3,4.1-20.3c-5.4,3.7-8.3,1-8.3,1
				c5.7-5.7,3.5-15.9,3.5-15.9c-3.5-26.4,8.8-22.9,29.4-43.4c5.7-5.7,7.5-18.1,7.5-18.1c3.9,14.7-3.4,23.8-3.4,23.8
				c16.8-9.3,16.9-31,16.9-31c5.1,23.2-8.7,34.7-8.7,34.7c14.6-9.1,18.7-23.4,18.7-23.4s7.3,18.3-33.1,49c0,0,8.8,5.8,17.2-1.3
				c0,0-0.3,7.2-7.8,9.6c0,0,3.4-2,8.9,0c0,0-4.5-0.4-5.5,3.5c0,0,8.9,6.6,14-1.7c0,0,0,6.6-8,8.8c0,0,8.9-3.2,19.1,5.3
				c0,0-10.3-2.8-14.6,0.9c0,0,7-0.3,11,5.7c0,0-4.9-3.1-7,0.8c0,0,11.6,0.4,11.8,13.9c0,0-2.4-5.3-6.6-2.9c0,0,2.7,6.1,6.6,7.5
				c0,0-0.9,1.6-4.1,0c0,0,4.5,9.3,13.6,5.4c0,0,0,6-7.3,5.2c0.3,0,1,1.5,1.1,1.7c0.9,1.4,1.7,2.9,2.5,4.4c1.9,3.8,3.5,8.1,3.3,12.4
				c-0.3,5.3-4.9,8.3-9,10.9c-3.6,2.3-7.7,4.1-11.9,4.6C306.6,406.6,301.4,404.1,298.1,399.2"/>
			<polygon clip-path="url(#SVGID_16_)" fill="#FFFFFF" points="235.7,254.1 244.6,240.3 247.2,260.2 			"/>
			<path clip-path="url(#SVGID_16_)" fill="none" stroke="#FFFFFF" stroke-linecap="round" stroke-miterlimit="10" d="M232.7,251.5
				c0,0,22.1,22.8,46.8,0"/>
			<path clip-path="url(#SVGID_16_)" fill="#FFFFFF" d="M250.6,209.7c0,9.9-8,17.9-17.9,17.9c-9.9,0-17.9-8-17.9-17.9
				c0-9.9,8-17.9,17.9-17.9C242.6,191.8,250.6,199.8,250.6,209.7"/>
			<path clip-path="url(#SVGID_16_)" fill="#FFFFFF" d="M297.4,209.7c0,9.9-8,17.9-17.9,17.9c-9.9,0-17.9-8-17.9-17.9
				c0-9.9,8-17.9,17.9-17.9C289.4,191.8,297.4,199.8,297.4,209.7"/>
			<path clip-path="url(#SVGID_16_)" fill="#282460" d="M287.7,209.7c0,4.5-3.7,8.2-8.2,8.2c-4.5,0-8.2-3.7-8.2-8.2
				c0-4.5,3.7-8.2,8.2-8.2C284.1,201.5,287.7,205.1,287.7,209.7"/>
			<path clip-path="url(#SVGID_16_)" fill="#282460" d="M240.9,209.7c0,4.5-3.7,8.2-8.2,8.2c-4.5,0-8.2-3.7-8.2-8.2
				c0-4.5,3.7-8.2,8.2-8.2C237.2,201.5,240.9,205.1,240.9,209.7"/>
		</g>
		<g clip-path="url(#SVGID_2_)">
			<defs>
				<rect id="SVGID_17_" x="133" y="115.5" width="246.3" height="427.5"/>
			</defs>
			<clipPath id="SVGID_18_">
				<use xlink:href="#SVGID_17_"  overflow="visible"/>
			</clipPath>
			<g clip-path="url(#SVGID_18_)">
				<text transform="matrix(1 0 0 1 433.41 690.9236)" fill="#282965" font-family="'EvelethCleanRegular'" font-size="10.6091">mo</text>
			</g>
			<g clip-path="url(#SVGID_18_)">
				<text transform="matrix(1 0 0 1 453.0048 690.9236)" fill="#282965" font-family="'EvelethCleanRegular'" font-size="10.6091">m</text>
			</g>
			<g clip-path="url(#SVGID_18_)">
				<text transform="matrix(1 0 0 1 463.0521 690.9236)" fill="#282965" font-family="'EvelethCleanRegular'" font-size="10.6091">my’s</text>
			</g>
			<g clip-path="url(#SVGID_18_)">
				<text transform="matrix(1 0 0 1 492.8221 690.9236)" fill="#282965" font-family="'EvelethCleanThin'" font-size="10.1268"> </text>
			</g>
			<g clip-path="url(#SVGID_18_)">
				<text transform="matrix(1 0 0 1 433.41 702.6912)" fill="#282460" font-family="'EvelethCleanThin'" font-size="10.6091">l</text>
			</g>
			<path clip-path="url(#SVGID_18_)" fill="none" stroke="#282460" stroke-miterlimit="10" d="M439.8,702.7c0.1,0,0.2-0.1,0.2-0.2
				v-0.2c0-0.1-0.1-0.2-0.2-0.2h-4.4c-0.1,0-0.1-0.1-0.1-0.1v-7.3c0-0.1-0.1-0.2-0.2-0.2h-0.2c-0.1,0-0.2,0.1-0.2,0.2v7.9
				c0,0.1,0.1,0.2,0.2,0.2H439.8z"/>
			<g clip-path="url(#SVGID_18_)">
				<text transform="matrix(1 0 0 1 443.9652 702.6912)" fill="#282460" font-family="'EvelethCleanThin'" font-size="10.6091">i</text>
			</g>
			<path clip-path="url(#SVGID_18_)" fill="none" stroke="#282460" stroke-miterlimit="10" d="M445.2,702.5c0,0.1,0.1,0.2,0.2,0.2
				h0.2c0.1,0,0.2-0.1,0.2-0.2v-7.9c0-0.1-0.1-0.2-0.2-0.2h-0.2c-0.1,0-0.2,0.1-0.2,0.2V702.5z"/>
			<g clip-path="url(#SVGID_18_)">
				<text transform="matrix(1 0 0 1 451.1371 702.6912)" fill="#282460" font-family="'EvelethCleanThin'" font-size="10.6091">t</text>
			</g>
			<path clip-path="url(#SVGID_18_)" fill="none" stroke="#282460" stroke-miterlimit="10" d="M454.3,695c0.1,0,0.1,0.1,0.1,0.1v7.3
				c0,0.1,0.1,0.2,0.2,0.2h0.2c0.1,0,0.2-0.1,0.2-0.2v-7.3c0-0.1,0.1-0.1,0.1-0.1h2.7c0.1,0,0.2-0.1,0.2-0.2v-0.2
				c0-0.1-0.1-0.2-0.2-0.2h-6.2c-0.1,0-0.2,0.1-0.2,0.2v0.2c0,0.1,0.1,0.2,0.2,0.2H454.3z"/>
			<g clip-path="url(#SVGID_18_)">
				<text transform="matrix(1 0 0 1 462.8705 702.6912)" fill="#282460" font-family="'EvelethCleanThin'" font-size="10.6091">t</text>
			</g>
			<path clip-path="url(#SVGID_18_)" fill="none" stroke="#282460" stroke-miterlimit="10" d="M466,695c0.1,0,0.1,0.1,0.1,0.1v7.3
				c0,0.1,0.1,0.2,0.2,0.2h0.2c0.1,0,0.2-0.1,0.2-0.2v-7.3c0-0.1,0.1-0.1,0.1-0.1h2.7c0.1,0,0.2-0.1,0.2-0.2v-0.2
				c0-0.1-0.1-0.2-0.2-0.2h-6.2c-0.1,0-0.2,0.1-0.2,0.2v0.2c0,0.1,0.1,0.2,0.2,0.2H466z"/>
			<g clip-path="url(#SVGID_18_)">
				<text transform="matrix(1 0 0 1 474.2235 702.6912)"><tspan x="0" y="0" fill="#282460" font-family="'EvelethCleanThin'" font-size="10.6091" letter-spacing="4">l</tspan><tspan x="11.1" y="0" fill="#282460" font-family="'EvelethCleanThin'" font-size="10.6091">e</tspan></text>
			</g>
			<path clip-path="url(#SVGID_18_)" fill="none" stroke="#282460" stroke-miterlimit="10" d="M480.6,702.7c0.1,0,0.2-0.1,0.2-0.2
				v-0.2c0-0.1-0.1-0.2-0.2-0.2h-4.4c-0.1,0-0.1-0.1-0.1-0.1v-7.3c0-0.1-0.1-0.2-0.2-0.2h-0.2c-0.1,0-0.2,0.1-0.2,0.2v7.9
				c0,0.1,0.1,0.2,0.2,0.2H480.6z"/>
			<path clip-path="url(#SVGID_18_)" fill="none" stroke="#282460" stroke-miterlimit="10" d="M492,702.7c0.1,0,0.2-0.1,0.2-0.2
				v-0.2c0-0.1-0.1-0.2-0.2-0.2h-4.7c-0.1,0-0.1-0.1-0.1-0.1v-2.9c0-0.1,0.1-0.1,0.1-0.1h4c0.1,0,0.2-0.1,0.2-0.2v-0.2
				c0-0.1-0.1-0.2-0.2-0.2h-4c-0.1,0-0.1-0.1-0.1-0.1v-3c0-0.1,0.1-0.1,0.1-0.1h4.7c0.1,0,0.2-0.1,0.2-0.2v-0.2
				c0-0.1-0.1-0.2-0.2-0.2h-5.3c-0.1,0-0.2,0.1-0.2,0.2v7.9c0,0.1,0.1,0.2,0.2,0.2H492z"/>
			<g clip-path="url(#SVGID_18_)">
				<text transform="matrix(1 0 0 1 433.41 714.4568)" fill="#282965" font-family="'EvelethCleanRegular'" font-size="10.6091">m</text>
			</g>
			<g clip-path="url(#SVGID_18_)">
				<text transform="matrix(1 0 0 1 443.7333 714.4568)" fill="#282965" font-family="'EvelethCleanRegular'" font-size="10.6091">o</text>
			</g>
			<g clip-path="url(#SVGID_18_)">
				<text transform="matrix(1 0 0 1 453.0697 714.4568)" fill="#282965" font-family="'EvelethCleanRegular'" font-size="10.6091">n</text>
			</g>
			<g clip-path="url(#SVGID_18_)">
				<text transform="matrix(1 0 0 1 462.0018 714.4568)"><tspan x="0" y="0" fill="#282965" font-family="'EvelethCleanRegular'" font-size="10.6091">st</tspan><tspan x="15.4" y="0" fill="#282965" font-family="'EvelethCleanRegular'" font-size="10.6091">e</tspan><tspan x="23" y="0" fill="#282965" font-family="'EvelethCleanRegular'" font-size="10.6091">r</tspan></text>
			</g>
			<path clip-path="url(#SVGID_18_)" fill="#9569AC" d="M485.4,670.3c1,0.6,0.8,3.7,0.8,3.7c1.9-1.8,1.6-4.1,1.6-4.1
				c1.8,0.4,0.7,4.5,0.7,4.5c3.7-3.3,1.1-6.8,1.1-6.8c3.9,0.8,5-1.2,5-1.2c-3.3,0.4-3-2.3-3-2.3c1.3,0.7,2.2,0,2.2,0
				c-1.6-1.2-0.2-7.1-0.2-7.1c1.9,0.8,1.3,4.1,1.3,4.1c1.7-3.7-1.1-6.5-1.1-6.5c1.7-0.2,2.8,3.3,2.8,3.3c0.4-5.1-3-7-3-7
				c3.6,1.9,5.1-1.8,5.1-1.8c-4.4,1.9-6.7-3.2-6.7-3.2c2.1-0.4,3.1,0.7,3.1,0.7c-1.2-2.6-4.3-2.6-4.3-2.6c1.5-1.4,3.9,0,3.9,0
				c-1.9-3.1-5.5-1.7-5.5-1.7c3-1,2.9-5.1,2.9-5.1c-1,3.7-7,2.5-7,2.5c0.1-1.5,2.8-2.3,2.8-2.3c-2.5-0.4-5.1,1.5-5.1,1.5
				c1.5-1,0.6-2.3,0.6-2.3c0,1.8-3.1,1.6-3.1,1.6l-1.6-0.4c2.6,0.9,3.2-0.4,3.2-0.4c-1.8-0.9-1.4-2.6-1.4-2.6c0.6,1,1.2,1,1.2,1
				c-0.6-1-0.1-4.1-0.1-4.1c1.4,0.5,0.8,2.3,0.8,2.3c1.4-1.8-0.1-6.5-0.1-6.5c1.6,1.1,1.6,4.2,1.6,4.2c1.6-4.4-1.5-6.6-1.5-6.6
				c2.5,2,3.1-1.2,3.1-1.2c-2.4,1.3-3.4-2.8-3.4-2.8c1.2-0.7,2,1.1,2,1.1c-0.5-4.3-2.7-4.2-2.7-4.2c2.5-1,4.1,2.1,4.1,2.1
				c-1-6.1-5.3-5.7-5.3-5.7c0.7-1.4,2.8-0.8,2.8-0.8c-1.6-2-4.1-1.8-4.1-1.8c1.6,0,1.6-1.5,1.6-1.5c-1.8,0.6-3.2-1-3.2-1
				c2-1.8,4.2,0,4.2,0c-1.7-3.8-6.1-2.1-6.1-2.1c1.5-3.1,4.3-2.5,4.3-2.5c-3.8-3-7.7-0.4-7.7-0.4c0.1-0.3,0.3-0.6,0.5-0.9
				c1.1-1.5,3.4-2.4,3.4-2.4c-4.2-0.5-5.5,2.4-5.5,2.4c-0.4-1.7,1.6-3.1,1.6-3.1c-2.1,0.1-3.2,2.5-3.2,2.5c-0.8-2.3,2.2-5,2.2-5
				c-2.6,0.7-3.8,4-3.9,4.4c3.4-10.8-4-11.7-4-11.7c5.6,2.7,1.5,11.2,1.5,11.2c1.1-4.9-3.2-5.9-3.2-5.9c2.6,3.6,0,6,0,6
				s-2.1-2-0.5-3.8c0,0-2.4,1.2-1.5,4.1c0,0-4-3-1.6-7.2c0,0-4.4,3-1.9,8.4c0,0-3,0.7-5-2.1c0,0-0.4,1,0.2,2.2
				c0.3,0.6,0.8,1.2,1.6,1.8c0,0-4-2.7-7.4,1.5c0,0,4.2-1.4,5.1,0.7c0,0-3.5,2.6-6.8,1.7c0,0,1.7,2,4.2,1.5c0,0-2.5,0.2-2.8,2.3
				c0,0,1.1-0.9,1.7-0.4c0,0-1.4,2.5-4.1,2.1c0,0,1,1.9,2.4,1.7c0,0-4,0.7-4.5,6.1c0,0,2-2.9,3.6-2.9c0,0-2.9,2-2.2,5.5
				c0,0,1-2.8,1.8-2.9c0,0-0.2,5.1-2,5.6c0,0,0.7,1.3,1.8,0.9c0,0-3.6,2.5-3.1,5.9c0,0,1.5-3.1,3.8-3.2c0,0,0,2.8-1.7,3.9
				c0,0,0.9,0.3,2.6-0.8c0,0,0.6,2.7-1.6,2.7c0,0,1.2,1.1,3.6,0.7c0,0-2.7,1.4-6.1-0.8c0,0-0.3,1.6,1.5,2.1c0,0-3.5,0.4-5.1-2.6
				c0,0-0.7,3,2.2,3.9c0,0-5.5-2.1-8.4,2.7c0,0,3.8-2.2,4.9-0.1c0,0-4.6,0.8-4.9,3.7c0,0,1.5-1.3,2.9-0.9c0,0-2.2,4.9-5.7,7.6
				c0,0,2.9-0.1,3.6-1.3c0,0-4.7,2.3-3.6,8.6c0,0,1.5-4.1,3.6-4c0,0,0.4,2.3-1.2,4c0,0,1.2,0.1,1.8-1.2c0,0,0.4,2.7-1.2,4.5
				c0,0,1.9,0.4,2.5-0.4c0,0-2.8,4.3-1.9,8.5c0,0,0.7-4.4,3.8-4.8c0,0-1.7,5.2,1.1,7.3c0,0-0.9-3.3,0.9-4.5c0,0,0.5,2.6,3.5,2.7
				c0,0-0.6-3.5,1.2-4.6h40L485.4,670.3z"/>
			<path clip-path="url(#SVGID_18_)" fill="#282965" d="M461.8,653.8c0,0-0.7,2.4,1.2,2.6c0,0-1,0.9-2.4,0.2c0,0,1.5,2.3-0.3,6
				c0,0,0.1-3.2-0.4-4.4c0,0,0.5,2.1-0.6,3.2c0,0,0.4-0.9-0.3-1.5c0,0-1.5,2.4-0.5,5c0,0-0.9,0-1.4-1.2c0,0,0.4,6.2-1.4,7.9
				c0,0,0.7-3.4-0.1-4.2c0,0-0.9,1.5-0.4,3.6c0,0-1.4-0.6-1-2.1c0,0-1.9,2.8-0.5,5.9c0,0-1.9-0.2-1.7-2.5c0,0-0.8,1.5-0.3,2.5
				c0,0-0.6-0.2-0.7-1.2c-2.8,4-7.7,0.4-7.7,0.4c-5.9-3,1.2-11.3,1.2-11.3c-1.1,0.4-1.7-0.3-1.7-0.3c1.5,0,2.7-2.6,2.7-2.6
				c-1.5-0.6-3.3,1.1-3.3,1.1c1.5-3.9,4.4-3.4,4.4-3.4c-1.6,0.3-2.1-0.9-2.1-0.9c1.8,0.2,4.4-2.6,4.4-2.6c-0.8-0.2-2,0.2-2,0.2
				c0.7-1.9,3.4-2,3.4-2c-1.1-1-2.9,0.2-2.9,0.2c1.1-2.5,4.4-1.8,4.4-1.8c-0.7,0-0.9-1-0.9-1c1.2,0.4,3-0.9,3-0.9
				c-1.1-0.9-3.3-0.4-3.3-0.4c1.9-2.6,4.6-0.7,4.6-0.7c-11.3-8.3-9.8-14.1-9.8-14.1s1.8,4.3,5.6,6.6c0,0-4-3.4-2.6-10.2
				c0,0,0.2,6.8,5,9.1c0,0-2.1-2.3-1-7c0,0,0.6,3.8,2.2,5.3c1.8,1.7,3.2,2.8,4.5,3.7c0,0,1.2,0.8,1.2,0.8c0.9,0.6,1.9,1.5,2.5,2.5
				c0.6,1.2,0.8,2.6,0.7,3.9C463.2,650.3,462.4,652.1,461.8,653.8"/>
			<path clip-path="url(#SVGID_18_)" fill="#282965" d="M475.8,673.6c-0.9,0.5-0.2,2.9-0.2,2.9c-3.3-1.8-2.2-6.4-2.2-6.4
				c-1.5,0.9-1.1,3-1.1,3c-1.8-1.2-0.2-5.1-0.2-5.1c-0.7,1.5-1.8,1.4-1.8,1.4c0.7-2.2-0.5-4.8-0.2-4.9c-0.5,0-0.7,1.7-0.7,1.7
				c-1.1-1.3-0.4-3.9-0.4-3.9c-1.9,1.1-1.2,4.6-1.2,4.6c-2.7-3.8-0.2-7.5-0.2-7.5c-0.8,1.1-2,0.5-2,0.5c1.2,0,1.1-2.6,1.1-2.6
				c-1.9,0.3-2.4,3.2-2.4,3.2c-1.4-3.2,1.2-6,1.2-6c-1.6,1.1-2.4,0.3-2.4,0.3c1.7-1.7,1-4.7,1-4.7c-1-7.8,2.6-6.7,8.6-12.7
				c1.7-1.7,2.2-5.3,2.2-5.3c1.1,4.3-1,7-1,7c4.9-2.7,5-9.1,5-9.1c1.5,6.8-2.6,10.2-2.6,10.2c4.3-2.7,5.5-6.9,5.5-6.9
				s2.1,5.4-9.7,14.4c0,0,2.6,1.7,5-0.4c0,0-0.1,2.1-2.3,2.8c0,0,1-0.6,2.6,0c0,0-1.3-0.1-1.6,1c0,0,2.6,1.9,4.1-0.5
				c0,0,0,2-2.3,2.6c0,0,2.6-0.9,5.6,1.6c0,0-3-0.8-4.3,0.2c0,0,2.1-0.1,3.2,1.7c0,0-1.4-0.9-2.1,0.2c0,0,3.4,0.1,3.5,4.1
				c0,0-0.7-1.6-1.9-0.9c0,0,0.8,1.8,1.9,2.2c0,0-0.3,0.5-1.2,0c0,0,1.3,2.7,4,1.6c0,0,0,1.8-2.2,1.5c0.1,0,0.3,0.4,0.3,0.5
				c0.3,0.4,0.5,0.9,0.7,1.3c0.5,1.1,1,2.4,1,3.7c-0.1,1.5-1.4,2.5-2.6,3.2c-1.1,0.7-2.3,1.2-3.5,1.4
				C478.3,675.8,476.8,675.1,475.8,673.6"/>
			<polygon clip-path="url(#SVGID_18_)" fill="#FFFFFF" points="458,631.7 459.3,626.3 460.9,632.9 			"/>
			<path clip-path="url(#SVGID_18_)" fill="none" stroke="#FFFFFF" stroke-linecap="round" stroke-miterlimit="10" d="M456.6,630.2
				c0,0,6.5,6.7,13.8,0"/>
			<path clip-path="url(#SVGID_18_)" fill="#FFFFFF" d="M461.8,618c0,2.9-2.4,5.3-5.3,5.3s-5.3-2.4-5.3-5.3c0-2.9,2.4-5.3,5.3-5.3
				S461.8,615.1,461.8,618"/>
			<path clip-path="url(#SVGID_18_)" fill="#FFFFFF" d="M475.6,618c0,2.9-2.4,5.3-5.3,5.3c-2.9,0-5.3-2.4-5.3-5.3
				c0-2.9,2.4-5.3,5.3-5.3C473.2,612.7,475.6,615.1,475.6,618"/>
			<path clip-path="url(#SVGID_18_)" fill="#282460" d="M472.7,618c0,1.3-1.1,2.4-2.4,2.4c-1.3,0-2.4-1.1-2.4-2.4
				c0-1.3,1.1-2.4,2.4-2.4C471.6,615.5,472.7,616.6,472.7,618"/>
			<path clip-path="url(#SVGID_18_)" fill="#282460" d="M459,618c0,1.3-1.1,2.4-2.4,2.4c-1.3,0-2.4-1.1-2.4-2.4
				c0-1.3,1.1-2.4,2.4-2.4C457.9,615.5,459,616.6,459,618"/>
			<polygon clip-path="url(#SVGID_18_)" fill="#FFFFFF" points="468.8,631.7 467.5,626.3 466,632.9 			"/>
			<polygon clip-path="url(#SVGID_18_)" fill="#FFFFFF" points="277.1,254.1 268.1,240.3 265.5,260.2 			"/>
		</g>
	</g>
</g>
<rect x="44.9" y="2" fill="none" stroke="#000000" stroke-width="0.25" stroke-miterlimit="10" width="417.3" height="695.6"/>
<g>
	<g>
		<defs>
			<rect id="SVGID_19_" x="535.7" y="2" width="417.3" height="695.6"/>
		</defs>
		<clipPath id="SVGID_20_">
			<use xlink:href="#SVGID_19_"  overflow="visible"/>
		</clipPath>
		<rect x="535.7" y="2" clip-path="url(#SVGID_20_)" fill="#D5E4EC" width="417.3" height="695.6"/>
		<g clip-path="url(#SVGID_20_)">
			<text transform="matrix(1 0 0 1 619.7515 142.631)"><tspan x="0" y="0" fill="#282965" font-family="'EvelethCleanRegular'" font-size="28.3383">P</tspan><tspan x="20.2" y="0" fill="#282965" font-family="'EvelethCleanRegular'" font-size="28.3383" letter-spacing="1">E</tspan><tspan x="41.2" y="0" fill="#282965" font-family="'EvelethCleanRegular'" font-size="28.3383" letter-spacing="1">Y</tspan><tspan x="65.4" y="0" fill="#282965" font-family="'EvelethCleanRegular'" font-size="28.3383">T</tspan><tspan x="85" y="0" fill="#282965" font-family="'EvelethCleanRegular'" font-size="28.3383">O</tspan><tspan x="109.5" y="0" fill="#282965" font-family="'EvelethCleanRegular'" font-size="28.3383">N </tspan><tspan x="141.2" y="0" fill="#282965" font-family="'EvelethCleanRegular'" font-size="28.3383">B</tspan><tspan x="162.4" y="0" fill="#282965" font-family="'EvelethCleanRegular'" font-size="28.3383">A</tspan><tspan x="185.7" y="0" fill="#282965" font-family="'EvelethCleanRegular'" font-size="28.3383">N</tspan><tspan x="208.6" y="0" fill="#282965" font-family="'EvelethCleanRegular'" font-size="28.3383">K</tspan><tspan x="229.5" y="0" fill="#282965" font-family="'EvelethCleanRegular'" font-size="28.3383">S</tspan></text>
		</g>
		<g clip-path="url(#SVGID_20_)">
			<text transform="matrix(1 0 0 1 649.064 171.5782)"><tspan x="0" y="0" fill="#282965" font-family="'ProximaNova-Regular'" font-size="20.6097">F</tspan><tspan x="11.1" y="0" fill="#282965" font-family="'ProximaNova-Regular'" font-size="20.6097">A</tspan><tspan x="25.2" y="0" fill="#282965" font-family="'ProximaNova-Regular'" font-size="20.6097">S</tspan><tspan x="37.8" y="0" fill="#282965" font-family="'ProximaNova-Regular'" font-size="20.6097">H</tspan><tspan x="53" y="0" fill="#282965" font-family="'ProximaNova-Regular'" font-size="20.6097">I</tspan><tspan x="57.9" y="0" fill="#282965" font-family="'ProximaNova-Regular'" font-size="20.6097">O</tspan><tspan x="74.2" y="0" fill="#282965" font-family="'ProximaNova-Regular'" font-size="20.6097">N </tspan><tspan x="94.1" y="0" fill="#282965" font-family="'ProximaNova-Regular'" font-size="20.6097">D</tspan><tspan x="108.1" y="0" fill="#282965" font-family="'ProximaNova-Regular'" font-size="20.6097">E</tspan><tspan x="120.2" y="0" fill="#282965" font-family="'ProximaNova-Regular'" font-size="20.6097">S</tspan><tspan x="132.8" y="0" fill="#282965" font-family="'ProximaNova-Regular'" font-size="20.6097">I</tspan><tspan x="138.1" y="0" fill="#282965" font-family="'ProximaNova-Regular'" font-size="20.6097">G</tspan><tspan x="153" y="0" fill="#282965" font-family="'ProximaNova-Regular'" font-size="20.6097">N</tspan><tspan x="167.7" y="0" fill="#282965" font-family="'ProximaNova-Regular'" font-size="20.6097">E</tspan><tspan x="179.9" y="0" fill="#282965" font-family="'ProximaNova-Regular'" font-size="20.6097">R</tspan></text>
		</g>
		<g clip-path="url(#SVGID_20_)">
			<text transform="matrix(1 0 0 1 675.8179 467.5977)"><tspan x="0" y="0" fill="#282965" font-family="'ProximaNova-Regular'" font-size="18.0335">in</tspan><tspan x="14.7" y="0" fill="#282965" font-family="'ProximaNova-Regular'" font-size="18.0335">f</tspan><tspan x="20" y="0" fill="#282965" font-family="'ProximaNova-Regular'" font-size="18.0335">o</tspan><tspan x="30.9" y="0" fill="#282965" font-family="'ProximaNova-Regular'" font-size="18.0335">@</tspan><tspan x="45.5" y="0" fill="#282965" font-family="'ProximaNova-Regular'" font-size="18.0335">l</tspan><tspan x="50" y="0" fill="#282965" font-family="'ProximaNova-Regular'" font-size="18.0335">i</tspan><tspan x="54.5" y="0" fill="#282965" font-family="'ProximaNova-Regular'" font-size="18.0335">t</tspan><tspan x="60.6" y="0" fill="#282965" font-family="'ProximaNova-Regular'" font-size="18.0335">t</tspan><tspan x="66.3" y="0" fill="#282965" font-family="'ProximaNova-Regular'" font-size="18.0335">l</tspan><tspan x="70.8" y="0" fill="#282965" font-family="'ProximaNova-Regular'" font-size="18.0335">em</tspan><tspan x="96.2" y="0" fill="#282965" font-family="'ProximaNova-Regular'" font-size="18.0335">on</tspan><tspan x="117.2" y="0" fill="#282965" font-family="'ProximaNova-Regular'" font-size="18.0335">s</tspan><tspan x="126.2" y="0" fill="#282965" font-family="'ProximaNova-Regular'" font-size="18.0335">t</tspan><tspan x="131.7" y="0" fill="#282965" font-family="'ProximaNova-Regular'" font-size="18.0335">e</tspan><tspan x="142.2" y="0" fill="#282965" font-family="'ProximaNova-Regular'" font-size="18.0335">r</tspan><tspan x="147.7" y="0" fill="#282965" font-family="'ProximaNova-Regular'" font-size="18.0335">.</tspan><tspan x="151.9" y="0" fill="#282965" font-family="'ProximaNova-Regular'" font-size="18.0335">c</tspan><tspan x="161" y="0" fill="#282965" font-family="'ProximaNova-Regular'" font-size="18.0335">o</tspan><tspan x="171.7" y="0" fill="#282965" font-family="'ProximaNova-Regular'" font-size="18.0335">m</tspan></text>
		</g>
		<g clip-path="url(#SVGID_20_)">
			<defs>
				<rect id="SVGID_21_" x="535.7" y="2" width="417.3" height="695.6"/>
			</defs>
			<clipPath id="SVGID_22_">
				<use xlink:href="#SVGID_21_"  overflow="visible"/>
			</clipPath>
			<path clip-path="url(#SVGID_22_)" fill="#9668AC" d="M637.8,479.5c10.5,0,19-8.5,19-19s-8.5-19-19-19c-10.5,0-19,8.5-19,19
				S627.3,479.5,637.8,479.5"/>
			<path clip-path="url(#SVGID_22_)" fill="#9668AC" d="M637.8,581.7c10.5,0,19-8.5,19-19c0-10.5-8.5-19-19-19c-10.5,0-19,8.5-19,19
				C618.8,573.2,627.3,581.7,637.8,581.7"/>
			<path clip-path="url(#SVGID_22_)" fill="#9668AC" d="M637.8,530.6c10.5,0,19-8.5,19-19c0-10.5-8.5-19-19-19c-10.5,0-19,8.5-19,19
				C618.8,522.1,627.3,530.6,637.8,530.6"/>
		</g>
		<g clip-path="url(#SVGID_20_)">
			<text transform="matrix(1 0 0 1 626.6636 469.2716)" fill="#FFFFFF" font-family="'EvelethCleanRegular'" font-size="23.1859">@</text>
		</g>
		<g clip-path="url(#SVGID_20_)">
			<defs>
				<rect id="SVGID_23_" x="628.8" y="552" width="18.3" height="21.5"/>
			</defs>
			<clipPath id="SVGID_24_">
				<use xlink:href="#SVGID_23_"  overflow="visible"/>
			</clipPath>
			<path clip-path="url(#SVGID_24_)" fill="#FFFFFF" d="M637.8,573.4h-0.2c-0.1-0.1-0.3-0.2-0.5-0.3c-1.7-1.4-3.3-3-4.8-4.7
				c-1.1-1.3-2-2.6-2.7-4.1c-0.4-0.9-0.7-1.8-0.8-2.7c-0.1-1,0-2,0.3-2.9c0.7-2.7,2.3-4.6,4.9-5.6c2.1-0.8,4.2-0.9,6.4-0.3
				c2.1,0.5,3.8,1.7,4.9,3.6c0.7,1.2,1.1,2.5,1.2,3.9c0.1,1.2,0,2.3-0.4,3.4c-0.5,1.3-1.3,2.6-2.2,3.7c-1.3,1.7-2.7,3.1-4.3,4.5
				C639.1,572.4,638.5,572.9,637.8,573.4"/>
			<path clip-path="url(#SVGID_24_)" fill="#FFFFFF" d="M687.6,573.2c-2.4,0-4.2-0.7-5.9-1.7c-2.2-1.3-4-3.1-5.7-5.1
				c-1.3-1.6-2.5-3.2-3.5-5.1c-0.8-1.6-1.3-3.2-1.3-5c0-2.5,0.9-4.6,2.8-6.2c0.4-0.3,0.7-0.6,1.1-0.9c0.8-0.6,1.6-0.6,2.4,0.1
				c0.8,0.8,1.3,1.7,1.9,2.6c0.4,0.6,0.7,1.3,0.8,2c0.1,0.8-0.1,1.5-0.7,2.1c-0.5,0.4-0.9,0.8-1.4,1.2c-1,0.7-1.2,1.6-0.8,2.7
				c0.4,1,1,1.9,1.6,2.7c0.9,1.1,1.8,2.2,2.9,3.1c0.6,0.5,1.2,0.9,2,1.1c0.7,0.2,1.3,0,1.8-0.5c0.5-0.5,1-0.9,1.5-1.4
				c0.8-0.7,1.8-0.8,2.7-0.3c0.5,0.3,1,0.6,1.5,1c0.7,0.5,1.3,1.1,1.9,1.7c0.2,0.2,0.4,0.5,0.6,0.8c0.4,0.7,0.3,1.3-0.2,1.9
				c-0.8,0.8-1.6,1.5-2.5,2.1C689.8,572.8,688.6,573.2,687.6,573.2"/>
		</g>
		<g clip-path="url(#SVGID_20_)">
			<defs>
				<rect id="SVGID_25_" x="628.5" y="501.8" width="18.6" height="19.9"/>
			</defs>
			<clipPath id="SVGID_26_">
				<use xlink:href="#SVGID_25_"  overflow="visible"/>
			</clipPath>
			<path clip-path="url(#SVGID_26_)" fill="#FFFFFF" d="M601.9,521.7h-0.1c-0.1-0.1-0.2-0.2-0.4-0.3c-1.4-1.1-2.7-2.4-3.8-3.7
				c-0.9-1-1.6-2.1-2.2-3.3c-0.3-0.7-0.6-1.4-0.6-2.2c0-0.8,0-1.6,0.2-2.3c0.6-2.2,1.8-3.7,3.9-4.5c1.7-0.7,3.4-0.7,5.1-0.3
				c1.7,0.4,3,1.4,3.9,2.9c0.6,1,0.9,2,1,3.1c0.1,0.9,0,1.8-0.3,2.7c-0.4,1.1-1,2-1.7,3c-1,1.3-2.2,2.5-3.4,3.6
				C603,520.9,602.4,521.3,601.9,521.7"/>
			<path clip-path="url(#SVGID_26_)" fill="#FFFFFF" d="M641.8,521.5c-2,0-3.4-0.5-4.7-1.3c-1.8-1.1-3.2-2.5-4.6-4.1
				c-1.1-1.3-2-2.6-2.8-4.1c-0.6-1.3-1.1-2.6-1.1-4c0-2,0.7-3.7,2.3-5c0.3-0.2,0.6-0.5,0.8-0.7c0.7-0.5,1.3-0.5,1.9,0.1
				c0.6,0.6,1.1,1.4,1.5,2.1c0.3,0.5,0.6,1,0.7,1.6c0.1,0.7-0.1,1.2-0.5,1.7c-0.4,0.3-0.7,0.7-1.1,1c-0.8,0.6-0.9,1.3-0.6,2.2
				c0.3,0.8,0.8,1.5,1.3,2.2c0.7,0.9,1.5,1.7,2.3,2.5c0.5,0.4,1,0.7,1.6,0.9c0.5,0.1,1,0,1.4-0.4c0.4-0.4,0.8-0.8,1.2-1.1
				c0.7-0.6,1.4-0.6,2.2-0.2c0.4,0.2,0.8,0.5,1.2,0.8c0.5,0.4,1,0.9,1.5,1.4c0.2,0.2,0.3,0.4,0.5,0.6c0.3,0.5,0.2,1.1-0.2,1.5
				c-0.6,0.6-1.2,1.2-2,1.7C643.6,521.2,642.6,521.5,641.8,521.5"/>
		</g>
		<g clip-path="url(#SVGID_20_)">
			<text transform="matrix(1 0 0 1 675.8179 559.9474)"><tspan x="0" y="0" fill="#282965" font-family="'ProximaNova-Regular'" font-size="18.0335">1</tspan><tspan x="6.4" y="0" fill="#282965" font-family="'ProximaNova-Regular'" font-size="18.0335">4</tspan><tspan x="17" y="0" fill="#282965" font-family="'ProximaNova-Regular'" font-size="18.0335">0 </tspan><tspan x="32.7" y="0" fill="#282965" font-family="'ProximaNova-Regular'" font-size="18.0335">E</tspan><tspan x="43.5" y="0" fill="#282965" font-family="'ProximaNova-Regular'" font-size="18.0335">. </tspan><tspan x="52.3" y="0" fill="#282965" font-family="'ProximaNova-Regular'" font-size="18.0335">B</tspan><tspan x="64.1" y="0" fill="#282965" font-family="'ProximaNova-Regular'" font-size="18.0335">r</tspan><tspan x="70.2" y="0" fill="#282965" font-family="'ProximaNova-Regular'" font-size="18.0335">o</tspan><tspan x="80.9" y="0" fill="#282965" font-family="'ProximaNova-Regular'" font-size="18.0335">a</tspan><tspan x="90.8" y="0" fill="#282965" font-family="'ProximaNova-Regular'" font-size="18.0335">d</tspan><tspan x="101.6" y="0" fill="#282965" font-family="'ProximaNova-Regular'" font-size="18.0335">w</tspan><tspan x="115.2" y="0" fill="#282965" font-family="'ProximaNova-Regular'" font-size="18.0335">a</tspan><tspan x="124.9" y="0" fill="#282965" font-family="'ProximaNova-Regular'" font-size="18.0335">y</tspan></text>
		</g>
		<g clip-path="url(#SVGID_20_)">
			<text transform="matrix(1 0 0 1 675.8179 581.588)"><tspan x="0" y="0" fill="#282965" font-family="'ProximaNova-Regular'" font-size="18.0335">Ja</tspan><tspan x="18.8" y="0" fill="#282965" font-family="'ProximaNova-Regular'" font-size="18.0335">c</tspan><tspan x="28" y="0" fill="#282965" font-family="'ProximaNova-Regular'" font-size="18.0335">k</tspan><tspan x="37.7" y="0" fill="#282965" font-family="'ProximaNova-Regular'" font-size="18.0335">s</tspan><tspan x="46.4" y="0" fill="#282965" font-family="'ProximaNova-Regular'" font-size="18.0335">o</tspan><tspan x="57.1" y="0" fill="#282965" font-family="'ProximaNova-Regular'" font-size="18.0335">n</tspan><tspan x="67.5" y="0" fill="#282965" font-family="'ProximaNova-Regular'" font-size="18.0335">, </tspan><tspan x="76.3" y="0" fill="#282965" font-family="'ProximaNova-Regular'" font-size="18.0335" letter-spacing="1">W</tspan><tspan x="93.2" y="0" fill="#282965" font-family="'ProximaNova-Regular'" font-size="18.0335">Y </tspan><tspan x="109.2" y="0" fill="#282965" font-family="'ProximaNova-Regular'" font-size="18.0335">8</tspan><tspan x="120.2" y="0" fill="#282965" font-family="'ProximaNova-Regular'" font-size="18.0335">3</tspan><tspan x="130.7" y="0" fill="#282965" font-family="'ProximaNova-Regular'" font-size="18.0335">0</tspan><tspan x="142.2" y="0" fill="#282965" font-family="'ProximaNova-Regular'" font-size="18.0335">0</tspan><tspan x="153.7" y="0" fill="#282965" font-family="'ProximaNova-Regular'" font-size="18.0335">1</tspan></text>
		</g>
		<g clip-path="url(#SVGID_20_)">
			<text transform="matrix(1 0 0 1 675.8179 518.7013)"><tspan x="0" y="0" fill="#282965" font-family="'ProximaNova-Regular'" font-size="18.0335">3</tspan><tspan x="10.5" y="0" fill="#282965" font-family="'ProximaNova-Regular'" font-size="18.0335">0</tspan><tspan x="21.5" y="0" fill="#282965" font-family="'ProximaNova-Regular'" font-size="18.0335">7</tspan><tspan x="30.7" y="0" fill="#282965" font-family="'ProximaNova-Regular'" font-size="18.0335">-</tspan><tspan x="35.7" y="0" fill="#282965" font-family="'ProximaNova-Regular'" font-size="18.0335">7</tspan><tspan x="45.6" y="0" fill="#282965" font-family="'ProximaNova-Regular'" font-size="18.0335">3</tspan><tspan x="56" y="0" fill="#282965" font-family="'ProximaNova-Regular'" font-size="18.0335">9</tspan><tspan x="67.6" y="0" fill="#282965" font-family="'ProximaNova-Regular'" font-size="18.0335">-</tspan><tspan x="72.9" y="0" fill="#282965" font-family="'ProximaNova-Regular'" font-size="18.0335">2</tspan><tspan x="83.6" y="0" fill="#282965" font-family="'ProximaNova-Regular'" font-size="18.0335">2</tspan><tspan x="94.2" y="0" fill="#282965" font-family="'ProximaNova-Regular'" font-size="18.0335">5</tspan><tspan x="105.3" y="0" fill="#282965" font-family="'ProximaNova-Regular'" font-size="18.0335">8</tspan></text>
		</g>
	</g>
</g>
</svg>
