<?xml version="1.0" encoding="utf-8"?>
<!-- Generator: Adobe Illustrator 18.1.0, SVG Export Plug-In . SVG Version: 6.00 Build 0)  -->
<svg version="1.1" id="Layer_1" xmlns="http://www.w3.org/2000/svg" xmlns:xlink="http://www.w3.org/1999/xlink" x="0px" y="0px"
	 viewBox="0 0 1000 700" enable-background="new 0 0 1000 700" xml:space="preserve">
<g>
	<g>
		<defs>
			<rect id="SVGID_1_" x="256.5" y="3.5" width="539.6" height="693.8"/>
		</defs>
		<clipPath id="SVGID_2_">
			<use xlink:href="#SVGID_1_"  overflow="visible"/>
		</clipPath>
		<g clip-path="url(#SVGID_2_)">
			<defs>
				<rect id="SVGID_3_" x="326.2" y="60" width="83.3" height="148.3"/>
			</defs>
			<clipPath id="SVGID_4_">
				<use xlink:href="#SVGID_3_"  overflow="visible"/>
			</clipPath>
			<path clip-path="url(#SVGID_4_)" fill="#363535" d="M426.6,209.9H307.8V51.5h118.8V209.9z M427.7,50.4h-1.1H307.8h-1.1v1.1v158.4
				v1.1h1.1h118.8h1.1v-1.1V51.5V50.4z"/>
			<g clip-path="url(#SVGID_4_)">
				<text transform="matrix(1 0 0 1 3.1675 -99.5395)" fill="#3A3B6C" font-family="'EvelethCleanRegular'" font-size="42.5215">mo</text>
			</g>
			<g clip-path="url(#SVGID_4_)">
				<text transform="matrix(1 0 0 1 81.7046 -99.5395)" fill="#3A3B6C" font-family="'EvelethCleanRegular'" font-size="42.5215">m</text>
			</g>
			<g clip-path="url(#SVGID_4_)">
				<text transform="matrix(1 0 0 1 121.9727 -99.5395)" fill="#3A3B6C" font-family="'EvelethCleanRegular'" font-size="42.5215">my’s</text>
			</g>
			<g clip-path="url(#SVGID_4_)">
				<text transform="matrix(1 0 0 1 241.2857 -99.5395)" fill="#3A3B6C" font-family="'EvelethCleanThin'" font-size="40.5886"> </text>
			</g>
			<g clip-path="url(#SVGID_4_)">
				<text transform="matrix(1 0 0 1 3.1675 -52.3803)" fill="#3A3867" font-family="'EvelethCleanThin'" font-size="42.521">l</text>
			</g>
			<path clip-path="url(#SVGID_4_)" fill="none" stroke="#3A3867" stroke-width="2.215" stroke-miterlimit="10" d="M28.9-52.4
				c0.4,0,0.8-0.3,0.8-0.8v-0.9c0-0.4-0.3-0.8-0.8-0.8H11c-0.3,0-0.6-0.3-0.6-0.6v-29.3c0-0.4-0.3-0.8-0.8-0.8h-1
				c-0.4,0-0.8,0.3-0.8,0.8v31.6c0,0.4,0.3,0.8,0.8,0.8H28.9z"/>
			<g clip-path="url(#SVGID_4_)">
				<text transform="matrix(1 0 0 1 45.4761 -52.3803)" fill="#3A3867" font-family="'EvelethCleanThin'" font-size="42.521">i</text>
			</g>
			<path clip-path="url(#SVGID_4_)" fill="none" stroke="#3A3867" stroke-width="2.215" stroke-miterlimit="10" d="M50.2-53.1
				c0,0.4,0.3,0.8,0.8,0.8h1c0.4,0,0.8-0.3,0.8-0.8v-31.6c0-0.4-0.3-0.8-0.8-0.8h-1c-0.4,0-0.8,0.3-0.8,0.8V-53.1z"/>
			<g clip-path="url(#SVGID_4_)">
				<text transform="matrix(1 0 0 1 74.2208 -52.3803)" fill="#3A3867" font-family="'EvelethCleanThin'" font-size="42.521">t</text>
			</g>
			<path clip-path="url(#SVGID_4_)" fill="none" stroke="#3A3867" stroke-width="2.215" stroke-miterlimit="10" d="M86.7-83.1
				c0.3,0,0.6,0.3,0.6,0.6v29.3c0,0.4,0.3,0.8,0.8,0.8h1c0.4,0,0.8-0.3,0.8-0.8v-29.3c0-0.3,0.3-0.6,0.6-0.6h10.6
				c0.4,0,0.8-0.3,0.8-0.8v-0.9c0-0.4-0.3-0.8-0.8-0.8H76.1c-0.4,0-0.8,0.3-0.8,0.8v0.9c0,0.4,0.3,0.8,0.8,0.8H86.7z"/>
			<g clip-path="url(#SVGID_4_)">
				<text transform="matrix(1 0 0 1 121.2491 -52.3803)" fill="#3A3867" font-family="'EvelethCleanThin'" font-size="42.521">t</text>
			</g>
			<path clip-path="url(#SVGID_4_)" fill="none" stroke="#3A3867" stroke-width="2.215" stroke-miterlimit="10" d="M133.8-83.1
				c0.3,0,0.6,0.3,0.6,0.6v29.3c0,0.4,0.3,0.8,0.8,0.8h1c0.4,0,0.8-0.3,0.8-0.8v-29.3c0-0.3,0.3-0.6,0.6-0.6h10.6
				c0.4,0,0.8-0.3,0.8-0.8v-0.9c0-0.4-0.3-0.8-0.8-0.8h-24.9c-0.4,0-0.8,0.3-0.8,0.8v0.9c0,0.4,0.3,0.8,0.8,0.8H133.8z"/>
			<g clip-path="url(#SVGID_4_)">
				<text transform="matrix(1 0 0 1 166.7471 -52.3803)"><tspan x="0" y="0" fill="#3A3867" font-family="'EvelethCleanThin'" font-size="42.521" letter-spacing="16">l</tspan><tspan x="44.4" y="0" fill="#3A3867" font-family="'EvelethCleanThin'" font-size="42.521">e</tspan></text>
			</g>
			<path clip-path="url(#SVGID_4_)" fill="none" stroke="#3A3867" stroke-width="2.215" stroke-miterlimit="10" d="M192.4-52.4
				c0.4,0,0.8-0.3,0.8-0.8v-0.9c0-0.4-0.3-0.8-0.8-0.8h-17.8c-0.3,0-0.6-0.3-0.6-0.6v-29.3c0-0.4-0.3-0.8-0.8-0.8h-1
				c-0.4,0-0.8,0.3-0.8,0.8v31.6c0,0.4,0.3,0.8,0.8,0.8H192.4z"/>
			<path clip-path="url(#SVGID_4_)" fill="none" stroke="#3A3867" stroke-width="2.215" stroke-miterlimit="10" d="M238-52.4
				c0.4,0,0.8-0.3,0.8-0.8v-0.9c0-0.4-0.3-0.8-0.8-0.8H219c-0.3,0-0.6-0.3-0.6-0.6v-11.4c0-0.3,0.3-0.6,0.6-0.6H235
				c0.4,0,0.8-0.3,0.8-0.8v-0.8c0-0.4-0.3-0.8-0.8-0.8H219c-0.3,0-0.6-0.3-0.6-0.6v-12c0-0.3,0.3-0.6,0.6-0.6H238
				c0.4,0,0.8-0.3,0.8-0.8v-0.9c0-0.4-0.3-0.8-0.8-0.8h-21.3c-0.4,0-0.8,0.3-0.8,0.8v31.6c0,0.4,0.3,0.8,0.8,0.8H238z"/>
			<g clip-path="url(#SVGID_4_)">
				<text transform="matrix(1 0 0 1 3.1675 -5.2197)" fill="#3A3B6C" font-family="'EvelethCleanRegular'" font-size="42.5215">m</text>
			</g>
			<g clip-path="url(#SVGID_4_)">
				<text transform="matrix(1 0 0 1 44.5416 -5.2197)" fill="#3A3B6C" font-family="'EvelethCleanRegular'" font-size="42.5215">o</text>
			</g>
			<g clip-path="url(#SVGID_4_)">
				<text transform="matrix(1 0 0 1 81.9595 -5.2197)" fill="#3A3B6C" font-family="'EvelethCleanRegular'" font-size="42.5215">n</text>
			</g>
			<g clip-path="url(#SVGID_4_)">
				<text transform="matrix(1 0 0 1 117.7627 -5.2197)"><tspan x="0" y="0" fill="#3A3B6C" font-family="'EvelethCleanRegular'" font-size="42.5215">st</tspan><tspan x="61.6" y="0" fill="#3A3B6C" font-family="'EvelethCleanRegular'" font-size="42.5215">e</tspan><tspan x="92" y="0" fill="#3A3B6C" font-family="'EvelethCleanRegular'" font-size="42.5215">r</tspan></text>
			</g>
			<path clip-path="url(#SVGID_4_)" fill="#996FAE" d="M211.7-182.1c4.1,2.5,3.1,14.6,3.1,14.6c7.8-7.2,6.4-16.6,6.4-16.6
				c7.4,1.8,2.9,17.9,2.9,17.9c14.6-13.1,4.5-27.4,4.5-27.4c15.7,3.1,20.1-5,20.1-5c-13.1,1.6-12-9.3-12-9.3c5.2,2.8,9,0,9,0
				c-6.4-5-0.7-28.6-0.7-28.6c7.5,3.2,5.3,16.4,5.3,16.4c6.9-14.6-4.6-26.2-4.6-26.2c7-0.6,11.1,13.4,11.1,13.4
				c1.6-20.3-12.1-28.1-12.1-28.1c14.4,7.7,20.5-7.1,20.5-7.1c-17.5,7.5-26.7-12.7-26.7-12.7c8.5-1.5,12.3,2.7,12.3,2.7
				c-5-10.6-17.4-10.6-17.4-10.6c6-5.6,15.5,0,15.5,0c-7.5-12.5-22-7-22-7c11.9-4.2,11.6-20.6,11.6-20.6c-4.2,15-28,10.2-28,10.2
				c0.3-6,11.1-9.4,11.1-9.4c-10.1-1.6-20.5,6.2-20.5,6.2c5.9-4,2.3-9.1,2.3-9.1c0,7.2-12.3,6.4-12.3,6.4l-6.4-1.7
				c10.5,3.5,12.9-1.5,12.9-1.5c-7.3-3.7-5.5-10.4-5.5-10.4c2.5,4.1,4.7,4,4.7,4c-2.5-4.2-0.5-16.5-0.5-16.5
				c5.4,1.9,3.2,9.3,3.2,9.3c5.5-7.3-0.4-26.1-0.4-26.1c6.4,4.4,6.4,16.8,6.4,16.8c6.5-17.8-6-26.4-6-26.4c9.9,8,12.5-4.8,12.5-4.8
				c-9.7,5.3-13.7-11.4-13.7-11.4c4.7-2.7,8.1,4.4,8.1,4.4c-1.9-17.3-10.7-16.8-10.7-16.8c9.8-3.9,16.3,8.5,16.3,8.5
				c-4.1-24.6-21.3-22.7-21.3-22.7c3-5.6,11.2-3.1,11.2-3.1c-6.3-8.1-16.6-7.3-16.6-7.3c6.4-0.1,6.4-5.8,6.4-5.8
				c-7.2,2.5-12.9-3.8-12.9-3.8c7.9-7.2,16.9,0,16.9,0c-6.8-15.2-24.4-8.5-24.4-8.5c6-12.5,17.2-9.9,17.2-9.9
				c-15.2-11.9-31-1.5-31-1.5c0.4-1.2,1-2.4,1.8-3.5c4.4-5.9,13.8-9.5,13.8-9.5c-16.8-1.9-22,9.4-22,9.4c-1.4-6.8,6.4-12.6,6.4-12.6
				c-8.4,0.3-12.7,9.9-12.7,9.9c-3.3-9.3,8.7-20.2,8.7-20.2c-10.3,2.6-15.2,16.1-15.8,17.8c13.7-43.2-16.2-46.7-16.2-46.7
				c22.5,10.8,6.2,44.9,6.2,44.9c4.3-19.6-13-23.8-13-23.8c10.5,14.5,0,24.2,0,24.2s-8.4-8.2-2.1-15.3c0,0-9.8,4.8-5.8,16.6
				c0,0-16-11.9-6.3-29c0,0-17.7,11.9-7.7,33.8c0,0-12.2,2.6-20.1-8.3c0,0-1.7,3.9,0.7,8.9c1.1,2.2,3,4.7,6.3,7.1
				c0,0-16.2-10.8-29.6,6.1c0,0,16.7-5.7,20.3,2.6c0,0-14,10.5-27.3,6.8c0,0,6.7,7.9,17,6c0,0-10,1-11.3,9.4c0,0,4.5-3.7,6.6-1.7
				c0,0-5.8,10.1-16.3,8.5c0,0,4,7.5,9.7,6.8c0,0-16.2,2.8-18,24.3c0,0,8-11.4,14.6-11.5c0,0-11.5,8-9,21.9c0,0,3.9-11.4,7.4-11.8
				c0,0-0.9,20.4-8,22.3c0,0,3,5.3,7.4,3.4c0,0-14.6,10-12.4,23.7c0,0,6.1-12.4,15.2-12.9c0,0,0,11-6.8,15.7c0,0,3.6,1.2,10.6-3.3
				c0,0,2.4,10.8-6.6,10.8c0,0,4.7,4.3,14.4,2.9c0,0-10.9,5.7-24.6-3.2c0,0-1,6.3,6.2,8.4c0,0-14,1.5-20.5-10.6
				c0,0-2.6,11.9,8.8,15.5c0,0-21.9-8.3-33.7,10.7c0,0,15-8.7,19.8-0.4c0,0-18.3,3.3-19.8,14.8c0,0,6.1-5,11.5-3.8
				c0,0-9,19.5-22.7,30.5c0,0,11.5-0.5,14.6-5.2c0,0-18.7,9.3-14.6,34.3c0,0,5.9-16.5,14.6-16.2c0,0,1.6,9-5,16.2c0,0,4.7,0.3,7.2-5
				c0,0,1.5,10.7-4.7,17.8c0,0,7.6,1.8,9.9-1.5c0,0-11.2,17.3-7.4,34.1c0,0,2.7-17.5,15.1-19.4c0,0-6.9,20.9,4.6,29.3
				c0,0-3.5-13.2,3.7-18c0,0,2.1,10.6,14,10.7c0,0-2.5-13.9,4.7-18.5h160.5L211.7-182.1z"/>
			<path clip-path="url(#SVGID_4_)" fill="#3A3B6C" d="M117.1-248.2c0,0-2.8,9.6,4.8,10.2c0,0-3.8,3.5-9.6,1c0,0,5.9,9.3-1.3,24.1
				c0,0,0.6-12.6-1.6-17.8c0,0,2,8.4-2.3,12.9c0,0,1.6-3.7-1-5.8c0,0-6.1,9.5-2.1,19.8c0,0-3.8,0-5.4-4.6c0,0,1.4,25-5.7,31.7
				c0,0,2.6-13.7-0.3-16.8c0,0-3.4,6.2-1.7,14.3c0,0-5.6-2.3-4.1-8.3c0,0-7.5,11.1-2.2,23.5c0,0-7.7-0.7-6.9-9.9
				c0,0-3.1,6.2-1.2,9.9c0,0-2.3-0.8-2.6-4.7c-11.3,16.2-31.1,1.8-31.1,1.8c-23.6-12.1,4.8-45.2,4.8-45.2c-4.2,1.8-7-1.3-7-1.3
				c6,0,11-10.6,11-10.6c-6-2.4-13.4,4.4-13.4,4.4c5.8-15.6,17.7-13.5,17.7-13.5c-6.5,1.4-8.6-3.6-8.6-3.6
				c7.2,0.9,17.4-10.5,17.4-10.5c-3.4-0.9-7.9,0.9-7.9,0.9c2.8-7.5,13.4-7.9,13.4-7.9c-4.5-3.9-11.8,0.9-11.8,0.9
				c4.2-10.1,17.7-7.3,17.7-7.3c-2.7-0.2-3.7-4-3.7-4c4.8,1.6,12-3.6,12-3.6c-4.4-3.6-13.3-1.5-13.3-1.5c7.5-10.5,18.3-2.8,18.3-2.8
				C44.1-305.5,50.2-329,50.2-329s7.1,17.3,22.3,26.6c0,0-16.1-13.6-10.3-40.9c0,0,0.7,27.3,19.9,36.5c0,0-8.4-9.3-4-28.1
				c0,0,2.5,15.2,8.9,21.3c7.2,6.8,12.9,11.2,18,14.7c0,0,4.9,3.3,4.9,3.3c3.7,2.5,7.7,5.9,9.8,10c2.5,4.7,3.1,10.2,3,15.5
				C122.6-262.5,119.2-255.3,117.1-248.2"/>
			<path clip-path="url(#SVGID_4_)" fill="#3A3B6C" d="M173-168.9c-3.7,2-1,11.6-1,11.6c-13.1-7.4-8.7-25.5-8.7-25.5
				c-6.1,3.6-4.4,12.1-4.4,12.1c-7.2-4.9-0.8-20.5-0.8-20.5c-2.7,6.1-7.1,5.5-7.1,5.5c2.8-8.9-1.9-19.2-0.8-19.7
				c-2.2-0.1-2.9,6.6-2.9,6.6c-4.4-5.3-1.6-15.4-1.6-15.4c-7.7,4.4-4.9,18.2-4.9,18.2c-10.8-15.2-0.7-29.9-0.7-29.9
				c-3.1,4.5-8.2,2.1-8.2,2.1c4.7-0.2,4.3-10.4,4.3-10.4c-7.6,1.3-9.6,13-9.6,13c-5.5-12.9,4.8-23.9,4.8-23.9
				c-6.3,4.4-9.8,1.2-9.8,1.2c6.7-6.7,4.1-18.7,4.1-18.7c-4.1-31.1,10.4-26.9,34.7-51.1c6.7-6.7,8.9-21.3,8.9-21.3
				c4.6,17.3-4,28.1-4,28.1c19.8-11,19.9-36.5,19.9-36.5c6,27.4-10.3,40.9-10.3,40.9c17.2-10.8,22.1-27.6,22.1-27.6
				s8.6,21.6-38.9,57.7c0,0,10.4,6.8,20.2-1.5c0,0-0.3,8.5-9.1,11.3c0,0,4-2.3,10.5,0c0,0-5.3-0.4-6.5,4.1c0,0,10.5,7.8,16.5-2
				c0,0,0,7.8-9.4,10.3c0,0,10.5-3.8,22.4,6.3c0,0-12.2-3.3-17.2,1c0,0,8.3-0.3,13,6.7c0,0-5.7-3.7-8.3,1c0,0,13.6,0.4,13.9,16.3
				c0,0-2.9-6.3-7.8-3.5c0,0,3.1,7.2,7.8,8.8c0,0-1,1.9-4.8,0c0,0,5.3,11,16.1,6.3c0,0,0,7-8.6,6.1c0.3,0,1.1,1.7,1.3,2
				c1,1.7,2,3.4,2.9,5.2c2.2,4.5,4.1,9.6,3.8,14.7c-0.4,6.2-5.8,9.8-10.6,12.8c-4.3,2.7-9,4.8-14,5.4
				C183-160.1,176.9-163.1,173-168.9"/>
			<polygon clip-path="url(#SVGID_4_)" fill="#FFFFFF" points="99.4,-339.7 110,-355.9 113,-332.5 			"/>
			
				<path clip-path="url(#SVGID_4_)" fill="none" stroke="#FFFFFF" stroke-width="4.367" stroke-linecap="round" stroke-miterlimit="10" d="
				M96-342.7c0,0,26,26.8,55.1,0"/>
			<path clip-path="url(#SVGID_4_)" fill="#FFFFFF" d="M117-392c0,11.6-9.4,21.1-21.1,21.1c-11.6,0-21.1-9.4-21.1-21.1
				c0-11.6,9.4-21.1,21.1-21.1C107.6-413,117-403.6,117-392"/>
			<path clip-path="url(#SVGID_4_)" fill="#FFFFFF" d="M172.1-392c0,11.6-9.4,21.1-21.1,21.1c-11.6,0-21.1-9.4-21.1-21.1
				c0-11.6,9.4-21.1,21.1-21.1C162.7-413,172.1-403.6,172.1-392"/>
			<path clip-path="url(#SVGID_4_)" fill="#3A3867" d="M160.7-392c0,5.3-4.3,9.7-9.7,9.7c-5.3,0-9.7-4.3-9.7-9.7
				c0-5.3,4.3-9.7,9.7-9.7C156.4-401.6,160.7-397.3,160.7-392"/>
			<path clip-path="url(#SVGID_4_)" fill="#3A3867" d="M105.6-392c0,5.3-4.3,9.7-9.7,9.7c-5.3,0-9.7-4.3-9.7-9.7
				c0-5.3,4.3-9.7,9.7-9.7C101.3-401.6,105.6-397.3,105.6-392"/>
		</g>
		<g clip-path="url(#SVGID_2_)">
			<text transform="matrix(1 0 0 1 332.2808 174.668)" fill="#3A3B6C" font-family="'EvelethCleanRegular'" font-size="12.4919">mo</text>
		</g>
		<g clip-path="url(#SVGID_2_)">
			<text transform="matrix(1 0 0 1 355.3536 174.668)" fill="#3A3B6C" font-family="'EvelethCleanRegular'" font-size="12.4919">m</text>
		</g>
		<g clip-path="url(#SVGID_2_)">
			<text transform="matrix(1 0 0 1 367.1827 174.668)" fill="#3A3B6C" font-family="'EvelethCleanRegular'" font-size="12.4919">my’s</text>
		</g>
		<g clip-path="url(#SVGID_2_)">
			<text transform="matrix(1 0 0 1 402.2364 174.668)" fill="#3A3B6C" font-family="'EvelethCleanThin'" font-size="11.924"> </text>
		</g>
		<g clip-path="url(#SVGID_2_)">
			<text transform="matrix(1 0 0 1 332.2808 188.523)" fill="#3A3867" font-family="'EvelethCleanThin'" font-size="12.4917">l</text>
		</g>
		<g clip-path="url(#SVGID_2_)">
			<defs>
				<rect id="SVGID_5_" x="326.2" y="60" width="83.3" height="148.3"/>
			</defs>
			<clipPath id="SVGID_6_">
				<use xlink:href="#SVGID_5_"  overflow="visible"/>
			</clipPath>
			<path clip-path="url(#SVGID_6_)" fill="none" stroke="#3A3867" stroke-width="0.656" stroke-miterlimit="10" d="M339.8,188.5
				c0.1,0,0.2-0.1,0.2-0.2V188c0-0.1-0.1-0.2-0.2-0.2h-5.2c-0.1,0-0.2-0.1-0.2-0.2V179c0-0.1-0.1-0.2-0.2-0.2h-0.3
				c-0.1,0-0.2,0.1-0.2,0.2v9.3c0,0.1,0.1,0.2,0.2,0.2H339.8z"/>
		</g>
		<g clip-path="url(#SVGID_2_)">
			<text transform="matrix(1 0 0 1 344.7105 188.523)" fill="#3A3867" font-family="'EvelethCleanThin'" font-size="12.4917">i</text>
		</g>
		<g clip-path="url(#SVGID_2_)">
			<defs>
				<rect id="SVGID_7_" x="326.2" y="60" width="83.3" height="148.3"/>
			</defs>
			<clipPath id="SVGID_8_">
				<use xlink:href="#SVGID_7_"  overflow="visible"/>
			</clipPath>
			<path clip-path="url(#SVGID_8_)" fill="none" stroke="#3A3867" stroke-width="0.656" stroke-miterlimit="10" d="M346.1,188.3
				c0,0.1,0.1,0.2,0.2,0.2h0.3c0.1,0,0.2-0.1,0.2-0.2V179c0-0.1-0.1-0.2-0.2-0.2h-0.3c-0.1,0-0.2,0.1-0.2,0.2V188.3z"/>
		</g>
		<g clip-path="url(#SVGID_2_)">
			<text transform="matrix(1 0 0 1 353.1548 188.523)" fill="#3A3867" font-family="'EvelethCleanThin'" font-size="12.4917">t</text>
		</g>
		<g clip-path="url(#SVGID_2_)">
			<defs>
				<rect id="SVGID_9_" x="326.2" y="60" width="83.3" height="148.3"/>
			</defs>
			<clipPath id="SVGID_10_">
				<use xlink:href="#SVGID_9_"  overflow="visible"/>
			</clipPath>
			<path clip-path="url(#SVGID_10_)" fill="none" stroke="#3A3867" stroke-width="0.656" stroke-miterlimit="10" d="M356.8,179.5
				c0.1,0,0.2,0.1,0.2,0.2v8.6c0,0.1,0.1,0.2,0.2,0.2h0.3c0.1,0,0.2-0.1,0.2-0.2v-8.6c0-0.1,0.1-0.2,0.2-0.2h3.1
				c0.1,0,0.2-0.1,0.2-0.2V179c0-0.1-0.1-0.2-0.2-0.2h-7.3c-0.1,0-0.2,0.1-0.2,0.2v0.3c0,0.1,0.1,0.2,0.2,0.2H356.8z"/>
		</g>
		<g clip-path="url(#SVGID_2_)">
			<text transform="matrix(1 0 0 1 366.9698 188.523)" fill="#3A3867" font-family="'EvelethCleanThin'" font-size="12.4917">t</text>
		</g>
		<g clip-path="url(#SVGID_2_)">
			<defs>
				<rect id="SVGID_11_" x="326.2" y="60" width="83.3" height="148.3"/>
			</defs>
			<clipPath id="SVGID_12_">
				<use xlink:href="#SVGID_11_"  overflow="visible"/>
			</clipPath>
			<path clip-path="url(#SVGID_12_)" fill="none" stroke="#3A3867" stroke-width="0.656" stroke-miterlimit="10" d="M370.6,179.5
				c0.1,0,0.2,0.1,0.2,0.2v8.6c0,0.1,0.1,0.2,0.2,0.2h0.3c0.1,0,0.2-0.1,0.2-0.2v-8.6c0-0.1,0.1-0.2,0.2-0.2h3.1
				c0.1,0,0.2-0.1,0.2-0.2V179c0-0.1-0.1-0.2-0.2-0.2h-7.3c-0.1,0-0.2,0.1-0.2,0.2v0.3c0,0.1,0.1,0.2,0.2,0.2H370.6z"/>
		</g>
		<g clip-path="url(#SVGID_2_)">
			<text transform="matrix(1 0 0 1 380.3355 188.523)"><tspan x="0" y="0" fill="#3A3867" font-family="'EvelethCleanThin'" font-size="12.4917" letter-spacing="4">l</tspan><tspan x="13.1" y="0" fill="#3A3867" font-family="'EvelethCleanThin'" font-size="12.4917">e</tspan></text>
		</g>
		<g clip-path="url(#SVGID_2_)">
			<defs>
				<rect id="SVGID_13_" x="326.2" y="60" width="83.3" height="148.3"/>
			</defs>
			<clipPath id="SVGID_14_">
				<use xlink:href="#SVGID_13_"  overflow="visible"/>
			</clipPath>
			<path clip-path="url(#SVGID_14_)" fill="none" stroke="#3A3867" stroke-width="0.656" stroke-miterlimit="10" d="M387.9,188.5
				c0.1,0,0.2-0.1,0.2-0.2V188c0-0.1-0.1-0.2-0.2-0.2h-5.2c-0.1,0-0.2-0.1-0.2-0.2V179c0-0.1-0.1-0.2-0.2-0.2H382
				c-0.1,0-0.2,0.1-0.2,0.2v9.3c0,0.1,0.1,0.2,0.2,0.2H387.9z"/>
			<path clip-path="url(#SVGID_14_)" fill="none" stroke="#3A3867" stroke-width="0.656" stroke-miterlimit="10" d="M401.3,188.5
				c0.1,0,0.2-0.1,0.2-0.2V188c0-0.1-0.1-0.2-0.2-0.2h-5.6c-0.1,0-0.2-0.1-0.2-0.2v-3.4c0-0.1,0.1-0.2,0.2-0.2h4.7
				c0.1,0,0.2-0.1,0.2-0.2v-0.2c0-0.1-0.1-0.2-0.2-0.2h-4.7c-0.1,0-0.2-0.1-0.2-0.2v-3.5c0-0.1,0.1-0.2,0.2-0.2h5.6
				c0.1,0,0.2-0.1,0.2-0.2V179c0-0.1-0.1-0.2-0.2-0.2H395c-0.1,0-0.2,0.1-0.2,0.2v9.3c0,0.1,0.1,0.2,0.2,0.2H401.3z"/>
		</g>
		<g clip-path="url(#SVGID_2_)">
			<text transform="matrix(1 0 0 1 332.2808 202.378)" fill="#3A3B6C" font-family="'EvelethCleanRegular'" font-size="12.4919">m</text>
		</g>
		<g clip-path="url(#SVGID_2_)">
			<text transform="matrix(1 0 0 1 344.4356 202.378)" fill="#3A3B6C" font-family="'EvelethCleanRegular'" font-size="12.4919">o</text>
		</g>
		<g clip-path="url(#SVGID_2_)">
			<text transform="matrix(1 0 0 1 355.4283 202.378)" fill="#3A3B6C" font-family="'EvelethCleanRegular'" font-size="12.4919">n</text>
		</g>
		<g clip-path="url(#SVGID_2_)">
			<text transform="matrix(1 0 0 1 365.9464 202.378)"><tspan x="0" y="0" fill="#3A3B6C" font-family="'EvelethCleanRegular'" font-size="12.4919">st</tspan><tspan x="18.1" y="0" fill="#3A3B6C" font-family="'EvelethCleanRegular'" font-size="12.4919">e</tspan><tspan x="27" y="0" fill="#3A3B6C" font-family="'EvelethCleanRegular'" font-size="12.4919">r</tspan></text>
		</g>
		<polygon clip-path="url(#SVGID_2_)" fill="#C2DAE9" points="397.6,141.3 395.8,146.5 341.2,146.5 337.2,140.9 331.7,138.3 
			331.7,75.7 403.6,75.7 403.6,134.7 		"/>
		
			<polygon clip-path="url(#SVGID_2_)" fill="none" stroke="#FFFFFF" stroke-width="0.642" stroke-miterlimit="10" stroke-dasharray="6.414,6.414" points="
			393.9,138 392.3,142.6 344,142.6 340.4,137.6 335.6,135.3 335.6,80 399.2,80 399.2,132.2 		"/>
		<g clip-path="url(#SVGID_2_)">
			<defs>
				<rect id="SVGID_15_" x="326.2" y="60" width="83.3" height="148.3"/>
			</defs>
			<clipPath id="SVGID_16_">
				<use xlink:href="#SVGID_15_"  overflow="visible"/>
			</clipPath>
			<path clip-path="url(#SVGID_16_)" fill="#996FAE" d="M393.5,150.4c1.2,0.7,0.9,4.3,0.9,4.3c2.3-2.1,1.9-4.9,1.9-4.9
				c2.2,0.5,0.9,5.2,0.9,5.2c4.3-3.8,1.3-8.1,1.3-8.1c4.6,0.9,5.9-1.5,5.9-1.5c-3.8,0.5-3.5-2.7-3.5-2.7c1.5,0.8,2.6,0,2.6,0
				c-1.9-1.5-0.2-8.4-0.2-8.4c2.2,0.9,1.5,4.8,1.5,4.8c2-4.3-1.3-7.7-1.3-7.7c2-0.2,3.3,3.9,3.3,3.9c0.5-6-3.6-8.3-3.6-8.3
				c4.2,2.3,6-2.1,6-2.1c-5.1,2.2-7.8-3.7-7.8-3.7c2.5-0.4,3.6,0.8,3.6,0.8c-1.5-3.1-5.1-3.1-5.1-3.1c1.8-1.6,4.6,0,4.6,0
				c-2.2-3.7-6.5-2.1-6.5-2.1c3.5-1.2,3.4-6,3.4-6c-1.2,4.4-8.2,3-8.2,3c0.1-1.8,3.3-2.8,3.3-2.8c-3-0.5-6,1.8-6,1.8
				c1.7-1.2,0.7-2.7,0.7-2.7c0,2.1-3.6,1.9-3.6,1.9l-1.9-0.5c3.1,1,3.8-0.5,3.8-0.5c-2.2-1.1-1.6-3-1.6-3c0.7,1.2,1.4,1.2,1.4,1.2
				c-0.7-1.2-0.2-4.8-0.2-4.8c1.6,0.6,0.9,2.7,0.9,2.7c1.6-2.1-0.1-7.7-0.1-7.7c1.9,1.3,1.9,4.9,1.9,4.9c1.9-5.2-1.8-7.8-1.8-7.8
				c2.9,2.3,3.7-1.4,3.7-1.4c-2.8,1.6-4-3.4-4-3.4c1.4-0.8,2.4,1.3,2.4,1.3c-0.5-5.1-3.2-4.9-3.2-4.9c2.9-1.1,4.8,2.5,4.8,2.5
				c-1.2-7.2-6.3-6.7-6.3-6.7c0.9-1.6,3.3-0.9,3.3-0.9c-1.9-2.4-4.9-2.1-4.9-2.1c1.9,0,1.9-1.7,1.9-1.7c-2.1,0.7-3.8-1.1-3.8-1.1
				c2.3-2.1,5,0,5,0c-2-4.5-7.2-2.5-7.2-2.5c1.8-3.7,5-2.9,5-2.9c-4.5-3.5-9.1-0.5-9.1-0.5c0.1-0.4,0.3-0.7,0.5-1
				c1.3-1.7,4-2.8,4-2.8c-4.9-0.5-6.5,2.8-6.5,2.8c-0.4-2,1.9-3.7,1.9-3.7c-2.5,0.1-3.7,2.9-3.7,2.9c-1-2.7,2.5-5.9,2.5-5.9
				c-3,0.8-4.5,4.7-4.6,5.2c4-12.7-4.8-13.7-4.8-13.7c6.6,3.2,1.8,13.2,1.8,13.2c1.3-5.8-3.8-7-3.8-7c3.1,4.3,0,7.1,0,7.1
				s-2.5-2.4-0.6-4.5c0,0-2.9,1.4-1.7,4.9c0,0-4.7-3.5-1.9-8.5c0,0-5.2,3.5-2.3,9.9c0,0-3.6,0.8-5.9-2.4c0,0-0.5,1.1,0.2,2.6
				c0.3,0.7,0.9,1.4,1.9,2.1c0,0-4.8-3.2-8.7,1.8c0,0,4.9-1.7,6,0.8c0,0-4.1,3.1-8,2c0,0,2,2.3,5,1.7c0,0-2.9,0.3-3.3,2.8
				c0,0,1.3-1.1,1.9-0.5c0,0-1.7,3-4.8,2.5c0,0,1.2,2.2,2.8,2c0,0-4.8,0.8-5.3,7.1c0,0,2.3-3.4,4.3-3.4c0,0-3.4,2.3-2.6,6.4
				c0,0,1.1-3.3,2.2-3.5c0,0-0.3,6-2.4,6.6c0,0,0.9,1.6,2.2,1c0,0-4.3,2.9-3.6,7c0,0,1.8-3.6,4.5-3.8c0,0,0,3.2-2,4.6
				c0,0,1.1,0.4,3.1-1c0,0,0.7,3.2-1.9,3.2c0,0,1.4,1.3,4.2,0.9c0,0-3.2,1.7-7.2-0.9c0,0-0.3,1.8,1.8,2.5c0,0-4.1,0.5-6-3.1
				c0,0-0.8,3.5,2.6,4.5c0,0-6.4-2.4-9.9,3.1c0,0,4.4-2.6,5.8-0.1c0,0-5.4,1-5.8,4.3c0,0,1.8-1.5,3.4-1.1c0,0-2.6,5.7-6.7,9
				c0,0,3.4-0.2,4.3-1.5c0,0-5.5,2.7-4.3,10.1c0,0,1.7-4.9,4.3-4.8c0,0,0.5,2.7-1.5,4.8c0,0,1.4,0.1,2.1-1.5c0,0,0.5,3.1-1.4,5.2
				c0,0,2.2,0.5,2.9-0.4c0,0-3.3,5.1-2.2,10c0,0,0.8-5.2,4.4-5.7c0,0-2,6.1,1.4,8.6c0,0-1-3.9,1.1-5.3c0,0,0.6,3.1,4.1,3.1
				c0,0-0.7-4.1,1.4-5.4H390L393.5,150.4z"/>
			<path clip-path="url(#SVGID_16_)" fill="#3A3B6C" d="M365.8,131c0,0-0.8,2.8,1.4,3c0,0-1.1,1-2.8,0.3c0,0,1.7,2.7-0.4,7.1
				c0,0,0.2-3.7-0.5-5.2c0,0,0.6,2.5-0.7,3.8c0,0,0.5-1.1-0.3-1.7c0,0-1.8,2.8-0.6,5.8c0,0-1.1,0-1.6-1.4c0,0,0.4,7.4-1.7,9.3
				c0,0,0.8-4-0.1-4.9c0,0-1,1.8-0.5,4.2c0,0-1.6-0.7-1.2-2.4c0,0-2.2,3.2-0.6,6.9c0,0-2.3-0.2-2-2.9c0,0-0.9,1.8-0.4,2.9
				c0,0-0.7-0.2-0.8-1.4c-3.3,4.8-9.1,0.5-9.1,0.5c-6.9-3.6,1.4-13.3,1.4-13.3c-1.2,0.5-2.1-0.4-2.1-0.4c1.7,0,3.2-3.1,3.2-3.1
				c-1.8-0.7-3.9,1.3-3.9,1.3c1.7-4.6,5.2-4,5.2-4c-1.9,0.4-2.5-1.1-2.5-1.1c2.1,0.3,5.1-3.1,5.1-3.1c-1-0.3-2.3,0.3-2.3,0.3
				c0.8-2.2,4-2.3,4-2.3c-1.3-1.1-3.5,0.3-3.5,0.3c1.2-3,5.2-2.1,5.2-2.1c-0.8,0-1.1-1.2-1.1-1.2c1.4,0.5,3.5-1,3.5-1
				c-1.3-1.1-3.9-0.4-3.9-0.4c2.2-3.1,5.4-0.8,5.4-0.8c-13.3-9.8-11.5-16.7-11.5-16.7s2.1,5.1,6.6,7.8c0,0-4.7-4-3-12
				c0,0,0.2,8,5.8,10.7c0,0-2.5-2.7-1.2-8.2c0,0,0.7,4.5,2.6,6.3c2.1,2,3.8,3.3,5.3,4.3c0,0,1.4,1,1.4,1c1.1,0.7,2.3,1.7,2.9,2.9
				c0.7,1.4,0.9,3,0.9,4.5C367.4,126.8,366.4,128.9,365.8,131"/>
			<path clip-path="url(#SVGID_16_)" fill="#3A3B6C" d="M382.2,154.3c-1.1,0.6-0.3,3.4-0.3,3.4c-3.8-2.2-2.5-7.5-2.5-7.5
				c-1.8,1.1-1.3,3.5-1.3,3.5c-2.1-1.4-0.2-6-0.2-6c-0.8,1.8-2.1,1.6-2.1,1.6c0.8-2.6-0.5-5.6-0.2-5.8c-0.6,0-0.9,1.9-0.9,1.9
				c-1.3-1.6-0.5-4.5-0.5-4.5c-2.3,1.3-1.5,5.4-1.5,5.4c-3.2-4.5-0.2-8.8-0.2-8.8c-0.9,1.3-2.4,0.6-2.4,0.6c1.4,0,1.3-3.1,1.3-3.1
				c-2.2,0.4-2.8,3.8-2.8,3.8c-1.6-3.8,1.4-7,1.4-7c-1.9,1.3-2.9,0.4-2.9,0.4c2-2,1.2-5.5,1.2-5.5c-1.2-9.1,3.1-7.9,10.2-15
				c2-2,2.6-6.3,2.6-6.3c1.3,5.1-1.2,8.2-1.2,8.2c5.8-3.2,5.8-10.7,5.8-10.7c1.8,8-3,12-3,12c5-3.2,6.5-8.1,6.5-8.1
				s2.5,6.3-11.4,16.9c0,0,3,2,5.9-0.4c0,0-0.1,2.5-2.7,3.3c0,0,1.2-0.7,3.1,0c0,0-1.5-0.1-1.9,1.2c0,0,3.1,2.3,4.9-0.6
				c0,0,0,2.3-2.7,3c0,0,3.1-1.1,6.6,1.8c0,0-3.6-1-5,0.3c0,0,2.4-0.1,3.8,2c0,0-1.7-1.1-2.4,0.3c0,0,4,0.1,4.1,4.8
				c0,0-0.8-1.8-2.3-1c0,0,0.9,2.1,2.3,2.6c0,0-0.3,0.5-1.4,0c0,0,1.6,3.2,4.7,1.9c0,0,0,2.1-2.5,1.8c0.1,0,0.3,0.5,0.4,0.6
				c0.3,0.5,0.6,1,0.8,1.5c0.6,1.3,1.2,2.8,1.1,4.3c-0.1,1.8-1.7,2.9-3.1,3.8c-1.3,0.8-2.7,1.4-4.1,1.6
				C385.1,156.9,383.3,156,382.2,154.3"/>
			<polygon clip-path="url(#SVGID_16_)" fill="#FFFFFF" points="361.2,105 362.7,98.6 364.6,106.4 			"/>
			
				<path clip-path="url(#SVGID_16_)" fill="none" stroke="#FFFFFF" stroke-width="1.283" stroke-linecap="round" stroke-miterlimit="10" d="
				M359.5,103.2c0,0,7.6,7.9,16.2,0"/>
			<path clip-path="url(#SVGID_16_)" fill="#FFFFFF" d="M365.7,88.8c0,3.4-2.8,6.2-6.2,6.2c-3.4,0-6.2-2.8-6.2-6.2
				c0-3.4,2.8-6.2,6.2-6.2C363,82.6,365.7,85.3,365.7,88.8"/>
			<path clip-path="url(#SVGID_16_)" fill="#FFFFFF" d="M381.9,88.8c0,3.4-2.8,6.2-6.2,6.2c-3.4,0-6.2-2.8-6.2-6.2
				c0-3.4,2.8-6.2,6.2-6.2C379.2,82.6,381.9,85.3,381.9,88.8"/>
			<path clip-path="url(#SVGID_16_)" fill="#3A3867" d="M378.6,88.8c0,1.6-1.3,2.8-2.8,2.8c-1.6,0-2.8-1.3-2.8-2.8
				c0-1.6,1.3-2.8,2.8-2.8C377.3,85.9,378.6,87.2,378.6,88.8"/>
			<path clip-path="url(#SVGID_16_)" fill="#3A3867" d="M362.4,88.8c0,1.6-1.3,2.8-2.8,2.8c-1.6,0-2.8-1.3-2.8-2.8
				c0-1.6,1.3-2.8,2.8-2.8C361.1,85.9,362.4,87.2,362.4,88.8"/>
			<polygon clip-path="url(#SVGID_16_)" fill="#FFFFFF" points="374,105 372.5,98.6 370.6,106.4 			"/>
			<polygon clip-path="url(#SVGID_16_)" fill="#FFFFFF" points="148.2,-339.7 137.7,-355.9 134.6,-332.5 			"/>
		</g>
		<g clip-path="url(#SVGID_2_)">
			<text transform="matrix(1 0 0 1 326.4254 561.5606)"><tspan x="0" y="0" fill="#3A3B6C" font-family="'EvelethCleanRegular'" font-size="9.4218">P</tspan><tspan x="6.7" y="0" fill="#3A3B6C" font-family="'EvelethCleanRegular'" font-size="9.4218">E</tspan><tspan x="13.7" y="0" fill="#3A3B6C" font-family="'EvelethCleanRegular'" font-size="9.4218">Y</tspan><tspan x="21.7" y="0" fill="#3A3B6C" font-family="'EvelethCleanRegular'" font-size="9.4218">T</tspan><tspan x="28.3" y="0" fill="#3A3B6C" font-family="'EvelethCleanRegular'" font-size="9.4218">O</tspan><tspan x="36.4" y="0" fill="#3A3B6C" font-family="'EvelethCleanRegular'" font-size="9.4218">N </tspan><tspan x="46.9" y="0" fill="#3A3B6C" font-family="'EvelethCleanRegular'" font-size="9.4218">B</tspan><tspan x="54" y="0" fill="#3A3B6C" font-family="'EvelethCleanRegular'" font-size="9.4218">A</tspan><tspan x="61.7" y="0" fill="#3A3B6C" font-family="'EvelethCleanRegular'" font-size="9.4218">N</tspan><tspan x="69.4" y="0" fill="#3A3B6C" font-family="'EvelethCleanRegular'" font-size="9.4218">K</tspan><tspan x="76.3" y="0" fill="#3A3B6C" font-family="'EvelethCleanRegular'" font-size="9.4218">S</tspan></text>
		</g>
		<g clip-path="url(#SVGID_2_)">
			<text transform="matrix(1 0 0 1 326.7623 571.1104)"><tspan x="0" y="0" fill="#3A3B6C" font-family="'ProximaNova-Regular'" font-size="6.8522">F</tspan><tspan x="3.7" y="0" fill="#3A3B6C" font-family="'ProximaNova-Regular'" font-size="6.8522">A</tspan><tspan x="8.4" y="0" fill="#3A3B6C" font-family="'ProximaNova-Regular'" font-size="6.8522">S</tspan><tspan x="12.6" y="0" fill="#3A3B6C" font-family="'ProximaNova-Regular'" font-size="6.8522">H</tspan><tspan x="17.6" y="0" fill="#3A3B6C" font-family="'ProximaNova-Regular'" font-size="6.8522">I</tspan><tspan x="19.3" y="0" fill="#3A3B6C" font-family="'ProximaNova-Regular'" font-size="6.8522">O</tspan><tspan x="24.7" y="0" fill="#3A3B6C" font-family="'ProximaNova-Regular'" font-size="6.8522">N </tspan><tspan x="31.3" y="0" fill="#3A3B6C" font-family="'ProximaNova-Regular'" font-size="6.8522">D</tspan><tspan x="35.9" y="0" fill="#3A3B6C" font-family="'ProximaNova-Regular'" font-size="6.8522">E</tspan><tspan x="40" y="0" fill="#3A3B6C" font-family="'ProximaNova-Regular'" font-size="6.8522">S</tspan><tspan x="44.1" y="0" fill="#3A3B6C" font-family="'ProximaNova-Regular'" font-size="6.8522">I</tspan><tspan x="45.9" y="0" fill="#3A3B6C" font-family="'ProximaNova-Regular'" font-size="6.8522">G</tspan><tspan x="50.9" y="0" fill="#3A3B6C" font-family="'ProximaNova-Regular'" font-size="6.8522">N</tspan><tspan x="55.8" y="0" fill="#3A3B6C" font-family="'ProximaNova-Regular'" font-size="6.8522">E</tspan><tspan x="59.8" y="0" fill="#3A3B6C" font-family="'ProximaNova-Regular'" font-size="6.8522">R</tspan></text>
		</g>
		<g clip-path="url(#SVGID_2_)">
			<text transform="matrix(1 0 0 1 326.2369 593.252)"><tspan x="0" y="0" fill="#3A3B6C" font-family="'ProximaNova-Regular'" font-size="5.9957">i</tspan><tspan x="1.5" y="0" fill="#3A3B6C" font-family="'ProximaNova-Regular'" font-size="5.9957">n</tspan><tspan x="4.9" y="0" fill="#3A3B6C" font-family="'ProximaNova-Regular'" font-size="5.9957">f</tspan><tspan x="6.7" y="0" fill="#3A3B6C" font-family="'ProximaNova-Regular'" font-size="5.9957">o</tspan><tspan x="10.3" y="0" fill="#3A3B6C" font-family="'ProximaNova-Regular'" font-size="5.9957">@</tspan><tspan x="15.1" y="0" fill="#3A3B6C" font-family="'ProximaNova-Regular'" font-size="5.9957">l</tspan><tspan x="16.6" y="0" fill="#3A3B6C" font-family="'ProximaNova-Regular'" font-size="5.9957">i</tspan><tspan x="18.1" y="0" fill="#3A3B6C" font-family="'ProximaNova-Regular'" font-size="5.9957">t</tspan><tspan x="20.1" y="0" fill="#3A3B6C" font-family="'ProximaNova-Regular'" font-size="5.9957">t</tspan><tspan x="22.1" y="0" fill="#3A3B6C" font-family="'ProximaNova-Regular'" font-size="5.9957">l</tspan><tspan x="23.5" y="0" fill="#3A3B6C" font-family="'ProximaNova-Regular'" font-size="5.9957">e</tspan><tspan x="27" y="0" fill="#3A3B6C" font-family="'ProximaNova-Regular'" font-size="5.9957">mo</tspan><tspan x="35.6" y="0" fill="#3A3B6C" font-family="'ProximaNova-Regular'" font-size="5.9957">n</tspan><tspan x="39" y="0" fill="#3A3B6C" font-family="'ProximaNova-Regular'" font-size="5.9957">s</tspan><tspan x="42" y="0" fill="#3A3B6C" font-family="'ProximaNova-Regular'" font-size="5.9957">t</tspan><tspan x="43.8" y="0" fill="#3A3B6C" font-family="'ProximaNova-Regular'" font-size="5.9957">e</tspan><tspan x="47.3" y="0" fill="#3A3B6C" font-family="'ProximaNova-Regular'" font-size="5.9957">r</tspan><tspan x="49.1" y="0" fill="#3A3B6C" font-family="'ProximaNova-Regular'" font-size="5.9957">.</tspan><tspan x="50.5" y="0" fill="#3A3B6C" font-family="'ProximaNova-Regular'" font-size="5.9957">c</tspan><tspan x="53.5" y="0" fill="#3A3B6C" font-family="'ProximaNova-Regular'" font-size="5.9957">o</tspan><tspan x="57.1" y="0" fill="#3A3B6C" font-family="'ProximaNova-Regular'" font-size="5.9957">m</tspan></text>
		</g>
		<g clip-path="url(#SVGID_2_)">
			<text transform="matrix(1 0 0 1 326.2369 620.6778)"><tspan x="0" y="0" fill="#3A3B6C" font-family="'ProximaNova-Regular'" font-size="5.9957">1</tspan><tspan x="2.1" y="0" fill="#3A3B6C" font-family="'ProximaNova-Regular'" font-size="5.9957">4</tspan><tspan x="5.6" y="0" fill="#3A3B6C" font-family="'ProximaNova-Regular'" font-size="5.9957">0 </tspan><tspan x="10.9" y="0" fill="#3A3B6C" font-family="'ProximaNova-Regular'" font-size="5.9957">E</tspan><tspan x="14.4" y="0" fill="#3A3B6C" font-family="'ProximaNova-Regular'" font-size="5.9957">. </tspan><tspan x="17.4" y="0" fill="#3A3B6C" font-family="'ProximaNova-Regular'" font-size="5.9957">B</tspan><tspan x="21.3" y="0" fill="#3A3B6C" font-family="'ProximaNova-Regular'" font-size="5.9957">r</tspan><tspan x="23.4" y="0" fill="#3A3B6C" font-family="'ProximaNova-Regular'" font-size="5.9957">o</tspan><tspan x="26.9" y="0" fill="#3A3B6C" font-family="'ProximaNova-Regular'" font-size="5.9957">a</tspan><tspan x="30.2" y="0" fill="#3A3B6C" font-family="'ProximaNova-Regular'" font-size="5.9957">d</tspan><tspan x="33.8" y="0" fill="#3A3B6C" font-family="'ProximaNova-Regular'" font-size="5.9957">w</tspan><tspan x="38.3" y="0" fill="#3A3B6C" font-family="'ProximaNova-Regular'" font-size="5.9957">a</tspan><tspan x="41.5" y="0" fill="#3A3B6C" font-family="'ProximaNova-Regular'" font-size="5.9957">y</tspan></text>
		</g>
		<g clip-path="url(#SVGID_2_)">
			<text transform="matrix(1 0 0 1 326.2369 627.8731)"><tspan x="0" y="0" fill="#3A3B6C" font-family="'ProximaNova-Regular'" font-size="5.9957">Ja</tspan><tspan x="6.2" y="0" fill="#3A3B6C" font-family="'ProximaNova-Regular'" font-size="5.9957">c</tspan><tspan x="9.3" y="0" fill="#3A3B6C" font-family="'ProximaNova-Regular'" font-size="5.9957">k</tspan><tspan x="12.5" y="0" fill="#3A3B6C" font-family="'ProximaNova-Regular'" font-size="5.9957">s</tspan><tspan x="15.4" y="0" fill="#3A3B6C" font-family="'ProximaNova-Regular'" font-size="5.9957">o</tspan><tspan x="19" y="0" fill="#3A3B6C" font-family="'ProximaNova-Regular'" font-size="5.9957">n</tspan><tspan x="22.4" y="0" fill="#3A3B6C" font-family="'ProximaNova-Regular'" font-size="5.9957">, </tspan><tspan x="25.4" y="0" fill="#3A3B6C" font-family="'ProximaNova-Regular'" font-size="5.9957">W</tspan><tspan x="31" y="0" fill="#3A3B6C" font-family="'ProximaNova-Regular'" font-size="5.9957">Y </tspan><tspan x="36.3" y="0" fill="#3A3B6C" font-family="'ProximaNova-Regular'" font-size="5.9957">8</tspan><tspan x="40" y="0" fill="#3A3B6C" font-family="'ProximaNova-Regular'" font-size="5.9957">3</tspan><tspan x="43.4" y="0" fill="#3A3B6C" font-family="'ProximaNova-Regular'" font-size="5.9957">0</tspan><tspan x="47.3" y="0" fill="#3A3B6C" font-family="'ProximaNova-Regular'" font-size="5.9957">0</tspan><tspan x="51.1" y="0" fill="#3A3B6C" font-family="'ProximaNova-Regular'" font-size="5.9957">1</tspan></text>
		</g>
		<g clip-path="url(#SVGID_2_)">
			<text transform="matrix(1 0 0 1 326.2369 606.9649)"><tspan x="0" y="0" fill="#3A3B6C" font-family="'ProximaNova-Regular'" font-size="5.9957">3</tspan><tspan x="3.5" y="0" fill="#3A3B6C" font-family="'ProximaNova-Regular'" font-size="5.9957">0</tspan><tspan x="7.2" y="0" fill="#3A3B6C" font-family="'ProximaNova-Regular'" font-size="5.9957">7</tspan><tspan x="10.2" y="0" fill="#3A3B6C" font-family="'ProximaNova-Regular'" font-size="5.9957">-</tspan><tspan x="11.9" y="0" fill="#3A3B6C" font-family="'ProximaNova-Regular'" font-size="5.9957">7</tspan><tspan x="15.2" y="0" fill="#3A3B6C" font-family="'ProximaNova-Regular'" font-size="5.9957">3</tspan><tspan x="18.6" y="0" fill="#3A3B6C" font-family="'ProximaNova-Regular'" font-size="5.9957">9</tspan><tspan x="22.5" y="0" fill="#3A3B6C" font-family="'ProximaNova-Regular'" font-size="5.9957">-</tspan><tspan x="24.2" y="0" fill="#3A3B6C" font-family="'ProximaNova-Regular'" font-size="5.9957">2</tspan><tspan x="27.8" y="0" fill="#3A3B6C" font-family="'ProximaNova-Regular'" font-size="5.9957">2</tspan><tspan x="31.3" y="0" fill="#3A3B6C" font-family="'ProximaNova-Regular'" font-size="5.9957">5</tspan><tspan x="35" y="0" fill="#3A3B6C" font-family="'ProximaNova-Regular'" font-size="5.9957">8</tspan></text>
		</g>
		<g clip-path="url(#SVGID_2_)">
			<text transform="matrix(1 0 0 1 469.7388 153.9581)"><tspan x="0" y="0" fill="#3A3B6C" font-family="'ProximaNova-Bold'" font-size="8.5653">OC</tspan><tspan x="12.4" y="0" fill="#3A3B6C" font-family="'ProximaNova-Bold'" font-size="8.5653">T</tspan><tspan x="17.2" y="0" fill="#3A3B6C" font-family="'ProximaNova-Bold'" font-size="8.5653">OBER 3</tspan><tspan x="47.2" y="0" fill="#3A3B6C" font-family="'ProximaNova-Bold'" font-size="8.5653">0</tspan><tspan x="52.3" y="0" fill="#3A3B6C" font-family="'ProximaNova-Bold'" font-size="8.5653">, 2014</tspan></text>
		</g>
		<g clip-path="url(#SVGID_2_)">
			<text transform="matrix(1 0 0 1 469.7388 177.5128)"><tspan x="0" y="0" fill="#373535" font-family="'ProximaNova-Regular'" font-size="8.5653">Dear </tspan><tspan x="20.4" y="0" fill="#373535" font-family="'ProximaNova-Regular'" font-size="8.5653">V</tspan><tspan x="25.5" y="0" fill="#373535" font-family="'ProximaNova-Regular'" font-size="8.5653">alued Custome</tspan><tspan x="82.2" y="0" fill="#373535" font-family="'ProximaNova-Regular'" font-size="8.5653">r</tspan><tspan x="84.4" y="0" fill="#373535" font-family="'ProximaNova-Regular'" font-size="8.5653">,</tspan></text>
		</g>
		<g clip-path="url(#SVGID_2_)">
			<text transform="matrix(1 0 0 1 469.7388 201.4952)" fill="#373535" font-family="'ProximaNova-Regular'" font-size="8.5653">Qui ommost eumquo et earitenisque dus volupicia sequatur autatet </text>
		</g>
		<g clip-path="url(#SVGID_2_)">
			<text transform="matrix(1 0 0 1 469.7388 215.1998)" fill="#373535" font-family="'ProximaNova-Regular'" font-size="8.5653">quis doluptum ipsam incimin veliquam re et, quam lauditati cullatus </text>
		</g>
		<g clip-path="url(#SVGID_2_)">
			<text transform="matrix(1 0 0 1 469.7388 228.9044)" fill="#373535" font-family="'ProximaNova-Regular'" font-size="8.5653">corempore comnis eatusci rem. Ita aditati uscipsuntem volor </text>
		</g>
		<path clip-path="url(#SVGID_2_)" fill="#373535" d="M470,242.1l0.3-0.5c0.3,0.3,0.8,0.6,1.4,0.6c0.6,0,1-0.3,1-0.7
			c0-1-2.6-0.4-2.6-1.9c0-0.6,0.6-1.2,1.5-1.2c0.7,0,1.2,0.3,1.5,0.6l-0.3,0.4c-0.2-0.3-0.7-0.5-1.2-0.5c-0.6,0-0.9,0.3-0.9,0.7
			c0,0.9,2.6,0.3,2.6,1.9c0,0.7-0.6,1.2-1.6,1.2C471,242.7,470.4,242.5,470,242.1z M474.3,237.5c0-0.2,0.2-0.4,0.4-0.4
			c0.2,0,0.4,0.2,0.4,0.4c0,0.2-0.2,0.4-0.4,0.4C474.4,237.9,474.3,237.7,474.3,237.5z M474.4,242.6v-4.1h0.6v4.1H474.4z
			 M476.4,241.7V239h-0.7v-0.6h0.7v-1.1h0.6v1.1h0.8v0.6h-0.8v2.6c0,0.3,0.1,0.5,0.4,0.5c0.2,0,0.4-0.1,0.4-0.2l0.2,0.5
			c-0.2,0.2-0.4,0.3-0.8,0.3C476.7,242.7,476.4,242.4,476.4,241.7z M478.7,237.5c0-0.2,0.2-0.4,0.4-0.4c0.2,0,0.4,0.2,0.4,0.4
			c0,0.2-0.2,0.4-0.4,0.4C478.9,237.9,478.7,237.7,478.7,237.5z M478.8,242.6v-4.1h0.6v4.1H478.8z M483.3,242.6v-0.5
			c-0.3,0.4-0.8,0.6-1.4,0.6c-0.7,0-1.4-0.5-1.4-1.4c0-0.9,0.7-1.4,1.4-1.4c0.6,0,1,0.2,1.4,0.6v-0.7c0-0.6-0.4-0.9-1-0.9
			c-0.5,0-0.9,0.2-1.3,0.6l-0.3-0.4c0.4-0.5,1-0.7,1.7-0.7c0.9,0,1.6,0.4,1.6,1.4v2.8H483.3z M483.3,241.7V241
			c-0.2-0.3-0.7-0.5-1.1-0.5c-0.6,0-1,0.4-1,0.9c0,0.5,0.4,0.9,1,0.9C482.6,242.2,483.1,242.1,483.3,241.7z M488,242.6v-2.7
			c0-0.7-0.4-1-0.9-1c-0.5,0-1,0.3-1.2,0.6v3h-0.6v-4.1h0.6v0.6c0.3-0.3,0.9-0.7,1.5-0.7c0.9,0,1.3,0.4,1.3,1.3v2.9H488z
			 M489.9,237.5c0-0.2,0.2-0.4,0.4-0.4c0.2,0,0.4,0.2,0.4,0.4c0,0.2-0.2,0.4-0.4,0.4C490.1,237.9,489.9,237.7,489.9,237.5z
			 M490,242.6v-4.1h0.6v4.1H490z M496.9,242.6v-2.8c0-0.5-0.2-0.9-0.8-0.9c-0.4,0-0.9,0.3-1.1,0.6v3h-0.6v-2.8
			c0-0.5-0.2-0.9-0.8-0.9c-0.4,0-0.9,0.3-1.1,0.6v3h-0.6v-4.1h0.6v0.6c0.2-0.3,0.7-0.7,1.3-0.7c0.6,0,1,0.3,1.1,0.8
			c0.2-0.4,0.8-0.8,1.4-0.8c0.8,0,1.2,0.4,1.2,1.2v3H496.9z M498.7,237.5c0-0.2,0.2-0.4,0.4-0.4c0.2,0,0.4,0.2,0.4,0.4
			c0,0.2-0.2,0.4-0.4,0.4C498.9,237.9,498.7,237.7,498.7,237.5z M498.8,242.6v-4.1h0.6v4.1H498.8z M503.5,242.6v-2.7
			c0-0.7-0.4-1-0.9-1c-0.5,0-1,0.3-1.2,0.6v3h-0.6v-4.1h0.6v0.6c0.3-0.3,0.9-0.7,1.5-0.7c0.9,0,1.3,0.4,1.3,1.3v2.9H503.5z
			 M505.6,241.7V239h-0.7v-0.6h0.7v-1.1h0.6v1.1h0.8v0.6h-0.8v2.6c0,0.3,0.1,0.5,0.4,0.5c0.2,0,0.4-0.1,0.4-0.2l0.2,0.5
			c-0.2,0.2-0.4,0.3-0.8,0.3C505.9,242.7,505.6,242.4,505.6,241.7z M510,240.5c0-1.2,0.8-2.2,2-2.2s2,1,2,2.2c0,1.2-0.8,2.2-2,2.2
			S510,241.7,510,240.5z M513.4,240.5c0-0.8-0.5-1.6-1.4-1.6c-0.9,0-1.4,0.8-1.4,1.6c0,0.8,0.5,1.6,1.4,1.6
			C512.9,242.1,513.4,241.4,513.4,240.5z M515.3,242.6V239h-0.7v-0.6h0.7v-0.3c0-0.8,0.5-1.3,1.2-1.3c0.3,0,0.6,0.1,0.9,0.3
			l-0.3,0.4c-0.1-0.1-0.3-0.2-0.5-0.2c-0.4,0-0.7,0.3-0.7,0.8v0.3h0.8v0.6h-0.8v3.6H515.3z M517.7,242.6V239H517v-0.6h0.7v-0.3
			c0-0.9,0.5-1.3,1.2-1.3c0.2,0,0.5,0,0.6,0.1l-0.2,0.5c-0.1-0.1-0.2-0.1-0.4-0.1c-0.4,0-0.7,0.3-0.7,0.8v0.3h0.8v0.6h-0.8v3.6
			H517.7z M519.8,237.5c0-0.2,0.2-0.4,0.4-0.4c0.2,0,0.4,0.2,0.4,0.4c0,0.2-0.2,0.4-0.4,0.4C520,237.9,519.8,237.7,519.8,237.5z
			 M519.9,242.6v-4.1h0.6v4.1H519.9z M521.6,240.5c0-1.2,0.8-2.2,2.1-2.2c0.8,0,1.2,0.3,1.5,0.7l-0.4,0.4c-0.3-0.4-0.6-0.5-1.1-0.5
			c-0.9,0-1.4,0.7-1.4,1.6c0,0.9,0.5,1.6,1.4,1.6c0.4,0,0.8-0.2,1.1-0.5l0.4,0.4c-0.3,0.4-0.8,0.7-1.5,0.7
			C522.5,242.7,521.6,241.8,521.6,240.5z M528.5,241.7V239h-0.7v-0.6h0.7v-1.1h0.6v1.1h0.8v0.6h-0.8v2.6c0,0.3,0.1,0.5,0.4,0.5
			c0.2,0,0.4-0.1,0.4-0.2l0.2,0.5c-0.2,0.2-0.4,0.3-0.8,0.3C528.8,242.7,528.5,242.4,528.5,241.7z M530.6,240.5c0-1.2,0.8-2.2,2-2.2
			c1.3,0,2,1,2,2.2c0,1.2-0.8,2.2-2,2.2C531.4,242.7,530.6,241.7,530.6,240.5z M534,240.5c0-0.8-0.5-1.6-1.4-1.6
			c-0.9,0-1.4,0.8-1.4,1.6c0,0.8,0.5,1.6,1.4,1.6C533.5,242.1,534,241.4,534,240.5z M537.7,240.5c0-1.3,0.8-2.2,1.8-2.2
			c0.6,0,1.1,0.3,1.4,0.7v-0.6h0.6v5.7h-0.6V242c-0.3,0.5-0.8,0.7-1.4,0.7C538.4,242.7,537.7,241.9,537.7,240.5z M540.9,241.5v-1.9
			c-0.2-0.4-0.7-0.7-1.2-0.7c-0.8,0-1.3,0.7-1.3,1.6c0,0.9,0.5,1.6,1.3,1.6C540.2,242.1,540.7,241.8,540.9,241.5z M545.6,242.6V242
			c-0.3,0.4-0.9,0.7-1.5,0.7c-0.9,0-1.3-0.4-1.3-1.3v-2.9h0.6v2.7c0,0.7,0.4,0.9,0.9,0.9c0.5,0,1-0.3,1.2-0.6v-3h0.6v4.1H545.6z
			 M547.5,237.5c0-0.2,0.2-0.4,0.4-0.4c0.2,0,0.4,0.2,0.4,0.4c0,0.2-0.2,0.4-0.4,0.4C547.7,237.9,547.5,237.7,547.5,237.5z
			 M547.6,242.6v-4.1h0.6v4.1H547.6z M551.7,242.6v-4.1h0.6v0.7c0.3-0.4,0.8-0.8,1.4-0.8v0.7c-0.1,0-0.2,0-0.3,0
			c-0.4,0-0.9,0.3-1.1,0.7v2.9H551.7z M554.3,240.5c0-1.2,0.9-2.2,2-2.2c1.2,0,2,1,2,2.2v0.2H555c0.1,0.8,0.6,1.4,1.5,1.4
			c0.5,0,1-0.2,1.3-0.5l0.3,0.4c-0.4,0.4-1,0.6-1.6,0.6C555.2,242.7,554.3,241.8,554.3,240.5z M556.3,238.9c-0.9,0-1.3,0.7-1.4,1.4
			h2.7C557.7,239.7,557.3,238.9,556.3,238.9z M559.4,242.6v-4.1h0.6v0.7c0.3-0.4,0.8-0.8,1.4-0.8v0.7c-0.1,0-0.2,0-0.3,0
			c-0.4,0-0.9,0.3-1.1,0.7v2.9H559.4z M565,242.6V242c-0.3,0.4-0.9,0.7-1.5,0.7c-0.9,0-1.3-0.4-1.3-1.3v-2.9h0.6v2.7
			c0,0.7,0.4,0.9,0.9,0.9c0.5,0,1-0.3,1.2-0.6v-3h0.6v4.1H565z M571.9,242.6v-2.8c0-0.5-0.2-0.9-0.8-0.9c-0.4,0-0.9,0.3-1.1,0.6v3
			h-0.6v-2.8c0-0.5-0.2-0.9-0.8-0.9c-0.4,0-0.9,0.3-1.1,0.6v3h-0.6v-4.1h0.6v0.6c0.2-0.3,0.7-0.7,1.3-0.7c0.6,0,1,0.3,1.1,0.8
			c0.2-0.4,0.8-0.8,1.4-0.8c0.8,0,1.2,0.4,1.2,1.2v3H571.9z M576.2,242.6V239h-0.7v-0.6h0.7v-0.3c0-0.8,0.5-1.3,1.2-1.3
			c0.3,0,0.6,0.1,0.9,0.3l-0.3,0.4c-0.1-0.1-0.3-0.2-0.5-0.2c-0.4,0-0.7,0.3-0.7,0.8v0.3h0.8v0.6h-0.8v3.6H576.2z M581,242.6v-0.5
			c-0.3,0.4-0.8,0.6-1.4,0.6c-0.7,0-1.4-0.5-1.4-1.4c0-0.9,0.7-1.4,1.4-1.4c0.6,0,1,0.2,1.4,0.6v-0.7c0-0.6-0.4-0.9-1-0.9
			c-0.5,0-0.9,0.2-1.3,0.6l-0.3-0.4c0.4-0.5,1-0.7,1.7-0.7c0.9,0,1.6,0.4,1.6,1.4v2.8H581z M581,241.7V241c-0.2-0.3-0.7-0.5-1.1-0.5
			c-0.6,0-1,0.4-1,0.9c0,0.5,0.4,0.9,1,0.9C580.4,242.2,580.8,242.1,581,241.7z M582.7,240.5c0-1.2,0.8-2.2,2.1-2.2
			c0.8,0,1.2,0.3,1.5,0.7l-0.4,0.4c-0.3-0.4-0.6-0.5-1.1-0.5c-0.9,0-1.4,0.7-1.4,1.6c0,0.9,0.5,1.6,1.4,1.6c0.4,0,0.8-0.2,1.1-0.5
			l0.4,0.4c-0.3,0.4-0.8,0.7-1.5,0.7C583.6,242.7,582.7,241.8,582.7,240.5z M587.1,237.5c0-0.2,0.2-0.4,0.4-0.4
			c0.2,0,0.4,0.2,0.4,0.4c0,0.2-0.2,0.4-0.4,0.4C587.3,237.9,587.1,237.7,587.1,237.5z M587.2,242.6v-4.1h0.6v4.1H587.2z M589.8,242
			v2.2h-0.6v-5.7h0.6v0.6c0.3-0.4,0.8-0.7,1.4-0.7c1.1,0,1.8,0.8,1.8,2.2c0,1.3-0.8,2.2-1.8,2.2C590.6,242.7,590.1,242.4,589.8,242z
			 M592.3,240.5c0-0.9-0.5-1.6-1.3-1.6c-0.5,0-1,0.3-1.2,0.7v1.9c0.2,0.4,0.7,0.7,1.2,0.7C591.8,242.1,592.3,241.5,592.3,240.5z
			 M593.7,242.1l0.3-0.5c0.3,0.3,0.8,0.6,1.4,0.6c0.6,0,1-0.3,1-0.7c0-1-2.6-0.4-2.6-1.9c0-0.6,0.6-1.2,1.5-1.2
			c0.7,0,1.2,0.3,1.5,0.6l-0.3,0.4c-0.2-0.3-0.7-0.5-1.2-0.5c-0.6,0-0.9,0.3-0.9,0.7c0,0.9,2.6,0.3,2.6,1.9c0,0.7-0.6,1.2-1.6,1.2
			C594.7,242.7,594.1,242.5,593.7,242.1z M600.6,242.6v-0.5c-0.3,0.4-0.8,0.6-1.4,0.6c-0.7,0-1.4-0.5-1.4-1.4c0-0.9,0.7-1.4,1.4-1.4
			c0.6,0,1,0.2,1.4,0.6v-0.7c0-0.6-0.4-0.9-1-0.9c-0.5,0-0.9,0.2-1.3,0.6l-0.3-0.4c0.4-0.5,1-0.7,1.7-0.7c0.9,0,1.6,0.4,1.6,1.4v2.8
			H600.6z M600.6,241.7V241c-0.2-0.3-0.7-0.5-1.1-0.5c-0.6,0-1,0.4-1,0.9c0,0.5,0.4,0.9,1,0.9C599.9,242.2,600.4,242.1,600.6,241.7z
			 M607.5,242.6v-2.8c0-0.5-0.2-0.9-0.8-0.9c-0.4,0-0.9,0.3-1.1,0.6v3H605v-2.8c0-0.5-0.2-0.9-0.8-0.9c-0.4,0-0.9,0.3-1.1,0.6v3
			h-0.6v-4.1h0.6v0.6c0.2-0.3,0.7-0.7,1.3-0.7c0.6,0,1,0.3,1.1,0.8c0.2-0.4,0.8-0.8,1.4-0.8c0.8,0,1.2,0.4,1.2,1.2v3H607.5z
			 M609.6,243.7l-0.3-0.3c0.3-0.2,0.5-0.5,0.6-0.8c0,0-0.1,0-0.1,0c-0.2,0-0.4-0.2-0.4-0.4c0-0.2,0.2-0.5,0.5-0.5
			c0.3,0,0.5,0.2,0.5,0.7C610.3,242.9,610,243.4,609.6,243.7z M613.4,240.5c0-1.3,0.8-2.2,1.8-2.2c0.6,0,1.1,0.3,1.4,0.7v-0.6h0.6
			v5.7h-0.6V242c-0.3,0.5-0.8,0.7-1.4,0.7C614.1,242.7,613.4,241.9,613.4,240.5z M616.6,241.5v-1.9c-0.2-0.4-0.7-0.7-1.2-0.7
			c-0.8,0-1.3,0.7-1.3,1.6c0,0.9,0.5,1.6,1.3,1.6C615.9,242.1,616.4,241.8,616.6,241.5z M621.3,242.6V242c-0.3,0.4-0.9,0.7-1.5,0.7
			c-0.9,0-1.3-0.4-1.3-1.3v-2.9h0.6v2.7c0,0.7,0.4,0.9,0.9,0.9c0.5,0,1-0.3,1.2-0.6v-3h0.6v4.1H621.3z M625.8,242.6v-0.5
			c-0.3,0.4-0.8,0.6-1.4,0.6c-0.7,0-1.4-0.5-1.4-1.4c0-0.9,0.7-1.4,1.4-1.4c0.6,0,1,0.2,1.4,0.6v-0.7c0-0.6-0.4-0.9-1-0.9
			c-0.5,0-0.9,0.2-1.3,0.6l-0.3-0.4c0.4-0.5,1-0.7,1.7-0.7c0.9,0,1.6,0.4,1.6,1.4v2.8H625.8z M625.8,241.7V241
			c-0.2-0.3-0.7-0.5-1.1-0.5c-0.6,0-1,0.4-1,0.9c0,0.5,0.4,0.9,1,0.9C625.2,242.2,625.6,242.1,625.8,241.7z M632.8,242.6v-2.8
			c0-0.5-0.2-0.9-0.8-0.9c-0.4,0-0.9,0.3-1.1,0.6v3h-0.6v-2.8c0-0.5-0.2-0.9-0.8-0.9c-0.4,0-0.9,0.3-1.1,0.6v3h-0.6v-4.1h0.6v0.6
			c0.2-0.3,0.7-0.7,1.3-0.7c0.6,0,1,0.3,1.1,0.8c0.2-0.4,0.8-0.8,1.4-0.8c0.8,0,1.2,0.4,1.2,1.2v3H632.8z M636.6,240.5
			c0-1.3,0.8-2.2,1.8-2.2c0.6,0,1.1,0.3,1.4,0.7v-0.6h0.6v5.7h-0.6V242c-0.3,0.5-0.8,0.7-1.4,0.7
			C637.4,242.7,636.6,241.9,636.6,240.5z M639.9,241.5v-1.9c-0.2-0.4-0.7-0.7-1.2-0.7c-0.8,0-1.3,0.7-1.3,1.6c0,0.9,0.5,1.6,1.3,1.6
			C639.1,242.1,639.6,241.8,639.9,241.5z M644.6,242.6V242c-0.3,0.4-0.9,0.7-1.5,0.7c-0.9,0-1.3-0.4-1.3-1.3v-2.9h0.6v2.7
			c0,0.7,0.4,0.9,0.9,0.9c0.5,0,1-0.3,1.2-0.6v-3h0.6v4.1H644.6z M646.3,240.5c0-1.2,0.8-2.2,2-2.2c1.3,0,2,1,2,2.2
			c0,1.2-0.8,2.2-2,2.2C647.1,242.7,646.3,241.7,646.3,240.5z M649.7,240.5c0-0.8-0.5-1.6-1.4-1.6c-0.9,0-1.4,0.8-1.4,1.6
			c0,0.8,0.5,1.6,1.4,1.6C649.2,242.1,649.7,241.4,649.7,240.5z M651.1,242.1l0.3-0.5c0.3,0.3,0.8,0.6,1.4,0.6c0.6,0,1-0.3,1-0.7
			c0-1-2.6-0.4-2.6-1.9c0-0.6,0.6-1.2,1.5-1.2c0.7,0,1.2,0.3,1.5,0.6l-0.3,0.4c-0.2-0.3-0.7-0.5-1.2-0.5c-0.6,0-0.9,0.3-0.9,0.7
			c0,0.9,2.6,0.3,2.6,1.9c0,0.7-0.6,1.2-1.6,1.2C652,242.7,651.5,242.5,651.1,242.1z M655,242.1l0.3-0.5c0.3,0.3,0.8,0.6,1.4,0.6
			c0.6,0,1-0.3,1-0.7c0-1-2.6-0.4-2.6-1.9c0-0.6,0.6-1.2,1.5-1.2c0.7,0,1.2,0.3,1.5,0.6l-0.3,0.4c-0.2-0.3-0.7-0.5-1.2-0.5
			c-0.6,0-0.9,0.3-0.9,0.7c0,0.9,2.6,0.3,2.6,1.9c0,0.7-0.6,1.2-1.6,1.2C656,242.7,655.5,242.5,655,242.1z M662.2,242.6V242
			c-0.3,0.4-0.9,0.7-1.5,0.7c-0.9,0-1.3-0.4-1.3-1.3v-2.9h0.6v2.7c0,0.7,0.4,0.9,0.9,0.9c0.5,0,1-0.3,1.2-0.6v-3h0.6v4.1H662.2z
			 M666.9,242.6v-2.7c0-0.7-0.4-1-0.9-1c-0.5,0-1,0.3-1.2,0.6v3h-0.6v-4.1h0.6v0.6c0.3-0.3,0.9-0.7,1.5-0.7c0.9,0,1.3,0.4,1.3,1.3
			v2.9H666.9z M668.9,241.7V239h-0.7v-0.6h0.7v-1.1h0.6v1.1h0.8v0.6h-0.8v2.6c0,0.3,0.1,0.5,0.4,0.5c0.2,0,0.4-0.1,0.4-0.2l0.2,0.5
			c-0.2,0.2-0.4,0.3-0.8,0.3C669.3,242.7,668.9,242.4,668.9,241.7z M674.1,242.6V242c-0.3,0.4-0.9,0.7-1.5,0.7
			c-0.9,0-1.3-0.4-1.3-1.3v-2.9h0.6v2.7c0,0.7,0.4,0.9,0.9,0.9c0.5,0,1-0.3,1.2-0.6v-3h0.6v4.1H674.1z M676.1,242.6v-4.1h0.6v0.7
			c0.3-0.4,0.8-0.8,1.4-0.8v0.7c-0.1,0-0.2,0-0.3,0c-0.4,0-0.9,0.3-1.1,0.7v2.9H676.1z M683.7,242.6v-0.5c-0.3,0.4-0.8,0.6-1.4,0.6
			c-0.7,0-1.4-0.5-1.4-1.4c0-0.9,0.7-1.4,1.4-1.4c0.6,0,1,0.2,1.4,0.6v-0.7c0-0.6-0.4-0.9-1-0.9c-0.5,0-0.9,0.2-1.3,0.6l-0.3-0.4
			c0.4-0.5,1-0.7,1.7-0.7c0.9,0,1.6,0.4,1.6,1.4v2.8H683.7z M683.7,241.7V241c-0.2-0.3-0.7-0.5-1.1-0.5c-0.6,0-1,0.4-1,0.9
			c0,0.5,0.4,0.9,1,0.9C683,242.2,683.4,242.1,683.7,241.7z M685.6,242.6v-5.7h0.6v5.7H685.6z M687.4,237.5c0-0.2,0.2-0.4,0.4-0.4
			c0.2,0,0.4,0.2,0.4,0.4c0,0.2-0.2,0.4-0.4,0.4C687.6,237.9,687.4,237.7,687.4,237.5z M687.5,242.6v-4.1h0.6v4.1H687.5z
			 M689.6,241.7V239h-0.7v-0.6h0.7v-1.1h0.6v1.1h0.8v0.6h-0.8v2.6c0,0.3,0.1,0.5,0.4,0.5c0.2,0,0.4-0.1,0.4-0.2l0.2,0.5
			c-0.2,0.2-0.4,0.3-0.8,0.3C689.9,242.7,689.6,242.4,689.6,241.7z M691.9,237.5c0-0.2,0.2-0.4,0.4-0.4c0.2,0,0.4,0.2,0.4,0.4
			c0,0.2-0.2,0.4-0.4,0.4C692.1,237.9,691.9,237.7,691.9,237.5z M692,242.6v-4.1h0.6v4.1H692z M693.9,242.6v-5.7h0.6v2.2
			c0.3-0.5,0.8-0.7,1.4-0.7c1.1,0,1.8,0.9,1.8,2.2c0,1.3-0.8,2.2-1.8,2.2c-0.6,0-1.1-0.3-1.4-0.7v0.6H693.9z M695.8,242.1
			c0.8,0,1.3-0.7,1.3-1.6c0-0.9-0.5-1.6-1.3-1.6c-0.5,0-1,0.3-1.2,0.7v1.9C694.8,241.8,695.3,242.1,695.8,242.1z M701.6,242.6V242
			c-0.3,0.4-0.9,0.7-1.5,0.7c-0.9,0-1.3-0.4-1.3-1.3v-2.9h0.6v2.7c0,0.7,0.4,0.9,0.9,0.9c0.5,0,1-0.3,1.2-0.6v-3h0.6v4.1H701.6z
			 M703.2,242.1l0.3-0.5c0.3,0.3,0.8,0.6,1.4,0.6c0.6,0,1-0.3,1-0.7c0-1-2.6-0.4-2.6-1.9c0-0.6,0.6-1.2,1.5-1.2
			c0.7,0,1.2,0.3,1.5,0.6l-0.3,0.4c-0.2-0.3-0.7-0.5-1.2-0.5c-0.6,0-0.9,0.3-0.9,0.7c0,0.9,2.6,0.3,2.6,1.9c0,0.7-0.6,1.2-1.6,1.2
			C704.2,242.7,703.6,242.5,703.2,242.1z M712.3,242.6v-0.5c-0.3,0.4-0.8,0.6-1.4,0.6c-0.7,0-1.4-0.5-1.4-1.4c0-0.9,0.7-1.4,1.4-1.4
			c0.6,0,1,0.2,1.4,0.6v-0.7c0-0.6-0.4-0.9-1-0.9c-0.5,0-0.9,0.2-1.3,0.6l-0.3-0.4c0.4-0.5,1-0.7,1.7-0.7c0.9,0,1.6,0.4,1.6,1.4v2.8
			H712.3z M712.3,241.7V241c-0.2-0.3-0.7-0.5-1.1-0.5c-0.6,0-1,0.4-1,0.9c0,0.5,0.4,0.9,1,0.9C711.6,242.2,712.1,242.1,712.3,241.7z
			 M713.9,242.1l0.3-0.5c0.3,0.3,0.8,0.6,1.4,0.6c0.6,0,1-0.3,1-0.7c0-1-2.6-0.4-2.6-1.9c0-0.6,0.6-1.2,1.5-1.2
			c0.7,0,1.2,0.3,1.5,0.6l-0.3,0.4c-0.2-0.3-0.7-0.5-1.2-0.5c-0.6,0-0.9,0.3-0.9,0.7c0,0.9,2.6,0.3,2.6,1.9c0,0.7-0.6,1.2-1.6,1.2
			C714.9,242.7,714.3,242.5,713.9,242.1z"/>
		<g clip-path="url(#SVGID_2_)">
			<text transform="matrix(1 0 0 1 469.7388 256.313)" fill="#373535" font-family="'ProximaNova-Regular'" font-size="8.5653">niscimpos assi omni aborro volupicae ima doloresequi dendebit quo </text>
		</g>
		<g clip-path="url(#SVGID_2_)">
			<text transform="matrix(1 0 0 1 469.7388 270.0176)" fill="#373535" font-family="'ProximaNova-Regular'" font-size="8.5653">dus aliquam conest, conserior a conseditatem re dolorem qui sum </text>
		</g>
		<g clip-path="url(#SVGID_2_)">
			<text transform="matrix(1 0 0 1 469.7388 283.7222)"><tspan x="0" y="0" fill="#373535" font-family="'ProximaNova-Regular'" font-size="8.5653">fuga. </tspan><tspan x="20.8" y="0" fill="#373535" font-family="'ProximaNova-Regular'" font-size="8.5653">L</tspan><tspan x="25" y="0" fill="#373535" font-family="'ProximaNova-Regular'" font-size="8.5653">essequi doluptatqui re velit andellorrum nis nimusaperum id </tspan></text>
		</g>
		<g clip-path="url(#SVGID_2_)">
			<text transform="matrix(1 0 0 1 469.7388 297.4263)" fill="#373535" font-family="'ProximaNova-Regular'" font-size="8.5653">eatque sim quod quam, none est, sima ipsumquosa quisquat dolore </text>
		</g>
		<g clip-path="url(#SVGID_2_)">
			<text transform="matrix(1 0 0 1 469.7388 311.1309)"><tspan x="0" y="0" fill="#373535" font-family="'ProximaNova-Regular'" font-size="8.5653">rempore aut doluptur? </tspan><tspan x="85.8" y="0" fill="#373535" font-family="'ProximaNova-Regular'" font-size="8.5653">T</tspan><tspan x="89.7" y="0" fill="#373535" font-family="'ProximaNova-Regular'" font-size="8.5653">empori</tspan><tspan x="116" y="0" fill="#373535" font-family="'ProximaNova-Regular'" font-size="8.5653">o</tspan><tspan x="120.8" y="0" fill="#373535" font-family="'ProximaNova-Regular'" font-size="8.5653">. Harum utem quis consedit eaquo </tspan></text>
		</g>
		<g clip-path="url(#SVGID_2_)">
			<text transform="matrix(1 0 0 1 469.7388 324.8355)" fill="#373535" font-family="'ProximaNova-Regular'" font-size="8.5653">et verorem porporatia dolor ad estrumquist, sit omnisqui aut lantint </text>
		</g>
		<path clip-path="url(#SVGID_2_)" fill="#373535" d="M470.1,336.5c0-1.2,0.9-2.2,2-2.2c1.2,0,2,1,2,2.2v0.2h-3.3
			c0.1,0.8,0.6,1.4,1.5,1.4c0.5,0,1-0.2,1.3-0.5l0.3,0.4c-0.4,0.4-1,0.6-1.6,0.6C471,338.6,470.1,337.8,470.1,336.5z M472.2,334.8
			c-0.9,0-1.3,0.7-1.4,1.4h2.7C473.5,335.6,473.1,334.8,472.2,334.8z M474.8,338l0.3-0.5c0.3,0.3,0.8,0.6,1.4,0.6c0.6,0,1-0.3,1-0.7
			c0-1-2.6-0.4-2.6-1.9c0-0.6,0.6-1.2,1.5-1.2c0.7,0,1.2,0.3,1.5,0.6l-0.3,0.4c-0.2-0.3-0.7-0.5-1.2-0.5c-0.6,0-0.9,0.3-0.9,0.7
			c0,0.9,2.6,0.3,2.6,1.9c0,0.7-0.6,1.2-1.6,1.2C475.8,338.6,475.3,338.4,474.8,338z M479.3,337.7V335h-0.7v-0.6h0.7v-1.1h0.6v1.1
			h0.8v0.6H480v2.6c0,0.3,0.1,0.5,0.4,0.5c0.2,0,0.4-0.1,0.4-0.2l0.2,0.5c-0.2,0.2-0.4,0.3-0.8,0.3
			C479.6,338.6,479.3,338.3,479.3,337.7z M486.5,338.5v-0.5c-0.3,0.4-0.8,0.6-1.4,0.6c-0.7,0-1.4-0.5-1.4-1.4c0-0.9,0.7-1.4,1.4-1.4
			c0.6,0,1,0.2,1.4,0.6v-0.7c0-0.6-0.4-0.9-1-0.9c-0.5,0-0.9,0.2-1.3,0.6l-0.3-0.4c0.4-0.5,1-0.7,1.7-0.7c0.9,0,1.6,0.4,1.6,1.4v2.8
			H486.5z M486.5,337.7v-0.8c-0.2-0.3-0.7-0.5-1.1-0.5c-0.6,0-1,0.4-1,0.9c0,0.5,0.4,0.9,1,0.9C485.8,338.2,486.3,338,486.5,337.7z
			 M491.2,338.5V338c-0.3,0.4-0.9,0.7-1.5,0.7c-0.9,0-1.3-0.4-1.3-1.3v-2.9h0.6v2.7c0,0.7,0.4,0.9,0.9,0.9c0.5,0,1-0.3,1.2-0.6v-3
			h0.6v4.1H491.2z M496.1,338.5v-0.6c-0.3,0.4-0.8,0.7-1.4,0.7c-1.1,0-1.8-0.8-1.8-2.2c0-1.3,0.8-2.2,1.8-2.2c0.6,0,1.1,0.3,1.4,0.7
			v-2.2h0.6v5.7H496.1z M496.1,337.4v-1.9c-0.2-0.4-0.7-0.7-1.2-0.7c-0.8,0-1.3,0.7-1.3,1.6c0,0.9,0.5,1.6,1.3,1.6
			C495.4,338.1,495.9,337.8,496.1,337.4z M500.7,338.5v-0.5c-0.3,0.4-0.8,0.6-1.4,0.6c-0.7,0-1.4-0.5-1.4-1.4c0-0.9,0.7-1.4,1.4-1.4
			c0.6,0,1,0.2,1.4,0.6v-0.7c0-0.6-0.4-0.9-1-0.9c-0.5,0-0.9,0.2-1.3,0.6L498,335c0.4-0.5,1-0.7,1.7-0.7c0.9,0,1.6,0.4,1.6,1.4v2.8
			H500.7z M500.7,337.7v-0.8c-0.2-0.3-0.7-0.5-1.1-0.5c-0.6,0-1,0.4-1,0.9c0,0.5,0.4,0.9,1,0.9C500,338.2,500.4,338,500.7,337.7z
			 M502.3,336.5c0-1.2,0.9-2.2,2-2.2c1.2,0,2,1,2,2.2v0.2H503c0.1,0.8,0.6,1.4,1.5,1.4c0.5,0,1-0.2,1.3-0.5l0.3,0.4
			c-0.4,0.4-1,0.6-1.6,0.6C503.2,338.6,502.3,337.8,502.3,336.5z M504.4,334.8c-0.9,0-1.3,0.7-1.4,1.4h2.7
			C505.7,335.6,505.3,334.8,504.4,334.8z M509.4,336.5c0-1.2,0.8-2.2,2-2.2c1.3,0,2,1,2,2.2s-0.8,2.2-2,2.2
			C510.2,338.6,509.4,337.7,509.4,336.5z M512.8,336.5c0-0.8-0.5-1.6-1.4-1.6s-1.4,0.8-1.4,1.6c0,0.8,0.5,1.6,1.4,1.6
			S512.8,337.3,512.8,336.5z M514.7,338.5V335H514v-0.6h0.7v-0.3c0-0.8,0.5-1.3,1.2-1.3c0.3,0,0.6,0.1,0.9,0.3l-0.3,0.4
			c-0.1-0.1-0.3-0.2-0.5-0.2c-0.4,0-0.7,0.3-0.7,0.8v0.3h0.8v0.6h-0.8v3.6H514.7z M517.1,338.5V335h-0.7v-0.6h0.7v-0.3
			c0-0.9,0.5-1.3,1.2-1.3c0.2,0,0.5,0,0.6,0.1l-0.2,0.5c-0.1-0.1-0.2-0.1-0.4-0.1c-0.4,0-0.7,0.3-0.7,0.8v0.3h0.8v0.6h-0.8v3.6
			H517.1z M519.3,333.4c0-0.2,0.2-0.4,0.4-0.4c0.2,0,0.4,0.2,0.4,0.4c0,0.2-0.2,0.4-0.4,0.4C519.5,333.8,519.3,333.6,519.3,333.4z
			 M519.4,338.5v-4.1h0.6v4.1H519.4z M521.1,336.5c0-1.2,0.8-2.2,2.1-2.2c0.8,0,1.2,0.3,1.5,0.7l-0.4,0.4c-0.3-0.4-0.6-0.5-1.1-0.5
			c-0.9,0-1.4,0.7-1.4,1.6s0.5,1.6,1.4,1.6c0.4,0,0.8-0.2,1.1-0.5l0.4,0.4c-0.3,0.4-0.8,0.7-1.5,0.7
			C521.9,338.6,521.1,337.7,521.1,336.5z M525.4,333.4c0-0.2,0.2-0.4,0.4-0.4c0.2,0,0.4,0.2,0.4,0.4c0,0.2-0.2,0.4-0.4,0.4
			C525.6,333.8,525.4,333.6,525.4,333.4z M525.5,338.5v-4.1h0.6v4.1H525.5z M530.3,338.5V338c-0.3,0.4-0.9,0.7-1.5,0.7
			c-0.9,0-1.3-0.4-1.3-1.3v-2.9h0.6v2.7c0,0.7,0.4,0.9,0.9,0.9c0.5,0,1-0.3,1.2-0.6v-3h0.6v4.1H530.3z M534,338l0.3-0.5
			c0.3,0.3,0.8,0.6,1.4,0.6c0.6,0,1-0.3,1-0.7c0-1-2.6-0.4-2.6-1.9c0-0.6,0.6-1.2,1.5-1.2c0.7,0,1.2,0.3,1.5,0.6l-0.3,0.4
			c-0.2-0.3-0.7-0.5-1.2-0.5c-0.6,0-0.9,0.3-0.9,0.7c0,0.9,2.6,0.3,2.6,1.9c0,0.7-0.6,1.2-1.6,1.2C535,338.6,534.5,338.4,534,338z
			 M541,338.5v-0.5c-0.3,0.4-0.8,0.6-1.4,0.6c-0.7,0-1.4-0.5-1.4-1.4c0-0.9,0.7-1.4,1.4-1.4c0.6,0,1,0.2,1.4,0.6v-0.7
			c0-0.6-0.4-0.9-1-0.9c-0.5,0-0.9,0.2-1.3,0.6l-0.3-0.4c0.4-0.5,1-0.7,1.7-0.7c0.9,0,1.6,0.4,1.6,1.4v2.8H541z M541,337.7v-0.8
			c-0.2-0.3-0.7-0.5-1.1-0.5c-0.6,0-1,0.4-1,0.9c0,0.5,0.4,0.9,1,0.9C540.3,338.2,540.7,338,541,337.7z M545.7,338.5v-2.7
			c0-0.7-0.4-1-0.9-1c-0.5,0-1,0.3-1.2,0.6v3h-0.6v-4.1h0.6v0.6c0.3-0.3,0.9-0.7,1.5-0.7c0.9,0,1.3,0.4,1.3,1.3v2.9H545.7z
			 M550.6,338.5v-0.6c-0.3,0.4-0.8,0.7-1.4,0.7c-1.1,0-1.8-0.8-1.8-2.2c0-1.3,0.8-2.2,1.8-2.2c0.6,0,1.1,0.3,1.4,0.7v-2.2h0.6v5.7
			H550.6z M550.6,337.4v-1.9c-0.2-0.4-0.7-0.7-1.2-0.7c-0.8,0-1.3,0.7-1.3,1.6c0,0.9,0.5,1.6,1.3,1.6
			C549.9,338.1,550.4,337.8,550.6,337.4z M552.3,336.5c0-1.2,0.9-2.2,2-2.2c1.2,0,2,1,2,2.2v0.2H553c0.1,0.8,0.6,1.4,1.5,1.4
			c0.5,0,1-0.2,1.3-0.5l0.3,0.4c-0.4,0.4-1,0.6-1.6,0.6C553.2,338.6,552.3,337.8,552.3,336.5z M554.3,334.8c-0.9,0-1.3,0.7-1.4,1.4
			h2.7C555.7,335.6,555.3,334.8,554.3,334.8z M557,338l0.3-0.5c0.3,0.3,0.8,0.6,1.4,0.6c0.6,0,1-0.3,1-0.7c0-1-2.6-0.4-2.6-1.9
			c0-0.6,0.6-1.2,1.5-1.2c0.7,0,1.2,0.3,1.5,0.6l-0.3,0.4c-0.2-0.3-0.7-0.5-1.2-0.5c-0.6,0-0.9,0.3-0.9,0.7c0,0.9,2.6,0.3,2.6,1.9
			c0,0.7-0.6,1.2-1.6,1.2C558,338.6,557.4,338.4,557,338z M566.1,338.5v-0.5c-0.3,0.4-0.8,0.6-1.4,0.6c-0.7,0-1.4-0.5-1.4-1.4
			c0-0.9,0.7-1.4,1.4-1.4c0.6,0,1,0.2,1.4,0.6v-0.7c0-0.6-0.4-0.9-1-0.9c-0.5,0-0.9,0.2-1.3,0.6l-0.3-0.4c0.4-0.5,1-0.7,1.7-0.7
			c0.9,0,1.6,0.4,1.6,1.4v2.8H566.1z M566.1,337.7v-0.8c-0.2-0.3-0.7-0.5-1.1-0.5c-0.6,0-1,0.4-1,0.9c0,0.5,0.4,0.9,1,0.9
			C565.5,338.2,565.9,338,566.1,337.7z M568.1,338.5v-5.7h0.6v5.7H568.1z M569.9,333.4c0-0.2,0.2-0.4,0.4-0.4c0.2,0,0.4,0.2,0.4,0.4
			c0,0.2-0.2,0.4-0.4,0.4C570.1,333.8,569.9,333.6,569.9,333.4z M570,338.5v-4.1h0.6v4.1H570z M574.5,338.5v-0.5
			c-0.3,0.4-0.8,0.6-1.4,0.6c-0.7,0-1.4-0.5-1.4-1.4c0-0.9,0.7-1.4,1.4-1.4c0.6,0,1,0.2,1.4,0.6v-0.7c0-0.6-0.4-0.9-1-0.9
			c-0.5,0-0.9,0.2-1.3,0.6l-0.3-0.4c0.4-0.5,1-0.7,1.7-0.7c0.9,0,1.6,0.4,1.6,1.4v2.8H574.5z M574.5,337.7v-0.8
			c-0.2-0.3-0.7-0.5-1.1-0.5c-0.6,0-1,0.4-1,0.9c0,0.5,0.4,0.9,1,0.9C573.8,338.2,574.3,338,574.5,337.7z M576.1,338l0.3-0.5
			c0.3,0.3,0.8,0.6,1.4,0.6c0.6,0,1-0.3,1-0.7c0-1-2.6-0.4-2.6-1.9c0-0.6,0.6-1.2,1.5-1.2c0.7,0,1.2,0.3,1.5,0.6l-0.3,0.4
			c-0.2-0.3-0.7-0.5-1.2-0.5c-0.6,0-0.9,0.3-0.9,0.7c0,0.9,2.6,0.3,2.6,1.9c0,0.7-0.6,1.2-1.6,1.2
			C577.1,338.6,576.5,338.4,576.1,338z M581.1,337.9v2.2h-0.6v-5.7h0.6v0.6c0.3-0.4,0.8-0.7,1.4-0.7c1.1,0,1.8,0.8,1.8,2.2
			c0,1.3-0.8,2.2-1.8,2.2C581.9,338.6,581.4,338.4,581.1,337.9z M583.6,336.5c0-0.9-0.5-1.6-1.3-1.6c-0.5,0-1,0.3-1.2,0.7v1.9
			c0.2,0.4,0.7,0.7,1.2,0.7C583.1,338.1,583.6,337.4,583.6,336.5z M585.1,336.5c0-1.2,0.9-2.2,2-2.2c1.2,0,2,1,2,2.2v0.2h-3.3
			c0.1,0.8,0.6,1.4,1.5,1.4c0.5,0,1-0.2,1.3-0.5l0.3,0.4c-0.4,0.4-1,0.6-1.6,0.6C586,338.6,585.1,337.8,585.1,336.5z M587.1,334.8
			c-0.9,0-1.3,0.7-1.4,1.4h2.7C588.5,335.6,588,334.8,587.1,334.8z M592.3,338.5v-4.1h0.6v0.7c0.3-0.4,0.8-0.8,1.4-0.8v0.7
			c-0.1,0-0.2,0-0.3,0c-0.4,0-0.9,0.3-1.1,0.7v2.9H592.3z M598,338.5v-2.7c0-0.7-0.4-1-0.9-1c-0.5,0-1,0.3-1.2,0.6v3h-0.6v-4.1h0.6
			v0.6c0.3-0.3,0.9-0.7,1.5-0.7c0.9,0,1.3,0.4,1.3,1.3v2.9H598z M602.5,338.5v-0.5c-0.3,0.4-0.8,0.6-1.4,0.6c-0.7,0-1.4-0.5-1.4-1.4
			c0-0.9,0.7-1.4,1.4-1.4c0.6,0,1,0.2,1.4,0.6v-0.7c0-0.6-0.4-0.9-1-0.9c-0.5,0-0.9,0.2-1.3,0.6l-0.3-0.4c0.4-0.5,1-0.7,1.7-0.7
			c0.9,0,1.6,0.4,1.6,1.4v2.8H602.5z M602.5,337.7v-0.8c-0.2-0.3-0.7-0.5-1.1-0.5c-0.6,0-1,0.4-1,0.9c0,0.5,0.4,0.9,1,0.9
			C601.8,338.2,602.2,338,602.5,337.7z M604.5,337.7V335h-0.7v-0.6h0.7v-1.1h0.6v1.1h0.8v0.6h-0.8v2.6c0,0.3,0.1,0.5,0.4,0.5
			c0.2,0,0.4-0.1,0.4-0.2l0.2,0.5c-0.2,0.2-0.4,0.3-0.8,0.3C604.8,338.6,604.5,338.3,604.5,337.7z M609.7,338.5V338
			c-0.3,0.4-0.9,0.7-1.5,0.7c-0.9,0-1.3-0.4-1.3-1.3v-2.9h0.6v2.7c0,0.7,0.4,0.9,0.9,0.9c0.5,0,1-0.3,1.2-0.6v-3h0.6v4.1H609.7z
			 M611.6,338.5v-4.1h0.6v0.7c0.3-0.4,0.8-0.8,1.4-0.8v0.7c-0.1,0-0.2,0-0.3,0c-0.4,0-0.9,0.3-1.1,0.7v2.9H611.6z M614.4,333.4
			c0-0.2,0.2-0.4,0.4-0.4c0.2,0,0.4,0.2,0.4,0.4c0,0.2-0.2,0.4-0.4,0.4C614.6,333.8,614.4,333.6,614.4,333.4z M614.5,338.5v-4.1h0.6
			v4.1H614.5z M618.4,336.5c0-1.2,0.8-2.2,2-2.2c1.3,0,2,1,2,2.2s-0.8,2.2-2,2.2C619.2,338.6,618.4,337.7,618.4,336.5z M621.8,336.5
			c0-0.8-0.5-1.6-1.4-1.6s-1.4,0.8-1.4,1.6c0,0.8,0.5,1.6,1.4,1.6S621.8,337.3,621.8,336.5z M623.2,338l0.3-0.5
			c0.3,0.3,0.8,0.6,1.4,0.6c0.6,0,1-0.3,1-0.7c0-1-2.6-0.4-2.6-1.9c0-0.6,0.6-1.2,1.5-1.2c0.7,0,1.2,0.3,1.5,0.6l-0.3,0.4
			c-0.2-0.3-0.7-0.5-1.2-0.5c-0.6,0-0.9,0.3-0.9,0.7c0,0.9,2.6,0.3,2.6,1.9c0,0.7-0.6,1.2-1.6,1.2
			C624.1,338.6,623.6,338.4,623.2,338z M627.1,338l0.3-0.5c0.3,0.3,0.8,0.6,1.4,0.6c0.6,0,1-0.3,1-0.7c0-1-2.6-0.4-2.6-1.9
			c0-0.6,0.6-1.2,1.5-1.2c0.7,0,1.2,0.3,1.5,0.6l-0.3,0.4c-0.2-0.3-0.7-0.5-1.2-0.5c-0.6,0-0.9,0.3-0.9,0.7c0,0.9,2.6,0.3,2.6,1.9
			c0,0.7-0.6,1.2-1.6,1.2C628.1,338.6,627.6,338.4,627.1,338z M631.2,336.5c0-1.2,0.9-2.2,2-2.2c1.2,0,2,1,2,2.2v0.2h-3.3
			c0.1,0.8,0.6,1.4,1.5,1.4c0.5,0,1-0.2,1.3-0.5l0.3,0.4c-0.4,0.4-1,0.6-1.6,0.6C632.1,338.6,631.2,337.8,631.2,336.5z M633.3,334.8
			c-0.9,0-1.3,0.7-1.4,1.4h2.7C634.6,335.6,634.2,334.8,633.3,334.8z M639.1,338.5v-2.7c0-0.7-0.4-1-0.9-1c-0.5,0-1,0.3-1.2,0.6v3
			h-0.6v-4.1h0.6v0.6c0.3-0.3,0.9-0.7,1.5-0.7c0.9,0,1.3,0.4,1.3,1.3v2.9H639.1z M641.1,337.7V335h-0.7v-0.6h0.7v-1.1h0.6v1.1h0.8
			v0.6h-0.8v2.6c0,0.3,0.1,0.5,0.4,0.5c0.2,0,0.4-0.1,0.4-0.2l0.2,0.5c-0.2,0.2-0.4,0.3-0.8,0.3
			C641.5,338.6,641.1,338.3,641.1,337.7z M645.6,333.4c0-0.2,0.2-0.4,0.4-0.4c0.2,0,0.4,0.2,0.4,0.4c0,0.2-0.2,0.4-0.4,0.4
			C645.8,333.8,645.6,333.6,645.6,333.4z M645.7,338.5v-4.1h0.6v4.1H645.7z M650.5,338.5v-2.7c0-0.7-0.4-1-0.9-1
			c-0.5,0-1,0.3-1.2,0.6v3h-0.6v-4.1h0.6v0.6c0.3-0.3,0.9-0.7,1.5-0.7c0.9,0,1.3,0.4,1.3,1.3v2.9H650.5z M652.5,337.7V335h-0.7v-0.6
			h0.7v-1.1h0.6v1.1h0.8v0.6h-0.8v2.6c0,0.3,0.1,0.5,0.4,0.5c0.2,0,0.4-0.1,0.4-0.2l0.2,0.5c-0.2,0.2-0.4,0.3-0.8,0.3
			C652.8,338.6,652.5,338.3,652.5,337.7z M658.2,338.5l-1.7-4.1h0.7l1.4,3.4l1.4-3.4h0.7l-1.7,4.1H658.2z M661.1,336.5
			c0-1.2,0.9-2.2,2-2.2c1.2,0,2,1,2,2.2v0.2h-3.3c0.1,0.8,0.6,1.4,1.5,1.4c0.5,0,1-0.2,1.3-0.5l0.3,0.4c-0.4,0.4-1,0.6-1.6,0.6
			C662,338.6,661.1,337.8,661.1,336.5z M663.1,334.8c-0.9,0-1.3,0.7-1.4,1.4h2.7C664.5,335.6,664,334.8,663.1,334.8z M668.9,338.5
			v-2.7c0-0.7-0.4-1-0.9-1c-0.5,0-1,0.3-1.2,0.6v3h-0.6v-4.1h0.6v0.6c0.3-0.3,0.9-0.7,1.5-0.7c0.9,0,1.3,0.4,1.3,1.3v2.9H668.9z
			 M673.9,338.5v-0.6c-0.3,0.4-0.8,0.7-1.4,0.7c-1.1,0-1.8-0.8-1.8-2.2c0-1.3,0.8-2.2,1.8-2.2c0.6,0,1.1,0.3,1.4,0.7v-2.2h0.6v5.7
			H673.9z M673.9,337.4v-1.9c-0.2-0.4-0.7-0.7-1.2-0.7c-0.8,0-1.3,0.7-1.3,1.6c0,0.9,0.5,1.6,1.3,1.6
			C673.1,338.1,673.6,337.8,673.9,337.4z M675.7,333.4c0-0.2,0.2-0.4,0.4-0.4c0.2,0,0.4,0.2,0.4,0.4c0,0.2-0.2,0.4-0.4,0.4
			C675.9,333.8,675.7,333.6,675.7,333.4z M675.8,338.5v-4.1h0.6v4.1H675.8z M677.4,338l0.3-0.5c0.3,0.3,0.8,0.6,1.4,0.6
			c0.6,0,1-0.3,1-0.7c0-1-2.6-0.4-2.6-1.9c0-0.6,0.6-1.2,1.5-1.2c0.7,0,1.2,0.3,1.5,0.6l-0.3,0.4c-0.2-0.3-0.7-0.5-1.2-0.5
			c-0.6,0-0.9,0.3-0.9,0.7c0,0.9,2.6,0.3,2.6,1.9c0,0.7-0.6,1.2-1.6,1.2C678.3,338.6,677.8,338.4,677.4,338z M683.7,336.5
			c0-1.2,0.9-2.2,2-2.2c1.2,0,2,1,2,2.2v0.2h-3.3c0.1,0.8,0.6,1.4,1.5,1.4c0.5,0,1-0.2,1.3-0.5l0.3,0.4c-0.4,0.4-1,0.6-1.6,0.6
			C684.5,338.6,683.7,337.8,683.7,336.5z M685.7,334.8c-0.9,0-1.3,0.7-1.4,1.4h2.7C687,335.6,686.6,334.8,685.7,334.8z M688.4,338
			l0.3-0.5c0.3,0.3,0.8,0.6,1.4,0.6c0.6,0,1-0.3,1-0.7c0-1-2.6-0.4-2.6-1.9c0-0.6,0.6-1.2,1.5-1.2c0.7,0,1.2,0.3,1.5,0.6l-0.3,0.4
			c-0.2-0.3-0.7-0.5-1.2-0.5c-0.6,0-0.9,0.3-0.9,0.7c0,0.9,2.6,0.3,2.6,1.9c0,0.7-0.6,1.2-1.6,1.2
			C689.4,338.6,688.8,338.4,688.4,338z M697.5,338.5v-0.5c-0.3,0.4-0.8,0.6-1.4,0.6c-0.7,0-1.4-0.5-1.4-1.4c0-0.9,0.7-1.4,1.4-1.4
			c0.6,0,1,0.2,1.4,0.6v-0.7c0-0.6-0.4-0.9-1-0.9c-0.5,0-0.9,0.2-1.3,0.6l-0.3-0.4c0.4-0.5,1-0.7,1.7-0.7c0.9,0,1.6,0.4,1.6,1.4v2.8
			H697.5z M697.5,337.7v-0.8c-0.2-0.3-0.7-0.5-1.1-0.5c-0.6,0-1,0.4-1,0.9c0,0.5,0.4,0.9,1,0.9C696.8,338.2,697.3,338,697.5,337.7z
			 M702.2,338.5V338c-0.3,0.4-0.9,0.7-1.5,0.7c-0.9,0-1.3-0.4-1.3-1.3v-2.9h0.6v2.7c0,0.7,0.4,0.9,0.9,0.9c0.5,0,1-0.3,1.2-0.6v-3
			h0.6v4.1H702.2z M704.3,337.7V335h-0.7v-0.6h0.7v-1.1h0.6v1.1h0.8v0.6h-0.8v2.6c0,0.3,0.1,0.5,0.4,0.5c0.2,0,0.4-0.1,0.4-0.2
			l0.2,0.5c-0.2,0.2-0.4,0.3-0.8,0.3C704.6,338.6,704.3,338.3,704.3,337.7z M711.9,338.5v-0.6c-0.3,0.4-0.8,0.7-1.4,0.7
			c-1.1,0-1.8-0.8-1.8-2.2c0-1.3,0.8-2.2,1.8-2.2c0.6,0,1.1,0.3,1.4,0.7v-2.2h0.6v5.7H711.9z M711.9,337.4v-1.9
			c-0.2-0.4-0.7-0.7-1.2-0.7c-0.8,0-1.3,0.7-1.3,1.6c0,0.9,0.5,1.6,1.3,1.6C711.1,338.1,711.6,337.8,711.9,337.4z M713.7,333.4
			c0-0.2,0.2-0.4,0.4-0.4c0.2,0,0.4,0.2,0.4,0.4c0,0.2-0.2,0.4-0.4,0.4C713.9,333.8,713.7,333.6,713.7,333.4z M713.8,338.5v-4.1h0.6
			v4.1H713.8z M715.9,337.7V335h-0.7v-0.6h0.7v-1.1h0.6v1.1h0.8v0.6h-0.8v2.6c0,0.3,0.1,0.5,0.4,0.5c0.2,0,0.4-0.1,0.4-0.2l0.2,0.5
			c-0.2,0.2-0.4,0.3-0.8,0.3C716.2,338.6,715.9,338.3,715.9,337.7z M718.4,339.6l-0.3-0.3c0.3-0.2,0.5-0.5,0.6-0.8c0,0-0.1,0-0.1,0
			c-0.2,0-0.4-0.2-0.4-0.4c0-0.2,0.2-0.5,0.5-0.5c0.3,0,0.5,0.2,0.5,0.7C719.1,338.9,718.8,339.3,718.4,339.6z"/>
		<g clip-path="url(#SVGID_2_)">
			<text transform="matrix(1 0 0 1 469.7388 352.2442)"><tspan x="0" y="0" fill="#373535" font-family="'ProximaNova-Regular'" font-size="8.5653">none cuptur sequam e</tspan><tspan x="84.4" y="0" fill="#373535" font-family="'ProximaNova-Regular'" font-size="8.5653">x</tspan><tspan x="88.2" y="0" fill="#373535" font-family="'ProximaNova-Regular'" font-size="8.5653">ceaquibeat estibus, occaecusam, sitibus.</tspan></text>
		</g>
		<g clip-path="url(#SVGID_2_)">
			<text transform="matrix(1 0 0 1 469.7388 377.5118)" fill="#373535" font-family="'ProximaNova-Regular'" font-size="8.5653">Quam, sum dolorest explit ape quat. Ut dolorum desequi necus </text>
		</g>
		<g clip-path="url(#SVGID_2_)">
			<text transform="matrix(1 0 0 1 469.7388 391.2159)" fill="#373535" font-family="'ProximaNova-Regular'" font-size="8.5653">doluptae oditio vellentem rent omnimusci nulpa venet quat.</text>
		</g>
		<g clip-path="url(#SVGID_2_)">
			<text transform="matrix(1 0 0 1 469.7388 416.4835)" fill="#373535" font-family="'ProximaNova-Regular'" font-size="8.5653">Itaero cus, conetur sit minis consequi doluptatque volorrovid elicium </text>
		</g>
		<g clip-path="url(#SVGID_2_)">
			<text transform="matrix(1 0 0 1 469.7388 430.1876)"><tspan x="0" y="0" fill="#373535" font-family="'ProximaNova-Regular'" font-size="8.5653">hiti totatus, sed qui doluptiam cum andae veresequae simagni tiatu</tspan><tspan x="250.1" y="0" fill="#373535" font-family="'ProximaNova-Regular'" font-size="8.5653">r</tspan><tspan x="252.2" y="0" fill="#373535" font-family="'ProximaNova-Regular'" font-size="8.5653">, </tspan></text>
		</g>
		<g clip-path="url(#SVGID_2_)">
			<text transform="matrix(1 0 0 1 469.7388 443.8926)" fill="#373535" font-family="'ProximaNova-Regular'" font-size="8.5653">volore quam, qui ommos illa netur?</text>
		</g>
		<g clip-path="url(#SVGID_2_)">
			<text transform="matrix(1 0 0 1 469.7388 469.1602)" fill="#373535" font-family="'ProximaNova-Regular'" font-size="8.5653">Thank you,</text>
		</g>
		<g clip-path="url(#SVGID_2_)">
			<text transform="matrix(1 0 0 1 469.7388 495.712)" fill="#373535" font-family="'DiscoverBeauty'" font-size="15.4175">Peyton Banks</text>
		</g>
		
			<line clip-path="url(#SVGID_2_)" fill="none" stroke="#C2DBE9" stroke-dasharray="12.185,12.185" x1="434.3" y1="11.2" x2="434.3" y2="689.6"/>
	</g>
</g>
<rect x="256.5" y="3.1" fill="none" stroke="#000000" stroke-width="0.25" stroke-miterlimit="10" width="539.6" height="693.8"/>
</svg>
