<?xml version="1.0" encoding="utf-8"?>
<!-- Generator: Adobe Illustrator 18.1.0, SVG Export Plug-In . SVG Version: 6.00 Build 0)  -->
<svg version="1.1" id="Layer_1" xmlns="http://www.w3.org/2000/svg" xmlns:xlink="http://www.w3.org/1999/xlink" x="0px" y="0px"
	 viewBox="0 0 474.6 420.4" enable-background="new 0 0 474.6 420.4" xml:space="preserve">
<path id="XMLID_1_" fill="#10838C" d="M105.9,403L4.7,227.6c-6.2-10.8-6.2-24.1,0-34.9L105.9,17.4C112.1,6.6,123.6,0,136.1,0h202.4
	c12.5,0,24,6.6,30.2,17.4L470,192.8c6.2,10.8,6.2,24.1,0,34.9L368.7,403c-6.2,10.8-17.7,17.4-30.2,17.4H136.1
	C123.6,420.4,112.1,413.7,105.9,403z"/>
<rect x="129.3" y="138.9" fill="#FFFFFF" width="34" height="18"/>
<path fill="#2A2F36" d="M351,296.5H112.7c-4,0-7.2-3.2-7.2-7.2V155.1c0-4,3.2-7.2,7.2-7.2H351c4,0,7.2,3.2,7.2,7.2v134.3
	C358.2,293.3,355,296.5,351,296.5z"/>
<path fill="#2A2F36" d="M273.1,156.2h-82.6c-4,0-7.2-3.2-7.2-7.2v-34.6c0-4,3.2-7.2,7.2-7.2h82.6c4,0,7.2,3.2,7.2,7.2V149
	C280.3,153,277.1,156.2,273.1,156.2z"/>
<circle fill="#FFFFFF" cx="231.8" cy="216.4" r="68.5"/>
<circle fill="#2A2F36" cx="231.8" cy="216.4" r="59.5"/>
<circle fill="#61C791" cx="231.8" cy="216.4" r="47.6"/>
<circle fill="#FFFFFF" cx="231.8" cy="216.4" r="28.4"/>
<path fill="#DDDDDD" d="M211.8,196.3c11.1-11.1,29.1-11.1,40.2,0c11.1,11.1,11.1,29.1,0,40.2"/>
<rect x="310.2" y="159.8" fill="#FFFFFF" width="34" height="18"/>
<rect x="-332.8" y="370.7" fill="#61C791" width="79" height="117"/>
<rect x="-506.8" y="-35.3" fill="#E0FFB3" width="79" height="117"/>
<rect x="-332.8" y="81.7" fill="#F1475E" width="79" height="117"/>
<rect x="-332.8" y="-202.8" fill="#3A3A3A" width="79" height="117"/>
<rect x="-344.3" y="216.2" fill="#2A2F36" width="79" height="117"/>
<rect x="-332.8" y="-70" fill="#10838C" width="79" height="117"/>
</svg>
