<?xml version="1.0" encoding="utf-8"?>
<!-- Generator: Adobe Illustrator 18.1.0, SVG Export Plug-In . SVG Version: 6.00 Build 0)  -->
<svg version="1.1" id="Layer_1" xmlns="http://www.w3.org/2000/svg" xmlns:xlink="http://www.w3.org/1999/xlink" x="0px" y="0px"
	 viewBox="-199.9 0 1400 700" enable-background="new -199.9 0 1400 700" xml:space="preserve">
<path id="XMLID_1_" fill="#10838C" d="M281.2,671L112.7,379c-10.3-18-10.3-40.1,0-58.1L281.2,29c10.3-18,29.5-29,50.3-29h337
	c20.8,0,40,11,50.3,29L887.5,321c10.3,18,10.3,40.1,0,58.1L718.8,671c-10.3,18-29.5,29-50.3,29h-337
	C310.7,700,291.5,688.8,281.2,671z"/>
<rect x="320.2" y="231.3" fill="#FFFFFF" width="56.6" height="30"/>
<path fill="#2A2F36" d="M689.3,493.7H292.5c-6.7,0-12-5.3-12-12V258.3c0-6.7,5.3-12,12-12h396.8c6.7,0,12,5.3,12,12v223.6
	C701.3,488.4,696,493.7,689.3,493.7z"/>
<path fill="#2A2F36" d="M559.6,260.1H422.1c-6.7,0-12-5.3-12-12v-57.6c0-6.7,5.3-12,12-12h137.5c6.7,0,12,5.3,12,12v57.6
	C571.6,254.8,566.3,260.1,559.6,260.1z"/>
<circle fill="#FFFFFF" cx="490.8" cy="360.3" r="114.1"/>
<circle fill="#2A2F36" cx="490.8" cy="360.3" r="99.1"/>
<circle fill="#61C791" cx="490.8" cy="360.3" r="79.3"/>
<circle fill="#FFFFFF" cx="490.8" cy="360.3" r="47.3"/>
<path fill="#DDDDDD" d="M457.5,326.9c18.5-18.5,48.5-18.5,66.9,0c18.5,18.5,18.5,48.5,0,66.9"/>
<rect x="621.4" y="266.1" fill="#FFFFFF" width="56.6" height="30"/>
<rect x="-449.3" y="617.2" fill="#61C791" width="131.5" height="194.8"/>
<rect x="-739" y="-58.8" fill="#E0FFB3" width="131.5" height="194.8"/>
<rect x="-449.3" y="136" fill="#F1475E" width="131.5" height="194.8"/>
<rect x="-449.3" y="-337.7" fill="#3A3A3A" width="131.5" height="194.8"/>
<rect x="-468.4" y="360" fill="#2A2F36" width="131.5" height="194.8"/>
<rect x="-449.3" y="-116.6" fill="#10838C" width="131.5" height="194.8"/>
</svg>
