<?xml version="1.0" encoding="utf-8"?>
<!-- Generator: Adobe Illustrator 18.1.0, SVG Export Plug-In . SVG Version: 6.00 Build 0)  -->
<svg version="1.1" id="Layer_1" xmlns="http://www.w3.org/2000/svg" xmlns:xlink="http://www.w3.org/1999/xlink" x="0px" y="0px"
	 viewBox="-199.9 0 1400 700" enable-background="new -199.9 0 1400 700" xml:space="preserve">
<g id="Layer_1_1_">
	<path id="XMLID_1_" fill="#10838C" d="M281.2,671L112.7,379c-10.3-18-10.3-40.1,0-58.1L281.2,29c10.3-18,29.5-29,50.3-29h337
		c20.8,0,40,11,50.3,29L887.5,321c10.3,18,10.3,40.1,0,58.1L718.8,671c-10.3,18-29.5,29-50.3,29h-337
		C310.7,700,291.5,688.8,281.2,671z"/>
	<rect x="-366.7" y="636.4" fill="#61C791" width="131.5" height="194.8"/>
	<rect x="-366.7" y="863.7" fill="#E0FFB3" width="131.5" height="194.8"/>
	<rect x="-366.7" y="155" fill="#F1475E" width="131.5" height="194.8"/>
	<rect x="-366.7" y="-318.5" fill="#3A3A3A" width="131.5" height="194.8"/>
	<rect x="-385.8" y="379.1" fill="#2A2F36" width="131.5" height="194.8"/>
	<rect x="-366.7" y="-97.4" fill="#10838C" width="131.5" height="194.8"/>
	<g>
		<path fill="#FFFFFF" d="M576.6,116.6H333.2c-6.7,0-12,5.3-12,12v438.7c0,6.7,5.3,12,12,12H668c6.7,0,12-5.3,12-12V219.8
			L576.6,116.6L576.6,116.6z"/>
	</g>
	<polygon fill="#DDDDDD" points="680.2,315.5 578.9,215.3 680.2,219.8 	"/>
	<polygon fill="#2A2F36" points="647.2,212.5 355.3,212.5 355.3,168.2 619.1,168.2 	"/>
	<path fill="#A5A5A5" d="M576.4,208v-91.4L680,220h-91.7C581.8,219.8,576.4,214.5,576.4,208z"/>
	<rect x="355.3" y="248.8" fill="#2A2F36" width="133.2" height="84.3"/>
	<rect x="514" y="248.8" fill="#2A2F36" width="133.2" height="84.3"/>
	<rect x="357" y="366" fill="#2A2F36" width="290.2" height="12.2"/>
	<rect x="356.1" y="392.6" fill="#2A2F36" width="290.2" height="12.2"/>
	<rect x="356.1" y="418.1" fill="#2A2F36" width="290.2" height="12.2"/>
	<rect x="356.1" y="458.6" fill="#2A2F36" width="291.9" height="73.3"/>
</g>
<g id="Layer_2">
</g>
</svg>
