<?xml version="1.0" encoding="utf-8"?>
<!-- Generator: Adobe Illustrator 18.1.0, SVG Export Plug-In . SVG Version: 6.00 Build 0)  -->
<svg version="1.1" xmlns="http://www.w3.org/2000/svg" xmlns:xlink="http://www.w3.org/1999/xlink" x="0px" y="0px"
	 viewBox="0 0 474.6 420.4" enable-background="new 0 0 474.6 420.4" xml:space="preserve">
<g id="Layer_1">
	<path id="XMLID_1_" fill="#10838C" d="M105.9,403L4.7,227.6c-6.2-10.8-6.2-24.1,0-34.9L105.9,17.4C112.1,6.6,123.6,0,136.1,0h202.4
		c12.5,0,24,6.6,30.2,17.4L470,192.8c6.2,10.8,6.2,24.1,0,34.9L368.7,403c-6.2,10.8-17.7,17.4-30.2,17.4H136.1
		C123.6,420.4,112.1,413.7,105.9,403z"/>
	<rect x="-283.2" y="382.2" fill="#61C791" width="79" height="117"/>
	<rect x="-283.2" y="518.7" fill="#E0FFB3" width="79" height="117"/>
	<rect x="-283.2" y="93.1" fill="#F1475E" width="79" height="117"/>
	<rect x="-283.2" y="-191.3" fill="#3A3A3A" width="79" height="117"/>
	<rect x="-294.7" y="227.7" fill="#2A2F36" width="79" height="117"/>
	<rect x="-283.2" y="-58.5" fill="#10838C" width="79" height="117"/>
	<g>
		<path fill="#FFFFFF" d="M283.3,70H137.1c-4,0-7.2,3.2-7.2,7.2v263.5c0,4,3.2,7.2,7.2,7.2h201.1c4,0,7.2-3.2,7.2-7.2V132L283.3,70
			L283.3,70z"/>
	</g>
	<polygon fill="#DDDDDD" points="345.5,189.5 284.7,129.3 345.5,132 	"/>
	<polygon fill="#2A2F36" points="325.7,127.6 150.4,127.6 150.4,101 308.8,101 	"/>
	<path fill="#A5A5A5" d="M283.2,124.9l0-54.9l62.2,62.1l-55.1,0C286.4,132,283.2,128.8,283.2,124.9z"/>
	<rect x="150.4" y="149.4" fill="#2A2F36" width="80" height="50.6"/>
	<rect x="245.7" y="149.4" fill="#2A2F36" width="80" height="50.6"/>
	<rect x="151.4" y="219.8" fill="#2A2F36" width="174.3" height="7.3"/>
	<rect x="150.9" y="235.8" fill="#2A2F36" width="174.3" height="7.3"/>
	<rect x="150.9" y="251.1" fill="#2A2F36" width="174.3" height="7.3"/>
	<rect x="150.9" y="275.4" fill="#2A2F36" width="175.3" height="44"/>
</g>
<g id="Layer_2">
</g>
</svg>
