<?xml version="1.0" encoding="utf-8"?>
<!-- Generator: Adobe Illustrator 18.1.0, SVG Export Plug-In . SVG Version: 6.00 Build 0)  -->
<svg version="1.0" id="Layer_1" xmlns="http://www.w3.org/2000/svg" xmlns:xlink="http://www.w3.org/1999/xlink" x="0px" y="0px"
	 viewBox="0 0 1000 700" enable-background="new 0 0 1000 700" xml:space="preserve">
<path fill="none" d="M571.3,313.1c-41.4,0-75.1,33.7-75.1,75.1s33.7,75.1,75.1,75.1c41.4,0,75.1-33.7,75.1-75.1
	S612.7,313.1,571.3,313.1z"/>
<polygon fill="none" points="476,264.8 476,264.8 471.9,223.1 476,264.8 "/>
<polygon fill="#B2C9E8" points="476,264.8 476,264.8 476,264.8 "/>
<polygon fill="#546078" points="476,264.8 511.3,242.3 476,264.8 "/>
<polygon fill="#546078" points="476,264.8 476,264.8 476,264.8 "/>
<polygon fill="#546078" points="476,264.8 436.6,245.6 476,264.8 "/>
<rect x="476" y="264.8" fill="#546078" width="0" height="0"/>
<path fill="#231F20" d="M571.3,292.4c-16.6,0-32.3,4.2-46,11.7c-21,11.5-46.3,13.2-68.5,4.9c-3.7-1.4-7.4-3-10.9-4.9
	c-1.2-0.6-2.4-1.2-3.7-1.9c-4.6-2.3-9.5-4.2-14.5-5.7c-4.1-1.2-8.3-2.2-12.6-2.9c-4.9-0.8-10-1.2-15.2-1.2
	c-54.5,0-98.3,45.4-95.8,100.3c2.2,49.3,43.1,89.6,92.4,91.3c17.3,0.6,33.6-3.4,47.8-10.9c26-13.6,56.4-13.6,82.4,0
	c14.2,7.5,30.6,11.4,47.8,10.9c49.3-1.7,90.2-42.1,92.4-91.4C669.6,337.8,625.8,292.4,571.3,292.4z M399.9,463.3
	c-41.4,0-75-33.7-75-75c0-41.3,33.6-75,75-75c7.4,0,14.5,1.1,21.2,3.1c1,0.3,2,0.6,3,1c1.1,0.4,2.3,0.8,3.4,1.2
	c1.2,0.5,2.4,1,3.6,1.5c25.8,11.9,43.8,38,43.8,68.2C475,429.6,441.3,463.3,399.9,463.3z M571.3,463.4c-41.4,0-75.1-33.7-75.1-75.1
	c0-41.4,33.7-75.1,75.1-75.1c41.4,0,75.1,33.7,75.1,75.1C646.4,429.7,612.7,463.4,571.3,463.4z"/>
<path fill="#E6E7E8" d="M649.7,355c-0.7-17.5-6.3-34.8-15.4-49.8c-14.1-23.2-60.3-32.3-57.4-65.5c2.5-27.9,28.5-45.6,44.4-66
	c19-24.4,31.9-57.8,26.4-88.9c-4.9-27.7-22.4-52.2-49.6-61.6c0,0,8.5,14.1,10.2,17.2c6.8,13.1,13.8,27.6,4.2,41.3
	c-6.2,8.8-15.8,14.3-24.9,20.1c-54.6,34.9-124.5,101.3-88.7,172.1c16.4,32.5,46.5,36.8,77.1,39.6c22.4,2,40.3,12.2,54.7,29.3
	c9.5,12.5,14.4,26.3,15.7,41.9c0,0,1.6-8.2,2.2-11.3C649.5,367.4,649.9,361.2,649.7,355z"/>
<path fill="#D0D2D3" d="M484.4,204c2.9-22,16.7-41.5,30.3-58.4c13.5-16.9,29.7-31.7,47.7-43.7c12.2-8.1,29.6-13.5,37.6-26.5
	c7.3-11.8,3.5-25.5-5.1-35.3c4.9,10.4,4.2,24.1-4,32.2c-14.3,14.2-34.9,8.8-52.4,14.3c-22.2,7-37.3,25.5-45.3,46.7
	c-4.1,10.8-6.5,22.1-7.8,33.6C484,179.2,482.9,199.3,484.4,204z"/>
<path fill="#D0D2D3" d="M636.4,290.6c-0.3-0.7-1.6-1.8-2.2-2.4c-0.9-0.9-1.7-1.8-2.6-2.7c-5.5-5.5-11.6-10.3-17.6-15.1
	c-5.2-4.2-10.3-8.7-13.8-14.4c-3.7-6.1-5-13.1-3.9-20.2c1.5-9.3,6.5-17.8,12.4-24.9c5.5-6.7,12.6-11.9,18.4-18.4
	c13-14.7,22.6-32.6,27.5-51.6c3.5-13.5,4.6-27.3,2.6-41.2c9.9,18.3,12.1,40.2,8.7,60.5c-1.7,10.2-4.8,20.1-9.5,29.3
	c-5.3,10.4-14,19.2-21.6,27.9c-6.1,7-11.9,13.8-13.5,23.3C618.2,257,629.7,272.8,636.4,290.6z"/>
<g>
	<path fill="#231F20" d="M312.7,589.9l3.8-1.7c2.5,5.4,6.8,9.2,14.5,9.2c6.9,0,11.4-3.5,11.4-8.7c0-6.3-4.4-7.8-12.6-10.4
		c-7.7-2.2-14.1-4.9-14.1-13.1c0-6.7,6-11.4,13.6-11.4c7,0,11.6,3.4,14.5,8.6l-3.4,2c-2.2-3.9-5.9-6.8-11.2-6.8
		c-5.8,0-9.5,3-9.5,7.4c0,5.3,2.8,6.9,11.7,9.6c8.3,2.5,15.2,5.5,15.2,14c0,7.3-5.6,12.7-15.8,12.7
		C321.4,601.3,315.3,596,312.7,589.9z"/>
	<path fill="#231F20" d="M361,531.8h4.4v33.1c3-6.5,9.3-10.7,17.3-10.7c10.2,0,17,6.8,17,18.1v28.5h-4.4v-27.7
		c0-9.4-4.4-14.9-13.2-14.9c-9.8,0-16.8,6.5-16.8,17.1v25.5H361V531.8z"/>
	<path fill="#231F20" d="M411.5,577.4c0-13.1,10.5-23.7,23.8-23.7c13.3,0,23.6,10.6,23.6,23.7s-10.3,23.8-23.6,23.8
		C422.1,601.3,411.5,590.5,411.5,577.4z M454.5,577.4c0-11.3-7.7-19.8-19.1-19.8c-11.4,0-19.3,8.5-19.3,19.8
		c0,11.3,7.9,19.9,19.3,19.9C446.8,597.3,454.5,588.7,454.5,577.4z"/>
	<path fill="#231F20" d="M474.5,588.7v-29.9h-7.2v-3.7h7.2v-23.8h4.4v23.8h13.2v3.7h-13.2v29.7c0,6.7,2.3,9.2,6.2,9.2
		c4,0,5.6-1.6,7.3-3.4l2.8,2.7c-2.2,2.6-4.9,4.6-10.1,4.6C479.2,601.7,474.5,598,474.5,588.7z"/>
	<path fill="#231F20" d="M505.7,612.4l3.6-2c4.1,7.5,10.2,11.4,18.9,11.4c11.4,0,17.9-5.6,17.9-19.3v-12.7c-3.2,6.7-10.5,12-19.3,12
		c-13.1,0-22.6-10.4-22.6-23.8c0-13.4,9.5-23.7,22.6-23.7c9.3,0,16.1,5.1,19.6,12.2l-0.2-11.2h4.4v47.8c0,15.5-8.5,22.8-22.1,22.8
		C517.3,625.7,509.6,620,505.7,612.4z M546.4,577.9c0-11.3-7.6-19.8-19.1-19.8c-11.3,0-18.6,8.5-18.6,19.8
		c0,11.3,7.3,19.9,18.6,19.9C538.8,597.8,546.4,589.2,546.4,577.9z"/>
	<path fill="#231F20" d="M564.9,580.8v-25.6h4.4v25.3c0,11.1,4.5,17.2,14.8,17.2c10.3,0,14.8-6.1,14.8-17.2v-25.3h4.4v25.6
		c0,13.4-7.6,20.9-19.1,20.9C572.5,601.7,564.9,594.2,564.9,580.8z"/>
	<path fill="#231F20" d="M616,555.2h4.4l-0.1,10.2c3-6.9,9.4-11.2,17.4-11.2c10.2,0,17,6.8,17,18.1v28.5h-4.4v-27.7
		c0-9.4-4.4-14.9-13.2-14.9c-9.8,0-16.8,6.5-16.8,17.1v25.5H616V555.2z"/>
</g>
<g>
	<g>
		<polygon fill="#FFFFFF" points="432.5,204 397.2,226.5 436.6,245.6 		"/>
	</g>
	<g>
		<polygon fill="#FFFFFF" points="476,264.8 471.9,223.1 436.6,245.6 		"/>
	</g>
	<g>
		<polygon fill="#FFFFFF" points="476,264.8 515.4,284 511.3,242.3 476,264.8 		"/>
	</g>
	<polygon fill="#231F20" points="471.9,223.1 432.5,204 436.6,245.6 	"/>
	<polygon fill="#231F20" points="511.3,242.3 471.9,223.1 476,264.8 	"/>
	<path fill="#D0D2D3" d="M436.6,245.6l-39.4-19.2l17.9,67.2c4.3,0.7,8.5,1.7,12.6,2.9L436.6,245.6z"/>
	<path fill="#D0D2D3" d="M442.2,302.3c1.2,0.6,2.5,1.2,3.7,1.9c3.5,1.9,7.2,3.6,10.9,4.9l58.6-25.1L476,264.8L442.2,302.3z"/>
	<path fill="#231F20" d="M476,264.8l-39.4-19.2l-8.8,50.9c5,1.5,9.8,3.4,14.5,5.7L476,264.8z"/>
</g>
<g>
	<rect x="313.4" y="639.4" fill="none" width="352" height="37.4"/>
	<path fill="#231F20" d="M313.3,641.5h7.3l4.9,19.6h0.1l6.4-19.6h6.2l6.3,20.1h0.1l5.1-20.1h6.8l-8.9,30.5h-6l-6.7-21.1h-0.1
		l-6.7,21.1h-5.8L313.3,641.5z"/>
	<path fill="#231F20" d="M374.2,641.5H395v6.2h-14v5.7h13.2v6.2H381v6.2h14.8v6.2h-21.5V641.5z"/>
	<path fill="#231F20" d="M415.7,641.5h10.1c2.4,0,4.8,0.3,7,0.8s4.1,1.4,5.8,2.6s2.9,2.8,3.9,4.8c1,2,1.4,4.3,1.4,7.1
		c0,2.5-0.5,4.6-1.4,6.5c-0.9,1.9-2.2,3.5-3.8,4.7c-1.6,1.3-3.4,2.2-5.5,2.9c-2.1,0.7-4.2,1-6.5,1h-11V641.5z M422.4,665.8h3.5
		c1.6,0,3-0.2,4.3-0.5c1.3-0.3,2.5-0.8,3.5-1.6c1-0.7,1.7-1.7,2.3-2.9c0.6-1.2,0.8-2.6,0.8-4.4c0-1.5-0.3-2.8-0.8-3.9
		c-0.6-1.1-1.3-2-2.3-2.7s-2.1-1.3-3.3-1.6c-1.3-0.4-2.6-0.5-4-0.5h-4V665.8z"/>
	<path fill="#231F20" d="M463,641.5H473c2.4,0,4.8,0.3,7,0.8s4.1,1.4,5.8,2.6s2.9,2.8,3.9,4.8c1,2,1.4,4.3,1.4,7.1
		c0,2.5-0.5,4.6-1.4,6.5c-0.9,1.9-2.2,3.5-3.8,4.7c-1.6,1.3-3.4,2.2-5.5,2.9c-2.1,0.7-4.2,1-6.5,1h-11V641.5z M469.7,665.8h3.5
		c1.6,0,3-0.2,4.3-0.5c1.3-0.3,2.5-0.8,3.5-1.6c1-0.7,1.7-1.7,2.3-2.9c0.6-1.2,0.8-2.6,0.8-4.4c0-1.5-0.3-2.8-0.8-3.9
		c-0.6-1.1-1.3-2-2.3-2.7s-2.1-1.3-3.3-1.6c-1.3-0.4-2.6-0.5-4-0.5h-4V665.8z"/>
	<path fill="#231F20" d="M510.2,641.5h6.7V672h-6.7V641.5z"/>
	<path fill="#231F20" d="M537.7,641.5h9.1l13,21.2h0.1v-21.2h6.7V672h-8.8l-13.3-21.7h-0.1V672h-6.7V641.5z"/>
	<path fill="#231F20" d="M615,669.8c-2,1-4,1.8-6.2,2.2s-4.4,0.7-6.6,0.7c-2.4,0-4.6-0.4-6.6-1.1c-2-0.7-3.7-1.8-5.2-3.2
		c-1.5-1.4-2.6-3.1-3.4-5.1c-0.8-2-1.2-4.2-1.2-6.6s0.4-4.7,1.2-6.6c0.8-2,2-3.7,3.4-5.1c1.5-1.4,3.2-2.5,5.2-3.2
		c2-0.7,4.2-1.1,6.6-1.1c2.4,0,4.7,0.3,6.7,0.9c2.1,0.6,3.9,1.6,5.4,3l-4.7,5.2c-0.9-0.9-2-1.7-3.1-2.2c-1.1-0.5-2.6-0.7-4.3-0.7
		c-1.4,0-2.7,0.2-3.9,0.7s-2.2,1.2-3,2c-0.8,0.9-1.5,1.9-1.9,3.1c-0.4,1.2-0.7,2.5-0.7,3.9c0,1.4,0.2,2.8,0.7,3.9
		c0.4,1.2,1.1,2.2,1.9,3.1c0.8,0.9,1.8,1.6,3,2c1.2,0.5,2.5,0.7,3.9,0.7c1.5,0,2.7-0.2,3.8-0.5c1.1-0.3,1.9-0.7,2.5-1v-5h-5.5v-6.2
		H615V669.8z"/>
	<path fill="#231F20" d="M650.2,648.9c-0.5-0.7-1.3-1.2-2.2-1.5c-0.9-0.3-1.8-0.5-2.6-0.5c-0.5,0-1,0.1-1.5,0.2
		c-0.5,0.1-1,0.3-1.5,0.5c-0.5,0.2-0.8,0.6-1.1,1s-0.4,0.9-0.4,1.5c0,0.9,0.3,1.6,1,2.1c0.7,0.5,1.6,0.9,2.6,1.2
		c1,0.3,2.2,0.7,3.4,1c1.2,0.3,2.3,0.8,3.4,1.5c1,0.6,1.9,1.5,2.6,2.5c0.7,1.1,1,2.5,1,4.3c0,1.7-0.3,3.2-0.9,4.4s-1.5,2.3-2.6,3.1
		c-1.1,0.8-2.3,1.5-3.7,1.9c-1.4,0.4-2.9,0.6-4.5,0.6c-2,0-3.8-0.3-5.5-0.9c-1.7-0.6-3.3-1.6-4.7-2.9l4.8-5.3
		c0.7,0.9,1.6,1.6,2.6,2.1c1,0.5,2.1,0.8,3.3,0.8c0.5,0,1.1-0.1,1.7-0.2c0.6-0.1,1.1-0.3,1.5-0.6c0.4-0.3,0.8-0.6,1.1-1
		c0.3-0.4,0.4-0.9,0.4-1.4c0-0.9-0.4-1.6-1.1-2.2c-0.7-0.5-1.6-1-2.6-1.4c-1.1-0.4-2.2-0.7-3.4-1.1c-1.2-0.4-2.4-0.9-3.4-1.5
		c-1.1-0.6-1.9-1.5-2.6-2.5c-0.7-1-1.1-2.4-1.1-4.1c0-1.6,0.3-3.1,1-4.3c0.6-1.2,1.5-2.3,2.6-3.1c1.1-0.8,2.3-1.5,3.7-1.9
		c1.4-0.4,2.9-0.6,4.4-0.6c1.7,0,3.4,0.2,5,0.7c1.6,0.5,3.1,1.3,4.4,2.5L650.2,648.9z"/>
</g>
</svg>
