<?xml version="1.0" encoding="utf-8"?>
<!-- Generator: Adobe Illustrator 18.1.0, SVG Export Plug-In . SVG Version: 6.00 Build 0)  -->
<svg version="1.1" id="Layer_1" xmlns="http://www.w3.org/2000/svg" xmlns:xlink="http://www.w3.org/1999/xlink" x="0px" y="0px"
	 viewBox="0 0 1000 700" enable-background="new 0 0 1000 700" xml:space="preserve">
<path fill="none" d="M460.7,312.7c-42,0-76.1,34.1-76.1,76.1s34.1,76.1,76.1,76.1c42,0,76.1-34.1,76.1-76.1S502.7,312.7,460.7,312.7
	z"/>
<polygon fill="none" points="364.2,263.7 364.2,263.7 360,221.5 364.2,263.7 "/>
<polygon fill="#B3C9E9" points="364.2,263.7 364.2,263.7 364.2,263.7 "/>
<polygon fill="#536078" points="364.2,263.7 399.9,240.9 364.2,263.7 "/>
<polygon fill="#536078" points="364.2,263.7 364.2,263.7 364.2,263.7 "/>
<polygon fill="#536078" points="364.2,263.7 324.3,244.3 364.2,263.7 "/>
<rect x="364.2" y="263.7" fill="#536078" width="0" height="0"/>
<path fill="#333333" d="M460.7,291.7c-16.9,0-32.7,4.3-46.5,11.8c-21.3,11.7-46.9,13.3-69.4,5c-3.8-1.4-7.5-3-11.1-5
	c-1.2-0.6-2.5-1.3-3.7-1.9c-4.7-2.3-9.6-4.2-14.7-5.8c-4.2-1.2-8.4-2.2-12.8-2.9c-5-0.8-10.1-1.3-15.4-1.3c-55.2,0-99.6,46-97,101.6
	c2.3,49.9,43.7,90.8,93.6,92.5c17.5,0.6,34.1-3.4,48.5-11c26.4-13.8,57.1-13.8,83.5,0c14.4,7.6,31,11.6,48.5,11
	c50-1.7,91.3-42.6,93.6-92.5C560.3,337.6,515.9,291.7,460.7,291.7z M287.2,464.7c-41.9,0-76-34.1-76-76c0-41.9,34.1-76,76-76
	c7.5,0,14.7,1.1,21.5,3.1c1,0.3,2,0.6,3,1c1.2,0.4,2.3,0.8,3.4,1.3c1.2,0.5,2.4,1,3.6,1.5c26.2,12,44.4,38.4,44.4,69.1
	C363.1,430.6,329,464.7,287.2,464.7z M460.7,464.8c-41.9,0-76.1-34.1-76.1-76.1c0-41.9,34.1-76.1,76.1-76.1
	c42,0,76.1,34.1,76.1,76.1C536.8,430.7,502.7,464.8,460.7,464.8z"/>
<path fill="#E6E7E8" d="M540.1,355.1c-0.7-17.7-6.3-35.3-15.6-50.5c-14.3-23.5-61.1-32.7-58.1-66.3c2.5-28.2,28.9-46.2,44.9-66.8
	c19.3-24.7,32.3-58.5,26.7-90.1c-5-28.1-22.7-52.9-50.2-62.4c0,0,8.6,14.2,10.3,17.4c6.9,13.3,14,27.9,4.3,41.8
	c-6.2,8.9-16,14.5-25.2,20.3C421.9,134,351.1,201.2,387.4,273c16.6,32.9,47,37.3,78.1,40.1c22.7,2,40.9,12.3,55.4,29.7
	c9.7,12.7,14.6,26.6,15.9,42.5c0,0,1.7-8.3,2.2-11.4C540,367.6,540.3,361.3,540.1,355.1z"/>
<path fill="#D1D3D4" d="M372.7,202.1c3-22.3,16.9-42,30.7-59.1c13.7-17.1,30.1-32.1,48.3-44.3c12.3-8.3,29.9-13.7,38-26.9
	c7.4-12,3.5-25.8-5.2-35.7c4.9,10.6,4.3,24.4-4,32.6c-14.5,14.4-35.4,8.9-53.1,14.5c-22.5,7.1-37.7,25.8-45.9,47.3
	c-4.1,10.9-6.6,22.4-7.9,34C372.2,177,371.2,197.4,372.7,202.1z"/>
<path fill="#D1D3D4" d="M526.6,289.9c-0.3-0.8-1.6-1.8-2.2-2.4c-0.9-0.9-1.8-1.8-2.7-2.7c-5.5-5.5-11.7-10.4-17.9-15.3
	c-5.3-4.2-10.5-8.8-14-14.6c-3.8-6.2-5-13.3-3.9-20.4c1.5-9.4,6.5-18,12.5-25.3c5.6-6.8,12.8-12.1,18.6-18.7
	c13.2-14.9,22.9-33,27.8-52.3c3.5-13.7,4.7-27.7,2.6-41.7c10,18.5,12.2,40.7,8.8,61.3c-1.7,10.3-4.9,20.4-9.6,29.7
	c-5.3,10.5-14.2,19.4-21.9,28.2c-6.2,7-12,14-13.7,23.6C508.2,255.8,519.9,271.8,526.6,289.9z"/>
<g>
	<path fill="#536078" d="M198.8,592.9l3.8-1.7c2.5,5.4,6.9,9.3,14.7,9.3c7,0,11.6-3.5,11.6-8.8c0-6.3-4.4-7.9-12.8-10.5
		c-7.8-2.3-14.3-5-14.3-13.3c0-6.8,6.1-11.6,13.8-11.6c7.1,0,11.8,3.4,14.7,8.7l-3.4,2c-2.3-4-6-6.9-11.3-6.9
		c-5.9,0-9.6,3.1-9.6,7.5c0,5.3,2.8,7,11.9,9.7c8.4,2.5,15.4,5.6,15.4,14.2c0,7.4-5.7,12.9-16,12.9
		C207.7,604.5,201.4,599.2,198.8,592.9z"/>
	<path fill="#536078" d="M247.7,534.2h4.4v33.5c3.1-6.6,9.4-10.9,17.6-10.9c10.3,0,17.2,6.9,17.2,18.4V604h-4.4v-28.1
		c0-9.5-4.4-15.1-13.4-15.1c-10,0-17,6.6-17,17.3V604h-4.4V534.2z"/>
	<path fill="#536078" d="M298.9,580.4c0-13.3,10.6-24,24.1-24c13.5,0,23.9,10.8,23.9,24s-10.4,24.1-23.9,24.1
		C309.6,604.5,298.9,593.6,298.9,580.4z M342.4,580.4c0-11.4-7.8-20-19.4-20c-11.6,0-19.6,8.6-19.6,20c0,11.4,8,20.2,19.6,20.2
		C334.6,600.5,342.4,591.8,342.4,580.4z"/>
	<path fill="#536078" d="M362.7,591.8v-30.2h-7.2v-3.7h7.2v-24.1h4.4v24.1h13.4v3.7h-13.4v30.1c0,6.8,2.4,9.3,6.2,9.3
		c4.1,0,5.7-1.6,7.4-3.4l2.8,2.7c-2.3,2.6-5,4.6-10.2,4.6C367.4,604.9,362.7,601.2,362.7,591.8z"/>
	<path fill="#536078" d="M394.2,615.8l3.6-2c4.2,7.6,10.3,11.6,19.1,11.6c11.6,0,18.1-5.7,18.1-19.6v-12.9
		c-3.3,6.8-10.6,12.1-19.6,12.1c-13.3,0-22.9-10.5-22.9-24.1c0-13.6,9.6-24,22.9-24c9.4,0,16.3,5.2,19.8,12.3l-0.2-11.3h4.4v48.4
		c0,15.7-8.6,23.1-22.4,23.1C406,629.3,398.2,623.5,394.2,615.8z M435.5,580.8c0-11.4-7.7-20-19.4-20c-11.4,0-18.8,8.6-18.8,20
		c0,11.4,7.4,20.2,18.8,20.2C427.8,601,435.5,592.2,435.5,580.8z"/>
	<path fill="#536078" d="M454.3,583.8v-25.9h4.4v25.6c0,11.2,4.5,17.4,14.9,17.4c10.4,0,15-6.2,15-17.4v-25.6h4.4v25.9
		c0,13.6-7.7,21.2-19.4,21.2C462,604.9,454.3,597.3,454.3,583.8z"/>
	<path fill="#536078" d="M506,557.8h4.4l-0.1,10.3c3.1-7,9.5-11.3,17.7-11.3c10.3,0,17.2,6.9,17.2,18.4V604h-4.4v-28.1
		c0-9.5-4.4-15.1-13.4-15.1c-10,0-17,6.6-17,17.3V604H506V557.8z"/>
</g>
<g>
	<polygon fill="#B3C9E9" points="320.1,202.1 284.4,224.9 324.3,244.3 	"/>
	<polygon fill="#B3C9E9" points="364.2,263.7 360,221.5 324.3,244.3 	"/>
	<polygon fill="#B3C9E9" points="364.2,263.7 404.1,283.1 399.9,240.9 364.2,263.7 	"/>
	<polygon fill="#536078" points="360,221.5 320.1,202.1 324.3,244.3 	"/>
	<polygon fill="#536078" points="399.9,240.9 360,221.5 364.2,263.7 	"/>
	<path fill="#8297BD" d="M324.3,244.3l-39.9-19.4l18.2,68c4.4,0.7,8.6,1.7,12.8,2.9L324.3,244.3z"/>
	<path fill="#8297BD" d="M330,301.6c1.2,0.6,2.5,1.2,3.7,1.9c3.6,2,7.3,3.6,11.1,5l59.3-25.4l-39.9-19.4L330,301.6z"/>
	<path fill="#536078" d="M364.2,263.7l-39.9-19.4l-8.9,51.6c5.1,1.5,10,3.5,14.7,5.8L364.2,263.7z"/>
</g>
<g>
	<rect x="199.5" y="643.1" fill="none" width="356.5" height="37.9"/>
	<path fill="#536078" d="M199.4,645.2h7.4l4.9,19.8h0.1l6.5-19.8h6.3l6.4,20.3h0.1l5.2-20.3h6.9l-9,30.9h-6.1l-6.8-21.4h-0.1
		l-6.8,21.4h-5.8L199.4,645.2z"/>
	<path fill="#536078" d="M261.1,645.2h21v6.3h-14.2v5.8h13.4v6.3h-13.4v6.3h15v6.3h-21.8V645.2z"/>
	<path fill="#536078" d="M303.1,645.2h10.2c2.5,0,4.8,0.3,7,0.8s4.2,1.4,5.8,2.7s3,2.8,3.9,4.8c1,2,1.5,4.4,1.5,7.2
		c0,2.5-0.5,4.7-1.4,6.6c-0.9,1.9-2.2,3.5-3.8,4.8c-1.6,1.3-3.4,2.3-5.5,2.9c-2.1,0.7-4.3,1-6.6,1h-11.1V645.2z M309.9,669.8h3.5
		c1.6,0,3-0.2,4.4-0.5c1.4-0.3,2.5-0.9,3.5-1.6c1-0.7,1.8-1.7,2.3-2.9c0.6-1.2,0.9-2.7,0.9-4.4c0-1.5-0.3-2.8-0.9-3.9
		c-0.6-1.1-1.3-2-2.3-2.8c-1-0.7-2.1-1.3-3.4-1.6c-1.3-0.4-2.7-0.5-4.1-0.5h-4V669.8z"/>
	<path fill="#536078" d="M351,645.2h10.2c2.5,0,4.8,0.3,7,0.8s4.2,1.4,5.8,2.7s3,2.8,3.9,4.8c1,2,1.5,4.4,1.5,7.2
		c0,2.5-0.5,4.7-1.4,6.6c-0.9,1.9-2.2,3.5-3.8,4.8c-1.6,1.3-3.4,2.3-5.5,2.9c-2.1,0.7-4.3,1-6.6,1H351V645.2z M357.8,669.8h3.5
		c1.6,0,3-0.2,4.4-0.5c1.4-0.3,2.5-0.9,3.5-1.6c1-0.7,1.8-1.7,2.3-2.9c0.6-1.2,0.9-2.7,0.9-4.4c0-1.5-0.3-2.8-0.9-3.9
		c-0.6-1.1-1.3-2-2.3-2.8c-1-0.7-2.1-1.3-3.4-1.6c-1.3-0.4-2.7-0.5-4.1-0.5h-4V669.8z"/>
	<path fill="#536078" d="M398.8,645.2h6.8v30.9h-6.8V645.2z"/>
	<path fill="#536078" d="M426.6,645.2h9.3l13.1,21.5h0.1v-21.5h6.8v30.9H447l-13.5-22h-0.1v22h-6.8V645.2z"/>
	<path fill="#536078" d="M504.9,673.9c-2,1-4.1,1.8-6.3,2.3c-2.2,0.5-4.4,0.7-6.7,0.7c-2.4,0-4.6-0.4-6.7-1.1
		c-2-0.8-3.8-1.8-5.3-3.3c-1.5-1.4-2.6-3.1-3.5-5.1c-0.8-2-1.2-4.2-1.2-6.7c0-2.5,0.4-4.7,1.2-6.7c0.8-2,2-3.7,3.5-5.1
		c1.5-1.4,3.2-2.5,5.3-3.3c2-0.8,4.3-1.1,6.7-1.1c2.5,0,4.7,0.3,6.8,0.9c2.1,0.6,3.9,1.6,5.5,3.1l-4.8,5.2c-0.9-1-2-1.7-3.1-2.2
		c-1.2-0.5-2.6-0.7-4.4-0.7c-1.5,0-2.8,0.2-3.9,0.7c-1.2,0.5-2.2,1.2-3,2.1s-1.5,1.9-1.9,3.2c-0.5,1.2-0.7,2.5-0.7,4
		c0,1.5,0.2,2.8,0.7,4c0.5,1.2,1.1,2.3,1.9,3.1c0.8,0.9,1.9,1.6,3,2.1c1.2,0.5,2.5,0.7,3.9,0.7c1.5,0,2.8-0.2,3.8-0.5
		c1.1-0.3,1.9-0.7,2.6-1v-5h-5.5v-6.3h12.1V673.9z"/>
	<path fill="#536078" d="M540.6,652.8c-0.6-0.7-1.3-1.2-2.2-1.5c-0.9-0.3-1.8-0.5-2.7-0.5c-0.5,0-1,0.1-1.5,0.2
		c-0.5,0.1-1,0.3-1.5,0.5c-0.5,0.2-0.8,0.6-1.1,1c-0.3,0.4-0.4,0.9-0.4,1.5c0,0.9,0.3,1.6,1,2.1c0.7,0.5,1.6,0.9,2.6,1.3
		c1.1,0.3,2.2,0.7,3.4,1c1.2,0.3,2.4,0.8,3.4,1.5c1.1,0.6,1.9,1.5,2.6,2.6s1,2.5,1,4.3c0,1.7-0.3,3.2-1,4.5s-1.5,2.3-2.6,3.2
		c-1.1,0.8-2.4,1.5-3.8,1.9c-1.4,0.4-3,0.6-4.6,0.6c-2,0-3.9-0.3-5.6-0.9c-1.7-0.6-3.3-1.6-4.8-3l4.8-5.3c0.7,0.9,1.6,1.7,2.6,2.2
		c1.1,0.5,2.2,0.8,3.3,0.8c0.6,0,1.1-0.1,1.7-0.2c0.6-0.1,1.1-0.3,1.5-0.6s0.8-0.6,1.1-1s0.4-0.9,0.4-1.4c0-0.9-0.4-1.7-1.1-2.2
		c-0.7-0.5-1.6-1-2.7-1.4c-1.1-0.4-2.2-0.8-3.5-1.1c-1.3-0.4-2.4-0.9-3.5-1.5s-2-1.5-2.7-2.5c-0.7-1-1.1-2.4-1.1-4.1
		c0-1.7,0.3-3.1,1-4.4c0.7-1.2,1.5-2.3,2.6-3.1s2.3-1.5,3.8-1.9c1.4-0.4,2.9-0.6,4.4-0.6c1.7,0,3.4,0.2,5.1,0.7
		c1.6,0.5,3.1,1.3,4.4,2.5L540.6,652.8z"/>
</g>
<path fill="none" d="M736.1,561.8c-13.2,0-24,10.8-24,24s10.8,24,24,24s24-10.8,24-24S749.4,561.8,736.1,561.8z"/>
<polygon fill="none" points="705.6,546.3 705.6,546.3 704.3,533 705.6,546.3 "/>
<polygon fill="#B3C9E9" points="705.6,546.3 705.6,546.3 705.6,546.3 "/>
<polygon fill="#536078" points="705.6,546.3 716.9,539.1 705.6,546.3 "/>
<polygon fill="#536078" points="705.6,546.3 705.6,546.3 705.6,546.3 "/>
<polygon fill="#536078" points="705.6,546.3 693,540.2 705.6,546.3 "/>
<rect x="705.6" y="546.3" fill="#536078" width="0" height="0"/>
<path fill="#333333" d="M736.1,555.2c-5.3,0-10.3,1.4-14.7,3.7c-6.7,3.7-14.8,4.2-21.9,1.6c-1.2-0.4-2.4-1-3.5-1.6
	c-0.4-0.2-0.8-0.4-1.2-0.6c-1.5-0.7-3-1.3-4.6-1.8c-1.3-0.4-2.7-0.7-4-0.9c-1.6-0.3-3.2-0.4-4.9-0.4c-17.4,0-31.4,14.5-30.6,32.1
	c0.7,15.8,13.8,28.7,29.6,29.2c5.5,0.2,10.8-1.1,15.3-3.5c8.3-4.4,18-4.4,26.4,0c4.5,2.4,9.8,3.7,15.3,3.5
	c15.8-0.5,28.8-13.5,29.6-29.2C767.5,569.7,753.5,555.2,736.1,555.2z M681.3,609.8c-13.2,0-24-10.8-24-24c0-13.2,10.8-24,24-24
	c2.4,0,4.6,0.4,6.8,1c0.3,0.1,0.6,0.2,1,0.3c0.4,0.1,0.7,0.3,1.1,0.4c0.4,0.2,0.8,0.3,1.1,0.5c8.3,3.8,14,12.1,14,21.8
	C705.3,599,694.5,609.8,681.3,609.8z M736.1,609.8c-13.2,0-24-10.8-24-24c0-13.2,10.8-24,24-24c13.3,0,24,10.8,24,24
	C760.1,599.1,749.4,609.8,736.1,609.8z"/>
<path fill="#E6E7E8" d="M761.2,575.2c-0.2-5.6-2-11.1-4.9-15.9c-4.5-7.4-19.3-10.3-18.3-20.9c0.8-8.9,9.1-14.6,14.2-21.1
	c6.1-7.8,10.2-18.5,8.4-28.4c-1.6-8.9-7.2-16.7-15.9-19.7c0,0,2.7,4.5,3.2,5.5c2.2,4.2,4.4,8.8,1.3,13.2c-2,2.8-5.1,4.6-8,6.4
	c-17.5,11.2-39.8,32.4-28.4,55c5.2,10.4,14.9,11.8,24.7,12.7c7.2,0.6,12.9,3.9,17.5,9.4c3.1,4,4.6,8.4,5,13.4c0,0,0.5-2.6,0.7-3.6
	C761.1,579.1,761.2,577.2,761.2,575.2z"/>
<path fill="#D1D3D4" d="M708.3,526.9c0.9-7,5.3-13.3,9.7-18.7c4.3-5.4,9.5-10.1,15.2-14c3.9-2.6,9.5-4.3,12-8.5
	c2.3-3.8,1.1-8.2-1.6-11.3c1.6,3.3,1.3,7.7-1.3,10.3c-4.6,4.5-11.2,2.8-16.8,4.6c-7.1,2.2-11.9,8.1-14.5,14.9
	c-1.3,3.4-2.1,7.1-2.5,10.7C708.2,518.9,707.8,525.4,708.3,526.9z"/>
<path fill="#D1D3D4" d="M756.9,554.6c-0.1-0.2-0.5-0.6-0.7-0.8c-0.3-0.3-0.6-0.6-0.8-0.9c-1.8-1.8-3.7-3.3-5.6-4.8
	c-1.7-1.3-3.3-2.8-4.4-4.6c-1.2-1.9-1.6-4.2-1.2-6.5c0.5-3,2.1-5.7,4-8c1.8-2.1,4-3.8,5.9-5.9c4.2-4.7,7.2-10.4,8.8-16.5
	c1.1-4.3,1.5-8.7,0.8-13.2c3.2,5.8,3.9,12.9,2.8,19.4c-0.5,3.3-1.5,6.4-3,9.4c-1.7,3.3-4.5,6.1-6.9,8.9c-2,2.2-3.8,4.4-4.3,7.4
	C751.1,543.8,754.8,548.9,756.9,554.6z"/>
<g>
	<path fill="#536078" d="M653.4,650.3l1.2-0.5c0.8,1.7,2.2,2.9,4.6,2.9c2.2,0,3.6-1.1,3.6-2.8c0-2-1.4-2.5-4-3.3
		c-2.5-0.7-4.5-1.6-4.5-4.2c0-2.1,1.9-3.6,4.4-3.6c2.3,0,3.7,1.1,4.6,2.8l-1.1,0.6c-0.7-1.3-1.9-2.2-3.6-2.2c-1.9,0-3,1-3,2.4
		c0,1.7,0.9,2.2,3.8,3.1c2.6,0.8,4.9,1.8,4.9,4.5c0,2.3-1.8,4.1-5,4.1C656.2,653.9,654.2,652.3,653.4,650.3z"/>
	<path fill="#536078" d="M668.9,631.7h1.4v10.6c1-2.1,3-3.4,5.5-3.4c3.3,0,5.4,2.2,5.4,5.8v9.1h-1.4v-8.9c0-3-1.4-4.8-4.2-4.8
		c-3.1,0-5.4,2.1-5.4,5.5v8.2h-1.4V631.7z"/>
	<path fill="#536078" d="M685,646.3c0-4.2,3.4-7.6,7.6-7.6c4.3,0,7.5,3.4,7.5,7.6c0,4.2-3.3,7.6-7.5,7.6
		C688.4,653.9,685,650.5,685,646.3z M698.7,646.3c0-3.6-2.5-6.3-6.1-6.3c-3.6,0-6.2,2.7-6.2,6.3c0,3.6,2.5,6.4,6.2,6.4
		C696.3,652.7,698.7,649.9,698.7,646.3z"/>
	<path fill="#536078" d="M705.1,649.9v-9.5h-2.3v-1.2h2.3v-7.6h1.4v7.6h4.2v1.2h-4.2v9.5c0,2.1,0.8,2.9,2,2.9c1.3,0,1.8-0.5,2.3-1.1
		l0.9,0.9c-0.7,0.8-1.6,1.5-3.2,1.5C706.6,654.1,705.1,652.9,705.1,649.9z"/>
	<path fill="#536078" d="M715.1,657.5l1.1-0.6c1.3,2.4,3.3,3.6,6,3.6c3.6,0,5.7-1.8,5.7-6.2v-4.1c-1,2.1-3.4,3.8-6.2,3.8
		c-4.2,0-7.2-3.3-7.2-7.6c0-4.3,3-7.6,7.2-7.6c3,0,5.2,1.6,6.3,3.9l-0.1-3.6h1.4v15.3c0,5-2.7,7.3-7.1,7.3
		C718.8,661.8,716.4,659.9,715.1,657.5z M728.1,646.5c0-3.6-2.4-6.3-6.1-6.3c-3.6,0-5.9,2.7-5.9,6.3c0,3.6,2.3,6.4,5.9,6.4
		C725.7,652.8,728.1,650.1,728.1,646.5z"/>
	<path fill="#536078" d="M734.1,647.4v-8.2h1.4v8.1c0,3.5,1.4,5.5,4.7,5.5c3.3,0,4.7-2,4.7-5.5v-8.1h1.4v8.2c0,4.3-2.4,6.7-6.1,6.7
		C736.5,654.1,734.1,651.7,734.1,647.4z"/>
	<path fill="#536078" d="M750.4,639.2h1.4l0,3.3c1-2.2,3-3.6,5.6-3.6c3.3,0,5.4,2.2,5.4,5.8v9.1h-1.4v-8.9c0-3-1.4-4.8-4.2-4.8
		c-3.1,0-5.4,2.1-5.4,5.5v8.2h-1.4V639.2z"/>
</g>
<g>
	<polygon fill="#B3C9E9" points="691.7,526.9 680.4,534.1 693,540.2 	"/>
	<polygon fill="#B3C9E9" points="705.6,546.3 704.3,533 693,540.2 	"/>
	<polygon fill="#B3C9E9" points="705.6,546.3 718.2,552.5 716.9,539.1 705.6,546.3 	"/>
	<polygon fill="#536078" points="704.3,533 691.7,526.9 693,540.2 	"/>
	<polygon fill="#536078" points="716.9,539.1 704.3,533 705.6,546.3 	"/>
	<path fill="#8297BD" d="M693,540.2l-12.6-6.1l5.7,21.5c1.4,0.2,2.7,0.5,4,0.9L693,540.2z"/>
	<path fill="#8297BD" d="M694.8,558.3c0.4,0.2,0.8,0.4,1.2,0.6c1.1,0.6,2.3,1.1,3.5,1.6l18.7-8l-12.6-6.1L694.8,558.3z"/>
	<path fill="#536078" d="M705.6,546.3l-12.6-6.1l-2.8,16.3c1.6,0.5,3.1,1.1,4.6,1.8L705.6,546.3z"/>
</g>
<g>
	<rect x="653.6" y="666.1" fill="none" width="112.6" height="12"/>
	<path fill="#536078" d="M653.6,666.8h2.3l1.6,6.3h0l2-6.3h2l2,6.4h0l1.6-6.4h2.2l-2.9,9.8h-1.9l-2.1-6.8h0l-2.1,6.8h-1.8
		L653.6,666.8z"/>
	<path fill="#536078" d="M673.2,666.8h6.6v2h-4.5v1.8h4.2v2h-4.2v2h4.7v2h-6.9V666.8z"/>
	<path fill="#536078" d="M686.6,666.8h3.2c0.8,0,1.5,0.1,2.2,0.3c0.7,0.2,1.3,0.5,1.8,0.8c0.5,0.4,0.9,0.9,1.2,1.5
		c0.3,0.6,0.5,1.4,0.5,2.3c0,0.8-0.1,1.5-0.4,2.1c-0.3,0.6-0.7,1.1-1.2,1.5c-0.5,0.4-1.1,0.7-1.8,0.9c-0.7,0.2-1.4,0.3-2.1,0.3h-3.5
		V666.8z M688.7,674.6h1.1c0.5,0,1,0,1.4-0.2c0.4-0.1,0.8-0.3,1.1-0.5s0.6-0.5,0.7-0.9c0.2-0.4,0.3-0.8,0.3-1.4
		c0-0.5-0.1-0.9-0.3-1.2c-0.2-0.4-0.4-0.6-0.7-0.9c-0.3-0.2-0.7-0.4-1.1-0.5c-0.4-0.1-0.8-0.2-1.3-0.2h-1.3V674.6z"/>
	<path fill="#536078" d="M701.8,666.8h3.2c0.8,0,1.5,0.1,2.2,0.3c0.7,0.2,1.3,0.5,1.8,0.8c0.5,0.4,0.9,0.9,1.2,1.5
		c0.3,0.6,0.5,1.4,0.5,2.3c0,0.8-0.1,1.5-0.4,2.1c-0.3,0.6-0.7,1.1-1.2,1.5c-0.5,0.4-1.1,0.7-1.8,0.9c-0.7,0.2-1.4,0.3-2.1,0.3h-3.5
		V666.8z M704,674.6h1.1c0.5,0,1,0,1.4-0.2c0.4-0.1,0.8-0.3,1.1-0.5s0.6-0.5,0.7-0.9c0.2-0.4,0.3-0.8,0.3-1.4c0-0.5-0.1-0.9-0.3-1.2
		c-0.2-0.4-0.4-0.6-0.7-0.9c-0.3-0.2-0.7-0.4-1.1-0.5c-0.4-0.1-0.8-0.2-1.3-0.2H704V674.6z"/>
	<path fill="#536078" d="M717,666.8h2.1v9.8H717V666.8z"/>
	<path fill="#536078" d="M726,666.8h2.9l4.1,6.8h0v-6.8h2.1v9.8h-2.8l-4.3-6.9h0v6.9H726V666.8z"/>
	<path fill="#536078" d="M750.8,675.9c-0.6,0.3-1.3,0.6-2,0.7c-0.7,0.1-1.4,0.2-2.1,0.2c-0.8,0-1.5-0.1-2.1-0.4
		c-0.6-0.2-1.2-0.6-1.7-1c-0.5-0.4-0.8-1-1.1-1.6s-0.4-1.3-0.4-2.1c0-0.8,0.1-1.5,0.4-2.1s0.6-1.2,1.1-1.6c0.5-0.4,1-0.8,1.7-1
		c0.6-0.2,1.3-0.4,2.1-0.4c0.8,0,1.5,0.1,2.2,0.3c0.7,0.2,1.2,0.5,1.7,1l-1.5,1.7c-0.3-0.3-0.6-0.5-1-0.7c-0.4-0.2-0.8-0.2-1.4-0.2
		c-0.5,0-0.9,0.1-1.2,0.2c-0.4,0.2-0.7,0.4-1,0.7s-0.5,0.6-0.6,1c-0.1,0.4-0.2,0.8-0.2,1.3c0,0.5,0.1,0.9,0.2,1.3
		c0.1,0.4,0.3,0.7,0.6,1s0.6,0.5,1,0.7c0.4,0.2,0.8,0.2,1.2,0.2c0.5,0,0.9-0.1,1.2-0.2s0.6-0.2,0.8-0.3v-1.6H747v-2h3.8V675.9z"/>
	<path fill="#536078" d="M762.2,669.2c-0.2-0.2-0.4-0.4-0.7-0.5c-0.3-0.1-0.6-0.2-0.8-0.2c-0.2,0-0.3,0-0.5,0.1s-0.3,0.1-0.5,0.2
		c-0.1,0.1-0.3,0.2-0.4,0.3s-0.1,0.3-0.1,0.5c0,0.3,0.1,0.5,0.3,0.7s0.5,0.3,0.8,0.4c0.3,0.1,0.7,0.2,1.1,0.3
		c0.4,0.1,0.7,0.3,1.1,0.5c0.3,0.2,0.6,0.5,0.8,0.8s0.3,0.8,0.3,1.4c0,0.5-0.1,1-0.3,1.4s-0.5,0.7-0.8,1s-0.7,0.5-1.2,0.6
		c-0.5,0.1-0.9,0.2-1.4,0.2c-0.6,0-1.2-0.1-1.8-0.3c-0.5-0.2-1-0.5-1.5-0.9l1.5-1.7c0.2,0.3,0.5,0.5,0.8,0.7c0.3,0.2,0.7,0.2,1,0.2
		c0.2,0,0.4,0,0.5-0.1c0.2,0,0.3-0.1,0.5-0.2c0.1-0.1,0.3-0.2,0.3-0.3c0.1-0.1,0.1-0.3,0.1-0.5c0-0.3-0.1-0.5-0.3-0.7
		c-0.2-0.2-0.5-0.3-0.8-0.4c-0.3-0.1-0.7-0.2-1.1-0.4c-0.4-0.1-0.8-0.3-1.1-0.5s-0.6-0.5-0.8-0.8c-0.2-0.3-0.3-0.8-0.3-1.3
		c0-0.5,0.1-1,0.3-1.4c0.2-0.4,0.5-0.7,0.8-1c0.3-0.3,0.7-0.5,1.2-0.6c0.5-0.1,0.9-0.2,1.4-0.2c0.6,0,1.1,0.1,1.6,0.2
		c0.5,0.2,1,0.4,1.4,0.8L762.2,669.2z"/>
</g>
<g>
</g>
<g>
</g>
<g>
</g>
<g>
</g>
<g>
</g>
<g>
</g>
</svg>
