<?xml version="1.0" encoding="utf-8"?>
<!-- Generator: Adobe Illustrator 18.1.0, SVG Export Plug-In . SVG Version: 6.00 Build 0)  -->
<svg version="1.1" id="Layer_1" xmlns="http://www.w3.org/2000/svg" xmlns:xlink="http://www.w3.org/1999/xlink" x="0px" y="0px"
	 viewBox="0 0 1000 700" enable-background="new 0 0 1000 700" xml:space="preserve">
<path fill="none" d="M586,313c-41.6,0-75.4,33.8-75.4,75.4s33.8,75.4,75.4,75.4c41.6,0,75.4-33.8,75.4-75.4S627.6,313,586,313z"/>
<polygon fill="none" points="490.3,264.5 490.3,264.5 486.2,222.6 490.3,264.5 "/>
<polygon fill="#B3C9E9" points="490.3,264.5 490.3,264.5 490.3,264.5 "/>
<polygon fill="#536078" points="490.3,264.5 525.8,241.9 490.3,264.5 "/>
<polygon fill="#536078" points="490.3,264.5 490.3,264.5 490.3,264.5 "/>
<polygon fill="#536078" points="490.3,264.5 450.8,245.2 490.3,264.5 "/>
<rect x="490.3" y="264.5" fill="#536078" width="0" height="0"/>
<path d="M586,292.2c-16.7,0-32.4,4.2-46.1,11.7c-21.1,11.6-46.4,13.2-68.8,5c-3.8-1.4-7.4-3-11-5c-1.2-0.6-2.5-1.3-3.7-1.9
	c-4.7-2.3-9.5-4.2-14.5-5.7c-4.1-1.2-8.4-2.2-12.7-2.9c-5-0.8-10-1.3-15.2-1.3c-54.7,0-98.7,45.5-96.2,100.7
	c2.3,49.5,43.3,90,92.8,91.7c17.4,0.6,33.8-3.4,48-10.9c26.1-13.7,56.6-13.7,82.7,0c14.3,7.5,30.7,11.5,48,10.9
	c49.5-1.7,90.5-42.2,92.8-91.7C684.7,337.7,640.7,292.2,586,292.2z M414,463.7c-41.5,0-75.3-33.8-75.3-75.3
	c0-41.5,33.8-75.3,75.3-75.3c7.4,0,14.5,1.1,21.3,3.1c1,0.3,2,0.6,3,1c1.2,0.4,2.3,0.8,3.4,1.3c1.2,0.5,2.4,1,3.6,1.5
	c25.9,11.9,44,38.1,44,68.4C489.3,429.9,455.5,463.7,414,463.7z M586,463.8c-41.6,0-75.4-33.8-75.4-75.4c0-41.6,33.8-75.4,75.4-75.4
	c41.6,0,75.4,33.8,75.4,75.4C661.5,430,627.6,463.8,586,463.8z"/>
<path fill="#E6E7E8" d="M664.7,355c-0.7-17.6-6.3-35-15.4-50c-14.2-23.3-60.6-32.4-57.6-65.7c2.5-28,28.6-45.8,44.5-66.2
	c19.1-24.5,32.1-58,26.5-89.3c-4.9-27.8-22.5-52.4-49.8-61.8c0,0,8.6,14.1,10.2,17.3c6.8,13.2,13.9,27.7,4.2,41.5
	c-6.2,8.8-15.9,14.3-25,20.1c-54.9,35-125,101.7-89.1,172.8c16.5,32.6,46.6,37,77.4,39.8c22.5,2,40.5,12.2,54.9,29.4
	c9.6,12.6,14.4,26.4,15.8,42.1c0,0,1.7-8.2,2.2-11.3C664.6,367.4,664.9,361.2,664.7,355z"/>
<path fill="#D1D3D4" d="M498.8,203.4c2.9-22.1,16.8-41.7,30.4-58.6c13.6-16.9,29.8-31.8,47.9-43.9c12.2-8.2,29.7-13.6,37.7-26.6
	c7.3-11.9,3.5-25.6-5.1-35.4c4.9,10.5,4.2,24.2-4,32.3c-14.4,14.2-35,8.8-52.6,14.4c-22.3,7-37.4,25.6-45.5,46.8
	c-4.1,10.8-6.6,22.2-7.8,33.7C498.3,178.5,497.3,198.8,498.8,203.4z"/>
<path fill="#D1D3D4" d="M651.3,290.4c-0.3-0.7-1.6-1.8-2.2-2.4c-0.9-0.9-1.7-1.8-2.6-2.7c-5.5-5.5-11.6-10.3-17.7-15.2
	c-5.2-4.2-10.4-8.7-13.9-14.4c-3.8-6.1-5-13.2-3.9-20.3c1.5-9.3,6.5-17.8,12.4-25c5.6-6.7,12.7-12,18.5-18.5
	c13-14.8,22.7-32.7,27.6-51.8c3.5-13.6,4.7-27.4,2.6-41.3c9.9,18.4,12.1,40.4,8.7,60.8c-1.7,10.2-4.8,20.2-9.5,29.5
	c-5.3,10.4-14,19.2-21.7,28c-6.1,7-11.9,13.9-13.6,23.4C633.1,256.6,644.7,272.5,651.3,290.4z"/>
<g>
	<path d="M326.4,590.8l3.8-1.7c2.5,5.4,6.9,9.2,14.6,9.2c7,0,11.5-3.5,11.5-8.8c0-6.3-4.4-7.9-12.7-10.4
		c-7.7-2.2-14.1-4.9-14.1-13.1c0-6.7,6.1-11.5,13.7-11.5c7.1,0,11.7,3.4,14.6,8.6l-3.4,2c-2.2-3.9-6-6.8-11.2-6.8
		c-5.8,0-9.5,3-9.5,7.4c0,5.3,2.8,7,11.8,9.7c8.3,2.5,15.3,5.5,15.3,14c0,7.3-5.6,12.8-15.8,12.8C335.2,602.2,329,597,326.4,590.8z"
		/>
	<path d="M374.9,532.6h4.4v33.2c3-6.5,9.3-10.8,17.4-10.8c10.2,0,17.1,6.8,17.1,18.2v28.6h-4.4V574c0-9.4-4.4-14.9-13.2-14.9
		c-9.9,0-16.8,6.5-16.8,17.2v25.6h-4.4V532.6z"/>
	<path d="M425.6,578.3c0-13.1,10.6-23.8,23.9-23.8s23.7,10.7,23.7,23.8c0,13.1-10.3,23.9-23.7,23.9S425.6,591.5,425.6,578.3z
		 M468.7,578.3c0-11.3-7.7-19.9-19.2-19.9c-11.5,0-19.4,8.5-19.4,19.9c0,11.3,8,20,19.4,20C461,598.3,468.7,589.7,468.7,578.3z"/>
	<path d="M488.8,589.7v-30h-7.2V556h7.2v-23.9h4.4V556h13.2v3.7h-13.2v29.9c0,6.7,2.4,9.2,6.2,9.2c4,0,5.6-1.6,7.3-3.4l2.8,2.7
		c-2.2,2.6-4.9,4.6-10.1,4.6C493.5,602.7,488.8,599,488.8,589.7z"/>
	<path d="M520.1,613.5l3.6-2c4.2,7.5,10.2,11.5,19,11.5c11.5,0,18-5.6,18-19.4v-12.8c-3.3,6.7-10.6,12-19.4,12
		c-13.1,0-22.7-10.4-22.7-23.9c0-13.5,9.5-23.8,22.7-23.8c9.3,0,16.2,5.2,19.6,12.2l-0.2-11.2h4.4v47.9c0,15.6-8.5,22.9-22.2,22.9
		C531.8,626.8,524,621.1,520.1,613.5z M561,578.8c0-11.3-7.6-19.9-19.2-19.9c-11.3,0-18.6,8.5-18.6,19.9c0,11.3,7.3,20,18.6,20
		C553.3,598.8,561,590.1,561,578.8z"/>
	<path d="M579.6,581.7V556h4.4v25.4c0,11.1,4.5,17.3,14.8,17.3c10.3,0,14.8-6.2,14.8-17.3V556h4.4v25.7c0,13.5-7.6,21-19.2,21
		C587.3,602.7,579.6,595.2,579.6,581.7z"/>
	<path d="M630.9,556h4.4l-0.1,10.2c3-7,9.4-11.2,17.5-11.2c10.2,0,17.1,6.8,17.1,18.2v28.6h-4.4V574c0-9.4-4.4-14.9-13.2-14.9
		c-9.9,0-16.8,6.5-16.8,17.2v25.6h-4.4V556z"/>
</g>
<g>
	<g>
		<polygon fill="#FFFFFF" points="446.6,203.4 411.2,226 450.8,245.2 		"/>
	</g>
	<g>
		<polygon fill="#FFFFFF" points="490.3,264.5 486.2,222.6 450.8,245.2 		"/>
	</g>
	<g>
		<polygon fill="#FFFFFF" points="490.3,264.5 529.9,283.7 525.8,241.9 490.3,264.5 		"/>
	</g>
	<polygon points="486.2,222.6 446.6,203.4 450.8,245.2 	"/>
	<polygon points="525.8,241.9 486.2,222.6 490.3,264.5 	"/>
	<path fill="#D1D3D4" d="M450.8,245.2L411.2,226l18,67.4c4.3,0.7,8.6,1.7,12.7,2.9L450.8,245.2z"/>
	<path fill="#D1D3D4" d="M456.4,302.1c1.2,0.6,2.5,1.2,3.7,1.9c3.5,1.9,7.2,3.6,11,4.9l58.8-25.2l-39.6-19.2L456.4,302.1z"/>
	<path d="M490.3,264.5l-39.6-19.2l-8.9,51.1c5,1.5,9.9,3.4,14.5,5.7L490.3,264.5z"/>
</g>
<g>
	<rect x="327.1" y="640.5" fill="none" width="353.4" height="37.5"/>
	<path d="M327,642.6h7.4l4.9,19.6h0.1l6.4-19.6h6.3l6.4,20.2h0.1l5.1-20.2h6.8l-9,30.6h-6l-6.7-21.2h-0.1l-6.7,21.2h-5.8L327,642.6z
		"/>
	<path d="M388.2,642.6H409v6.2h-14.1v5.7h13.3v6.2h-13.3v6.2h14.8v6.2h-21.6V642.6z"/>
	<path d="M429.8,642.6h10.1c2.5,0,4.8,0.3,7,0.8c2.2,0.5,4.1,1.4,5.8,2.7s2.9,2.8,3.9,4.8c1,2,1.4,4.3,1.4,7.1
		c0,2.5-0.5,4.7-1.4,6.6c-0.9,1.9-2.2,3.5-3.8,4.8c-1.6,1.3-3.4,2.3-5.5,2.9c-2.1,0.7-4.3,1-6.5,1h-11V642.6z M436.5,667h3.5
		c1.6,0,3-0.2,4.3-0.5s2.5-0.8,3.5-1.6c1-0.7,1.8-1.7,2.3-2.9c0.6-1.2,0.8-2.7,0.8-4.4c0-1.5-0.3-2.8-0.8-3.9
		c-0.6-1.1-1.3-2-2.3-2.7s-2.1-1.3-3.4-1.6c-1.3-0.4-2.6-0.5-4-0.5h-4V667z"/>
	<path d="M477.2,642.6h10.1c2.5,0,4.8,0.3,7,0.8c2.2,0.5,4.1,1.4,5.8,2.7c1.6,1.2,2.9,2.8,3.9,4.8s1.4,4.3,1.4,7.1
		c0,2.5-0.5,4.7-1.4,6.6c-0.9,1.9-2.2,3.5-3.8,4.8c-1.6,1.3-3.4,2.3-5.5,2.9c-2.1,0.7-4.3,1-6.5,1h-11V642.6z M484,667h3.5
		c1.6,0,3-0.2,4.3-0.5s2.5-0.8,3.5-1.6c1-0.7,1.8-1.7,2.3-2.9c0.6-1.2,0.8-2.7,0.8-4.4c0-1.5-0.3-2.8-0.8-3.9
		c-0.6-1.1-1.3-2-2.3-2.7s-2.1-1.3-3.4-1.6c-1.3-0.4-2.6-0.5-4-0.5h-4V667z"/>
	<path d="M524.7,642.6h6.7v30.6h-6.7V642.6z"/>
	<path d="M552.3,642.6h9.2l13,21.3h0.1v-21.3h6.7v30.6h-8.8l-13.4-21.8H559v21.8h-6.7V642.6z"/>
	<path d="M629.9,671.1c-2,1-4.1,1.8-6.2,2.2c-2.2,0.5-4.4,0.7-6.6,0.7c-2.4,0-4.6-0.4-6.6-1.1c-2-0.8-3.8-1.8-5.2-3.2
		c-1.5-1.4-2.6-3.1-3.4-5.1c-0.8-2-1.2-4.2-1.2-6.7c0-2.5,0.4-4.7,1.2-6.7c0.8-2,2-3.7,3.4-5.1c1.5-1.4,3.2-2.5,5.2-3.2
		c2-0.8,4.2-1.1,6.6-1.1c2.5,0,4.7,0.3,6.8,0.9c2.1,0.6,3.9,1.6,5.4,3l-4.8,5.2c-0.9-1-2-1.7-3.1-2.2s-2.6-0.7-4.3-0.7
		c-1.4,0-2.7,0.2-3.9,0.7s-2.2,1.2-3,2.1c-0.8,0.9-1.5,1.9-1.9,3.1s-0.7,2.5-0.7,3.9c0,1.4,0.2,2.8,0.7,4s1.1,2.2,1.9,3.1
		c0.8,0.9,1.8,1.6,3,2.1c1.2,0.5,2.5,0.7,3.9,0.7c1.5,0,2.7-0.2,3.8-0.5c1.1-0.3,1.9-0.7,2.6-1v-5h-5.5v-6.2h12V671.1z"/>
	<path d="M665.3,650.1c-0.5-0.7-1.3-1.2-2.2-1.5c-0.9-0.3-1.8-0.5-2.7-0.5c-0.5,0-1,0.1-1.5,0.2s-1,0.3-1.5,0.5s-0.8,0.6-1.1,1
		c-0.3,0.4-0.4,0.9-0.4,1.5c0,0.9,0.3,1.6,1,2.1c0.7,0.5,1.6,0.9,2.6,1.3c1.1,0.3,2.2,0.7,3.4,1c1.2,0.3,2.3,0.8,3.4,1.5
		c1.1,0.6,1.9,1.5,2.6,2.6c0.7,1.1,1,2.5,1,4.3c0,1.7-0.3,3.2-1,4.5c-0.6,1.3-1.5,2.3-2.6,3.2c-1.1,0.8-2.3,1.5-3.8,1.9
		c-1.4,0.4-2.9,0.6-4.5,0.6c-2,0-3.8-0.3-5.5-0.9c-1.7-0.6-3.3-1.6-4.8-2.9l4.8-5.3c0.7,0.9,1.6,1.6,2.6,2.1
		c1.1,0.5,2.1,0.8,3.3,0.8c0.5,0,1.1-0.1,1.7-0.2c0.6-0.1,1.1-0.3,1.5-0.6c0.4-0.3,0.8-0.6,1.1-1c0.3-0.4,0.4-0.9,0.4-1.4
		c0-0.9-0.4-1.7-1.1-2.2c-0.7-0.5-1.6-1-2.7-1.4c-1.1-0.4-2.2-0.7-3.5-1.1c-1.2-0.4-2.4-0.9-3.5-1.5c-1.1-0.6-2-1.5-2.7-2.5
		c-0.7-1-1.1-2.4-1.1-4.1c0-1.6,0.3-3.1,1-4.3c0.6-1.2,1.5-2.3,2.6-3.1c1.1-0.8,2.3-1.5,3.7-1.9c1.4-0.4,2.9-0.6,4.4-0.6
		c1.7,0,3.4,0.2,5,0.7s3.1,1.3,4.4,2.5L665.3,650.1z"/>
</g>
<g>
</g>
<g>
</g>
<g>
</g>
<g>
</g>
<g>
</g>
<g>
</g>
</svg>
