<?xml version="1.0" encoding="utf-8"?>
<!-- Generator: Adobe Illustrator 18.1.0, SVG Export Plug-In . SVG Version: 6.00 Build 0)  -->
<svg version="1.1" id="Layer_1" xmlns="http://www.w3.org/2000/svg" xmlns:xlink="http://www.w3.org/1999/xlink" x="0px" y="0px"
	 viewBox="-199.9 0 1400 700" enable-background="new -199.9 0 1400 700" xml:space="preserve">
<path id="XMLID_1_" fill="#10838C" d="M281.2,671L112.7,379c-10.3-18-10.3-40.1,0-58.1L281.2,29c10.3-18,29.5-29,50.3-29h337
	c20.8,0,40,11,50.3,29L887.5,321c10.3,18,10.3,40.1,0,58.1L718.8,671c-10.3,18-29.5,29-50.3,29h-337
	C310.7,700,291.5,688.8,281.2,671z"/>
<rect x="290.7" y="477.5" fill="#2A2F36" width="420.9" height="12.2"/>
<rect x="351.6" y="208.6" fill="#2A2F36" width="359.8" height="12.2"/>
<g>
	<rect x="686.7" y="260.1" fill="#2A2F36" width="12.2" height="184.8"/>
	<path fill="#2A2F36" d="M677,264.4l12.7-21.8c1.3-2.3,4.8-2.3,6.2,0l12.7,21.8c1.3,2.3-0.3,5.3-3.2,5.3h-25.1
		C677.3,269.7,675.7,266.7,677,264.4z"/>
	<path fill="#2A2F36" d="M708.3,434.1l-12.7,21.8c-1.3,2.3-4.8,2.3-6.2,0l-12.7-21.8c-1.3-2.3,0.3-5.3,3.2-5.3h25.1
		C708,428.8,709.8,431.8,708.3,434.1z"/>
</g>
<g>
	<polygon fill="#FFFFFF" points="351.6,220.8 294.4,220.8 351.6,278.1 	"/>
	<polygon fill="#FFFFFF" points="473.5,220.8 412.6,220.8 412.6,323.5 397.1,323.5 473.5,400.1 	"/>
	<path fill="#FFFFFF" d="M600.7,303c-21.8,0-37.8,7.7-48.8,19.6V221h-59.1v198.6l58.1,58.1h1V367c3.2-4.8,11.8-13.2,24.6-13.2
		c16,0,18,11.5,18,19.6v104.2h59.1V363.8C653.7,333.2,640.9,303,600.7,303z"/>
	<polygon fill="#DDDDDD" points="473.5,400.1 473.5,477.5 412.6,477.5 412.6,376.1 351.6,376.1 351.6,477.5 290.7,477.5 
		290.7,220.8 294.4,220.8 351.6,278.1 351.6,323.5 397.1,323.5 	"/>
	<polygon fill="#DDDDDD" points="493,477.5 551,477.5 493,419.4 	"/>
</g>
<circle fill="none" stroke="#61C791" stroke-width="6" stroke-miterlimit="10" cx="573.4" cy="363.2" r="33.1"/>
<circle fill="none" stroke="#61C791" stroke-width="6" stroke-miterlimit="10" cx="319.8" cy="220.8" r="33.1"/>
<rect x="-453.1" y="616.4" fill="#61C791" width="131.5" height="194.8"/>
<rect x="-453.1" y="843.7" fill="#E0FFB3" width="131.5" height="194.8"/>
<rect x="-453.1" y="135.2" fill="#F1475E" width="131.5" height="194.8"/>
<rect x="-453.1" y="-338.5" fill="#3A3A3A" width="131.5" height="194.8"/>
<rect x="-472.2" y="359.2" fill="#2A2F36" width="131.5" height="194.8"/>
<rect x="-453.1" y="-117.4" fill="#10838C" width="131.5" height="194.8"/>
</svg>
