<?xml version="1.0" encoding="utf-8"?>
<!-- Generator: Adobe Illustrator 18.1.0, SVG Export Plug-In . SVG Version: 6.00 Build 0)  -->
<svg version="1.1" id="Layer_1" xmlns="http://www.w3.org/2000/svg" xmlns:xlink="http://www.w3.org/1999/xlink" x="0px" y="0px"
	 viewBox="0 0 474.6 420.4" enable-background="new 0 0 474.6 420.4" xml:space="preserve">
<path id="XMLID_1_" fill="#10838C" d="M105.9,403L4.7,227.6c-6.2-10.8-6.2-24.1,0-34.9L105.9,17.4C112.1,6.6,123.6,0,136.1,0h202.4
	c12.5,0,24,6.6,30.2,17.4L470,192.8c6.2,10.8,6.2,24.1,0,34.9L368.7,403c-6.2,10.8-17.7,17.4-30.2,17.4H136.1
	C123.6,420.4,112.1,413.7,105.9,403z"/>
<rect x="111.6" y="286.8" fill="#2A2F36" width="252.8" height="7.3"/>
<rect x="148.2" y="125.3" fill="#2A2F36" width="216.1" height="7.3"/>
<g>
	<rect x="349.4" y="156.2" fill="#2A2F36" width="7.3" height="111"/>
	<path fill="#2A2F36" d="M343.6,158.8l7.6-13.1c0.8-1.4,2.9-1.4,3.7,0l7.6,13.1c0.8,1.4-0.2,3.2-1.9,3.2h-15.1
		C343.8,162,342.8,160.2,343.6,158.8z"/>
	<path fill="#2A2F36" d="M362.4,260.7l-7.6,13.1c-0.8,1.4-2.9,1.4-3.7,0l-7.6-13.1c-0.8-1.4,0.2-3.2,1.9-3.2h15.1
		C362.2,257.5,363.3,259.3,362.4,260.7z"/>
</g>
<g>
	<polygon fill="#FFFFFF" points="148.2,132.6 113.8,132.6 148.2,167 	"/>
	<polygon fill="#FFFFFF" points="221.4,132.6 184.8,132.6 184.8,194.3 175.5,194.3 221.4,240.3 	"/>
	<path fill="#FFFFFF" d="M297.8,182c-13.1,0-22.7,4.6-29.3,11.8v-61.1h-35.5v119.3l34.9,34.9h0.6v-66.5c1.9-2.9,7.1-7.9,14.8-7.9
		c9.6,0,10.8,6.9,10.8,11.8v62.6h35.5v-68.4C329.6,200.1,321.9,182,297.8,182z"/>
	<polygon fill="#DDDDDD" points="221.4,240.3 221.4,286.8 184.8,286.8 184.8,225.9 148.2,225.9 148.2,286.8 111.6,286.8 
		111.6,132.6 113.8,132.6 148.2,167 148.2,194.3 175.5,194.3 	"/>
	<polygon fill="#DDDDDD" points="233.1,286.8 267.9,286.8 233.1,251.9 	"/>
</g>
<circle fill="none" stroke="#61C791" stroke-width="6" stroke-miterlimit="10" cx="281.4" cy="218.1" r="19.9"/>
<circle fill="none" stroke="#61C791" stroke-width="6" stroke-miterlimit="10" cx="129.1" cy="132.6" r="19.9"/>
<rect x="-335.1" y="370.2" fill="#61C791" width="79" height="117"/>
<rect x="-335.1" y="506.7" fill="#E0FFB3" width="79" height="117"/>
<rect x="-335.1" y="81.2" fill="#F1475E" width="79" height="117"/>
<rect x="-335.1" y="-203.3" fill="#3A3A3A" width="79" height="117"/>
<rect x="-346.6" y="215.7" fill="#2A2F36" width="79" height="117"/>
<rect x="-335.1" y="-70.5" fill="#10838C" width="79" height="117"/>
</svg>
